G04 PROTEUS RS274X GERBER FILE*
%FSLAX45Y45*%
%MOMM*%
G01*
%ADD73C,0.203200*%
%ADD44C,0.533400*%
%ADD45C,0.372190*%
%ADD46C,0.340100*%
%ADD47C,0.050000*%
%ADD48C,0.285000*%
%ADD49C,0.469390*%
%ADD50C,0.386080*%
%ADD51C,0.316990*%
%ADD52C,0.312190*%
%ADD53C,0.345440*%
%ADD54C,0.171250*%
%ADD55C,0.240790*%
%ADD56C,0.106680*%
%ADD57C,0.172210*%
%ADD58C,0.164590*%
%ADD59C,0.132080*%
%ADD60C,0.192190*%
%ADD61C,0.193380*%
%ADD62C,0.145040*%
%TD.AperFunction*%
D73*
X-5000000Y-5000000D02*
X+5000000Y-5000000D01*
X+5000000Y+5000000D01*
X-5000000Y+5000000D01*
X-5000000Y-5000000D01*
X+3024760Y-629740D02*
X+3913760Y-629740D01*
X+3913760Y+2819580D01*
X+3024760Y+2819580D01*
X+3024760Y-629740D01*
D44*
X+3309240Y+668200D02*
X+3575940Y+668200D01*
X+3629280Y+721540D01*
X+3629280Y+934900D01*
X+3575940Y+988240D01*
X+3309240Y+988240D01*
X+3415920Y+1201600D02*
X+3309240Y+1308280D01*
X+3629280Y+1308280D01*
D73*
X+4246100Y-2873780D02*
X+4866420Y-2873780D01*
X+4866420Y-1293460D01*
X+4246100Y-1293460D01*
X+4246100Y-2873780D01*
D45*
X+4593480Y-2381373D02*
X+4630699Y-2381373D01*
X+4667918Y-2344154D01*
X+4667918Y-2195278D01*
X+4630699Y-2158059D01*
X+4444603Y-2158059D01*
X+4444603Y-2046401D02*
X+4444603Y-1860306D01*
X+4481822Y-1860306D01*
X+4667918Y-2046401D01*
D73*
X-3264880Y-1254320D02*
X-704560Y-1254320D01*
X-704560Y-365320D01*
X-3264880Y-365320D01*
X-3264880Y-1254320D01*
D44*
X-2411440Y-649800D02*
X-2411440Y-916500D01*
X-2358100Y-969840D01*
X-2144740Y-969840D01*
X-2091400Y-916500D01*
X-2091400Y-649800D01*
X-1664680Y-703140D02*
X-1718020Y-649800D01*
X-1878040Y-649800D01*
X-1931380Y-703140D01*
X-1931380Y-916500D01*
X-1878040Y-969840D01*
X-1718020Y-969840D01*
X-1664680Y-916500D01*
X-1664680Y-863160D01*
X-1718020Y-809820D01*
X-1931380Y-809820D01*
D73*
X+2146040Y-3377320D02*
X+3035040Y-3377320D01*
X+3035040Y-1071000D01*
X+2146040Y-1071000D01*
X+2146040Y-3377320D01*
D44*
X+2430520Y-2650880D02*
X+2697220Y-2650880D01*
X+2750560Y-2597540D01*
X+2750560Y-2384180D01*
X+2697220Y-2330840D01*
X+2430520Y-2330840D01*
X+2643880Y-1904120D02*
X+2643880Y-2224160D01*
X+2430520Y-2010800D01*
X+2750560Y-2010800D01*
D73*
X-736180Y+477200D02*
X+1316140Y+477200D01*
X+1316140Y+1366200D01*
X-736180Y+1366200D01*
X-736180Y+477200D01*
D44*
X-136740Y+1081720D02*
X-136740Y+815020D01*
X-83400Y+761680D01*
X+129960Y+761680D01*
X+183300Y+815020D01*
X+183300Y+1081720D01*
X+343320Y+1028380D02*
X+396660Y+1081720D01*
X+556680Y+1081720D01*
X+610020Y+1028380D01*
X+610020Y+975040D01*
X+556680Y+921700D01*
X+396660Y+921700D01*
X+343320Y+868360D01*
X+343320Y+761680D01*
X+610020Y+761680D01*
D73*
X-3158180Y+473200D02*
X-1105860Y+473200D01*
X-1105860Y+1362200D01*
X-3158180Y+1362200D01*
X-3158180Y+473200D01*
D44*
X-2558740Y+1077720D02*
X-2558740Y+811020D01*
X-2505400Y+757680D01*
X-2292040Y+757680D01*
X-2238700Y+811020D01*
X-2238700Y+1077720D01*
X-2078680Y+1024380D02*
X-2025340Y+1077720D01*
X-1865320Y+1077720D01*
X-1811980Y+1024380D01*
X-1811980Y+971040D01*
X-1865320Y+917700D01*
X-1811980Y+864360D01*
X-1811980Y+811020D01*
X-1865320Y+757680D01*
X-2025340Y+757680D01*
X-2078680Y+811020D01*
X-1972000Y+917700D02*
X-1865320Y+917700D01*
D73*
X-495880Y-1248320D02*
X+1302440Y-1248320D01*
X+1302440Y-359320D01*
X-495880Y-359320D01*
X-495880Y-1248320D01*
D44*
X-23440Y-643800D02*
X-23440Y-910500D01*
X+29900Y-963840D01*
X+243260Y-963840D01*
X+296600Y-910500D01*
X+296600Y-643800D01*
X+723320Y-643800D02*
X+456620Y-643800D01*
X+456620Y-750480D01*
X+669980Y-750480D01*
X+723320Y-803820D01*
X+723320Y-910500D01*
X+669980Y-963840D01*
X+509960Y-963840D01*
X+456620Y-910500D01*
D73*
X+4111460Y+3086120D02*
X+4731780Y+3086120D01*
X+4731780Y+4106440D01*
X+4111460Y+4106440D01*
X+4111460Y+3086120D01*
D46*
X+4455631Y+3324196D02*
X+4489642Y+3324196D01*
X+4523652Y+3358206D01*
X+4523652Y+3494248D01*
X+4489642Y+3528259D01*
X+4319589Y+3528259D01*
X+4319589Y+3800343D02*
X+4319589Y+3630290D01*
X+4387610Y+3630290D01*
X+4387610Y+3766332D01*
X+4421620Y+3800343D01*
X+4489642Y+3800343D01*
X+4523652Y+3766332D01*
X+4523652Y+3664301D01*
X+4489642Y+3630290D01*
D73*
X+4107960Y+2022640D02*
X+4728280Y+2022640D01*
X+4728280Y+3042960D01*
X+4107960Y+3042960D01*
X+4107960Y+2022640D01*
D46*
X+4452131Y+2260716D02*
X+4486142Y+2260716D01*
X+4520152Y+2294726D01*
X+4520152Y+2430768D01*
X+4486142Y+2464779D01*
X+4316089Y+2464779D01*
X+4350099Y+2736863D02*
X+4316089Y+2702852D01*
X+4316089Y+2600821D01*
X+4350099Y+2566810D01*
X+4486142Y+2566810D01*
X+4520152Y+2600821D01*
X+4520152Y+2702852D01*
X+4486142Y+2736863D01*
X+4452131Y+2736863D01*
X+4418120Y+2702852D01*
X+4418120Y+2566810D01*
D47*
X-4464940Y+3385680D02*
X-4465026Y+3387756D01*
X-4465728Y+3391909D01*
X-4467198Y+3396062D01*
X-4469600Y+3400215D01*
X-4473273Y+3404314D01*
X-4477426Y+3407323D01*
X-4481579Y+3409240D01*
X-4485732Y+3410323D01*
X-4489885Y+3410680D01*
X-4489940Y+3410680D01*
X-4514940Y+3385680D02*
X-4514854Y+3387756D01*
X-4514152Y+3391909D01*
X-4512682Y+3396062D01*
X-4510280Y+3400215D01*
X-4506607Y+3404314D01*
X-4502454Y+3407323D01*
X-4498301Y+3409240D01*
X-4494148Y+3410323D01*
X-4489995Y+3410680D01*
X-4489940Y+3410680D01*
X-4514940Y+3385680D02*
X-4514854Y+3383604D01*
X-4514152Y+3379451D01*
X-4512682Y+3375298D01*
X-4510280Y+3371145D01*
X-4506607Y+3367046D01*
X-4502454Y+3364037D01*
X-4498301Y+3362120D01*
X-4494148Y+3361037D01*
X-4489995Y+3360680D01*
X-4489940Y+3360680D01*
X-4464940Y+3385680D02*
X-4465026Y+3383604D01*
X-4465728Y+3379451D01*
X-4467198Y+3375298D01*
X-4469600Y+3371145D01*
X-4473273Y+3367046D01*
X-4477426Y+3364037D01*
X-4481579Y+3362120D01*
X-4485732Y+3361037D01*
X-4489885Y+3360680D01*
X-4489940Y+3360680D01*
X-4524940Y+3385680D02*
X-4454940Y+3385680D01*
X-4489940Y+3350680D02*
X-4489940Y+3420680D01*
X-4064940Y+2960680D02*
X-4064940Y+3385680D01*
X-4067086Y+3429849D01*
X-4073396Y+3472579D01*
X-4083675Y+3513674D01*
X-4097728Y+3552941D01*
X-4115361Y+3590184D01*
X-4136379Y+3625209D01*
X-4160587Y+3657822D01*
X-4187792Y+3687828D01*
X-4217798Y+3715033D01*
X-4250411Y+3739241D01*
X-4285436Y+3760259D01*
X-4322680Y+3777892D01*
X-4361946Y+3791945D01*
X-4403041Y+3802224D01*
X-4445771Y+3808533D01*
X-4489940Y+3810680D01*
X-4534109Y+3808533D01*
X-4576839Y+3802224D01*
X-4617934Y+3791945D01*
X-4657200Y+3777892D01*
X-4694444Y+3760259D01*
X-4729469Y+3739241D01*
X-4762082Y+3715033D01*
X-4792088Y+3687828D01*
X-4819293Y+3657822D01*
X-4843501Y+3625209D01*
X-4864519Y+3590184D01*
X-4882152Y+3552941D01*
X-4896205Y+3513674D01*
X-4906484Y+3472579D01*
X-4912794Y+3429849D01*
X-4914940Y+3385680D01*
X-4912794Y+3341511D01*
X-4906484Y+3298781D01*
X-4896205Y+3257686D01*
X-4882152Y+3218419D01*
X-4864519Y+3181176D01*
X-4843501Y+3146151D01*
X-4819293Y+3113538D01*
X-4792088Y+3083532D01*
X-4762082Y+3056327D01*
X-4729469Y+3032119D01*
X-4694444Y+3011101D01*
X-4657200Y+2993468D01*
X-4617934Y+2979415D01*
X-4576839Y+2969136D01*
X-4534109Y+2962827D01*
X-4489940Y+2960680D01*
X-4064940Y+2960680D01*
D48*
X-4546940Y+3328680D02*
X-4575440Y+3300180D01*
X-4660940Y+3300180D01*
X-4717940Y+3357180D01*
X-4717940Y+3414180D01*
X-4660940Y+3471180D01*
X-4575440Y+3471180D01*
X-4546940Y+3442680D01*
X-4318940Y+3414180D02*
X-4347440Y+3385680D01*
X-4432940Y+3385680D01*
X-4461440Y+3414180D01*
X-4461440Y+3442680D01*
X-4432940Y+3471180D01*
X-4347440Y+3471180D01*
X-4318940Y+3442680D01*
X-4318940Y+3328680D01*
X-4347440Y+3300180D01*
X-4432940Y+3300180D01*
D73*
X-3336260Y-4381900D02*
X-1791940Y-4381900D01*
X-1791940Y-3599580D01*
X-3336260Y-3599580D01*
X-3336260Y-4381900D01*
D49*
X-2939613Y-4037680D02*
X-2939613Y-4084619D01*
X-2892674Y-4131558D01*
X-2704918Y-4131558D01*
X-2657979Y-4084619D01*
X-2657979Y-3849923D01*
X-2470222Y-3943801D02*
X-2376344Y-3849923D01*
X-2376344Y-4131558D01*
D73*
X-486140Y-4382220D02*
X+1058180Y-4382220D01*
X+1058180Y-3599900D01*
X-486140Y-3599900D01*
X-486140Y-4382220D01*
D49*
X-89493Y-4038000D02*
X-89493Y-4084939D01*
X-42554Y-4131878D01*
X+145202Y-4131878D01*
X+192141Y-4084939D01*
X+192141Y-3850243D01*
X+332959Y-3897182D02*
X+379898Y-3850243D01*
X+520715Y-3850243D01*
X+567654Y-3897182D01*
X+567654Y-3944121D01*
X+520715Y-3991060D01*
X+567654Y-4038000D01*
X+567654Y-4084939D01*
X+520715Y-4131878D01*
X+379898Y-4131878D01*
X+332959Y-4084939D01*
X+426837Y-3991060D02*
X+520715Y-3991060D01*
D73*
X-3183180Y+3767540D02*
X-1638860Y+3767540D01*
X-1638860Y+4549860D01*
X-3183180Y+4549860D01*
X-3183180Y+3767540D01*
D49*
X-2786533Y+4111760D02*
X-2786533Y+4064821D01*
X-2739594Y+4017882D01*
X-2551838Y+4017882D01*
X-2504899Y+4064821D01*
X-2504899Y+4299517D01*
X-2129386Y+4205639D02*
X-2176325Y+4158700D01*
X-2317142Y+4158700D01*
X-2364081Y+4205639D01*
X-2364081Y+4252578D01*
X-2317142Y+4299517D01*
X-2176325Y+4299517D01*
X-2129386Y+4252578D01*
X-2129386Y+4064821D01*
X-2176325Y+4017882D01*
X-2317142Y+4017882D01*
D73*
X-1660180Y+3765540D02*
X-115860Y+3765540D01*
X-115860Y+4547860D01*
X-1660180Y+4547860D01*
X-1660180Y+3765540D01*
D50*
X-1351316Y+4118092D02*
X-1351316Y+4079484D01*
X-1312708Y+4040876D01*
X-1158276Y+4040876D01*
X-1119668Y+4079484D01*
X-1119668Y+4272524D01*
X-965236Y+4195308D02*
X-888020Y+4272524D01*
X-888020Y+4040876D01*
X-733588Y+4079484D02*
X-733588Y+4233916D01*
X-694980Y+4272524D01*
X-540548Y+4272524D01*
X-501940Y+4233916D01*
X-501940Y+4079484D01*
X-540548Y+4040876D01*
X-694980Y+4040876D01*
X-733588Y+4079484D01*
X-733588Y+4040876D02*
X-501940Y+4272524D01*
D73*
X-137180Y+3770540D02*
X+1407140Y+3770540D01*
X+1407140Y+4552860D01*
X-137180Y+4552860D01*
X-137180Y+3770540D01*
D50*
X+171684Y+4123092D02*
X+171684Y+4084484D01*
X+210292Y+4045876D01*
X+364724Y+4045876D01*
X+403332Y+4084484D01*
X+403332Y+4277524D01*
X+557764Y+4200308D02*
X+634980Y+4277524D01*
X+634980Y+4045876D01*
X+866628Y+4200308D02*
X+943844Y+4277524D01*
X+943844Y+4045876D01*
D73*
X+2295400Y+27140D02*
X+2823720Y+27140D01*
X+2823720Y+1063460D01*
X+2295400Y+1063460D01*
X+2295400Y+27140D01*
D51*
X+2464463Y+291707D02*
X+2654658Y+481901D01*
X+2654658Y+291707D02*
X+2464463Y+481901D01*
X+2527861Y+608698D02*
X+2464463Y+672096D01*
X+2654658Y+672096D01*
D73*
X-4309900Y-3410480D02*
X-3789580Y-3410480D01*
X-3789580Y-1390160D01*
X-4309900Y-1390160D01*
X-4309900Y-3410480D01*
D52*
X-3956082Y-2774949D02*
X-4143397Y-2774949D01*
X-4143397Y-2618854D01*
X-4112178Y-2587635D01*
X-4080959Y-2587635D01*
X-4049740Y-2618854D01*
X-4049740Y-2774949D01*
X-4049740Y-2618854D02*
X-4018520Y-2587635D01*
X-3956082Y-2587635D01*
X-4143397Y-2525196D02*
X-3956082Y-2525196D01*
X-3956082Y-2337882D01*
X-4080959Y-2213005D02*
X-4143397Y-2150567D01*
X-3956082Y-2150567D01*
D73*
X-3631720Y-3410480D02*
X-3111400Y-3410480D01*
X-3111400Y-1390160D01*
X-3631720Y-1390160D01*
X-3631720Y-3410480D01*
D52*
X-3277902Y-2774949D02*
X-3465217Y-2774949D01*
X-3465217Y-2618854D01*
X-3433998Y-2587635D01*
X-3402779Y-2587635D01*
X-3371560Y-2618854D01*
X-3371560Y-2774949D01*
X-3371560Y-2618854D02*
X-3340340Y-2587635D01*
X-3277902Y-2587635D01*
X-3465217Y-2525196D02*
X-3277902Y-2525196D01*
X-3277902Y-2337882D01*
X-3433998Y-2244224D02*
X-3465217Y-2213005D01*
X-3465217Y-2119348D01*
X-3433998Y-2088129D01*
X-3402779Y-2088129D01*
X-3371560Y-2119348D01*
X-3371560Y-2213005D01*
X-3340340Y-2244224D01*
X-3277902Y-2244224D01*
X-3277902Y-2088129D01*
D73*
X-2944640Y-3416200D02*
X-2424320Y-3416200D01*
X-2424320Y-1395880D01*
X-2944640Y-1395880D01*
X-2944640Y-3416200D01*
D52*
X-2590822Y-2780669D02*
X-2778137Y-2780669D01*
X-2778137Y-2624574D01*
X-2746918Y-2593355D01*
X-2715699Y-2593355D01*
X-2684480Y-2624574D01*
X-2684480Y-2780669D01*
X-2684480Y-2624574D02*
X-2653260Y-2593355D01*
X-2590822Y-2593355D01*
X-2778137Y-2530916D02*
X-2590822Y-2530916D01*
X-2590822Y-2343602D01*
X-2746918Y-2249944D02*
X-2778137Y-2218725D01*
X-2778137Y-2125068D01*
X-2746918Y-2093849D01*
X-2715699Y-2093849D01*
X-2684480Y-2125068D01*
X-2653260Y-2093849D01*
X-2622041Y-2093849D01*
X-2590822Y-2125068D01*
X-2590822Y-2218725D01*
X-2622041Y-2249944D01*
X-2684480Y-2187506D02*
X-2684480Y-2125068D01*
D73*
X-2253760Y-3428900D02*
X-1733440Y-3428900D01*
X-1733440Y-1408580D01*
X-2253760Y-1408580D01*
X-2253760Y-3428900D01*
D52*
X-1899942Y-2793369D02*
X-2087257Y-2793369D01*
X-2087257Y-2637274D01*
X-2056038Y-2606055D01*
X-2024819Y-2606055D01*
X-1993600Y-2637274D01*
X-1993600Y-2793369D01*
X-1993600Y-2637274D02*
X-1962380Y-2606055D01*
X-1899942Y-2606055D01*
X-2087257Y-2543616D02*
X-1899942Y-2543616D01*
X-1899942Y-2356302D01*
X-1962380Y-2106549D02*
X-1962380Y-2293863D01*
X-2087257Y-2168987D01*
X-1899942Y-2168987D01*
D73*
X-4347960Y-4381420D02*
X-3311640Y-4381420D01*
X-3311640Y-3599100D01*
X-4347960Y-3599100D01*
X-4347960Y-4381420D01*
D53*
X-4106152Y-4024804D02*
X-4106152Y-4059348D01*
X-4071608Y-4093892D01*
X-3933432Y-4093892D01*
X-3898888Y-4059348D01*
X-3898888Y-3886628D01*
X-3795256Y-3921172D02*
X-3760712Y-3886628D01*
X-3657080Y-3886628D01*
X-3622536Y-3921172D01*
X-3622536Y-3955716D01*
X-3657080Y-3990260D01*
X-3760712Y-3990260D01*
X-3795256Y-4024804D01*
X-3795256Y-4093892D01*
X-3622536Y-4093892D01*
D73*
X-1578420Y-3436260D02*
X-1058100Y-3436260D01*
X-1058100Y-1415940D01*
X-1578420Y-1415940D01*
X-1578420Y-3436260D01*
D52*
X-1224602Y-2800729D02*
X-1411917Y-2800729D01*
X-1411917Y-2644634D01*
X-1380698Y-2613415D01*
X-1349479Y-2613415D01*
X-1318260Y-2644634D01*
X-1318260Y-2800729D01*
X-1318260Y-2644634D02*
X-1287040Y-2613415D01*
X-1224602Y-2613415D01*
X-1411917Y-2550976D02*
X-1224602Y-2550976D01*
X-1224602Y-2363662D01*
X-1411917Y-2113909D02*
X-1411917Y-2270004D01*
X-1349479Y-2270004D01*
X-1349479Y-2145128D01*
X-1318260Y-2113909D01*
X-1255821Y-2113909D01*
X-1224602Y-2145128D01*
X-1224602Y-2238785D01*
X-1255821Y-2270004D01*
D73*
X-907860Y-3438800D02*
X-387540Y-3438800D01*
X-387540Y-1418480D01*
X-907860Y-1418480D01*
X-907860Y-3438800D01*
D52*
X-554042Y-2803269D02*
X-741357Y-2803269D01*
X-741357Y-2647174D01*
X-710138Y-2615955D01*
X-678919Y-2615955D01*
X-647700Y-2647174D01*
X-647700Y-2803269D01*
X-647700Y-2647174D02*
X-616480Y-2615955D01*
X-554042Y-2615955D01*
X-741357Y-2553516D02*
X-554042Y-2553516D01*
X-554042Y-2366202D01*
X-710138Y-2116449D02*
X-741357Y-2147668D01*
X-741357Y-2241325D01*
X-710138Y-2272544D01*
X-585261Y-2272544D01*
X-554042Y-2241325D01*
X-554042Y-2147668D01*
X-585261Y-2116449D01*
X-616480Y-2116449D01*
X-647700Y-2147668D01*
X-647700Y-2272544D01*
D73*
X-227140Y-3446420D02*
X+293180Y-3446420D01*
X+293180Y-1426100D01*
X-227140Y-1426100D01*
X-227140Y-3446420D01*
D52*
X+126678Y-2810889D02*
X-60637Y-2810889D01*
X-60637Y-2654794D01*
X-29418Y-2623575D01*
X+1801Y-2623575D01*
X+33020Y-2654794D01*
X+33020Y-2810889D01*
X+33020Y-2654794D02*
X+64240Y-2623575D01*
X+126678Y-2623575D01*
X-60637Y-2561136D02*
X+126678Y-2561136D01*
X+126678Y-2373822D01*
X-60637Y-2280164D02*
X-60637Y-2124069D01*
X-29418Y-2124069D01*
X+126678Y-2280164D01*
D73*
X+456120Y-3464200D02*
X+976440Y-3464200D01*
X+976440Y-1443880D01*
X+456120Y-1443880D01*
X+456120Y-3464200D01*
D52*
X+809938Y-2828669D02*
X+622623Y-2828669D01*
X+622623Y-2672574D01*
X+653842Y-2641355D01*
X+685061Y-2641355D01*
X+716280Y-2672574D01*
X+716280Y-2828669D01*
X+716280Y-2672574D02*
X+747500Y-2641355D01*
X+809938Y-2641355D01*
X+622623Y-2578916D02*
X+809938Y-2578916D01*
X+809938Y-2391602D01*
X+716280Y-2266725D02*
X+685061Y-2297944D01*
X+653842Y-2297944D01*
X+622623Y-2266725D01*
X+622623Y-2173068D01*
X+653842Y-2141849D01*
X+685061Y-2141849D01*
X+716280Y-2173068D01*
X+716280Y-2266725D01*
X+747500Y-2297944D01*
X+778719Y-2297944D01*
X+809938Y-2266725D01*
X+809938Y-2173068D01*
X+778719Y-2141849D01*
X+747500Y-2141849D01*
X+716280Y-2173068D01*
D73*
X-1482640Y-4379660D02*
X-446320Y-4379660D01*
X-446320Y-3597340D01*
X-1482640Y-3597340D01*
X-1482640Y-4379660D01*
D53*
X-1240832Y-4023044D02*
X-1240832Y-4057588D01*
X-1206288Y-4092132D01*
X-1068112Y-4092132D01*
X-1033568Y-4057588D01*
X-1033568Y-3884868D01*
X-757216Y-4023044D02*
X-964480Y-4023044D01*
X-826304Y-3884868D01*
X-826304Y-4092132D01*
D47*
X+2559160Y+3418040D02*
X+2559074Y+3420116D01*
X+2558372Y+3424269D01*
X+2556902Y+3428422D01*
X+2554500Y+3432575D01*
X+2550827Y+3436674D01*
X+2546674Y+3439683D01*
X+2542521Y+3441600D01*
X+2538368Y+3442683D01*
X+2534215Y+3443040D01*
X+2534160Y+3443040D01*
X+2509160Y+3418040D02*
X+2509246Y+3420116D01*
X+2509948Y+3424269D01*
X+2511418Y+3428422D01*
X+2513820Y+3432575D01*
X+2517493Y+3436674D01*
X+2521646Y+3439683D01*
X+2525799Y+3441600D01*
X+2529952Y+3442683D01*
X+2534105Y+3443040D01*
X+2534160Y+3443040D01*
X+2509160Y+3418040D02*
X+2509246Y+3415964D01*
X+2509948Y+3411811D01*
X+2511418Y+3407658D01*
X+2513820Y+3403505D01*
X+2517493Y+3399406D01*
X+2521646Y+3396397D01*
X+2525799Y+3394480D01*
X+2529952Y+3393397D01*
X+2534105Y+3393040D01*
X+2534160Y+3393040D01*
X+2559160Y+3418040D02*
X+2559074Y+3415964D01*
X+2558372Y+3411811D01*
X+2556902Y+3407658D01*
X+2554500Y+3403505D01*
X+2550827Y+3399406D01*
X+2546674Y+3396397D01*
X+2542521Y+3394480D01*
X+2538368Y+3393397D01*
X+2534215Y+3393040D01*
X+2534160Y+3393040D01*
X+2569160Y+3418040D02*
X+2499160Y+3418040D01*
X+2534160Y+3453040D02*
X+2534160Y+3383040D01*
X+2194160Y+3758040D02*
X+2194160Y+3418040D01*
X+2200925Y+3348521D01*
X+2220390Y+3284231D01*
X+2251311Y+3226416D01*
X+2292441Y+3176321D01*
X+2342536Y+3135191D01*
X+2400351Y+3104270D01*
X+2464641Y+3084805D01*
X+2534160Y+3078040D01*
X+2603679Y+3084805D01*
X+2667969Y+3104270D01*
X+2725784Y+3135191D01*
X+2775879Y+3176321D01*
X+2817009Y+3226416D01*
X+2847930Y+3284231D01*
X+2867395Y+3348521D01*
X+2874160Y+3418040D01*
X+2867395Y+3487559D01*
X+2847930Y+3551849D01*
X+2817009Y+3609664D01*
X+2775879Y+3659759D01*
X+2725784Y+3700889D01*
X+2667969Y+3731810D01*
X+2603679Y+3751275D01*
X+2534160Y+3758040D01*
X+2194160Y+3758040D01*
D54*
X+2431410Y+3383790D02*
X+2414285Y+3366665D01*
X+2362910Y+3366665D01*
X+2328660Y+3400915D01*
X+2328660Y+3435165D01*
X+2362910Y+3469415D01*
X+2414285Y+3469415D01*
X+2431410Y+3452290D01*
X+2499910Y+3435165D02*
X+2534160Y+3469415D01*
X+2534160Y+3366665D01*
X+2636910Y+3435165D02*
X+2671160Y+3469415D01*
X+2671160Y+3366665D01*
D73*
X+2479040Y+3835400D02*
X+3261360Y+3835400D01*
X+3261360Y+4236720D01*
X+2479040Y+4236720D01*
X+2479040Y+3835400D01*
D55*
X+2677567Y+4108297D02*
X+2677567Y+3987901D01*
X+2701646Y+3963822D01*
X+2797962Y+3963822D01*
X+2822041Y+3987901D01*
X+2822041Y+4108297D01*
X+2894279Y+4108297D02*
X+3014674Y+4108297D01*
X+3014674Y+4084218D01*
X+2894279Y+3963822D01*
D73*
X+1615440Y+2306320D02*
X+1793240Y+2306320D01*
X+1793240Y+3500120D01*
X+1615440Y+3500120D01*
X+1615440Y+2306320D01*
D56*
X+1736344Y+2775204D02*
X+1672336Y+2775204D01*
X+1672336Y+2828544D01*
X+1683004Y+2839212D01*
X+1693672Y+2839212D01*
X+1704340Y+2828544D01*
X+1704340Y+2775204D01*
X+1704340Y+2828544D02*
X+1715008Y+2839212D01*
X+1736344Y+2839212D01*
X+1683004Y+2871216D02*
X+1672336Y+2881884D01*
X+1672336Y+2913888D01*
X+1683004Y+2924556D01*
X+1693672Y+2924556D01*
X+1704340Y+2913888D01*
X+1704340Y+2881884D01*
X+1715008Y+2871216D01*
X+1736344Y+2871216D01*
X+1736344Y+2924556D01*
X+1672336Y+3009900D02*
X+1672336Y+2956560D01*
X+1693672Y+2956560D01*
X+1693672Y+2999232D01*
X+1704340Y+3009900D01*
X+1725676Y+3009900D01*
X+1736344Y+2999232D01*
X+1736344Y+2967228D01*
X+1725676Y+2956560D01*
D73*
X+2842260Y+3002280D02*
X+4036060Y+3002280D01*
X+4036060Y+3180080D01*
X+2842260Y+3180080D01*
X+2842260Y+3002280D01*
D56*
X+3311144Y+3059176D02*
X+3311144Y+3123184D01*
X+3364484Y+3123184D01*
X+3375152Y+3112516D01*
X+3375152Y+3101848D01*
X+3364484Y+3091180D01*
X+3311144Y+3091180D01*
X+3364484Y+3091180D02*
X+3375152Y+3080512D01*
X+3375152Y+3059176D01*
X+3407156Y+3112516D02*
X+3417824Y+3123184D01*
X+3449828Y+3123184D01*
X+3460496Y+3112516D01*
X+3460496Y+3101848D01*
X+3449828Y+3091180D01*
X+3417824Y+3091180D01*
X+3407156Y+3080512D01*
X+3407156Y+3059176D01*
X+3460496Y+3059176D01*
X+3492500Y+3123184D02*
X+3545840Y+3123184D01*
X+3545840Y+3112516D01*
X+3492500Y+3059176D01*
D73*
X+1821180Y+2301240D02*
X+1998980Y+2301240D01*
X+1998980Y+3495040D01*
X+1821180Y+3495040D01*
X+1821180Y+2301240D01*
D56*
X+1942084Y+2770124D02*
X+1878076Y+2770124D01*
X+1878076Y+2823464D01*
X+1888744Y+2834132D01*
X+1899412Y+2834132D01*
X+1910080Y+2823464D01*
X+1910080Y+2770124D01*
X+1910080Y+2823464D02*
X+1920748Y+2834132D01*
X+1942084Y+2834132D01*
X+1888744Y+2866136D02*
X+1878076Y+2876804D01*
X+1878076Y+2908808D01*
X+1888744Y+2919476D01*
X+1899412Y+2919476D01*
X+1910080Y+2908808D01*
X+1910080Y+2876804D01*
X+1920748Y+2866136D01*
X+1942084Y+2866136D01*
X+1942084Y+2919476D01*
X+1910080Y+2962148D02*
X+1899412Y+2951480D01*
X+1888744Y+2951480D01*
X+1878076Y+2962148D01*
X+1878076Y+2994152D01*
X+1888744Y+3004820D01*
X+1899412Y+3004820D01*
X+1910080Y+2994152D01*
X+1910080Y+2962148D01*
X+1920748Y+2951480D01*
X+1931416Y+2951480D01*
X+1942084Y+2962148D01*
X+1942084Y+2994152D01*
X+1931416Y+3004820D01*
X+1920748Y+3004820D01*
X+1910080Y+2994152D01*
D73*
X+1407160Y+2301240D02*
X+1584960Y+2301240D01*
X+1584960Y+3495040D01*
X+1407160Y+3495040D01*
X+1407160Y+2301240D01*
D56*
X+1528064Y+2770124D02*
X+1464056Y+2770124D01*
X+1464056Y+2823464D01*
X+1474724Y+2834132D01*
X+1485392Y+2834132D01*
X+1496060Y+2823464D01*
X+1496060Y+2770124D01*
X+1496060Y+2823464D02*
X+1506728Y+2834132D01*
X+1528064Y+2834132D01*
X+1474724Y+2866136D02*
X+1464056Y+2876804D01*
X+1464056Y+2908808D01*
X+1474724Y+2919476D01*
X+1485392Y+2919476D01*
X+1496060Y+2908808D01*
X+1496060Y+2876804D01*
X+1506728Y+2866136D01*
X+1528064Y+2866136D01*
X+1528064Y+2919476D01*
X+1485392Y+3004820D02*
X+1496060Y+2994152D01*
X+1496060Y+2962148D01*
X+1485392Y+2951480D01*
X+1474724Y+2951480D01*
X+1464056Y+2962148D01*
X+1464056Y+2994152D01*
X+1474724Y+3004820D01*
X+1517396Y+3004820D01*
X+1528064Y+2994152D01*
X+1528064Y+2962148D01*
D73*
X+1532420Y+410720D02*
X+1710220Y+410720D01*
X+1710220Y+1604520D01*
X+1532420Y+1604520D01*
X+1532420Y+410720D01*
D56*
X+1653324Y+879604D02*
X+1589316Y+879604D01*
X+1589316Y+932944D01*
X+1599984Y+943612D01*
X+1610652Y+943612D01*
X+1621320Y+932944D01*
X+1621320Y+879604D01*
X+1621320Y+932944D02*
X+1631988Y+943612D01*
X+1653324Y+943612D01*
X+1599984Y+975616D02*
X+1589316Y+986284D01*
X+1589316Y+1018288D01*
X+1599984Y+1028956D01*
X+1610652Y+1028956D01*
X+1621320Y+1018288D01*
X+1631988Y+1028956D01*
X+1642656Y+1028956D01*
X+1653324Y+1018288D01*
X+1653324Y+986284D01*
X+1642656Y+975616D01*
X+1621320Y+996952D02*
X+1621320Y+1018288D01*
X+1642656Y+1050292D02*
X+1599984Y+1050292D01*
X+1589316Y+1060960D01*
X+1589316Y+1103632D01*
X+1599984Y+1114300D01*
X+1642656Y+1114300D01*
X+1653324Y+1103632D01*
X+1653324Y+1060960D01*
X+1642656Y+1050292D01*
X+1653324Y+1050292D02*
X+1589316Y+1114300D01*
D73*
X-3883660Y+172720D02*
X-3705860Y+172720D01*
X-3705860Y+1366520D01*
X-3883660Y+1366520D01*
X-3883660Y+172720D01*
D56*
X-3762756Y+641604D02*
X-3826764Y+641604D01*
X-3826764Y+694944D01*
X-3816096Y+705612D01*
X-3805428Y+705612D01*
X-3794760Y+694944D01*
X-3794760Y+641604D01*
X-3794760Y+694944D02*
X-3784092Y+705612D01*
X-3762756Y+705612D01*
X-3816096Y+737616D02*
X-3826764Y+748284D01*
X-3826764Y+780288D01*
X-3816096Y+790956D01*
X-3805428Y+790956D01*
X-3794760Y+780288D01*
X-3784092Y+790956D01*
X-3773424Y+790956D01*
X-3762756Y+780288D01*
X-3762756Y+748284D01*
X-3773424Y+737616D01*
X-3794760Y+758952D02*
X-3794760Y+780288D01*
X-3805428Y+833628D02*
X-3826764Y+854964D01*
X-3762756Y+854964D01*
D73*
X-4097020Y+172720D02*
X-3919220Y+172720D01*
X-3919220Y+1366520D01*
X-4097020Y+1366520D01*
X-4097020Y+172720D01*
D56*
X-3976116Y+641604D02*
X-4040124Y+641604D01*
X-4040124Y+694944D01*
X-4029456Y+705612D01*
X-4018788Y+705612D01*
X-4008120Y+694944D01*
X-4008120Y+641604D01*
X-4008120Y+694944D02*
X-3997452Y+705612D01*
X-3976116Y+705612D01*
X-4029456Y+737616D02*
X-4040124Y+748284D01*
X-4040124Y+780288D01*
X-4029456Y+790956D01*
X-4018788Y+790956D01*
X-4008120Y+780288D01*
X-3997452Y+790956D01*
X-3986784Y+790956D01*
X-3976116Y+780288D01*
X-3976116Y+748284D01*
X-3986784Y+737616D01*
X-4008120Y+758952D02*
X-4008120Y+780288D01*
X-4029456Y+822960D02*
X-4040124Y+833628D01*
X-4040124Y+865632D01*
X-4029456Y+876300D01*
X-4018788Y+876300D01*
X-4008120Y+865632D01*
X-4008120Y+833628D01*
X-3997452Y+822960D01*
X-3976116Y+822960D01*
X-3976116Y+876300D01*
D73*
X-3674580Y+182120D02*
X-3496780Y+182120D01*
X-3496780Y+1375920D01*
X-3674580Y+1375920D01*
X-3674580Y+182120D01*
D56*
X-3553676Y+651004D02*
X-3617684Y+651004D01*
X-3617684Y+704344D01*
X-3607016Y+715012D01*
X-3596348Y+715012D01*
X-3585680Y+704344D01*
X-3585680Y+651004D01*
X-3585680Y+704344D02*
X-3575012Y+715012D01*
X-3553676Y+715012D01*
X-3607016Y+747016D02*
X-3617684Y+757684D01*
X-3617684Y+789688D01*
X-3607016Y+800356D01*
X-3596348Y+800356D01*
X-3585680Y+789688D01*
X-3575012Y+800356D01*
X-3564344Y+800356D01*
X-3553676Y+789688D01*
X-3553676Y+757684D01*
X-3564344Y+747016D01*
X-3585680Y+768352D02*
X-3585680Y+789688D01*
X-3607016Y+832360D02*
X-3617684Y+843028D01*
X-3617684Y+875032D01*
X-3607016Y+885700D01*
X-3596348Y+885700D01*
X-3585680Y+875032D01*
X-3575012Y+885700D01*
X-3564344Y+885700D01*
X-3553676Y+875032D01*
X-3553676Y+843028D01*
X-3564344Y+832360D01*
X-3585680Y+853696D02*
X-3585680Y+875032D01*
D73*
X-4207220Y+3760940D02*
X-3170900Y+3760940D01*
X-3170900Y+4543260D01*
X-4207220Y+4543260D01*
X-4207220Y+3760940D01*
D53*
X-3965412Y+4117556D02*
X-3965412Y+4083012D01*
X-3930868Y+4048468D01*
X-3792692Y+4048468D01*
X-3758148Y+4083012D01*
X-3758148Y+4255732D01*
X-3619972Y+4152100D02*
X-3654516Y+4186644D01*
X-3654516Y+4221188D01*
X-3619972Y+4255732D01*
X-3516340Y+4255732D01*
X-3481796Y+4221188D01*
X-3481796Y+4186644D01*
X-3516340Y+4152100D01*
X-3619972Y+4152100D01*
X-3654516Y+4117556D01*
X-3654516Y+4083012D01*
X-3619972Y+4048468D01*
X-3516340Y+4048468D01*
X-3481796Y+4083012D01*
X-3481796Y+4117556D01*
X-3516340Y+4152100D01*
D73*
X-3666020Y+2395980D02*
X-3379000Y+2395980D01*
X-3379000Y+3640580D01*
X-3666020Y+3640580D01*
X-3666020Y+2395980D01*
D57*
X-3470846Y+2811627D02*
X-3574173Y+2811627D01*
X-3574173Y+2880511D01*
X-3539731Y+2914953D01*
X-3505288Y+2914953D01*
X-3470846Y+2880511D01*
X-3470846Y+2811627D01*
X-3556952Y+2966617D02*
X-3574173Y+2983838D01*
X-3574173Y+3035501D01*
X-3556952Y+3052722D01*
X-3539731Y+3052722D01*
X-3522510Y+3035501D01*
X-3522510Y+2983838D01*
X-3505288Y+2966617D01*
X-3470846Y+2966617D01*
X-3470846Y+3052722D01*
X-3574173Y+3190491D02*
X-3574173Y+3104386D01*
X-3539731Y+3104386D01*
X-3539731Y+3173270D01*
X-3522510Y+3190491D01*
X-3488067Y+3190491D01*
X-3470846Y+3173270D01*
X-3470846Y+3121607D01*
X-3488067Y+3104386D01*
D73*
X-2709420Y-110960D02*
X-2181100Y-110960D01*
X-2181100Y+163360D01*
X-2709420Y+163360D01*
X-2709420Y-110960D01*
D58*
X-2478179Y-6719D02*
X-2494638Y-23178D01*
X-2544015Y-23178D01*
X-2576933Y+9740D01*
X-2576933Y+42659D01*
X-2544015Y+75577D01*
X-2494638Y+75577D01*
X-2478179Y+59118D01*
X-2412342Y+42659D02*
X-2379424Y+75577D01*
X-2379424Y-23178D01*
D73*
X-3264440Y-115880D02*
X-2736120Y-115880D01*
X-2736120Y+158440D01*
X-3264440Y+158440D01*
X-3264440Y-115880D01*
D58*
X-3033199Y-11639D02*
X-3049658Y-28098D01*
X-3099035Y-28098D01*
X-3131953Y+4820D01*
X-3131953Y+37739D01*
X-3099035Y+70657D01*
X-3049658Y+70657D01*
X-3033199Y+54198D01*
X-2983821Y+54198D02*
X-2967362Y+70657D01*
X-2917985Y+70657D01*
X-2901526Y+54198D01*
X-2901526Y+37739D01*
X-2917985Y+21280D01*
X-2967362Y+21280D01*
X-2983821Y+4820D01*
X-2983821Y-28098D01*
X-2901526Y-28098D01*
D73*
X-1600740Y-110800D02*
X-1072420Y-110800D01*
X-1072420Y+163520D01*
X-1600740Y+163520D01*
X-1600740Y-110800D01*
D58*
X-1369499Y-6559D02*
X-1385958Y-23018D01*
X-1435335Y-23018D01*
X-1468253Y+9900D01*
X-1468253Y+42819D01*
X-1435335Y+75737D01*
X-1385958Y+75737D01*
X-1369499Y+59278D01*
X-1320121Y+59278D02*
X-1303662Y+75737D01*
X-1254285Y+75737D01*
X-1237826Y+59278D01*
X-1237826Y+42819D01*
X-1254285Y+26360D01*
X-1237826Y+9900D01*
X-1237826Y-6559D01*
X-1254285Y-23018D01*
X-1303662Y-23018D01*
X-1320121Y-6559D01*
X-1287203Y+26360D02*
X-1254285Y+26360D01*
D73*
X-2149380Y-110800D02*
X-1621060Y-110800D01*
X-1621060Y+163520D01*
X-2149380Y+163520D01*
X-2149380Y-110800D01*
D58*
X-1918139Y-6559D02*
X-1934598Y-23018D01*
X-1983975Y-23018D01*
X-2016893Y+9900D01*
X-2016893Y+42819D01*
X-1983975Y+75737D01*
X-1934598Y+75737D01*
X-1918139Y+59278D01*
X-1786466Y+9900D02*
X-1885220Y+9900D01*
X-1819384Y+75737D01*
X-1819384Y-23018D01*
D73*
X-1059180Y-99060D02*
X-530860Y-99060D01*
X-530860Y+175260D01*
X-1059180Y+175260D01*
X-1059180Y-99060D01*
D58*
X-827939Y+5181D02*
X-844398Y-11278D01*
X-893775Y-11278D01*
X-926693Y+21640D01*
X-926693Y+54559D01*
X-893775Y+87477D01*
X-844398Y+87477D01*
X-827939Y+71018D01*
X-696266Y+87477D02*
X-778561Y+87477D01*
X-778561Y+54559D01*
X-712725Y+54559D01*
X-696266Y+38100D01*
X-696266Y+5181D01*
X-712725Y-11278D01*
X-762102Y-11278D01*
X-778561Y+5181D01*
D73*
X-518160Y-99060D02*
X+10160Y-99060D01*
X+10160Y+175260D01*
X-518160Y+175260D01*
X-518160Y-99060D01*
D58*
X-286919Y+5181D02*
X-303378Y-11278D01*
X-352755Y-11278D01*
X-385673Y+21640D01*
X-385673Y+54559D01*
X-352755Y+87477D01*
X-303378Y+87477D01*
X-286919Y+71018D01*
X-155246Y+71018D02*
X-171705Y+87477D01*
X-221082Y+87477D01*
X-237541Y+71018D01*
X-237541Y+5181D01*
X-221082Y-11278D01*
X-171705Y-11278D01*
X-155246Y+5181D01*
X-155246Y+21640D01*
X-171705Y+38100D01*
X-237541Y+38100D01*
D73*
X+23660Y-102360D02*
X+551980Y-102360D01*
X+551980Y+171960D01*
X+23660Y+171960D01*
X+23660Y-102360D01*
D58*
X+254901Y+1881D02*
X+238442Y-14578D01*
X+189065Y-14578D01*
X+156147Y+18340D01*
X+156147Y+51259D01*
X+189065Y+84177D01*
X+238442Y+84177D01*
X+254901Y+67718D01*
X+304279Y+84177D02*
X+386574Y+84177D01*
X+386574Y+67718D01*
X+304279Y-14578D01*
D73*
X+564680Y-99820D02*
X+1093000Y-99820D01*
X+1093000Y+174500D01*
X+564680Y+174500D01*
X+564680Y-99820D01*
D58*
X+795921Y+4421D02*
X+779462Y-12038D01*
X+730085Y-12038D01*
X+697167Y+20880D01*
X+697167Y+53799D01*
X+730085Y+86717D01*
X+779462Y+86717D01*
X+795921Y+70258D01*
X+861758Y+37340D02*
X+845299Y+53799D01*
X+845299Y+70258D01*
X+861758Y+86717D01*
X+911135Y+86717D01*
X+927594Y+70258D01*
X+927594Y+53799D01*
X+911135Y+37340D01*
X+861758Y+37340D01*
X+845299Y+20880D01*
X+845299Y+4421D01*
X+861758Y-12038D01*
X+911135Y-12038D01*
X+927594Y+4421D01*
X+927594Y+20880D01*
X+911135Y+37340D01*
D73*
X-4805680Y+2410460D02*
X-4277360Y+2410460D01*
X-4277360Y+2684780D01*
X-4805680Y+2684780D01*
X-4805680Y+2410460D01*
D59*
X-4620768Y+2521204D02*
X-4633976Y+2507996D01*
X-4673600Y+2507996D01*
X-4700016Y+2534412D01*
X-4700016Y+2560828D01*
X-4673600Y+2587244D01*
X-4633976Y+2587244D01*
X-4620768Y+2574036D01*
X-4567936Y+2560828D02*
X-4541520Y+2587244D01*
X-4541520Y+2507996D01*
X-4488688Y+2521204D02*
X-4488688Y+2574036D01*
X-4475480Y+2587244D01*
X-4422648Y+2587244D01*
X-4409440Y+2574036D01*
X-4409440Y+2521204D01*
X-4422648Y+2507996D01*
X-4475480Y+2507996D01*
X-4488688Y+2521204D01*
X-4488688Y+2507996D02*
X-4409440Y+2587244D01*
D73*
X+2279140Y+2578900D02*
X+2807460Y+2578900D01*
X+2807460Y+2853220D01*
X+2279140Y+2853220D01*
X+2279140Y+2578900D01*
D59*
X+2464052Y+2689644D02*
X+2450844Y+2676436D01*
X+2411220Y+2676436D01*
X+2384804Y+2702852D01*
X+2384804Y+2729268D01*
X+2411220Y+2755684D01*
X+2450844Y+2755684D01*
X+2464052Y+2742476D01*
X+2516884Y+2729268D02*
X+2543300Y+2755684D01*
X+2543300Y+2676436D01*
X+2609340Y+2742476D02*
X+2622548Y+2755684D01*
X+2662172Y+2755684D01*
X+2675380Y+2742476D01*
X+2675380Y+2729268D01*
X+2662172Y+2716060D01*
X+2622548Y+2716060D01*
X+2609340Y+2702852D01*
X+2609340Y+2676436D01*
X+2675380Y+2676436D01*
D73*
X+2328380Y+1092960D02*
X+2856700Y+1092960D01*
X+2856700Y+1367280D01*
X+2328380Y+1367280D01*
X+2328380Y+1092960D01*
D59*
X+2513292Y+1203704D02*
X+2500084Y+1190496D01*
X+2460460Y+1190496D01*
X+2434044Y+1216912D01*
X+2434044Y+1243328D01*
X+2460460Y+1269744D01*
X+2500084Y+1269744D01*
X+2513292Y+1256536D01*
X+2566124Y+1243328D02*
X+2592540Y+1269744D01*
X+2592540Y+1190496D01*
X+2658580Y+1256536D02*
X+2671788Y+1269744D01*
X+2711412Y+1269744D01*
X+2724620Y+1256536D01*
X+2724620Y+1243328D01*
X+2711412Y+1230120D01*
X+2724620Y+1216912D01*
X+2724620Y+1203704D01*
X+2711412Y+1190496D01*
X+2671788Y+1190496D01*
X+2658580Y+1203704D01*
X+2684996Y+1230120D02*
X+2711412Y+1230120D01*
D73*
X+2350300Y-270000D02*
X+2878620Y-270000D01*
X+2878620Y+4320D01*
X+2350300Y+4320D01*
X+2350300Y-270000D01*
D59*
X+2535212Y-159256D02*
X+2522004Y-172464D01*
X+2482380Y-172464D01*
X+2455964Y-146048D01*
X+2455964Y-119632D01*
X+2482380Y-93216D01*
X+2522004Y-93216D01*
X+2535212Y-106424D01*
X+2588044Y-119632D02*
X+2614460Y-93216D01*
X+2614460Y-172464D01*
X+2746540Y-146048D02*
X+2667292Y-146048D01*
X+2720124Y-93216D01*
X+2720124Y-172464D01*
D73*
X+1625600Y-208280D02*
X+1899920Y-208280D01*
X+1899920Y+320040D01*
X+1625600Y+320040D01*
X+1625600Y-208280D01*
D59*
X+1775968Y-102616D02*
X+1789176Y-102616D01*
X+1802384Y-89408D01*
X+1802384Y-36576D01*
X+1789176Y-23368D01*
X+1723136Y-23368D01*
X+1749552Y+29464D02*
X+1723136Y+55880D01*
X+1802384Y+55880D01*
X+1736344Y+121920D02*
X+1723136Y+135128D01*
X+1723136Y+174752D01*
X+1736344Y+187960D01*
X+1749552Y+187960D01*
X+1762760Y+174752D01*
X+1762760Y+135128D01*
X+1775968Y+121920D01*
X+1802384Y+121920D01*
X+1802384Y+187960D01*
D73*
X+1197140Y-209040D02*
X+1471460Y-209040D01*
X+1471460Y+319280D01*
X+1197140Y+319280D01*
X+1197140Y-209040D01*
D59*
X+1347508Y-103376D02*
X+1360716Y-103376D01*
X+1373924Y-90168D01*
X+1373924Y-37336D01*
X+1360716Y-24128D01*
X+1294676Y-24128D01*
X+1321092Y+28704D02*
X+1294676Y+55120D01*
X+1373924Y+55120D01*
X+1307884Y+121160D02*
X+1294676Y+134368D01*
X+1294676Y+173992D01*
X+1307884Y+187200D01*
X+1321092Y+187200D01*
X+1334300Y+173992D01*
X+1347508Y+187200D01*
X+1360716Y+187200D01*
X+1373924Y+173992D01*
X+1373924Y+134368D01*
X+1360716Y+121160D01*
X+1334300Y+147576D02*
X+1334300Y+173992D01*
D73*
X+1042820Y+2172800D02*
X+1363140Y+2172800D01*
X+1363140Y+3650600D01*
X+1042820Y+3650600D01*
X+1042820Y+2172800D01*
D60*
X+1260638Y+2757947D02*
X+1145323Y+2757947D01*
X+1145323Y+2854042D01*
X+1164542Y+2873261D01*
X+1183761Y+2873261D01*
X+1202980Y+2854042D01*
X+1202980Y+2757947D01*
X+1202980Y+2854042D02*
X+1222200Y+2873261D01*
X+1260638Y+2873261D01*
X+1183761Y+2950138D02*
X+1145323Y+2988576D01*
X+1260638Y+2988576D01*
D73*
X+866080Y+1471800D02*
X+1043880Y+1471800D01*
X+1043880Y+2665600D01*
X+866080Y+2665600D01*
X+866080Y+1471800D01*
D56*
X+986984Y+1983356D02*
X+922976Y+1983356D01*
X+922976Y+2036696D01*
X+933644Y+2047364D01*
X+944312Y+2047364D01*
X+954980Y+2036696D01*
X+954980Y+1983356D01*
X+954980Y+2036696D02*
X+965648Y+2047364D01*
X+986984Y+2047364D01*
X+933644Y+2079368D02*
X+922976Y+2090036D01*
X+922976Y+2122040D01*
X+933644Y+2132708D01*
X+944312Y+2132708D01*
X+954980Y+2122040D01*
X+954980Y+2090036D01*
X+965648Y+2079368D01*
X+986984Y+2079368D01*
X+986984Y+2132708D01*
D73*
X+933980Y+1608540D02*
X+1514140Y+1608540D01*
X+1514140Y+2028860D01*
X+933980Y+2028860D01*
X+933980Y+1608540D01*
D61*
X+1069352Y+1760684D02*
X+1069352Y+1876715D01*
X+1146706Y+1876715D01*
X+1185383Y+1838038D01*
X+1185383Y+1799361D01*
X+1146706Y+1760684D01*
X+1069352Y+1760684D01*
X+1243398Y+1857377D02*
X+1262737Y+1876715D01*
X+1320752Y+1876715D01*
X+1340091Y+1857377D01*
X+1340091Y+1838038D01*
X+1320752Y+1818700D01*
X+1262737Y+1818700D01*
X+1243398Y+1799361D01*
X+1243398Y+1760684D01*
X+1340091Y+1760684D01*
D73*
X+865080Y+2717800D02*
X+1042880Y+2717800D01*
X+1042880Y+3655600D01*
X+865080Y+3655600D01*
X+865080Y+2717800D01*
D56*
X+985984Y+3101356D02*
X+921976Y+3101356D01*
X+921976Y+3144028D01*
X+943312Y+3165364D01*
X+964648Y+3165364D01*
X+985984Y+3144028D01*
X+985984Y+3101356D01*
X+943312Y+3208036D02*
X+921976Y+3229372D01*
X+985984Y+3229372D01*
D73*
X+490820Y+2176800D02*
X+811140Y+2176800D01*
X+811140Y+3654600D01*
X+490820Y+3654600D01*
X+490820Y+2176800D01*
D60*
X+708638Y+2761947D02*
X+593323Y+2761947D01*
X+593323Y+2858042D01*
X+612542Y+2877261D01*
X+631761Y+2877261D01*
X+650980Y+2858042D01*
X+650980Y+2761947D01*
X+650980Y+2858042D02*
X+670200Y+2877261D01*
X+708638Y+2877261D01*
X+612542Y+2934919D02*
X+593323Y+2954138D01*
X+593323Y+3011795D01*
X+612542Y+3031014D01*
X+631761Y+3031014D01*
X+650980Y+3011795D01*
X+670200Y+3031014D01*
X+689419Y+3031014D01*
X+708638Y+3011795D01*
X+708638Y+2954138D01*
X+689419Y+2934919D01*
X+650980Y+2973357D02*
X+650980Y+3011795D01*
D73*
X+270080Y+1477800D02*
X+447880Y+1477800D01*
X+447880Y+2671600D01*
X+270080Y+2671600D01*
X+270080Y+1477800D01*
D56*
X+390984Y+1989356D02*
X+326976Y+1989356D01*
X+326976Y+2042696D01*
X+337644Y+2053364D01*
X+348312Y+2053364D01*
X+358980Y+2042696D01*
X+358980Y+1989356D01*
X+358980Y+2042696D02*
X+369648Y+2053364D01*
X+390984Y+2053364D01*
X+369648Y+2138708D02*
X+369648Y+2074700D01*
X+326976Y+2117372D01*
X+390984Y+2117372D01*
D73*
X+286980Y+1622540D02*
X+867140Y+1622540D01*
X+867140Y+2042860D01*
X+286980Y+2042860D01*
X+286980Y+1622540D01*
D61*
X+422352Y+1774684D02*
X+422352Y+1890715D01*
X+499706Y+1890715D01*
X+538383Y+1852038D01*
X+538383Y+1813361D01*
X+499706Y+1774684D01*
X+422352Y+1774684D01*
X+693091Y+1813361D02*
X+577060Y+1813361D01*
X+654414Y+1890715D01*
X+654414Y+1774684D01*
D73*
X+273080Y+2716800D02*
X+450880Y+2716800D01*
X+450880Y+3654600D01*
X+273080Y+3654600D01*
X+273080Y+2716800D01*
D56*
X+393984Y+3100356D02*
X+329976Y+3100356D01*
X+329976Y+3143028D01*
X+351312Y+3164364D01*
X+372648Y+3164364D01*
X+393984Y+3143028D01*
X+393984Y+3100356D01*
X+340644Y+3196368D02*
X+329976Y+3207036D01*
X+329976Y+3239040D01*
X+340644Y+3249708D01*
X+351312Y+3249708D01*
X+361980Y+3239040D01*
X+372648Y+3249708D01*
X+383316Y+3249708D01*
X+393984Y+3239040D01*
X+393984Y+3207036D01*
X+383316Y+3196368D01*
X+361980Y+3217704D02*
X+361980Y+3239040D01*
D73*
X-112180Y+2172800D02*
X+208140Y+2172800D01*
X+208140Y+3650600D01*
X-112180Y+3650600D01*
X-112180Y+2172800D01*
D60*
X+105638Y+2757947D02*
X-9677Y+2757947D01*
X-9677Y+2854042D01*
X+9542Y+2873261D01*
X+28761Y+2873261D01*
X+47980Y+2854042D01*
X+47980Y+2757947D01*
X+47980Y+2854042D02*
X+67200Y+2873261D01*
X+105638Y+2873261D01*
X-9677Y+3027014D02*
X-9677Y+2930919D01*
X+28761Y+2930919D01*
X+28761Y+3007795D01*
X+47980Y+3027014D01*
X+86419Y+3027014D01*
X+105638Y+3007795D01*
X+105638Y+2950138D01*
X+86419Y+2930919D01*
D73*
X-324920Y+1472800D02*
X-147120Y+1472800D01*
X-147120Y+2666600D01*
X-324920Y+2666600D01*
X-324920Y+1472800D01*
D56*
X-204016Y+1984356D02*
X-268024Y+1984356D01*
X-268024Y+2037696D01*
X-257356Y+2048364D01*
X-246688Y+2048364D01*
X-236020Y+2037696D01*
X-236020Y+1984356D01*
X-236020Y+2037696D02*
X-225352Y+2048364D01*
X-204016Y+2048364D01*
X-257356Y+2133708D02*
X-268024Y+2123040D01*
X-268024Y+2091036D01*
X-257356Y+2080368D01*
X-214684Y+2080368D01*
X-204016Y+2091036D01*
X-204016Y+2123040D01*
X-214684Y+2133708D01*
X-225352Y+2133708D01*
X-236020Y+2123040D01*
X-236020Y+2080368D01*
D73*
X-305020Y+1628540D02*
X+275140Y+1628540D01*
X+275140Y+2048860D01*
X-305020Y+2048860D01*
X-305020Y+1628540D01*
D61*
X-169648Y+1780684D02*
X-169648Y+1896715D01*
X-92294Y+1896715D01*
X-53617Y+1858038D01*
X-53617Y+1819361D01*
X-92294Y+1780684D01*
X-169648Y+1780684D01*
X+101091Y+1877377D02*
X+81752Y+1896715D01*
X+23737Y+1896715D01*
X+4398Y+1877377D01*
X+4398Y+1800022D01*
X+23737Y+1780684D01*
X+81752Y+1780684D01*
X+101091Y+1800022D01*
X+101091Y+1819361D01*
X+81752Y+1838700D01*
X+4398Y+1838700D01*
D73*
X-326920Y+2712800D02*
X-149120Y+2712800D01*
X-149120Y+3650600D01*
X-326920Y+3650600D01*
X-326920Y+2712800D01*
D56*
X-206016Y+3096356D02*
X-270024Y+3096356D01*
X-270024Y+3139028D01*
X-248688Y+3160364D01*
X-227352Y+3160364D01*
X-206016Y+3139028D01*
X-206016Y+3096356D01*
X-270024Y+3245708D02*
X-270024Y+3192368D01*
X-248688Y+3192368D01*
X-248688Y+3235040D01*
X-238020Y+3245708D01*
X-216684Y+3245708D01*
X-206016Y+3235040D01*
X-206016Y+3203036D01*
X-216684Y+3192368D01*
D73*
X-714180Y+2172800D02*
X-393860Y+2172800D01*
X-393860Y+3650600D01*
X-714180Y+3650600D01*
X-714180Y+2172800D01*
D60*
X-496362Y+2757947D02*
X-611677Y+2757947D01*
X-611677Y+2854042D01*
X-592458Y+2873261D01*
X-573239Y+2873261D01*
X-554020Y+2854042D01*
X-554020Y+2757947D01*
X-554020Y+2854042D02*
X-534800Y+2873261D01*
X-496362Y+2873261D01*
X-611677Y+2930919D02*
X-611677Y+3027014D01*
X-592458Y+3027014D01*
X-496362Y+2930919D01*
D73*
X-925920Y+1474800D02*
X-748120Y+1474800D01*
X-748120Y+2668600D01*
X-925920Y+2668600D01*
X-925920Y+1474800D01*
D56*
X-805016Y+1986356D02*
X-869024Y+1986356D01*
X-869024Y+2039696D01*
X-858356Y+2050364D01*
X-847688Y+2050364D01*
X-837020Y+2039696D01*
X-837020Y+1986356D01*
X-837020Y+2039696D02*
X-826352Y+2050364D01*
X-805016Y+2050364D01*
X-837020Y+2093036D02*
X-847688Y+2082368D01*
X-858356Y+2082368D01*
X-869024Y+2093036D01*
X-869024Y+2125040D01*
X-858356Y+2135708D01*
X-847688Y+2135708D01*
X-837020Y+2125040D01*
X-837020Y+2093036D01*
X-826352Y+2082368D01*
X-815684Y+2082368D01*
X-805016Y+2093036D01*
X-805016Y+2125040D01*
X-815684Y+2135708D01*
X-826352Y+2135708D01*
X-837020Y+2125040D01*
D73*
X-911020Y+1632540D02*
X-330860Y+1632540D01*
X-330860Y+2052860D01*
X-911020Y+2052860D01*
X-911020Y+1632540D01*
D61*
X-775648Y+1784684D02*
X-775648Y+1900715D01*
X-698294Y+1900715D01*
X-659617Y+1862038D01*
X-659617Y+1823361D01*
X-698294Y+1784684D01*
X-775648Y+1784684D01*
X-582263Y+1842700D02*
X-601602Y+1862038D01*
X-601602Y+1881377D01*
X-582263Y+1900715D01*
X-524248Y+1900715D01*
X-504909Y+1881377D01*
X-504909Y+1862038D01*
X-524248Y+1842700D01*
X-582263Y+1842700D01*
X-601602Y+1823361D01*
X-601602Y+1804022D01*
X-582263Y+1784684D01*
X-524248Y+1784684D01*
X-504909Y+1804022D01*
X-504909Y+1823361D01*
X-524248Y+1842700D01*
D73*
X-929920Y+2703800D02*
X-752120Y+2703800D01*
X-752120Y+3641600D01*
X-929920Y+3641600D01*
X-929920Y+2703800D01*
D56*
X-809016Y+3087356D02*
X-873024Y+3087356D01*
X-873024Y+3130028D01*
X-851688Y+3151364D01*
X-830352Y+3151364D01*
X-809016Y+3130028D01*
X-809016Y+3087356D01*
X-873024Y+3183368D02*
X-873024Y+3236708D01*
X-862356Y+3236708D01*
X-809016Y+3183368D01*
D73*
X-1274180Y+2173800D02*
X-953860Y+2173800D01*
X-953860Y+3651600D01*
X-1274180Y+3651600D01*
X-1274180Y+2173800D01*
D60*
X-1056362Y+2758947D02*
X-1171677Y+2758947D01*
X-1171677Y+2855042D01*
X-1152458Y+2874261D01*
X-1133239Y+2874261D01*
X-1114020Y+2855042D01*
X-1114020Y+2758947D01*
X-1114020Y+2855042D02*
X-1094800Y+2874261D01*
X-1056362Y+2874261D01*
X-1133239Y+3028014D02*
X-1114020Y+3008795D01*
X-1114020Y+2951138D01*
X-1133239Y+2931919D01*
X-1152458Y+2931919D01*
X-1171677Y+2951138D01*
X-1171677Y+3008795D01*
X-1152458Y+3028014D01*
X-1075581Y+3028014D01*
X-1056362Y+3008795D01*
X-1056362Y+2951138D01*
D73*
X-1521920Y+1474800D02*
X-1344120Y+1474800D01*
X-1344120Y+2668600D01*
X-1521920Y+2668600D01*
X-1521920Y+1474800D01*
D56*
X-1401016Y+1943684D02*
X-1465024Y+1943684D01*
X-1465024Y+1997024D01*
X-1454356Y+2007692D01*
X-1443688Y+2007692D01*
X-1433020Y+1997024D01*
X-1433020Y+1943684D01*
X-1433020Y+1997024D02*
X-1422352Y+2007692D01*
X-1401016Y+2007692D01*
X-1443688Y+2050364D02*
X-1465024Y+2071700D01*
X-1401016Y+2071700D01*
X-1411684Y+2114372D02*
X-1454356Y+2114372D01*
X-1465024Y+2125040D01*
X-1465024Y+2167712D01*
X-1454356Y+2178380D01*
X-1411684Y+2178380D01*
X-1401016Y+2167712D01*
X-1401016Y+2125040D01*
X-1411684Y+2114372D01*
X-1401016Y+2114372D02*
X-1465024Y+2178380D01*
D73*
X-1501020Y+1605540D02*
X-920860Y+1605540D01*
X-920860Y+2025860D01*
X-1501020Y+2025860D01*
X-1501020Y+1605540D01*
D62*
X-1384988Y+1772188D02*
X-1384988Y+1859212D01*
X-1326972Y+1859212D01*
X-1297964Y+1830204D01*
X-1297964Y+1801196D01*
X-1326972Y+1772188D01*
X-1384988Y+1772188D01*
X-1239948Y+1830204D02*
X-1210940Y+1859212D01*
X-1210940Y+1772188D01*
X-1152924Y+1786692D02*
X-1152924Y+1844708D01*
X-1138420Y+1859212D01*
X-1080404Y+1859212D01*
X-1065900Y+1844708D01*
X-1065900Y+1786692D01*
X-1080404Y+1772188D01*
X-1138420Y+1772188D01*
X-1152924Y+1786692D01*
X-1152924Y+1772188D02*
X-1065900Y+1859212D01*
D73*
X-1519920Y+2703800D02*
X-1342120Y+2703800D01*
X-1342120Y+3641600D01*
X-1519920Y+3641600D01*
X-1519920Y+2703800D01*
D56*
X-1399016Y+3087356D02*
X-1463024Y+3087356D01*
X-1463024Y+3130028D01*
X-1441688Y+3151364D01*
X-1420352Y+3151364D01*
X-1399016Y+3130028D01*
X-1399016Y+3087356D01*
X-1441688Y+3236708D02*
X-1431020Y+3226040D01*
X-1431020Y+3194036D01*
X-1441688Y+3183368D01*
X-1452356Y+3183368D01*
X-1463024Y+3194036D01*
X-1463024Y+3226040D01*
X-1452356Y+3236708D01*
X-1409684Y+3236708D01*
X-1399016Y+3226040D01*
X-1399016Y+3194036D01*
D73*
X-1877180Y+2173800D02*
X-1556860Y+2173800D01*
X-1556860Y+3651600D01*
X-1877180Y+3651600D01*
X-1877180Y+2173800D01*
D60*
X-1659362Y+2682071D02*
X-1774677Y+2682071D01*
X-1774677Y+2778166D01*
X-1755458Y+2797385D01*
X-1736239Y+2797385D01*
X-1717020Y+2778166D01*
X-1717020Y+2682071D01*
X-1717020Y+2778166D02*
X-1697800Y+2797385D01*
X-1659362Y+2797385D01*
X-1736239Y+2874262D02*
X-1774677Y+2912700D01*
X-1659362Y+2912700D01*
X-1736239Y+3028015D02*
X-1774677Y+3066453D01*
X-1659362Y+3066453D01*
D73*
X-2126920Y+1474800D02*
X-1949120Y+1474800D01*
X-1949120Y+2668600D01*
X-2126920Y+2668600D01*
X-2126920Y+1474800D01*
D56*
X-2006016Y+1943684D02*
X-2070024Y+1943684D01*
X-2070024Y+1997024D01*
X-2059356Y+2007692D01*
X-2048688Y+2007692D01*
X-2038020Y+1997024D01*
X-2038020Y+1943684D01*
X-2038020Y+1997024D02*
X-2027352Y+2007692D01*
X-2006016Y+2007692D01*
X-2048688Y+2050364D02*
X-2070024Y+2071700D01*
X-2006016Y+2071700D01*
X-2059356Y+2125040D02*
X-2070024Y+2135708D01*
X-2070024Y+2167712D01*
X-2059356Y+2178380D01*
X-2048688Y+2178380D01*
X-2038020Y+2167712D01*
X-2038020Y+2135708D01*
X-2027352Y+2125040D01*
X-2006016Y+2125040D01*
X-2006016Y+2178380D01*
D73*
X-2111020Y+1627540D02*
X-1530860Y+1627540D01*
X-1530860Y+2047860D01*
X-2111020Y+2047860D01*
X-2111020Y+1627540D01*
D62*
X-1994988Y+1794188D02*
X-1994988Y+1881212D01*
X-1936972Y+1881212D01*
X-1907964Y+1852204D01*
X-1907964Y+1823196D01*
X-1936972Y+1794188D01*
X-1994988Y+1794188D01*
X-1849948Y+1852204D02*
X-1820940Y+1881212D01*
X-1820940Y+1794188D01*
X-1748420Y+1866708D02*
X-1733916Y+1881212D01*
X-1690404Y+1881212D01*
X-1675900Y+1866708D01*
X-1675900Y+1852204D01*
X-1690404Y+1837700D01*
X-1733916Y+1837700D01*
X-1748420Y+1823196D01*
X-1748420Y+1794188D01*
X-1675900Y+1794188D01*
D73*
X-2139920Y+2713800D02*
X-1962120Y+2713800D01*
X-1962120Y+3651600D01*
X-2139920Y+3651600D01*
X-2139920Y+2713800D01*
D56*
X-2019016Y+3054684D02*
X-2083024Y+3054684D01*
X-2083024Y+3097356D01*
X-2061688Y+3118692D01*
X-2040352Y+3118692D01*
X-2019016Y+3097356D01*
X-2019016Y+3054684D01*
X-2061688Y+3161364D02*
X-2083024Y+3182700D01*
X-2019016Y+3182700D01*
X-2061688Y+3246708D02*
X-2083024Y+3268044D01*
X-2019016Y+3268044D01*
D73*
X-2505180Y+2171800D02*
X-2184860Y+2171800D01*
X-2184860Y+3649600D01*
X-2505180Y+3649600D01*
X-2505180Y+2171800D01*
D60*
X-2287362Y+2680071D02*
X-2402677Y+2680071D01*
X-2402677Y+2776166D01*
X-2383458Y+2795385D01*
X-2364239Y+2795385D01*
X-2345020Y+2776166D01*
X-2345020Y+2680071D01*
X-2345020Y+2776166D02*
X-2325800Y+2795385D01*
X-2287362Y+2795385D01*
X-2364239Y+2872262D02*
X-2402677Y+2910700D01*
X-2287362Y+2910700D01*
X-2383458Y+3006796D02*
X-2402677Y+3026015D01*
X-2402677Y+3083672D01*
X-2383458Y+3102891D01*
X-2364239Y+3102891D01*
X-2345020Y+3083672D01*
X-2325800Y+3102891D01*
X-2306581Y+3102891D01*
X-2287362Y+3083672D01*
X-2287362Y+3026015D01*
X-2306581Y+3006796D01*
X-2345020Y+3045234D02*
X-2345020Y+3083672D01*
D73*
X-2732920Y+1471800D02*
X-2555120Y+1471800D01*
X-2555120Y+2665600D01*
X-2732920Y+2665600D01*
X-2732920Y+1471800D01*
D56*
X-2612016Y+1940684D02*
X-2676024Y+1940684D01*
X-2676024Y+1994024D01*
X-2665356Y+2004692D01*
X-2654688Y+2004692D01*
X-2644020Y+1994024D01*
X-2644020Y+1940684D01*
X-2644020Y+1994024D02*
X-2633352Y+2004692D01*
X-2612016Y+2004692D01*
X-2654688Y+2047364D02*
X-2676024Y+2068700D01*
X-2612016Y+2068700D01*
X-2633352Y+2175380D02*
X-2633352Y+2111372D01*
X-2676024Y+2154044D01*
X-2612016Y+2154044D01*
D73*
X-2711020Y+1608540D02*
X-2130860Y+1608540D01*
X-2130860Y+2028860D01*
X-2711020Y+2028860D01*
X-2711020Y+1608540D01*
D62*
X-2594988Y+1775188D02*
X-2594988Y+1862212D01*
X-2536972Y+1862212D01*
X-2507964Y+1833204D01*
X-2507964Y+1804196D01*
X-2536972Y+1775188D01*
X-2594988Y+1775188D01*
X-2449948Y+1833204D02*
X-2420940Y+1862212D01*
X-2420940Y+1775188D01*
X-2275900Y+1804196D02*
X-2362924Y+1804196D01*
X-2304908Y+1862212D01*
X-2304908Y+1775188D01*
D73*
X-2729920Y+2703800D02*
X-2552120Y+2703800D01*
X-2552120Y+3641600D01*
X-2729920Y+3641600D01*
X-2729920Y+2703800D01*
D56*
X-2609016Y+3044684D02*
X-2673024Y+3044684D01*
X-2673024Y+3087356D01*
X-2651688Y+3108692D01*
X-2630352Y+3108692D01*
X-2609016Y+3087356D01*
X-2609016Y+3044684D01*
X-2651688Y+3151364D02*
X-2673024Y+3172700D01*
X-2609016Y+3172700D01*
X-2662356Y+3226040D02*
X-2673024Y+3236708D01*
X-2673024Y+3268712D01*
X-2662356Y+3279380D01*
X-2651688Y+3279380D01*
X-2641020Y+3268712D01*
X-2630352Y+3279380D01*
X-2619684Y+3279380D01*
X-2609016Y+3268712D01*
X-2609016Y+3236708D01*
X-2619684Y+3226040D01*
X-2641020Y+3247376D02*
X-2641020Y+3268712D01*
D73*
X-3080180Y+2174800D02*
X-2759860Y+2174800D01*
X-2759860Y+3652600D01*
X-3080180Y+3652600D01*
X-3080180Y+2174800D01*
D60*
X-2862362Y+2683071D02*
X-2977677Y+2683071D01*
X-2977677Y+2779166D01*
X-2958458Y+2798385D01*
X-2939239Y+2798385D01*
X-2920020Y+2779166D01*
X-2920020Y+2683071D01*
X-2920020Y+2779166D02*
X-2900800Y+2798385D01*
X-2862362Y+2798385D01*
X-2939239Y+2875262D02*
X-2977677Y+2913700D01*
X-2862362Y+2913700D01*
X-2977677Y+3105891D02*
X-2977677Y+3009796D01*
X-2939239Y+3009796D01*
X-2939239Y+3086672D01*
X-2920020Y+3105891D01*
X-2881581Y+3105891D01*
X-2862362Y+3086672D01*
X-2862362Y+3029015D01*
X-2881581Y+3009796D01*
D73*
X-3334920Y+1467800D02*
X-3157120Y+1467800D01*
X-3157120Y+2661600D01*
X-3334920Y+2661600D01*
X-3334920Y+1467800D01*
D56*
X-3214016Y+1936684D02*
X-3278024Y+1936684D01*
X-3278024Y+1990024D01*
X-3267356Y+2000692D01*
X-3256688Y+2000692D01*
X-3246020Y+1990024D01*
X-3246020Y+1936684D01*
X-3246020Y+1990024D02*
X-3235352Y+2000692D01*
X-3214016Y+2000692D01*
X-3256688Y+2043364D02*
X-3278024Y+2064700D01*
X-3214016Y+2064700D01*
X-3267356Y+2171380D02*
X-3278024Y+2160712D01*
X-3278024Y+2128708D01*
X-3267356Y+2118040D01*
X-3224684Y+2118040D01*
X-3214016Y+2128708D01*
X-3214016Y+2160712D01*
X-3224684Y+2171380D01*
X-3235352Y+2171380D01*
X-3246020Y+2160712D01*
X-3246020Y+2118040D01*
D73*
X-3308020Y+1616540D02*
X-2727860Y+1616540D01*
X-2727860Y+2036860D01*
X-3308020Y+2036860D01*
X-3308020Y+1616540D01*
D62*
X-3191988Y+1783188D02*
X-3191988Y+1870212D01*
X-3133972Y+1870212D01*
X-3104964Y+1841204D01*
X-3104964Y+1812196D01*
X-3133972Y+1783188D01*
X-3191988Y+1783188D01*
X-3046948Y+1841204D02*
X-3017940Y+1870212D01*
X-3017940Y+1783188D01*
X-2872900Y+1855708D02*
X-2887404Y+1870212D01*
X-2930916Y+1870212D01*
X-2945420Y+1855708D01*
X-2945420Y+1797692D01*
X-2930916Y+1783188D01*
X-2887404Y+1783188D01*
X-2872900Y+1797692D01*
X-2872900Y+1812196D01*
X-2887404Y+1826700D01*
X-2945420Y+1826700D01*
D73*
X-3329920Y+2703800D02*
X-3152120Y+2703800D01*
X-3152120Y+3641600D01*
X-3329920Y+3641600D01*
X-3329920Y+2703800D01*
D56*
X-3209016Y+3044684D02*
X-3273024Y+3044684D01*
X-3273024Y+3087356D01*
X-3251688Y+3108692D01*
X-3230352Y+3108692D01*
X-3209016Y+3087356D01*
X-3209016Y+3044684D01*
X-3251688Y+3151364D02*
X-3273024Y+3172700D01*
X-3209016Y+3172700D01*
X-3273024Y+3279380D02*
X-3273024Y+3226040D01*
X-3251688Y+3226040D01*
X-3251688Y+3268712D01*
X-3241020Y+3279380D01*
X-3219684Y+3279380D01*
X-3209016Y+3268712D01*
X-3209016Y+3236708D01*
X-3219684Y+3226040D01*
D73*
X+2173480Y-4826800D02*
X+2351280Y-4826800D01*
X+2351280Y-3633000D01*
X+2173480Y-3633000D01*
X+2173480Y-4826800D01*
D56*
X+2294384Y-4357916D02*
X+2230376Y-4357916D01*
X+2230376Y-4304576D01*
X+2241044Y-4293908D01*
X+2251712Y-4293908D01*
X+2262380Y-4304576D01*
X+2262380Y-4357916D01*
X+2262380Y-4304576D02*
X+2273048Y-4293908D01*
X+2294384Y-4293908D01*
X+2251712Y-4251236D02*
X+2230376Y-4229900D01*
X+2294384Y-4229900D01*
X+2230376Y-4176560D02*
X+2230376Y-4123220D01*
X+2241044Y-4123220D01*
X+2294384Y-4176560D01*
D73*
X+3055660Y-3307580D02*
X+3635820Y-3307580D01*
X+3635820Y-2887260D01*
X+3055660Y-2887260D01*
X+3055660Y-3307580D01*
D62*
X+3171692Y-3140932D02*
X+3171692Y-3053908D01*
X+3229708Y-3053908D01*
X+3258716Y-3082916D01*
X+3258716Y-3111924D01*
X+3229708Y-3140932D01*
X+3171692Y-3140932D01*
X+3316732Y-3082916D02*
X+3345740Y-3053908D01*
X+3345740Y-3140932D01*
X+3418260Y-3053908D02*
X+3490780Y-3053908D01*
X+3490780Y-3068412D01*
X+3418260Y-3140932D01*
D73*
X+2391920Y-4829340D02*
X+2569720Y-4829340D01*
X+2569720Y-3635540D01*
X+2391920Y-3635540D01*
X+2391920Y-4829340D01*
D56*
X+2512824Y-4360456D02*
X+2448816Y-4360456D01*
X+2448816Y-4307116D01*
X+2459484Y-4296448D01*
X+2470152Y-4296448D01*
X+2480820Y-4307116D01*
X+2480820Y-4360456D01*
X+2480820Y-4307116D02*
X+2491488Y-4296448D01*
X+2512824Y-4296448D01*
X+2470152Y-4253776D02*
X+2448816Y-4232440D01*
X+2512824Y-4232440D01*
X+2480820Y-4168432D02*
X+2470152Y-4179100D01*
X+2459484Y-4179100D01*
X+2448816Y-4168432D01*
X+2448816Y-4136428D01*
X+2459484Y-4125760D01*
X+2470152Y-4125760D01*
X+2480820Y-4136428D01*
X+2480820Y-4168432D01*
X+2491488Y-4179100D01*
X+2502156Y-4179100D01*
X+2512824Y-4168432D01*
X+2512824Y-4136428D01*
X+2502156Y-4125760D01*
X+2491488Y-4125760D01*
X+2480820Y-4136428D01*
D73*
X+3429840Y-3054340D02*
X+4010000Y-3054340D01*
X+4010000Y-2634020D01*
X+3429840Y-2634020D01*
X+3429840Y-3054340D01*
D62*
X+3545872Y-2887692D02*
X+3545872Y-2800668D01*
X+3603888Y-2800668D01*
X+3632896Y-2829676D01*
X+3632896Y-2858684D01*
X+3603888Y-2887692D01*
X+3545872Y-2887692D01*
X+3690912Y-2829676D02*
X+3719920Y-2800668D01*
X+3719920Y-2887692D01*
X+3806944Y-2844180D02*
X+3792440Y-2829676D01*
X+3792440Y-2815172D01*
X+3806944Y-2800668D01*
X+3850456Y-2800668D01*
X+3864960Y-2815172D01*
X+3864960Y-2829676D01*
X+3850456Y-2844180D01*
X+3806944Y-2844180D01*
X+3792440Y-2858684D01*
X+3792440Y-2873188D01*
X+3806944Y-2887692D01*
X+3850456Y-2887692D01*
X+3864960Y-2873188D01*
X+3864960Y-2858684D01*
X+3850456Y-2844180D01*
D73*
X+2605280Y-4836960D02*
X+2783080Y-4836960D01*
X+2783080Y-3643160D01*
X+2605280Y-3643160D01*
X+2605280Y-4836960D01*
D56*
X+2726184Y-4368076D02*
X+2662176Y-4368076D01*
X+2662176Y-4314736D01*
X+2672844Y-4304068D01*
X+2683512Y-4304068D01*
X+2694180Y-4314736D01*
X+2694180Y-4368076D01*
X+2694180Y-4314736D02*
X+2704848Y-4304068D01*
X+2726184Y-4304068D01*
X+2683512Y-4261396D02*
X+2662176Y-4240060D01*
X+2726184Y-4240060D01*
X+2683512Y-4133380D02*
X+2694180Y-4144048D01*
X+2694180Y-4176052D01*
X+2683512Y-4186720D01*
X+2672844Y-4186720D01*
X+2662176Y-4176052D01*
X+2662176Y-4144048D01*
X+2672844Y-4133380D01*
X+2715516Y-4133380D01*
X+2726184Y-4144048D01*
X+2726184Y-4176052D01*
D73*
X+3041220Y-2698740D02*
X+3621380Y-2698740D01*
X+3621380Y-2278420D01*
X+3041220Y-2278420D01*
X+3041220Y-2698740D01*
D62*
X+3157252Y-2532092D02*
X+3157252Y-2445068D01*
X+3215268Y-2445068D01*
X+3244276Y-2474076D01*
X+3244276Y-2503084D01*
X+3215268Y-2532092D01*
X+3157252Y-2532092D01*
X+3302292Y-2474076D02*
X+3331300Y-2445068D01*
X+3331300Y-2532092D01*
X+3476340Y-2474076D02*
X+3461836Y-2488580D01*
X+3418324Y-2488580D01*
X+3403820Y-2474076D01*
X+3403820Y-2459572D01*
X+3418324Y-2445068D01*
X+3461836Y-2445068D01*
X+3476340Y-2459572D01*
X+3476340Y-2517588D01*
X+3461836Y-2532092D01*
X+3418324Y-2532092D01*
D73*
X+2811020Y-4831880D02*
X+2988820Y-4831880D01*
X+2988820Y-3638080D01*
X+2811020Y-3638080D01*
X+2811020Y-4831880D01*
D56*
X+2931924Y-4362996D02*
X+2867916Y-4362996D01*
X+2867916Y-4309656D01*
X+2878584Y-4298988D01*
X+2889252Y-4298988D01*
X+2899920Y-4309656D01*
X+2899920Y-4362996D01*
X+2899920Y-4309656D02*
X+2910588Y-4298988D01*
X+2931924Y-4298988D01*
X+2878584Y-4266984D02*
X+2867916Y-4256316D01*
X+2867916Y-4224312D01*
X+2878584Y-4213644D01*
X+2889252Y-4213644D01*
X+2899920Y-4224312D01*
X+2899920Y-4256316D01*
X+2910588Y-4266984D01*
X+2931924Y-4266984D01*
X+2931924Y-4213644D01*
X+2921256Y-4192308D02*
X+2878584Y-4192308D01*
X+2867916Y-4181640D01*
X+2867916Y-4138968D01*
X+2878584Y-4128300D01*
X+2921256Y-4128300D01*
X+2931924Y-4138968D01*
X+2931924Y-4181640D01*
X+2921256Y-4192308D01*
X+2931924Y-4192308D02*
X+2867916Y-4128300D01*
D73*
X+3459520Y-2507480D02*
X+4039680Y-2507480D01*
X+4039680Y-2087160D01*
X+3459520Y-2087160D01*
X+3459520Y-2507480D01*
D62*
X+3575552Y-2340832D02*
X+3575552Y-2253808D01*
X+3633568Y-2253808D01*
X+3662576Y-2282816D01*
X+3662576Y-2311824D01*
X+3633568Y-2340832D01*
X+3575552Y-2340832D01*
X+3706088Y-2268312D02*
X+3720592Y-2253808D01*
X+3764104Y-2253808D01*
X+3778608Y-2268312D01*
X+3778608Y-2282816D01*
X+3764104Y-2297320D01*
X+3720592Y-2297320D01*
X+3706088Y-2311824D01*
X+3706088Y-2340832D01*
X+3778608Y-2340832D01*
X+3807616Y-2326328D02*
X+3807616Y-2268312D01*
X+3822120Y-2253808D01*
X+3880136Y-2253808D01*
X+3894640Y-2268312D01*
X+3894640Y-2326328D01*
X+3880136Y-2340832D01*
X+3822120Y-2340832D01*
X+3807616Y-2326328D01*
X+3807616Y-2340832D02*
X+3894640Y-2253808D01*
D73*
X+3014220Y-4839500D02*
X+3192020Y-4839500D01*
X+3192020Y-3645700D01*
X+3014220Y-3645700D01*
X+3014220Y-4839500D01*
D56*
X+3135124Y-4370616D02*
X+3071116Y-4370616D01*
X+3071116Y-4317276D01*
X+3081784Y-4306608D01*
X+3092452Y-4306608D01*
X+3103120Y-4317276D01*
X+3103120Y-4370616D01*
X+3103120Y-4317276D02*
X+3113788Y-4306608D01*
X+3135124Y-4306608D01*
X+3081784Y-4274604D02*
X+3071116Y-4263936D01*
X+3071116Y-4231932D01*
X+3081784Y-4221264D01*
X+3092452Y-4221264D01*
X+3103120Y-4231932D01*
X+3103120Y-4263936D01*
X+3113788Y-4274604D01*
X+3135124Y-4274604D01*
X+3135124Y-4221264D01*
X+3092452Y-4178592D02*
X+3071116Y-4157256D01*
X+3135124Y-4157256D01*
D73*
X+3008200Y-2166580D02*
X+3588360Y-2166580D01*
X+3588360Y-1746260D01*
X+3008200Y-1746260D01*
X+3008200Y-2166580D01*
D62*
X+3124232Y-1999932D02*
X+3124232Y-1912908D01*
X+3182248Y-1912908D01*
X+3211256Y-1941916D01*
X+3211256Y-1970924D01*
X+3182248Y-1999932D01*
X+3124232Y-1999932D01*
X+3254768Y-1927412D02*
X+3269272Y-1912908D01*
X+3312784Y-1912908D01*
X+3327288Y-1927412D01*
X+3327288Y-1941916D01*
X+3312784Y-1956420D01*
X+3269272Y-1956420D01*
X+3254768Y-1970924D01*
X+3254768Y-1999932D01*
X+3327288Y-1999932D01*
X+3385304Y-1941916D02*
X+3414312Y-1912908D01*
X+3414312Y-1999932D01*
D73*
X+3218980Y-4842000D02*
X+3396780Y-4842000D01*
X+3396780Y-3648200D01*
X+3218980Y-3648200D01*
X+3218980Y-4842000D01*
D56*
X+3339884Y-4373116D02*
X+3275876Y-4373116D01*
X+3275876Y-4319776D01*
X+3286544Y-4309108D01*
X+3297212Y-4309108D01*
X+3307880Y-4319776D01*
X+3307880Y-4373116D01*
X+3307880Y-4319776D02*
X+3318548Y-4309108D01*
X+3339884Y-4309108D01*
X+3286544Y-4277104D02*
X+3275876Y-4266436D01*
X+3275876Y-4234432D01*
X+3286544Y-4223764D01*
X+3297212Y-4223764D01*
X+3307880Y-4234432D01*
X+3307880Y-4266436D01*
X+3318548Y-4277104D01*
X+3339884Y-4277104D01*
X+3339884Y-4223764D01*
X+3286544Y-4191760D02*
X+3275876Y-4181092D01*
X+3275876Y-4149088D01*
X+3286544Y-4138420D01*
X+3297212Y-4138420D01*
X+3307880Y-4149088D01*
X+3307880Y-4181092D01*
X+3318548Y-4191760D01*
X+3339884Y-4191760D01*
X+3339884Y-4138420D01*
D73*
X+3454440Y-1986780D02*
X+4034600Y-1986780D01*
X+4034600Y-1566460D01*
X+3454440Y-1566460D01*
X+3454440Y-1986780D01*
D62*
X+3570472Y-1820132D02*
X+3570472Y-1733108D01*
X+3628488Y-1733108D01*
X+3657496Y-1762116D01*
X+3657496Y-1791124D01*
X+3628488Y-1820132D01*
X+3570472Y-1820132D01*
X+3701008Y-1747612D02*
X+3715512Y-1733108D01*
X+3759024Y-1733108D01*
X+3773528Y-1747612D01*
X+3773528Y-1762116D01*
X+3759024Y-1776620D01*
X+3715512Y-1776620D01*
X+3701008Y-1791124D01*
X+3701008Y-1820132D01*
X+3773528Y-1820132D01*
X+3817040Y-1747612D02*
X+3831544Y-1733108D01*
X+3875056Y-1733108D01*
X+3889560Y-1747612D01*
X+3889560Y-1762116D01*
X+3875056Y-1776620D01*
X+3831544Y-1776620D01*
X+3817040Y-1791124D01*
X+3817040Y-1820132D01*
X+3889560Y-1820132D01*
D73*
X+3423920Y-4841240D02*
X+3601720Y-4841240D01*
X+3601720Y-3647440D01*
X+3423920Y-3647440D01*
X+3423920Y-4841240D01*
D56*
X+3544824Y-4372356D02*
X+3480816Y-4372356D01*
X+3480816Y-4319016D01*
X+3491484Y-4308348D01*
X+3502152Y-4308348D01*
X+3512820Y-4319016D01*
X+3512820Y-4372356D01*
X+3512820Y-4319016D02*
X+3523488Y-4308348D01*
X+3544824Y-4308348D01*
X+3491484Y-4276344D02*
X+3480816Y-4265676D01*
X+3480816Y-4233672D01*
X+3491484Y-4223004D01*
X+3502152Y-4223004D01*
X+3512820Y-4233672D01*
X+3512820Y-4265676D01*
X+3523488Y-4276344D01*
X+3544824Y-4276344D01*
X+3544824Y-4223004D01*
X+3491484Y-4191000D02*
X+3480816Y-4180332D01*
X+3480816Y-4148328D01*
X+3491484Y-4137660D01*
X+3502152Y-4137660D01*
X+3512820Y-4148328D01*
X+3523488Y-4137660D01*
X+3534156Y-4137660D01*
X+3544824Y-4148328D01*
X+3544824Y-4180332D01*
X+3534156Y-4191000D01*
X+3512820Y-4169664D02*
X+3512820Y-4148328D01*
D73*
X+3015060Y-1670840D02*
X+3595220Y-1670840D01*
X+3595220Y-1250520D01*
X+3015060Y-1250520D01*
X+3015060Y-1670840D01*
D62*
X+3131092Y-1504192D02*
X+3131092Y-1417168D01*
X+3189108Y-1417168D01*
X+3218116Y-1446176D01*
X+3218116Y-1475184D01*
X+3189108Y-1504192D01*
X+3131092Y-1504192D01*
X+3261628Y-1431672D02*
X+3276132Y-1417168D01*
X+3319644Y-1417168D01*
X+3334148Y-1431672D01*
X+3334148Y-1446176D01*
X+3319644Y-1460680D01*
X+3276132Y-1460680D01*
X+3261628Y-1475184D01*
X+3261628Y-1504192D01*
X+3334148Y-1504192D01*
X+3377660Y-1431672D02*
X+3392164Y-1417168D01*
X+3435676Y-1417168D01*
X+3450180Y-1431672D01*
X+3450180Y-1446176D01*
X+3435676Y-1460680D01*
X+3450180Y-1475184D01*
X+3450180Y-1489688D01*
X+3435676Y-1504192D01*
X+3392164Y-1504192D01*
X+3377660Y-1489688D01*
X+3406668Y-1460680D02*
X+3435676Y-1460680D01*
D73*
X+3631900Y-4844400D02*
X+3809700Y-4844400D01*
X+3809700Y-3650600D01*
X+3631900Y-3650600D01*
X+3631900Y-4844400D01*
D56*
X+3752804Y-4375516D02*
X+3688796Y-4375516D01*
X+3688796Y-4322176D01*
X+3699464Y-4311508D01*
X+3710132Y-4311508D01*
X+3720800Y-4322176D01*
X+3720800Y-4375516D01*
X+3720800Y-4322176D02*
X+3731468Y-4311508D01*
X+3752804Y-4311508D01*
X+3699464Y-4279504D02*
X+3688796Y-4268836D01*
X+3688796Y-4236832D01*
X+3699464Y-4226164D01*
X+3710132Y-4226164D01*
X+3720800Y-4236832D01*
X+3720800Y-4268836D01*
X+3731468Y-4279504D01*
X+3752804Y-4279504D01*
X+3752804Y-4226164D01*
X+3731468Y-4140820D02*
X+3731468Y-4204828D01*
X+3688796Y-4162156D01*
X+3752804Y-4162156D01*
D73*
X+3466280Y-1491140D02*
X+4046440Y-1491140D01*
X+4046440Y-1070820D01*
X+3466280Y-1070820D01*
X+3466280Y-1491140D01*
D62*
X+3582312Y-1324492D02*
X+3582312Y-1237468D01*
X+3640328Y-1237468D01*
X+3669336Y-1266476D01*
X+3669336Y-1295484D01*
X+3640328Y-1324492D01*
X+3582312Y-1324492D01*
X+3712848Y-1251972D02*
X+3727352Y-1237468D01*
X+3770864Y-1237468D01*
X+3785368Y-1251972D01*
X+3785368Y-1266476D01*
X+3770864Y-1280980D01*
X+3727352Y-1280980D01*
X+3712848Y-1295484D01*
X+3712848Y-1324492D01*
X+3785368Y-1324492D01*
X+3901400Y-1295484D02*
X+3814376Y-1295484D01*
X+3872392Y-1237468D01*
X+3872392Y-1324492D01*
D73*
X-3934460Y+2407920D02*
X-3756660Y+2407920D01*
X-3756660Y+3601720D01*
X-3934460Y+3601720D01*
X-3934460Y+2407920D01*
D56*
X-3813556Y+2876804D02*
X-3877564Y+2876804D01*
X-3877564Y+2930144D01*
X-3866896Y+2940812D01*
X-3856228Y+2940812D01*
X-3845560Y+2930144D01*
X-3845560Y+2876804D01*
X-3845560Y+2930144D02*
X-3834892Y+2940812D01*
X-3813556Y+2940812D01*
X-3866896Y+2972816D02*
X-3877564Y+2983484D01*
X-3877564Y+3015488D01*
X-3866896Y+3026156D01*
X-3856228Y+3026156D01*
X-3845560Y+3015488D01*
X-3845560Y+2983484D01*
X-3834892Y+2972816D01*
X-3813556Y+2972816D01*
X-3813556Y+3026156D01*
X-3866896Y+3111500D02*
X-3877564Y+3100832D01*
X-3877564Y+3068828D01*
X-3866896Y+3058160D01*
X-3824224Y+3058160D01*
X-3813556Y+3068828D01*
X-3813556Y+3100832D01*
X-3824224Y+3111500D01*
X-3834892Y+3111500D01*
X-3845560Y+3100832D01*
X-3845560Y+3058160D01*
D73*
X-4874220Y+3813200D02*
X-4453900Y+3813200D01*
X-4453900Y+4393360D01*
X-4874220Y+4393360D01*
X-4874220Y+3813200D01*
D62*
X-4620548Y+3929232D02*
X-4707572Y+3929232D01*
X-4707572Y+3987248D01*
X-4678564Y+4016256D01*
X-4649556Y+4016256D01*
X-4620548Y+3987248D01*
X-4620548Y+3929232D01*
X-4693068Y+4059768D02*
X-4707572Y+4074272D01*
X-4707572Y+4117784D01*
X-4693068Y+4132288D01*
X-4678564Y+4132288D01*
X-4664060Y+4117784D01*
X-4664060Y+4074272D01*
X-4649556Y+4059768D01*
X-4620548Y+4059768D01*
X-4620548Y+4132288D01*
X-4693068Y+4248320D02*
X-4707572Y+4233816D01*
X-4707572Y+4190304D01*
X-4693068Y+4175800D01*
X-4635052Y+4175800D01*
X-4620548Y+4190304D01*
X-4620548Y+4233816D01*
X-4635052Y+4248320D01*
X-4649556Y+4248320D01*
X-4664060Y+4233816D01*
X-4664060Y+4175800D01*
D73*
X-4305300Y+175260D02*
X-4127500Y+175260D01*
X-4127500Y+1369060D01*
X-4305300Y+1369060D01*
X-4305300Y+175260D01*
D56*
X-4184396Y+644144D02*
X-4248404Y+644144D01*
X-4248404Y+697484D01*
X-4237736Y+708152D01*
X-4227068Y+708152D01*
X-4216400Y+697484D01*
X-4216400Y+644144D01*
X-4216400Y+697484D02*
X-4205732Y+708152D01*
X-4184396Y+708152D01*
X-4237736Y+740156D02*
X-4248404Y+750824D01*
X-4248404Y+782828D01*
X-4237736Y+793496D01*
X-4227068Y+793496D01*
X-4216400Y+782828D01*
X-4205732Y+793496D01*
X-4195064Y+793496D01*
X-4184396Y+782828D01*
X-4184396Y+750824D01*
X-4195064Y+740156D01*
X-4216400Y+761492D02*
X-4216400Y+782828D01*
X-4205732Y+878840D02*
X-4205732Y+814832D01*
X-4248404Y+857504D01*
X-4184396Y+857504D01*
D73*
X-3461260Y+176060D02*
X-3283460Y+176060D01*
X-3283460Y+1369860D01*
X-3461260Y+1369860D01*
X-3461260Y+176060D01*
D56*
X-3340356Y+644944D02*
X-3404364Y+644944D01*
X-3404364Y+698284D01*
X-3393696Y+708952D01*
X-3383028Y+708952D01*
X-3372360Y+698284D01*
X-3372360Y+644944D01*
X-3372360Y+698284D02*
X-3361692Y+708952D01*
X-3340356Y+708952D01*
X-3393696Y+740956D02*
X-3404364Y+751624D01*
X-3404364Y+783628D01*
X-3393696Y+794296D01*
X-3383028Y+794296D01*
X-3372360Y+783628D01*
X-3361692Y+794296D01*
X-3351024Y+794296D01*
X-3340356Y+783628D01*
X-3340356Y+751624D01*
X-3351024Y+740956D01*
X-3372360Y+762292D02*
X-3372360Y+783628D01*
X-3404364Y+879640D02*
X-3404364Y+826300D01*
X-3383028Y+826300D01*
X-3383028Y+868972D01*
X-3372360Y+879640D01*
X-3351024Y+879640D01*
X-3340356Y+868972D01*
X-3340356Y+836968D01*
X-3351024Y+826300D01*
D73*
X+2108540Y+3891560D02*
X+3628860Y+3891560D01*
X+3628860Y+4911880D01*
X+2108540Y+4911880D01*
X+2108540Y+3891560D01*
X-4587400Y-2331860D02*
X+1503520Y-2331860D01*
X+1503520Y-2105800D01*
X-4587400Y-2105800D01*
X-4587400Y-2331860D01*
M02*
