M48
METRIC,TZ
T01C0.3810
T02C0.5080
T03C0.7620
T04C0.8890
T05C0.8500
T06C1.5240
T07C0.7500
T08C1.0160
T09C3.6000
%
T01
X+27940Y-35560
X+14605Y+19050
X-6985Y-3175
X+2540Y-1270
X-14605Y-10160
X-17780Y-10160
X-17780Y-5715
X-22860Y-1905
X+9525Y+3810
X+12700Y+11430
X+33020Y+10795
X-20955Y-6985
X+33020Y+1905
X+15875Y-10795
X+23495Y-11430
X-27305Y-10795
X+5080Y-5080
X+20400Y-3175
X+45707Y+19453
X+33115Y+25837
T02
X-42060Y-3660
T03
X+30883Y+27479
X+30883Y+24939
X+30883Y+22399
X+30883Y+19859
X+30883Y+17319
X+30883Y+14779
X+30883Y+12239
X+30883Y+9699
X+30883Y+7159
X+30883Y+4619
X+30883Y+2079
X+30883Y-461
X+30883Y-3001
X+30883Y-5541
X+38503Y-5541
X+38503Y-3001
X+38503Y-461
X+38503Y+2079
X+38503Y+4619
X+38503Y+7159
X+38503Y+9699
X+38503Y+12239
X+38503Y+14779
X+38503Y+17319
X+38503Y+19859
X+38503Y+22399
X+38503Y+24939
X+38503Y+27459
X-8417Y-4288
X-10957Y-4288
X-13497Y-4288
X-16037Y-4288
X-18577Y-4288
X-21117Y-4288
X-23657Y-4288
X-26197Y-4288
X-28737Y-4288
X-31277Y-4288
X-31277Y-11908
X-28737Y-11908
X-26197Y-11908
X-23657Y-11908
X-21117Y-11908
X-18577Y-11908
X-16037Y-11908
X-13497Y-11908
X-10957Y-11908
X-8417Y-11908
X+29715Y-32402
X+29715Y-29862
X+29715Y-27322
X+29715Y-24782
X+29715Y-22242
X+29715Y-19702
X+29715Y-17162
X+29715Y-14622
X+29715Y-12082
X+22095Y-12082
X+22095Y-14622
X+22095Y-17162
X+22095Y-19702
X+22095Y-22242
X+22095Y-24782
X+22095Y-27322
X+22095Y-29862
X+22095Y-32402
X+11790Y+13027
X+9250Y+13027
X+6710Y+13027
X+4170Y+13027
X+1630Y+13027
X-910Y+13027
X-3450Y+13027
X-5990Y+13027
X-5990Y+5407
X-3450Y+5407
X-910Y+5407
X+1630Y+5407
X+4170Y+5407
X+6710Y+5407
X+9250Y+5407
X+11790Y+5407
X-12430Y+12987
X-14970Y+12987
X-17510Y+12987
X-20050Y+12987
X-22590Y+12987
X-25130Y+12987
X-27670Y+12987
X-30210Y+12987
X-30210Y+5367
X-27670Y+5367
X-25130Y+5367
X-22590Y+5367
X-20050Y+5367
X-17510Y+5367
X-14970Y+5367
X-12430Y+5367
X+11653Y-4228
X+9113Y-4228
X+6573Y-4228
X+4033Y-4228
X+1493Y-4228
X-1047Y-4228
X-3587Y-4228
X-3587Y-11848
X-1047Y-11848
X+1493Y-11848
X+4033Y-11848
X+6573Y-11848
X+9113Y-11848
X+11653Y-11848
X+25596Y+7993
X+25596Y+2913
X-38897Y-14903
X-38897Y-17403
X-32116Y-14903
X-32116Y-17403
X-25245Y-14960
X-25245Y-17460
X-18336Y-15087
X-18336Y-17587
X-11583Y-15161
X-11583Y-17661
X-4877Y-15186
X-4877Y-17686
X+1930Y-15263
X+1930Y-17763
X+8763Y-15440
X+8763Y-17940
X+17043Y+23952
X+17043Y+34112
X+39472Y+30912
X+29312Y+30912
X+19101Y+23901
X+19101Y+34061
X+14961Y+23901
X+14961Y+34061
X+16213Y+4996
X+16213Y+15156
X-37948Y+2616
X-37948Y+12776
X-40081Y+2616
X-40081Y+12776
X-35857Y+2710
X-35857Y+12870
X-23183Y+262
X-25723Y+262
X-31273Y+213
X-28733Y+213
X-14636Y+264
X-12096Y+264
X-20122Y+264
X-17582Y+264
X-9220Y+381
X-6680Y+381
X-3810Y+381
X-1270Y+381
X+4148Y+348
X+1608Y+348
X+9558Y+373
X+7018Y+373
X-44145Y+25476
X-46685Y+25476
X+26703Y+27161
X+24163Y+27161
X+27195Y+12301
X+24655Y+12301
X+24875Y-1328
X+27415Y-1328
X+9550Y+25767
X+9550Y+15607
X+13040Y+19387
X+13040Y+16987
X+9540Y+28067
X+9540Y+35667
X+3590Y+15667
X+3590Y+25827
X+6570Y+19527
X+6570Y+17127
X+3620Y+28057
X+3620Y+35657
X-2360Y+15617
X-2360Y+25777
X+650Y+19587
X+650Y+17187
X-2380Y+28017
X-2380Y+35617
X-8370Y+15637
X-8370Y+25797
X-5410Y+19627
X-5410Y+17227
X-8410Y+27927
X-8410Y+35527
X-14330Y+15637
X-14330Y+25797
X-11310Y+19357
X-11310Y+16957
X-14310Y+27927
X-14310Y+35527
X-20380Y+15637
X-20380Y+25797
X-17410Y+19577
X-17410Y+17177
X-20510Y+28027
X-20510Y+35627
X-26440Y+15607
X-26440Y+25767
X-23410Y+19387
X-23410Y+16987
X-26410Y+27927
X-26410Y+35527
X-32460Y+15567
X-32460Y+25727
X-29380Y+19467
X-29380Y+17067
X-32410Y+27927
X-32410Y+35527
X+22624Y-47379
X+22624Y-37219
X+34257Y-29774
X+34257Y-32174
X+24808Y-47404
X+24808Y-37244
X+37998Y-27242
X+37998Y-29642
X+26942Y-47481
X+26942Y-37321
X+34112Y-23686
X+34112Y-26086
X+28999Y-47430
X+28999Y-37270
X+38295Y-21773
X+38295Y-24173
X+31031Y-47506
X+31031Y-37346
X+33782Y-18364
X+33782Y-20764
X+33079Y-47531
X+33079Y-37371
X+38244Y-16566
X+38244Y-18966
X+35128Y-47523
X+35128Y-37363
X+33851Y-13407
X+33851Y-15807
X+37208Y-47555
X+37208Y-37395
X+38363Y-11610
X+38363Y-14010
X-38456Y+35128
X-38456Y+24968
X-45441Y+40234
X-47841Y+40234
X-42164Y+2642
X-42164Y+12802
X-33724Y+2650
X-33724Y+12810
T04
X+45863Y-27336
X+45863Y-24636
X+45863Y-22136
X+45863Y-19636
X+45763Y-17036
X+45763Y-14336
X+44116Y+39963
X+44116Y+37363
X+44116Y+34763
X+44116Y+32263
X+44081Y+29328
X+44081Y+26728
X+44081Y+24128
X+44081Y+21628
X-38997Y-27903
X-38997Y-32903
X-32216Y-27903
X-32216Y-32903
X-25345Y-27960
X-25345Y-32960
X-18436Y-28087
X-18436Y-33087
X-11683Y-28161
X-11683Y-33161
X-4977Y-28186
X-4977Y-33186
X+1830Y-28263
X+1830Y-33263
X+8663Y-28440
X+8663Y-33440
T05
X-43149Y+33857
X-46649Y+33857
T06
X-30721Y-39907
X-25717Y-39907
X-20713Y-39907
X+7940Y-39911
X+2936Y-39911
X-2067Y-39911
X-29190Y+41587
X-24186Y+41587
X-19183Y+41587
X-13960Y+41567
X-8956Y+41567
X-3953Y+41567
X+1270Y+41617
X+6274Y+41617
X+11277Y+41617
X-35758Y-39903
X-40762Y-39903
X-7105Y-39885
X-12109Y-39885
X-34351Y+41521
X-39354Y+41521
T07
X+24092Y+34180
X+26592Y+34180
T08
X+26162Y+39726
X+28702Y+39726
X+31242Y+39726
X-35212Y+35263
X-35212Y+25103
X+17628Y+1829
X+17628Y-711
X+13343Y+1821
X+13343Y-719
X+11930Y+35617
X+11930Y+22617
X+6410Y+35657
X+6410Y+22657
X+380Y+35617
X+380Y+22617
X-5640Y+35617
X-5640Y+22617
X-11240Y+35627
X-11240Y+22627
X-17270Y+35627
X-17270Y+22627
X-23550Y+35607
X-23550Y+22607
X-29300Y+35637
X-29300Y+22637
T09
X+47050Y+47329
X-47286Y+47431
X-47413Y-47159
X+47558Y-47057
M30
