G04 PROTEUS RS274X GERBER FILE*
%FSLAX45Y45*%
%MOMM*%
G01*
%ADD10C,0.254000*%
%ADD11C,0.635000*%
%ADD12C,1.270000*%
%ADD13C,1.778000*%
%ADD14C,0.508000*%
%ADD15C,1.524000*%
%ADD16C,1.016000*%
%ADD17C,0.762000*%
%ADD18C,1.778000*%
%ADD19R,1.270000X1.270000*%
%ADD70C,1.270000*%
%ADD71C,1.397000*%
%ADD20R,1.280000X1.280000*%
%ADD21C,0.254000*%
%ADD22C,1.280000*%
%ADD23C,3.048000*%
%ADD24C,2.032000*%
%ADD25C,1.524000*%
%ADD26R,1.120000X1.120000*%
%ADD27C,1.120000*%
%ADD28R,2.032000X2.032000*%
%ADD29C,2.286000*%
%ADD72R,0.300000X0.200000*%
%ADD73C,0.203200*%
%TD.AperFunction*%
D10*
X+2262380Y-3721900D02*
X+2555280Y-3429000D01*
X+2782700Y-3429000D01*
X+2971540Y-3240160D01*
X+2794000Y-3556000D02*
X+2649260Y-3556000D01*
X+2480820Y-3724440D01*
X+3512820Y-3736340D02*
X+3111500Y-3335020D01*
X+3111500Y-1856120D01*
X+2971540Y-1716160D01*
X+3720800Y-3739500D02*
X+3175000Y-3193700D01*
X+3175000Y-1665620D01*
X+2971540Y-1462160D01*
X+3799840Y-2964180D02*
X+3799840Y-3418840D01*
X+3873500Y-3492500D01*
X+3873500Y-3937000D01*
X+3810000Y-4000500D01*
X+3220760Y-4000500D01*
X+2480820Y-4740440D01*
X+3411220Y-2608580D02*
X+3660140Y-2857500D01*
X+3873500Y-2857500D01*
X+3937000Y-2921000D01*
X+3937000Y-4000500D01*
X+3873500Y-4064000D01*
X+3378240Y-4064000D01*
X+2694180Y-4748060D01*
X+3378200Y-2076420D02*
X+3556000Y-2254220D01*
X+3556000Y-2540000D01*
X+3619500Y-2603500D01*
X+3937000Y-2603500D01*
X+4000500Y-2667000D01*
X+4000500Y-4191000D01*
X+3937000Y-4254500D01*
X+3599220Y-4254500D01*
X+3103120Y-4750600D01*
X+3385060Y-1580680D02*
X+3619500Y-1815120D01*
X+3619500Y-1968500D01*
X+3683000Y-2032000D01*
X+4000500Y-2032000D01*
X+4064000Y-2095500D01*
X+4064000Y-4508500D01*
X+4000500Y-4572000D01*
X+3693160Y-4572000D01*
X+3512820Y-4752340D01*
X+3720800Y-4755500D02*
X+4183339Y-4755500D01*
X+4198620Y-4740219D01*
X+4198620Y-2278380D01*
X+4381500Y-2095500D01*
X+4635500Y-2095500D01*
X+4699000Y-2032000D01*
X+4699000Y-1651000D01*
X+4635500Y-1587500D01*
X+4508500Y-1587500D01*
X+4321980Y-1400980D01*
X+3836280Y-1400980D01*
D11*
X-1431020Y+2792700D02*
X-1441020Y+2802700D01*
X-2051020Y+2802700D01*
X-2286000Y+2802700D01*
X-2296000Y+2792700D01*
X-2641020Y+2792700D01*
X-238020Y+2801700D02*
X-508000Y+2801700D01*
X-517000Y+2792700D01*
X-841020Y+2792700D01*
D10*
X+358980Y+1566700D02*
X+127000Y+1566700D01*
X+122000Y+1561700D01*
X-236020Y+1561700D01*
X-2644020Y+1560700D02*
X-2648020Y+1556700D01*
X-3246020Y+1556700D01*
D11*
X+361980Y+2805700D02*
X+127000Y+2805700D01*
X+123000Y+2801700D01*
X-238020Y+2801700D01*
D10*
X-2038020Y+1563700D02*
X-2286000Y+1563700D01*
X-2289000Y+1560700D01*
X-2644020Y+1560700D01*
D11*
X+953980Y+2806700D02*
X+698500Y+2806700D01*
X+697500Y+2805700D01*
X+361980Y+2805700D01*
X-2641020Y+2792700D02*
X-3241020Y+2792700D01*
D10*
X-837020Y+1563700D02*
X-1433020Y+1563700D01*
D11*
X-841020Y+2792700D02*
X-1431020Y+2792700D01*
D10*
X+416980Y+1302700D02*
X+576680Y+1143000D01*
X+765280Y+1143000D01*
X+924980Y+1302700D01*
D12*
X-4314940Y+3385680D02*
X-4187800Y+3512820D01*
X-3845560Y+3512820D01*
X-2524480Y-1496040D02*
X-2349500Y-1496040D01*
X-2336800Y-1508740D01*
X-1833600Y-1508740D01*
X-487700Y-1518640D02*
X-480080Y-1526260D01*
X+193020Y-1526260D01*
X-1833600Y-1508740D02*
X-1651000Y-1508740D01*
X-1643640Y-1516100D01*
X-1158260Y-1516100D01*
X-952500Y-1516100D01*
X-949960Y-1518640D01*
X-487700Y-1518640D01*
D10*
X+876280Y-1794040D02*
X+1921040Y-1794040D01*
X+1968500Y-1841500D01*
X+2349500Y-1841500D01*
X+2413000Y-1778000D01*
X+2413000Y-1665620D01*
X+2209540Y-1462160D01*
X+1460500Y+1905000D02*
X+1846580Y+1905000D01*
X+1910080Y+1968500D01*
X+1910080Y+2390140D01*
X-1095720Y-428820D02*
X-1207040Y-317500D01*
X-1397000Y-317500D01*
X-1460500Y-381000D01*
X-1460500Y-571500D01*
X-1397000Y-635000D01*
X+699100Y-635000D01*
X+911280Y-422820D01*
X-1349720Y-428820D02*
X-1207040Y-571500D01*
X+254600Y-571500D01*
X+403280Y-422820D01*
X-698500Y-317500D02*
X-889000Y-317500D01*
X-952500Y-254000D01*
X-1540220Y-254000D01*
X-1603720Y-317500D01*
X-1603720Y-428820D01*
X-127000Y+38100D02*
X-355600Y-190500D01*
X-1619400Y-190500D01*
X-1857720Y-428820D01*
X-127000Y+38100D02*
X+38100Y-127000D01*
X+254000Y-127000D01*
X-1778000Y-571500D02*
X-1905000Y-571500D01*
X-1968500Y-508000D01*
X-1968500Y-190500D01*
X-1905000Y-127000D01*
X-571500Y-127000D01*
X-508000Y-63500D01*
X-508000Y+127000D01*
X-444500Y+190500D01*
X+5120Y+190500D01*
X+160820Y+34800D01*
X-1778000Y-1016000D02*
X-1460500Y-1016000D01*
X-2286000Y-190500D02*
X-2222500Y-254000D01*
X-2222500Y-558800D01*
X-2159000Y-622300D01*
X-2032000Y-622300D01*
X-2019300Y-635000D01*
X-1841500Y-635000D01*
X-1778000Y-571500D01*
X+162980Y+540700D02*
X+320780Y+698500D01*
X+1422440Y+698500D01*
X+1621320Y+499620D01*
D13*
X+183020Y-3326260D02*
X+571500Y-3326260D01*
X+589280Y-3344040D01*
X+866280Y-3344040D01*
X-497700Y-3318640D02*
X-317500Y-3318640D01*
X-309880Y-3326260D01*
X+183020Y-3326260D01*
X-1168260Y-3316100D02*
X-1165720Y-3318640D01*
X-497700Y-3318640D01*
X-2534480Y-3296040D02*
X-2349500Y-3296040D01*
X-2336800Y-3308740D01*
X-1843600Y-3308740D01*
X-3899740Y-3290320D02*
X-3221560Y-3290320D01*
D10*
X-345020Y+540700D02*
X-568220Y+317500D01*
X-2936780Y+317500D01*
X-3000280Y+254000D01*
X-3000280Y-79280D01*
X-3111500Y-190500D01*
X-3342640Y-190500D01*
X-3794760Y+261620D01*
X+1334300Y-71880D02*
X+1152180Y-254000D01*
X-523680Y-254000D01*
X-698500Y-428820D01*
X-841720Y-428820D01*
X-1243020Y+536700D02*
X-1595320Y+889000D01*
X-3380740Y+889000D01*
X-4008120Y+261620D01*
X-3585680Y+271020D02*
X-3094700Y+762000D01*
X-1976320Y+762000D01*
X-1751020Y+536700D01*
X+2487460Y-132840D02*
X+2222500Y-132840D01*
X+1906780Y+182880D01*
X+1762760Y+182880D01*
X+3088260Y+969920D02*
X+3596260Y+969920D01*
X+3850260Y+1223920D01*
X+1762760Y+182880D02*
X+1555280Y+182880D01*
X+1484160Y+254000D01*
X+1484160Y+293840D01*
X+1397000Y+381000D01*
X+952500Y+381000D01*
X+3088260Y+969920D02*
X+2829120Y+969920D01*
X+2719540Y+1079500D01*
X+2719540Y+1230120D01*
X+416980Y+540700D02*
X+640180Y+317500D01*
X+889000Y+317500D01*
X+952500Y+381000D01*
X-1463580Y+26360D02*
X-1299440Y+190500D01*
X-1074420Y+190500D01*
X-922020Y+38100D01*
X-2012220Y+26360D02*
X-2012380Y+26200D01*
X-2318260Y+26200D01*
X-3021020Y+536700D02*
X-2865320Y+381000D01*
X-2668720Y+381000D01*
X-2513020Y+536700D01*
X-2351220Y+698500D01*
X-2166820Y+698500D01*
X-2005020Y+536700D01*
X-1349720Y-1190820D02*
X-1111400Y-952500D01*
X+4064000Y-952500D01*
X+4127500Y-889000D01*
X+4127500Y+2286000D01*
X+4064000Y+2349500D01*
X+2984500Y+2349500D01*
X+2921000Y+2286000D01*
X+2921000Y+1587500D01*
X+2984500Y+1524000D01*
X+2984500Y+1397000D01*
X+3048000Y+1333500D01*
X+3302000Y+1333500D01*
X+3365500Y+1397000D01*
X+3365500Y+1905000D01*
X+3284580Y+1985920D01*
X+3088260Y+1985920D01*
X+3302000Y+1079500D02*
X+2921000Y+1079500D01*
X+2857500Y+1143000D01*
X+2857500Y+1333500D01*
X+2794000Y+1397000D01*
X+2159000Y+1397000D01*
X+1905000Y+1143000D01*
X+1270000Y+1143000D01*
X-1857720Y-1190820D02*
X-1857720Y-952500D01*
X-1794220Y-889000D01*
X+3937000Y-889000D01*
X+4000500Y-825500D01*
X+4000500Y+2032000D01*
X+3937000Y+2095500D01*
X+3048000Y+2095500D01*
X+2984500Y+2032000D01*
X+2984500Y+1905000D01*
X+3048000Y+1841500D01*
X+3175000Y+1841500D01*
X+3238500Y+1778000D01*
X+3238500Y+1628160D01*
X+3088260Y+1477920D01*
X+3302000Y+190500D02*
X+3302000Y-635000D01*
X+3238500Y-698500D01*
X-2095500Y-698500D01*
X+3850260Y-300080D02*
X+3683000Y-467340D01*
X+3683000Y-762000D01*
X+3619500Y-825500D01*
X-2000400Y-825500D01*
X-2365720Y-1190820D01*
X+3850260Y-46080D02*
X+3547289Y-349051D01*
X+3547289Y-656411D01*
X+3429000Y-774700D01*
X-2203600Y-774700D01*
X-2619720Y-1190820D01*
X+3850260Y+461920D02*
X+3740680Y+571500D01*
X+2540000Y+571500D01*
X+2349500Y+762000D01*
X+99480Y+762000D01*
X+35980Y+698500D01*
X+35980Y+353480D01*
X-63500Y+254000D01*
X-2667000Y+254000D01*
X-2730500Y+190500D01*
X-2730500Y-571500D01*
X-3127720Y-968720D01*
X-3127720Y-1190820D01*
X+1587500Y-1079500D02*
X+1524000Y-1016000D01*
X-920900Y-1016000D01*
X-1095720Y-1190820D01*
X+4411620Y+3476280D02*
X+4070620Y+3476280D01*
X+3088260Y+2493920D01*
X+1165280Y-1184820D02*
X+1714500Y-1184820D01*
X+1883320Y-1016000D01*
X+4699000Y-1016000D01*
X+4762500Y-1079500D01*
X+4762500Y-2557380D01*
X+4586260Y-2733620D01*
X+1621320Y+1515620D02*
X+2802380Y+1515620D01*
X+2921000Y+1397000D01*
X+2921000Y+1287420D01*
X+2984500Y+1223920D01*
X+3088260Y+1223920D01*
D14*
X+2409160Y+3418040D02*
X+2737620Y+3746500D01*
X+3060700Y+3746500D01*
X+3124200Y+3810000D01*
X+3124200Y+3972560D01*
D10*
X+4408120Y+2932800D02*
X+4105540Y+2932800D01*
X+3947160Y+3091180D01*
D14*
X+4411620Y+3996280D02*
X+3147920Y+3996280D01*
X+3124200Y+3972560D01*
D10*
X-841720Y-1190820D02*
X-730400Y-1079500D01*
X+1059960Y-1079500D01*
X+1165280Y-1184820D01*
X+2409160Y+3418040D02*
X+1921980Y+3418040D01*
X+1910080Y+3406140D01*
X+2559560Y+799300D02*
X+2857500Y+799300D01*
X+2940880Y+715920D01*
X+3088260Y+715920D01*
X+2741460Y-132840D02*
X+2741460Y+115120D01*
X+3088260Y+461920D01*
D15*
X-2534480Y-3296040D02*
X-3215840Y-3296040D01*
X-3221560Y-3290320D01*
D10*
X-3211560Y-1740320D02*
X-2981972Y-1969908D01*
X-1228744Y-1969908D01*
X+1554153Y-1969908D01*
X+2060765Y-2476520D01*
X+2060765Y-2761056D01*
X+2060765Y-2837385D01*
X+2209540Y-2986160D01*
D12*
X-3211560Y-1490320D02*
X-3048000Y-1490320D01*
X-3042280Y-1496040D01*
X-2524480Y-1496040D01*
D10*
X+4586260Y-1963620D02*
X+4376620Y-1963620D01*
X+3937000Y-1524000D01*
X+3556000Y-1524000D01*
X+3492500Y-1460500D01*
X+3302000Y-1460500D01*
X+3175000Y-1333500D01*
X+1968500Y-1333500D01*
X+1922000Y-1380000D01*
X-2827220Y-1380000D01*
X-2873720Y-1333500D01*
X-2873720Y-1190820D01*
X+2349500Y-1143000D02*
X+2286000Y-1079500D01*
X+1905000Y-1079500D01*
X+1664500Y-1320000D01*
X-2680500Y-1320000D01*
X-2730500Y-1270000D01*
X-2730500Y-1079500D01*
X+508000Y-508000D02*
X+508000Y-381000D01*
X+571500Y-317500D01*
X+2040000Y-317500D01*
X+2209540Y-1716160D02*
X+1998655Y-1716160D01*
X+1954319Y-1671824D01*
X+297456Y-1671824D01*
X+193020Y-1776260D01*
D11*
X-3241020Y+2792700D02*
X-3090000Y+2943720D01*
X-3090000Y+3987720D01*
X-2919020Y+4158700D01*
D12*
X-3435060Y+4152100D02*
X-3837160Y+3750000D01*
X-4456618Y+3750000D01*
X-4664940Y+3541678D01*
X-4664940Y+3385680D01*
D14*
X+2971540Y-1208160D02*
X+3556000Y-1208160D01*
X+3627840Y-1280000D01*
X+4422640Y-1280000D01*
X+4576260Y-1433620D01*
D10*
X+3311533Y+2583741D02*
X+3339428Y+2611636D01*
X+4011497Y+2611636D01*
X+4066374Y+2556759D01*
X+4515839Y+2556759D01*
X+4570716Y+2501882D01*
X+4570716Y+1945278D01*
D12*
X-4359500Y+2525620D02*
X-4359500Y+2547620D01*
X-4381500Y+2547620D01*
X-4414520Y+2547620D01*
D16*
X-4381500Y+2547620D02*
X-4359500Y+2525620D01*
X-4099560Y+2265680D01*
X-3524540Y+2265680D01*
X-3521240Y+2268980D01*
X-3521240Y+2510280D01*
D12*
X-4390000Y-281000D02*
X-4291000Y-281000D01*
X-4206000Y-366000D01*
X-4390000Y-281000D02*
X-4490000Y-281000D01*
X-4490000Y+2525620D01*
X-4359500Y+2525620D01*
D10*
X-1833600Y-1758740D02*
X-1682340Y-1910000D01*
X+1641380Y-1910000D01*
X+2209540Y-2478160D01*
D17*
X+2794000Y-3556000D03*
X+1460500Y+1905000D03*
X-698500Y-317500D03*
X+254000Y-127000D03*
X-1460500Y-1016000D03*
X-1778000Y-1016000D03*
X-1778000Y-571500D03*
X-2286000Y-190500D03*
X+952500Y+381000D03*
X+1270000Y+1143000D03*
X+3302000Y+1079500D03*
X-2095500Y-698500D03*
X+3302000Y+190500D03*
X+1587500Y-1079500D03*
X+2349500Y-1143000D03*
X-2730500Y-1079500D03*
X+508000Y-508000D03*
X+2040000Y-317500D03*
D18*
X-4206000Y-366000D03*
D17*
X+4570716Y+1945278D03*
X+3311533Y+2583741D03*
D14*
X+2143316Y-4888242D02*
X+2143316Y-4888242D01*
X+3857464Y-4888242D02*
X+4540101Y-4888242D01*
X-4459661Y-4799342D02*
X+2071881Y-4799342D01*
X+4301139Y-4799342D02*
X+4474201Y-4799342D01*
X-4459661Y-4710442D02*
X+2071881Y-4710442D01*
X+4312919Y-4710442D02*
X+4474201Y-4710442D01*
X-4459661Y-4621542D02*
X+2109332Y-4621542D01*
X+4312919Y-4621542D02*
X+4474201Y-4621542D01*
X-4526237Y-4532642D02*
X+2526976Y-4532642D01*
X+4312919Y-4532642D02*
X+4530617Y-4532642D01*
X-4888241Y-4443742D02*
X-4867383Y-4443742D01*
X-4615137Y-4443742D02*
X+2615876Y-4443742D01*
X+4312919Y-4443742D02*
X+4619517Y-4443742D01*
X-4888241Y-4354842D02*
X+2704776Y-4354842D01*
X+4312919Y-4354842D02*
X+4888242Y-4354842D01*
X-4888241Y-4265942D02*
X+2793676Y-4265942D01*
X+4312919Y-4265942D02*
X+4888242Y-4265942D01*
X-4888241Y-4177042D02*
X-4248607Y-4177042D01*
X-3903753Y-4177042D02*
X-3748227Y-4177042D01*
X-3403373Y-4177042D02*
X-3245007Y-4177042D01*
X-2899193Y-4177042D02*
X-2744627Y-4177042D01*
X-2398813Y-4177042D02*
X-2244247Y-4177042D01*
X-1898433Y-4177042D02*
X-1381527Y-4177042D01*
X-1040193Y-4177042D02*
X-881147Y-4177042D01*
X-539813Y-4177042D02*
X-379967Y-4177042D01*
X-33513Y-4177042D02*
X+120413Y-4177042D01*
X+466867Y-4177042D02*
X+620793Y-4177042D01*
X+967247Y-4177042D02*
X+2882576Y-4177042D01*
X+4312919Y-4177042D02*
X+4888242Y-4177042D01*
X-4888241Y-4088142D02*
X-4330179Y-4088142D01*
X-1817341Y-4088142D02*
X-1464859Y-4088142D01*
X+1048019Y-4088142D02*
X+2971476Y-4088142D01*
X+4312919Y-4088142D02*
X+4888242Y-4088142D01*
X-4888241Y-3999242D02*
X-4330179Y-3999242D01*
X-1817341Y-3999242D02*
X-1464859Y-3999242D01*
X+1048019Y-3999242D02*
X+3060376Y-3999242D01*
X+4312919Y-3999242D02*
X+4888242Y-3999242D01*
X-4888241Y-3910342D02*
X-4330179Y-3910342D01*
X-1817341Y-3910342D02*
X-1464859Y-3910342D01*
X+1048019Y-3910342D02*
X+2181416Y-3910342D01*
X+2343344Y-3910342D02*
X+2397316Y-3910342D01*
X+2564324Y-3910342D02*
X+2603056Y-3910342D01*
X+2785304Y-3910342D02*
X+2813876Y-3910342D01*
X+2985964Y-3910342D02*
X+3009456Y-3910342D01*
X+4312919Y-3910342D02*
X+4888242Y-3910342D01*
X-4888241Y-3821442D02*
X-4266571Y-3821442D01*
X-3885789Y-3821442D02*
X-3766191Y-3821442D01*
X-3385409Y-3821442D02*
X-3262011Y-3821442D01*
X-2882189Y-3821442D02*
X-2761631Y-3821442D01*
X-2381809Y-3821442D02*
X-2261251Y-3821442D01*
X-1881429Y-3821442D02*
X-1403011Y-3821442D01*
X-1018709Y-3821442D02*
X-902631Y-3821442D01*
X-518329Y-3821442D02*
X-396331Y-3821442D01*
X-17149Y-3821442D02*
X+104049Y-3821442D01*
X+483231Y-3821442D02*
X+604429Y-3821442D01*
X+983611Y-3821442D02*
X+2092516Y-3821442D01*
X+4312919Y-3821442D02*
X+4888242Y-3821442D01*
X-4888241Y-3732542D02*
X+2071881Y-3732542D01*
X+4312919Y-3732542D02*
X+4888242Y-3732542D01*
X-4888241Y-3643642D02*
X+2071881Y-3643642D01*
X+4312919Y-3643642D02*
X+4888242Y-3643642D01*
X-4888241Y-3554742D02*
X+2160132Y-3554742D01*
X+4312919Y-3554742D02*
X+4888242Y-3554742D01*
X-4888241Y-3465842D02*
X-3993624Y-3465842D01*
X-1731296Y-3465842D02*
X-1287924Y-3465842D01*
X+1013884Y-3465842D02*
X+2356796Y-3465842D01*
X+4312919Y-3465842D02*
X+4888242Y-3465842D01*
X-4888241Y-3376942D02*
X-4082524Y-3376942D01*
X-1653101Y-3376942D02*
X-1358759Y-3376942D01*
X+1056779Y-3376942D02*
X+2112837Y-3376942D01*
X+2306243Y-3376942D02*
X+2445696Y-3376942D01*
X+4312919Y-3376942D02*
X+4888242Y-3376942D01*
X-4888241Y-3288042D02*
X-4090239Y-3288042D01*
X-1653101Y-3288042D02*
X-1358759Y-3288042D01*
X+1056779Y-3288042D02*
X+2044441Y-3288042D01*
X+2374639Y-3288042D02*
X+2762016Y-3288042D01*
X+4312919Y-3288042D02*
X+4888242Y-3288042D01*
X-4888241Y-3199142D02*
X-4077968Y-3199142D01*
X-1683792Y-3199142D02*
X-1320708Y-3199142D01*
X+990788Y-3199142D02*
X+2044441Y-3199142D01*
X+2374639Y-3199142D02*
X+2806441Y-3199142D01*
X+4312919Y-3199142D02*
X+4888242Y-3199142D01*
X-4888241Y-3110242D02*
X-3989068Y-3110242D01*
X-3132232Y-3110242D02*
X-2618088Y-3110242D01*
X-2265892Y-3110242D02*
X+2100137Y-3110242D01*
X+2318943Y-3110242D02*
X+2806441Y-3110242D01*
X+4312919Y-3110242D02*
X+4888242Y-3110242D01*
X-4888241Y-3021342D02*
X+792136Y-3021342D01*
X+940424Y-3021342D02*
X+2044441Y-3021342D01*
X+2374639Y-3021342D02*
X+2806441Y-3021342D01*
X+4312919Y-3021342D02*
X+4888242Y-3021342D01*
X-4888241Y-2932442D02*
X-4009064Y-2932442D01*
X-3790416Y-2932442D02*
X-3330884Y-2932442D01*
X-3112236Y-2932442D02*
X-2649524Y-2932442D01*
X-2419436Y-2932442D02*
X-1971344Y-2932442D01*
X-1715856Y-2932442D02*
X-1303364Y-2932442D01*
X-1033156Y-2932442D02*
X-635344Y-2932442D01*
X-360056Y-2932442D02*
X+37756Y-2932442D01*
X+328284Y-2932442D02*
X+703236Y-2932442D01*
X+1029324Y-2932442D02*
X+1994180Y-2932442D01*
X+2374639Y-2932442D02*
X+2806441Y-2932442D01*
X+4312919Y-2932442D02*
X+4888242Y-2932442D01*
X-4888241Y-2843542D02*
X-4077539Y-2843542D01*
X-3721941Y-2843542D02*
X-3399359Y-2843542D01*
X-3043761Y-2843542D02*
X-2712279Y-2843542D01*
X-2356681Y-2843542D02*
X-2021399Y-2843542D01*
X-1665801Y-2843542D02*
X-1346059Y-2843542D01*
X-990461Y-2843542D02*
X-675499Y-2843542D01*
X-319901Y-2843542D02*
X+5221Y-2843542D01*
X+360819Y-2843542D02*
X+688481Y-2843542D01*
X+1044079Y-2843542D02*
X+1946466Y-2843542D01*
X+2331643Y-2843542D02*
X+2849437Y-2843542D01*
X+4312919Y-2843542D02*
X+4453716Y-2843542D01*
X+4718804Y-2843542D02*
X+4888242Y-2843542D01*
X-4888241Y-2754642D02*
X-4077539Y-2754642D01*
X-3721941Y-2754642D02*
X-3399359Y-2754642D01*
X-3043761Y-2754642D02*
X-2712279Y-2754642D01*
X-2356681Y-2754642D02*
X-2021399Y-2754642D01*
X-1665801Y-2754642D02*
X-1346059Y-2754642D01*
X-990461Y-2754642D02*
X-675499Y-2754642D01*
X-319901Y-2754642D02*
X+5221Y-2754642D01*
X+360819Y-2754642D02*
X+704232Y-2754642D01*
X+1028328Y-2754642D02*
X+1946466Y-2754642D01*
X+2374639Y-2754642D02*
X+2806441Y-2754642D01*
X+4312919Y-2754642D02*
X+4414811Y-2754642D01*
X+4757709Y-2754642D02*
X+4888242Y-2754642D01*
X-4888241Y-2665742D02*
X-4026608Y-2665742D01*
X-3772872Y-2665742D02*
X-3348428Y-2665742D01*
X-3094692Y-2665742D02*
X-2655628Y-2665742D01*
X-2413332Y-2665742D02*
X-1952048Y-2665742D01*
X-1735152Y-2665742D02*
X-1269348Y-2665742D01*
X-1067172Y-2665742D02*
X-596248Y-2665742D01*
X-399152Y-2665742D02*
X+92092Y-2665742D01*
X+273948Y-2665742D02*
X+1946466Y-2665742D01*
X+2374639Y-2665742D02*
X+2806441Y-2665742D01*
X+4312919Y-2665742D02*
X+4414811Y-2665742D01*
X+4815780Y-2665742D02*
X+4888242Y-2665742D01*
X-4888241Y-2576842D02*
X+1946466Y-2576842D01*
X+2344343Y-2576842D02*
X+2836737Y-2576842D01*
X+4312919Y-2576842D02*
X+4457016Y-2576842D01*
X+4876799Y-2576842D02*
X+4888242Y-2576842D01*
X-4888241Y-2487942D02*
X+1910545Y-2487942D01*
X+2374639Y-2487942D02*
X+2806441Y-2487942D01*
X+4312919Y-2487942D02*
X+4414811Y-2487942D01*
X+4876799Y-2487942D02*
X+4888242Y-2487942D01*
X-4888241Y-2399042D02*
X-4678269Y-2399042D01*
X+1594388Y-2399042D02*
X+1821645Y-2399042D01*
X+2363907Y-2399042D02*
X+2817173Y-2399042D01*
X+4312919Y-2399042D02*
X+4414811Y-2399042D01*
X+4876799Y-2399042D02*
X+4888242Y-2399042D01*
X-4888241Y-2310142D02*
X-4699159Y-2310142D01*
X+1615279Y-2310142D02*
X+1732745Y-2310142D01*
X+2357043Y-2310142D02*
X+2824037Y-2310142D01*
X+4328500Y-2310142D02*
X+4440316Y-2310142D01*
X+4876799Y-2310142D02*
X+4888242Y-2310142D01*
X-4888241Y-2221242D02*
X-4699159Y-2221242D01*
X+1615279Y-2221242D02*
X+1643845Y-2221242D01*
X+2374639Y-2221242D02*
X+2806441Y-2221242D01*
X+4876799Y-2221242D02*
X+4888242Y-2221242D01*
X-4888241Y-2132342D02*
X-4699159Y-2132342D01*
X+2351207Y-2132342D02*
X+2829873Y-2132342D01*
X+4876799Y-2132342D02*
X+4888242Y-2132342D01*
X-4888241Y-2043442D02*
X-4683092Y-2043442D01*
X+2369743Y-2043442D02*
X+2811337Y-2043442D01*
X+4876799Y-2043442D02*
X+4888242Y-2043442D01*
X-4888241Y-1954542D02*
X-3158980Y-1954542D01*
X+2398100Y-1954542D02*
X+2806441Y-1954542D01*
X+4876799Y-1954542D02*
X+4888242Y-1954542D01*
X-4888241Y-1865642D02*
X-3997903Y-1865642D01*
X-3781577Y-1865642D02*
X-3319723Y-1865642D01*
X+2487000Y-1865642D02*
X+2842573Y-1865642D01*
X+4876799Y-1865642D02*
X+4888242Y-1865642D01*
X-4888241Y-1776742D02*
X-4054839Y-1776742D01*
X-3724641Y-1776742D02*
X-3376659Y-1776742D01*
X+2527299Y-1776742D02*
X+2806441Y-1776742D01*
X+4876799Y-1776742D02*
X+4888242Y-1776742D01*
X-4888241Y-1687842D02*
X-4054839Y-1687842D01*
X-3724641Y-1687842D02*
X-3376659Y-1687842D01*
X+2527299Y-1687842D02*
X+2806441Y-1687842D01*
X+4876799Y-1687842D02*
X+4888242Y-1687842D01*
X-4888241Y-1598942D02*
X-4014603Y-1598942D01*
X-3764877Y-1598942D02*
X-3336423Y-1598942D01*
X+2507964Y-1598942D02*
X+2855273Y-1598942D01*
X+4876799Y-1598942D02*
X+4888242Y-1598942D01*
X-4888241Y-1510042D02*
X-4054839Y-1510042D01*
X-3724641Y-1510042D02*
X-3376659Y-1510042D01*
X+2419064Y-1510042D02*
X+2806441Y-1510042D01*
X+4876799Y-1510042D02*
X+4888242Y-1510042D01*
X-4888241Y-1421142D02*
X-4054047Y-1421142D01*
X-3725433Y-1421142D02*
X-3375867Y-1421142D01*
X+4876799Y-1421142D02*
X+4888242Y-1421142D01*
X-4888241Y-1332242D02*
X-3965147Y-1332242D01*
X-3814333Y-1332242D02*
X-3286967Y-1332242D01*
X+4876799Y-1332242D02*
X+4888242Y-1332242D01*
X-4888241Y-1243342D02*
X-3292819Y-1243342D01*
X+4876799Y-1243342D02*
X+4888242Y-1243342D01*
X-4888241Y-1154442D02*
X-3292819Y-1154442D01*
X+4876799Y-1154442D02*
X+4888242Y-1154442D01*
X-4888241Y-1065542D02*
X-3242019Y-1065542D01*
X+4876799Y-1065542D02*
X+4888242Y-1065542D01*
X-4888241Y-976642D02*
X-3242019Y-976642D01*
X+4821284Y-976642D02*
X+4888242Y-976642D01*
X-4888241Y-887742D02*
X-3208384Y-887742D01*
X+4241799Y-887742D02*
X+4888242Y-887742D01*
X-4888241Y-798842D02*
X-3119484Y-798842D01*
X+4241799Y-798842D02*
X+4888242Y-798842D01*
X-4888241Y-709942D02*
X-3030584Y-709942D01*
X+4241799Y-709942D02*
X+4888242Y-709942D01*
X-4888241Y-621042D02*
X-2941684Y-621042D01*
X+4241799Y-621042D02*
X+4888242Y-621042D01*
X-4888241Y-532142D02*
X-4309264Y-532142D01*
X-4102736Y-532142D02*
X-3257883Y-532142D01*
X+4241799Y-532142D02*
X+4888242Y-532142D01*
X-4888241Y-443242D02*
X-4561242Y-443242D01*
X-4015501Y-443242D02*
X-3292819Y-443242D01*
X+4241799Y-443242D02*
X+4888242Y-443242D01*
X-4888241Y-354342D02*
X-4650142Y-354342D01*
X-4015501Y-354342D02*
X-3286727Y-354342D01*
X+4241799Y-354342D02*
X+4888242Y-354342D01*
X-4888241Y-265442D02*
X-4655098Y-265442D01*
X-4037152Y-265442D02*
X-3429340Y-265442D01*
X+4241799Y-265442D02*
X+4888242Y-265442D01*
X-4888241Y-176542D02*
X-4655098Y-176542D01*
X-4126052Y-176542D02*
X-3518240Y-176542D01*
X+4241799Y-176542D02*
X+4888242Y-176542D01*
X-4888241Y-87642D02*
X-4655098Y-87642D01*
X-4324902Y-87642D02*
X-3607140Y-87642D01*
X+4241799Y-87642D02*
X+4888242Y-87642D01*
X-4888241Y+1258D02*
X-4655098Y+1258D01*
X-4324902Y+1258D02*
X-3696040Y+1258D01*
X+4241799Y+1258D02*
X+4888242Y+1258D01*
X-4888241Y+90158D02*
X-4655098Y+90158D01*
X-4324902Y+90158D02*
X-4311804Y+90158D01*
X-4120996Y+90158D02*
X-4106064Y+90158D01*
X-3910176Y+90158D02*
X-3892704Y+90158D01*
X+4241799Y+90158D02*
X+4888242Y+90158D01*
X-4888241Y+179058D02*
X-4655098Y+179058D01*
X+4241799Y+179058D02*
X+4888242Y+179058D01*
X-4888241Y+267958D02*
X-4655098Y+267958D01*
X+4241799Y+267958D02*
X+4888242Y+267958D01*
X-4888241Y+356858D02*
X-4655098Y+356858D01*
X+4241799Y+356858D02*
X+4888242Y+356858D01*
X-4888241Y+445758D02*
X-4655098Y+445758D01*
X+4241799Y+445758D02*
X+4888242Y+445758D01*
X-4888241Y+534658D02*
X-4655098Y+534658D01*
X+4241799Y+534658D02*
X+4888242Y+534658D01*
X-4888241Y+623558D02*
X-4655098Y+623558D01*
X+4241799Y+623558D02*
X+4888242Y+623558D01*
X-4888241Y+712458D02*
X-4655098Y+712458D01*
X+4241799Y+712458D02*
X+4888242Y+712458D01*
X-4888241Y+801358D02*
X-4655098Y+801358D01*
X+4241799Y+801358D02*
X+4888242Y+801358D01*
X-4888241Y+890258D02*
X-4655098Y+890258D01*
X+4241799Y+890258D02*
X+4888242Y+890258D01*
X-4888241Y+979158D02*
X-4655098Y+979158D01*
X+4241799Y+979158D02*
X+4888242Y+979158D01*
X-4888241Y+1068058D02*
X-4655098Y+1068058D01*
X+4241799Y+1068058D02*
X+4888242Y+1068058D01*
X-4888241Y+1156958D02*
X-4655098Y+1156958D01*
X+4241799Y+1156958D02*
X+4888242Y+1156958D01*
X-4888241Y+1245858D02*
X-4655098Y+1245858D01*
X+4241799Y+1245858D02*
X+4888242Y+1245858D01*
X-4888241Y+1334758D02*
X-4655098Y+1334758D01*
X+4241799Y+1334758D02*
X+4888242Y+1334758D01*
X-4888241Y+1423658D02*
X-4655098Y+1423658D01*
X+4241799Y+1423658D02*
X+4888242Y+1423658D01*
X-4888241Y+1512558D02*
X-4655098Y+1512558D01*
X+4241799Y+1512558D02*
X+4888242Y+1512558D01*
X-4888241Y+1601458D02*
X-4655098Y+1601458D01*
X+4241799Y+1601458D02*
X+4888242Y+1601458D01*
X-4888241Y+1690358D02*
X-4655098Y+1690358D01*
X+4241799Y+1690358D02*
X+4888242Y+1690358D01*
X-4888241Y+1779258D02*
X-4655098Y+1779258D01*
X+4241799Y+1779258D02*
X+4888242Y+1779258D01*
X-4888241Y+1868158D02*
X-4655098Y+1868158D01*
X+4241799Y+1868158D02*
X+4450272Y+1868158D01*
X+4691160Y+1868158D02*
X+4888242Y+1868158D01*
X-4888241Y+1957058D02*
X-4655098Y+1957058D01*
X+4241799Y+1957058D02*
X+4431017Y+1957058D01*
X+4710415Y+1957058D02*
X+4888242Y+1957058D01*
X-4888241Y+2045958D02*
X-4655098Y+2045958D01*
X+4241799Y+2045958D02*
X+4282496Y+2045958D01*
X+4685015Y+2045958D02*
X+4888242Y+2045958D01*
X-4888241Y+2134858D02*
X-4655098Y+2134858D01*
X+4685015Y+2134858D02*
X+4888242Y+2134858D01*
X-4888241Y+2223758D02*
X-4655098Y+2223758D01*
X+4685015Y+2223758D02*
X+4888242Y+2223758D01*
X-4888241Y+2312658D02*
X-4655098Y+2312658D01*
X+4685015Y+2312658D02*
X+4888242Y+2312658D01*
X-4888241Y+2401558D02*
X-4791864Y+2401558D01*
X+4685015Y+2401558D02*
X+4888242Y+2401558D01*
X-4888241Y+2490458D02*
X-4859019Y+2490458D01*
X-4108814Y+2490458D02*
X-4036059Y+2490458D01*
X+4685015Y+2490458D02*
X+4888242Y+2490458D01*
X-4888241Y+2579358D02*
X-4859019Y+2579358D01*
X-4194401Y+2579358D02*
X-4032428Y+2579358D01*
X+4654882Y+2579358D02*
X+4888242Y+2579358D01*
X-4888241Y+2668258D02*
X-4817288Y+2668258D01*
X-4246654Y+2668258D02*
X-3943528Y+2668258D01*
X-3747592Y+2668258D02*
X-3668588Y+2668258D01*
X+4579569Y+2668258D02*
X+4888242Y+2668258D01*
X-4888241Y+2757158D02*
X-3431519Y+2757158D01*
X+4566228Y+2757158D02*
X+4888242Y+2757158D01*
X-4888241Y+2846058D02*
X-3431519Y+2846058D01*
X+4563844Y+2846058D02*
X+4888242Y+2846058D01*
X-4888241Y+2934958D02*
X-3368168Y+2934958D01*
X+4579569Y+2934958D02*
X+4888242Y+2934958D01*
X-4888241Y+3023858D02*
X-3223349Y+3023858D01*
X+4559528Y+3023858D02*
X+4888242Y+3023858D01*
X-4888241Y+3112758D02*
X-3223349Y+3112758D01*
X+4540564Y+3112758D02*
X+4888242Y+3112758D01*
X-4888241Y+3201658D02*
X-3223349Y+3201658D01*
X+4583069Y+3201658D02*
X+4888242Y+3201658D01*
X-4888241Y+3290558D02*
X-4804010Y+3290558D01*
X-4525870Y+3290558D02*
X-4480539Y+3290558D01*
X-4149341Y+3290558D02*
X-3223349Y+3290558D01*
X+4583069Y+3290558D02*
X+4888242Y+3290558D01*
X-4888241Y+3379458D02*
X-4830539Y+3379458D01*
X-4499341Y+3379458D02*
X-4480539Y+3379458D01*
X-3709516Y+3379458D02*
X-3679744Y+3379458D01*
X-3362735Y+3379458D02*
X-3337184Y+3379458D01*
X+4557264Y+3379458D02*
X+4888242Y+3379458D01*
X-4888241Y+3468358D02*
X-4816454Y+3468358D01*
X-4513426Y+3468358D02*
X-4480539Y+3468358D01*
X+4583069Y+3468358D02*
X+4888242Y+3468358D01*
X-4888241Y+3557258D02*
X-4376846Y+3557258D01*
X+2028368Y+3557258D02*
X+2251561Y+3557258D01*
X+4573108Y+3557258D02*
X+4888242Y+3557258D01*
X-4888241Y+3646158D02*
X-4287946Y+3646158D01*
X-3709492Y+3646158D02*
X-3706688Y+3646158D01*
X+1377928Y+3646158D02*
X+2457676Y+3646158D01*
X+4563964Y+3646158D02*
X+4888242Y+3646158D01*
X-4888241Y+3735058D02*
X-3617788Y+3735058D01*
X-3424691Y+3735058D02*
X-3328068Y+3735058D01*
X-2831972Y+3735058D02*
X-2728068Y+3735058D01*
X-2553972Y+3735058D02*
X-2450068Y+3735058D01*
X-2259972Y+3735058D02*
X-2148068Y+3735058D01*
X-1953972Y+3735058D02*
X-1824068Y+3735058D01*
X-1629972Y+3735058D02*
X-1518068Y+3735058D01*
X-1343972Y+3735058D02*
X-1221068Y+3735058D01*
X-1026972Y+3735058D02*
X-928068Y+3735058D01*
X-753972Y+3735058D02*
X-660068Y+3735058D01*
X-467972Y+3735058D02*
X-334068Y+3735058D01*
X-141972Y+3735058D02*
X-58068Y+3735058D01*
X+134028Y+3735058D02*
X+261932Y+3735058D01*
X+462028Y+3735058D02*
X+540932Y+3735058D01*
X+741028Y+3735058D02*
X+852932Y+3735058D01*
X+1055028Y+3735058D02*
X+1096932Y+3735058D01*
X+1289028Y+3735058D02*
X+2546576Y+3735058D01*
X+4583069Y+3735058D02*
X+4888242Y+3735058D01*
X-4888241Y+3823958D02*
X-3223349Y+3823958D01*
X-2956651Y+3823958D02*
X+2413001Y+3823958D01*
X+4566408Y+3823958D02*
X+4888242Y+3823958D01*
X-4421077Y+3912858D02*
X-4055407Y+3912858D01*
X-3815473Y+3912858D02*
X-3555027Y+3912858D01*
X-3315093Y+3912858D02*
X-3223349Y+3912858D01*
X-2805653Y+3912858D02*
X-2532007Y+3912858D01*
X-2305273Y+3912858D02*
X-2031627Y+3912858D01*
X-1804893Y+3912858D02*
X-1511387Y+3912858D01*
X-1280653Y+3912858D02*
X-1011007Y+3912858D01*
X-780273Y+3912858D02*
X-510627Y+3912858D01*
X-279893Y+3912858D02*
X+16613Y+3912858D01*
X+237347Y+3912858D02*
X+516993Y+3912858D01*
X+737727Y+3912858D02*
X+1017373Y+3912858D01*
X+1238107Y+3912858D02*
X+2413001Y+3912858D01*
X+4570664Y+3912858D02*
X+4888242Y+3912858D01*
X-4378961Y+4001758D02*
X-4144307Y+4001758D01*
X-3726573Y+4001758D02*
X-3643927Y+4001758D01*
X-3226193Y+4001758D02*
X-3223349Y+4001758D01*
X-2716753Y+4001758D02*
X-2620907Y+4001758D01*
X-2216373Y+4001758D02*
X-2120527Y+4001758D01*
X-1715993Y+4001758D02*
X-1600287Y+4001758D01*
X-1191753Y+4001758D02*
X-1099907Y+4001758D01*
X-691373Y+4001758D02*
X-599527Y+4001758D01*
X-190993Y+4001758D02*
X-72287Y+4001758D01*
X+326247Y+4001758D02*
X+428093Y+4001758D01*
X+826627Y+4001758D02*
X+928473Y+4001758D01*
X+1327007Y+4001758D02*
X+2413001Y+4001758D01*
X+4583069Y+4001758D02*
X+4888242Y+4001758D01*
X-4378961Y+4090658D02*
X-4189439Y+4090658D01*
X-3181061Y+4090658D02*
X-3175644Y+4090658D01*
X-1664261Y+4090658D02*
X-1650019Y+4090658D01*
X-141261Y+4090658D02*
X-127019Y+4090658D01*
X+1381739Y+4090658D02*
X+2413001Y+4090658D01*
X+4559708Y+4090658D02*
X+4888242Y+4090658D01*
X-4888242Y+4179558D02*
X-4861347Y+4179558D01*
X-4706773Y+4179558D02*
X-4621347Y+4179558D01*
X-4466773Y+4179558D02*
X-4189439Y+4179558D01*
X-3181061Y+4179558D02*
X-3173019Y+4179558D01*
X-1664261Y+4179558D02*
X-1650019Y+4179558D01*
X-141261Y+4179558D02*
X-127019Y+4179558D01*
X+1381739Y+4179558D02*
X+4888242Y+4179558D01*
X-4888242Y+4268458D02*
X-4178291Y+4268458D01*
X-3692589Y+4268458D02*
X-3677911Y+4268458D01*
X-3192209Y+4268458D02*
X-3168471Y+4268458D01*
X-2669569Y+4268458D02*
X-2668091Y+4268458D01*
X-2169189Y+4268458D02*
X-2167711Y+4268458D01*
X-1668809Y+4268458D02*
X-1643471Y+4268458D01*
X-1148569Y+4268458D02*
X-1143091Y+4268458D01*
X-648189Y+4268458D02*
X-642711Y+4268458D01*
X-147809Y+4268458D02*
X-125471Y+4268458D01*
X+1380191Y+4268458D02*
X+4888242Y+4268458D01*
X-4888242Y+4357358D02*
X-4089391Y+4357358D01*
X-3781489Y+4357358D02*
X-3589011Y+4357358D01*
X-3281109Y+4357358D02*
X-3079571Y+4357358D01*
X-2758469Y+4357358D02*
X-2579191Y+4357358D01*
X-2258089Y+4357358D02*
X-2078811Y+4357358D01*
X-1757709Y+4357358D02*
X-1554571Y+4357358D01*
X-1237469Y+4357358D02*
X-1054191Y+4357358D01*
X-737089Y+4357358D02*
X-553811Y+4357358D01*
X-236709Y+4357358D02*
X-36571Y+4357358D01*
X+290531Y+4357358D02*
X+463809Y+4357358D01*
X+790911Y+4357358D02*
X+964189Y+4357358D01*
X+1291291Y+4357358D02*
X+4888242Y+4357358D01*
X-4888242Y+4446258D02*
X+4888242Y+4446258D01*
X-4538261Y+4535158D02*
X+4504541Y+4535158D01*
X-4449361Y+4624058D02*
X+4423401Y+4624058D01*
X-4446961Y+4712958D02*
X+4423401Y+4712958D01*
X-4446961Y+4801858D02*
X+2062101Y+4801858D01*
X+2295299Y+4801858D02*
X+3452101Y+4801858D01*
X+3685299Y+4801858D02*
X+4423401Y+4801858D01*
X-4475461Y+4888242D02*
X+2062101Y+4888242D01*
X+2295299Y+4888242D02*
X+3452101Y+4888242D01*
X+3685299Y+4888242D02*
X+4462061Y+4888242D01*
X-4888242Y+3894057D02*
X-4888242Y+3894057D01*
X-4888242Y+4152663D02*
X-4888242Y+4504541D01*
X-4799342Y-4434261D02*
X-4799342Y+2409036D01*
X-4799342Y+2686204D02*
X-4799342Y+3285890D01*
X-4799342Y+3485470D02*
X-4799342Y+3858261D01*
X-4799342Y+4188459D02*
X-4799342Y+4461501D01*
X-4710442Y-4434261D02*
X-4710442Y+2357121D01*
X-4710442Y+2738119D02*
X-4710442Y+3220081D01*
X-4710442Y+3551279D02*
X-4710442Y+3863493D01*
X-4710442Y+4183227D02*
X-4710442Y+4461501D01*
X-4621542Y-4437337D02*
X-4621542Y-2443619D01*
X-4621542Y-1994041D02*
X-4621542Y-382942D01*
X-4621542Y+2738119D02*
X-4621542Y+3220081D01*
X-4621542Y+3551279D02*
X-4621542Y+3867357D01*
X-4621542Y+4179363D02*
X-4621542Y+4461501D01*
X-4532642Y-4526237D02*
X-4532642Y-2443619D01*
X-4532642Y-1994041D02*
X-4532642Y-446099D01*
X-4532642Y+2698904D02*
X-4532642Y+3283786D01*
X-4532642Y+3487574D02*
X-4532642Y+3858261D01*
X-4532642Y+4188459D02*
X-4532642Y+4540777D01*
X-4443742Y-4888241D02*
X-4443742Y-2443619D01*
X-4443742Y-1994041D02*
X-4443742Y-446099D01*
X-4443742Y+2738119D02*
X-4443742Y+3220081D01*
X-4443742Y+3551279D02*
X-4443742Y+3890193D01*
X-4443742Y+4156527D02*
X-4443742Y+4888242D01*
X-4354842Y-4888241D02*
X-4354842Y-2443619D01*
X-4354842Y-1994041D02*
X-4354842Y-486564D01*
X-4354842Y+2738119D02*
X-4354842Y+3220081D01*
X-4354842Y+3579262D02*
X-4354842Y+4888242D01*
X-4265942Y-4888241D02*
X-4265942Y-4159707D01*
X-4265942Y-3820813D02*
X-4265942Y-2443619D01*
X-4265942Y-1994041D02*
X-4265942Y-556499D01*
X-4265942Y-115901D02*
X-4265942Y+73661D01*
X-4265942Y+2687546D02*
X-4265942Y+3220081D01*
X-4265942Y+3668162D02*
X-4265942Y+4888242D01*
X-4177042Y-4888241D02*
X-4177042Y-4244259D01*
X-4177042Y-3736261D02*
X-4177042Y-2443619D01*
X-4177042Y-1994041D02*
X-4177042Y-556499D01*
X-4177042Y-161473D02*
X-4177042Y+73661D01*
X-4177042Y+2558686D02*
X-4177042Y+3220081D01*
X-4177042Y+3677919D02*
X-4177042Y+4034493D01*
X-4177042Y+4269707D02*
X-4177042Y+4888242D01*
X-4088142Y-4888241D02*
X-4088142Y-4244259D01*
X-4088142Y-3736261D02*
X-4088142Y-3371324D01*
X-4088142Y-3209316D02*
X-4088142Y-2443619D01*
X-4088142Y-1994041D02*
X-4088142Y-517548D01*
X-4088142Y-214452D02*
X-4088142Y+72236D01*
X-4088142Y+2469786D02*
X-4088142Y+3347721D01*
X-4088142Y+3677919D02*
X-4088142Y+3945593D01*
X-4088142Y+4358607D02*
X-4088142Y+4888242D01*
X-3999242Y-4888241D02*
X-3999242Y-4244259D01*
X-3999242Y-3736261D02*
X-3999242Y-3460224D01*
X-3999242Y-3120416D02*
X-3999242Y-2942264D01*
X-3999242Y-2638376D02*
X-3999242Y-2443619D01*
X-3999242Y-1994041D02*
X-3999242Y-1864303D01*
X-3999242Y-1616337D02*
X-3999242Y-1614303D01*
X-3999242Y-1366337D02*
X-3999242Y+71121D01*
X-3999242Y+2612544D02*
X-3999242Y+3347721D01*
X-3999242Y+3677919D02*
X-3999242Y+3898101D01*
X-3999242Y+4406099D02*
X-3999242Y+4888242D01*
X-3910342Y-4888241D02*
X-3910342Y-4183631D01*
X-3910342Y-3796889D02*
X-3910342Y-3480819D01*
X-3910342Y-3099821D02*
X-3910342Y-2968119D01*
X-3910342Y-2612521D02*
X-3910342Y-2443619D01*
X-3910342Y-1994041D02*
X-3910342Y-1905419D01*
X-3910342Y-1325221D02*
X-3910342Y+89992D01*
X-3910342Y+2687319D02*
X-3910342Y+3322321D01*
X-3910342Y+3703319D02*
X-3910342Y+3898101D01*
X-3910342Y+4406099D02*
X-3910342Y+4888242D01*
X-3821442Y-4888241D02*
X-3821442Y-4103827D01*
X-3821442Y-3876693D02*
X-3821442Y-3480819D01*
X-3821442Y-3099821D02*
X-3821442Y-2963468D01*
X-3821442Y-2617172D02*
X-3821442Y-2443619D01*
X-3821442Y-1994041D02*
X-3821442Y-1905419D01*
X-3821442Y-1325221D02*
X-3821442Y+71121D01*
X-3821442Y+2687319D02*
X-3821442Y+3322321D01*
X-3821442Y+3703319D02*
X-3821442Y+3906889D01*
X-3821442Y+4397311D02*
X-3821442Y+4888242D01*
X-3732542Y-4888241D02*
X-3732542Y-4192727D01*
X-3732542Y-3787793D02*
X-3732542Y-3480819D01*
X-3732542Y-3099821D02*
X-3732542Y-2874568D01*
X-3732542Y-2706072D02*
X-3732542Y-2443619D01*
X-3732542Y-1994041D02*
X-3732542Y-1816607D01*
X-3732542Y-1664033D02*
X-3732542Y-1566607D01*
X-3732542Y-1414033D02*
X-3732542Y+37760D01*
X-3732542Y+2653208D02*
X-3732542Y+3356432D01*
X-3732542Y+3669208D02*
X-3732542Y+3995789D01*
X-3732542Y+4308411D02*
X-3732542Y+4888242D01*
X-3643642Y-4888241D02*
X-3643642Y-4244259D01*
X-3643642Y-3736261D02*
X-3643642Y-3480819D01*
X-3643642Y-3099821D02*
X-3643642Y-2443619D01*
X-3643642Y-1994041D02*
X-3643642Y-51140D01*
X-3643642Y+2693204D02*
X-3643642Y+3343355D01*
X-3643642Y+3709204D02*
X-3643642Y+4001473D01*
X-3643642Y+4302727D02*
X-3643642Y+4888242D01*
X-3554742Y-4888241D02*
X-3554742Y-4244259D01*
X-3554742Y-3736261D02*
X-3554742Y-3480819D01*
X-3554742Y-3099821D02*
X-3554742Y-2443619D01*
X-3554742Y-1994041D02*
X-3554742Y-140040D01*
X-3554742Y+2726179D02*
X-3554742Y+3310381D01*
X-3554742Y+3742179D02*
X-3554742Y+3912573D01*
X-3554742Y+4391627D02*
X-3554742Y+4888242D01*
X-3465842Y-4888241D02*
X-3465842Y-4239511D01*
X-3465842Y-3741009D02*
X-3465842Y-3480819D01*
X-3465842Y-3099821D02*
X-3465842Y-2443619D01*
X-3465842Y-1994041D02*
X-3465842Y-228940D01*
X-3465842Y+2726179D02*
X-3465842Y+3310381D01*
X-3465842Y+3742179D02*
X-3465842Y+3898101D01*
X-3465842Y+4406099D02*
X-3465842Y+4888242D01*
X-3376942Y-4888241D02*
X-3376942Y-4150611D01*
X-3376942Y-3829909D02*
X-3376942Y-3480819D01*
X-3376942Y-3099821D02*
X-3376942Y-2886384D01*
X-3376942Y-2694256D02*
X-3376942Y-2443619D01*
X-3376942Y-1994041D02*
X-3376942Y-304798D01*
X-3376942Y+2926184D02*
X-3376942Y+3365251D01*
X-3376942Y+3687308D02*
X-3376942Y+3898101D01*
X-3376942Y+4406099D02*
X-3376942Y+4888242D01*
X-3288042Y-4888241D02*
X-3288042Y-4134007D01*
X-3288042Y-3847473D02*
X-3288042Y-3480819D01*
X-3288042Y-3099821D02*
X-3288042Y-2968119D01*
X-3288042Y-2612521D02*
X-3288042Y-2443619D01*
X-3288042Y-1994041D02*
X-3288042Y-1897323D01*
X-3288042Y-1333317D02*
X-3288042Y-1263983D01*
X-3288042Y-1117657D02*
X-3288042Y-501983D01*
X-3288042Y-355657D02*
X-3288042Y-304798D01*
X-3288042Y+2983199D02*
X-3288042Y+3362201D01*
X-3288042Y+3743199D02*
X-3288042Y+3939909D01*
X-3288042Y+4364291D02*
X-3288042Y+4888242D01*
X-3199142Y-4888241D02*
X-3199142Y-4222907D01*
X-3199142Y-3758573D02*
X-3199142Y-3480819D01*
X-3199142Y-3099821D02*
X-3199142Y-2968119D01*
X-3199142Y-2612521D02*
X-3199142Y-2443619D01*
X-3199142Y-1994041D02*
X-3199142Y-1914380D01*
X-3199142Y-878500D02*
X-3199142Y-590883D01*
X-3199142Y+4275391D02*
X-3199142Y+4888242D01*
X-3110242Y-4888241D02*
X-3110242Y-4244739D01*
X-3110242Y-3736741D02*
X-3110242Y-3473839D01*
X-3110242Y-3118241D02*
X-3110242Y-2930448D01*
X-3110242Y-2650192D02*
X-3110242Y-2443619D01*
X-3110242Y-789600D02*
X-3110242Y-593919D01*
X-3110242Y+4326687D02*
X-3110242Y+4888242D01*
X-3021342Y-4888241D02*
X-3021342Y-4244739D01*
X-3021342Y-3736741D02*
X-3021342Y-3473839D01*
X-3021342Y-3118241D02*
X-3021342Y-2443619D01*
X-3021342Y-700700D02*
X-3021342Y-555927D01*
X-3021342Y+4412699D02*
X-3021342Y+4888242D01*
X-2932442Y-4888241D02*
X-2932442Y-4210291D01*
X-2932442Y-3771189D02*
X-2932442Y-3473839D01*
X-2932442Y-3118241D02*
X-2932442Y-2443619D01*
X-2932442Y-611800D02*
X-2932442Y-593919D01*
X-2932442Y+3754199D02*
X-2932442Y+3904701D01*
X-2932442Y+4412699D02*
X-2932442Y+4888242D01*
X-2843542Y-4888241D02*
X-2843542Y-4121391D01*
X-2843542Y-3860089D02*
X-2843542Y-3473839D01*
X-2843542Y-3118241D02*
X-2843542Y-2443619D01*
X-2843542Y+3746628D02*
X-2843542Y+3904701D01*
X-2843542Y+4412699D02*
X-2843542Y+4888242D01*
X-2754642Y-4888241D02*
X-2754642Y-4167027D01*
X-2754642Y-3814453D02*
X-2754642Y-3473839D01*
X-2754642Y-3118241D02*
X-2754642Y-2443619D01*
X-2754642Y+3708484D02*
X-2754642Y+3963869D01*
X-2754642Y+4353531D02*
X-2754642Y+4888242D01*
X-2665742Y-4888241D02*
X-2665742Y-4244739D01*
X-2665742Y-3736741D02*
X-2665742Y-3473839D01*
X-2665742Y-3118241D02*
X-2665742Y-2916224D01*
X-2665742Y-2675856D02*
X-2665742Y-2443619D01*
X-2665742Y+3743199D02*
X-2665742Y+4046593D01*
X-2665742Y+4270807D02*
X-2665742Y+4888242D01*
X-2576842Y-4888241D02*
X-2576842Y-4244739D01*
X-2576842Y-3736741D02*
X-2576842Y-3486539D01*
X-2576842Y-3105541D02*
X-2576842Y-2973839D01*
X-2576842Y-2618241D02*
X-2576842Y-2443619D01*
X-2576842Y+3743199D02*
X-2576842Y+3957693D01*
X-2576842Y+4359707D02*
X-2576842Y+4888242D01*
X-2487942Y-4888241D02*
X-2487942Y-4244739D01*
X-2487942Y-3736741D02*
X-2487942Y-3486539D01*
X-2487942Y-3105541D02*
X-2487942Y-2973839D01*
X-2487942Y-2618241D02*
X-2487942Y-2443619D01*
X-2487942Y+3697184D02*
X-2487942Y+3904701D01*
X-2487942Y+4412699D02*
X-2487942Y+4888242D01*
X-2399042Y-4888241D02*
X-2399042Y-4177271D01*
X-2399042Y-3804209D02*
X-2399042Y-3499239D01*
X-2399042Y-3105541D02*
X-2399042Y-2912048D01*
X-2399042Y-2680032D02*
X-2399042Y-2443619D01*
X-2399042Y+3751199D02*
X-2399042Y+3904701D01*
X-2399042Y+4412699D02*
X-2399042Y+4888242D01*
X-2310142Y-4888241D02*
X-2310142Y-4111147D01*
X-2310142Y-3870333D02*
X-2310142Y-3499239D01*
X-2310142Y-3105541D02*
X-2310142Y-2443619D01*
X-2310142Y+3751199D02*
X-2310142Y+3907989D01*
X-2310142Y+4409411D02*
X-2310142Y+4888242D01*
X-2221242Y-4888241D02*
X-2221242Y-4200047D01*
X-2221242Y-3781433D02*
X-2221242Y-3499239D01*
X-2221242Y-3118241D02*
X-2221242Y-2443619D01*
X-2221242Y+3696328D02*
X-2221242Y+3996889D01*
X-2221242Y+4320511D02*
X-2221242Y+4888242D01*
X-2132342Y-4888241D02*
X-2132342Y-4244739D01*
X-2132342Y-3736741D02*
X-2132342Y-3499239D01*
X-2132342Y-3118241D02*
X-2132342Y-2443619D01*
X-2132342Y+3750784D02*
X-2132342Y+4013573D01*
X-2132342Y+4303827D02*
X-2132342Y+4888242D01*
X-2043442Y-4888241D02*
X-2043442Y-4244739D01*
X-2043442Y-3736741D02*
X-2043442Y-3499239D01*
X-2043442Y-3118241D02*
X-2043442Y-2443619D01*
X-2043442Y+3753199D02*
X-2043442Y+3924673D01*
X-2043442Y+4392727D02*
X-2043442Y+4888242D01*
X-1954542Y-4888241D02*
X-1954542Y-4233151D01*
X-1954542Y-3748329D02*
X-1954542Y-3499239D01*
X-1954542Y-3118241D02*
X-1954542Y-2949244D01*
X-1954542Y-2668236D02*
X-1954542Y-2443619D01*
X-1954542Y+3735628D02*
X-1954542Y+3904701D01*
X-1954542Y+4412699D02*
X-1954542Y+4888242D01*
X-1865642Y-4888241D02*
X-1865642Y-4144251D01*
X-1865642Y-3837229D02*
X-1865642Y-3499239D01*
X-1865642Y-3118241D02*
X-1865642Y-2986539D01*
X-1865642Y-2630941D02*
X-1865642Y-2443619D01*
X-1865642Y+3693484D02*
X-1865642Y+3904701D01*
X-1865642Y+4412699D02*
X-1865642Y+4888242D01*
X-1776742Y-4888241D02*
X-1776742Y-3499239D01*
X-1776742Y-3118241D02*
X-1776742Y-2986539D01*
X-1776742Y-2630941D02*
X-1776742Y-2443619D01*
X-1776742Y+3753199D02*
X-1776742Y+3941009D01*
X-1776742Y+4376391D02*
X-1776742Y+4888242D01*
X-1687842Y-4888241D02*
X-1687842Y-3422388D01*
X-1687842Y-3195092D02*
X-1687842Y-2904428D01*
X-1687842Y-2713052D02*
X-1687842Y-2443619D01*
X-1687842Y+3753199D02*
X-1687842Y+4029909D01*
X-1687842Y+4287491D02*
X-1687842Y+4888242D01*
X-1598942Y-4888241D02*
X-1598942Y-2443619D01*
X-1598942Y+3704028D02*
X-1598942Y+4000413D01*
X-1598942Y+4312987D02*
X-1598942Y+4888242D01*
X-1510042Y-4888241D02*
X-1510042Y-2443619D01*
X-1510042Y+3743084D02*
X-1510042Y+3911513D01*
X-1510042Y+4401887D02*
X-1510042Y+4888242D01*
X-1421142Y-4888241D02*
X-1421142Y-4137427D01*
X-1421142Y-3839573D02*
X-1421142Y-2443619D01*
X-1421142Y+3743199D02*
X-1421142Y+3902701D01*
X-1421142Y+4410699D02*
X-1421142Y+4888242D01*
X-1332242Y-4888241D02*
X-1332242Y-4226327D01*
X-1332242Y-3750673D02*
X-1332242Y-3421524D01*
X-1332242Y-3210676D02*
X-1332242Y-2903564D01*
X-1332242Y-2728636D02*
X-1332242Y-2443619D01*
X-1332242Y+3723328D02*
X-1332242Y+3902701D01*
X-1332242Y+4410699D02*
X-1332242Y+4888242D01*
X-1243342Y-4888241D02*
X-1243342Y-4242499D01*
X-1243342Y-3734501D02*
X-1243342Y-3509139D01*
X-1243342Y-3125601D02*
X-1243342Y-2992464D01*
X-1243342Y-2639736D02*
X-1243342Y-2443619D01*
X-1243342Y+3712784D02*
X-1243342Y+3950169D01*
X-1243342Y+4363231D02*
X-1243342Y+4888242D01*
X-1154442Y-4888241D02*
X-1154442Y-4242499D01*
X-1154442Y-3734501D02*
X-1154442Y-3509139D01*
X-1154442Y-3125601D02*
X-1154442Y-2993899D01*
X-1154442Y-2638301D02*
X-1154442Y-2443619D01*
X-1154442Y+3753199D02*
X-1154442Y+4039069D01*
X-1154442Y+4274331D02*
X-1154442Y+4888242D01*
X-1065542Y-4888241D02*
X-1065542Y-4202391D01*
X-1065542Y-3774609D02*
X-1065542Y-3509139D01*
X-1065542Y-3128141D02*
X-1065542Y-2964828D01*
X-1065542Y-2667372D02*
X-1065542Y-2443619D01*
X-1065542Y+3753199D02*
X-1065542Y+3967393D01*
X-1065542Y+4346007D02*
X-1065542Y+4888242D01*
X-976642Y-4888241D02*
X-976642Y-4113491D01*
X-976642Y-3863509D02*
X-976642Y-3509139D01*
X-976642Y-3128141D02*
X-976642Y-2443619D01*
X-976642Y+3686484D02*
X-976642Y+3902701D01*
X-976642Y+4410699D02*
X-976642Y+4888242D01*
X-887742Y-4888241D02*
X-887742Y-4170447D01*
X-887742Y-3806553D02*
X-887742Y-3509139D01*
X-887742Y-3128141D02*
X-887742Y-2443619D01*
X-887742Y+3743199D02*
X-887742Y+3902701D01*
X-887742Y+4410699D02*
X-887742Y+4888242D01*
X-798842Y-4888241D02*
X-798842Y-4242499D01*
X-798842Y-3734501D02*
X-798842Y-3509139D01*
X-798842Y-3128141D02*
X-798842Y-2443619D01*
X-798842Y+3743199D02*
X-798842Y+3902701D01*
X-798842Y+4410699D02*
X-798842Y+4888242D01*
X-709942Y-4888241D02*
X-709942Y-4242499D01*
X-709942Y-3734501D02*
X-709942Y-3509139D01*
X-709942Y-3128141D02*
X-709942Y-2443619D01*
X-709942Y+3691028D02*
X-709942Y+3983189D01*
X-709942Y+4330211D02*
X-709942Y+4888242D01*
X-621042Y-4888241D02*
X-621042Y-4242499D01*
X-621042Y-3734501D02*
X-621042Y-3509139D01*
X-621042Y-3128141D02*
X-621042Y-2946744D01*
X-621042Y-2690536D02*
X-621042Y-2443619D01*
X-621042Y+3752199D02*
X-621042Y+4023273D01*
X-621042Y+4290127D02*
X-621042Y+4888242D01*
X-532142Y-4888241D02*
X-532142Y-4169371D01*
X-532142Y-3807629D02*
X-532142Y-3509139D01*
X-532142Y-3128141D02*
X-532142Y-2996439D01*
X-532142Y-2640841D02*
X-532142Y-2443619D01*
X-532142Y+3752199D02*
X-532142Y+3934373D01*
X-532142Y+4379027D02*
X-532142Y+4888242D01*
X-443242Y-4888241D02*
X-443242Y-4113767D01*
X-443242Y-3868353D02*
X-443242Y-3509139D01*
X-443242Y-3128141D02*
X-443242Y-2996439D01*
X-443242Y-2640841D02*
X-443242Y-2443619D01*
X-443242Y+3710328D02*
X-443242Y+3902701D01*
X-443242Y+4410699D02*
X-443242Y+4888242D01*
X-354342Y-4888241D02*
X-354342Y-4202667D01*
X-354342Y-3779453D02*
X-354342Y-3516759D01*
X-354342Y-3128141D02*
X-354342Y-2926728D01*
X-354342Y-2710552D02*
X-354342Y-2443619D01*
X-354342Y+3714784D02*
X-354342Y+3902701D01*
X-354342Y+4410699D02*
X-354342Y+4888242D01*
X-265442Y-4888241D02*
X-265442Y-4245059D01*
X-265442Y-3737061D02*
X-265442Y-3516759D01*
X-265442Y-3128141D02*
X-265442Y-2443619D01*
X-265442Y+3752199D02*
X-265442Y+3927309D01*
X-265442Y+4386091D02*
X-265442Y+4888242D01*
X-176542Y-4888241D02*
X-176542Y-4245059D01*
X-176542Y-3737061D02*
X-176542Y-3516759D01*
X-176542Y-3135761D02*
X-176542Y-2443619D01*
X-176542Y+3752199D02*
X-176542Y+4016209D01*
X-176542Y+4297191D02*
X-176542Y+4888242D01*
X-87642Y-4888241D02*
X-87642Y-4231171D01*
X-87642Y-3750949D02*
X-87642Y-3516759D01*
X-87642Y-3135761D02*
X-87642Y-2443619D01*
X-87642Y+3705484D02*
X-87642Y+4017113D01*
X-87642Y+4306287D02*
X-87642Y+4888242D01*
X+1258Y-4888241D02*
X+1258Y-4142271D01*
X+1258Y-3839849D02*
X+1258Y-3516759D01*
X+1258Y-3135761D02*
X+1258Y-2443619D01*
X+1258Y+3752199D02*
X+1258Y+3928213D01*
X+1258Y+4395187D02*
X+1258Y+4888242D01*
X+90158Y-4888241D02*
X+90158Y-4146787D01*
X+90158Y-3835333D02*
X+90158Y-3516759D01*
X+90158Y-3135761D02*
X+90158Y-2984844D01*
X+90158Y-2667676D02*
X+90158Y-2443619D01*
X+90158Y+3752199D02*
X+90158Y+3907701D01*
X+90158Y+4415699D02*
X+90158Y+4888242D01*
X+179058Y-4888241D02*
X+179058Y-4235687D01*
X+179058Y-3746433D02*
X+179058Y-3516759D01*
X+179058Y-3135761D02*
X+179058Y-3004059D01*
X+179058Y-2648461D02*
X+179058Y-2443619D01*
X+179058Y+3690028D02*
X+179058Y+3907701D01*
X+179058Y+4415699D02*
X+179058Y+4888242D01*
X+267958Y-4888241D02*
X+267958Y-4245059D01*
X+267958Y-3737061D02*
X+267958Y-3516759D01*
X+267958Y-3135761D02*
X+267958Y-2992768D01*
X+267958Y-2659752D02*
X+267958Y-2443619D01*
X+267958Y+3741084D02*
X+267958Y+3943469D01*
X+267958Y+4379931D02*
X+267958Y+4888242D01*
X+356858Y-4888241D02*
X+356858Y-4245059D01*
X+356858Y-3737061D02*
X+356858Y-3516759D01*
X+356858Y-3135761D02*
X+356858Y-2903868D01*
X+356858Y-2748652D02*
X+356858Y-2443619D01*
X+356858Y+3756199D02*
X+356858Y+4032369D01*
X+356858Y+4291031D02*
X+356858Y+4888242D01*
X+445758Y-4888241D02*
X+445758Y-4198151D01*
X+445758Y-3783969D02*
X+445758Y-3516759D01*
X+445758Y-3135761D02*
X+445758Y-2443619D01*
X+445758Y+3751328D02*
X+445758Y+3984093D01*
X+445758Y+4339307D02*
X+445758Y+4888242D01*
X+534658Y-4888241D02*
X+534658Y-4109251D01*
X+534658Y-3872869D02*
X+534658Y-3534539D01*
X+534658Y-3135761D02*
X+534658Y-2443619D01*
X+534658Y+3728784D02*
X+534658Y+3907701D01*
X+534658Y+4415699D02*
X+534658Y+4888242D01*
X+623558Y-4888241D02*
X+623558Y-4179807D01*
X+623558Y-3802313D02*
X+623558Y-3534539D01*
X+623558Y-3135761D02*
X+623558Y-2443619D01*
X+623558Y+3756199D02*
X+623558Y+3907701D01*
X+623558Y+4415699D02*
X+623558Y+4888242D01*
X+712458Y-4888241D02*
X+712458Y-4245059D01*
X+712458Y-3737061D02*
X+712458Y-3534539D01*
X+712458Y-3153541D02*
X+712458Y-2941664D01*
X+712458Y-2746416D02*
X+712458Y-2443619D01*
X+712458Y+3756199D02*
X+712458Y+3907701D01*
X+712458Y+4415699D02*
X+712458Y+4888242D01*
X+801358Y-4888241D02*
X+801358Y-4245059D01*
X+801358Y-3737061D02*
X+801358Y-3534539D01*
X+801358Y-3153541D02*
X+801358Y-3021839D01*
X+801358Y-2666241D02*
X+801358Y-2443619D01*
X+801358Y+3683484D02*
X+801358Y+3976489D01*
X+801358Y+4346911D02*
X+801358Y+4888242D01*
X+890258Y-4888241D02*
X+890258Y-4245059D01*
X+890258Y-3737061D02*
X+890258Y-3534539D01*
X+890258Y-3153541D02*
X+890258Y-3021839D01*
X+890258Y-2666241D02*
X+890258Y-2443619D01*
X+890258Y+3757199D02*
X+890258Y+4039973D01*
X+890258Y+4283427D02*
X+890258Y+4888242D01*
X+979158Y-4888241D02*
X+979158Y-4165131D01*
X+979158Y-3816989D02*
X+979158Y-3500568D01*
X+979158Y-3187512D02*
X+979158Y-2982608D01*
X+979158Y-2705472D02*
X+979158Y-2443619D01*
X+979158Y+3757199D02*
X+979158Y+3951073D01*
X+979158Y+4372327D02*
X+979158Y+4888242D01*
X+1068058Y-4888241D02*
X+1068058Y-2443619D01*
X+1068058Y+3722028D02*
X+1068058Y+3907701D01*
X+1068058Y+4415699D02*
X+1068058Y+4888242D01*
X+1156958Y-4888241D02*
X+1156958Y-2443619D01*
X+1156958Y+3752199D02*
X+1156958Y+3907701D01*
X+1156958Y+4415699D02*
X+1156958Y+4888242D01*
X+1245858Y-4888241D02*
X+1245858Y-2443619D01*
X+1245858Y+3752199D02*
X+1245858Y+3920609D01*
X+1245858Y+4402791D02*
X+1245858Y+4888242D01*
X+1334758Y-4888241D02*
X+1334758Y-2443619D01*
X+1334758Y+3689328D02*
X+1334758Y+4009509D01*
X+1334758Y+4313891D02*
X+1334758Y+4888242D01*
X+1423658Y-4888241D02*
X+1423658Y-2443619D01*
X+1423658Y+3596639D02*
X+1423658Y+4888242D01*
X+1512558Y-4888241D02*
X+1512558Y-2443619D01*
X+1512558Y+3596639D02*
X+1512558Y+4888242D01*
X+1601458Y-4888241D02*
X+1601458Y-2391972D01*
X+1601458Y+3577744D02*
X+1601458Y+4888242D01*
X+1690358Y-4888241D02*
X+1690358Y-2267755D01*
X+1690358Y+3601719D02*
X+1690358Y+4888242D01*
X+1779258Y-4888241D02*
X+1779258Y-2356655D01*
X+1779258Y+3601719D02*
X+1779258Y+4888242D01*
X+1868158Y-4888241D02*
X+1868158Y-2445555D01*
X+1868158Y+3596639D02*
X+1868158Y+4888242D01*
X+1957058Y-4888241D02*
X+1957058Y-2895320D01*
X+1957058Y+3596639D02*
X+1957058Y+4888242D01*
X+2045958Y-4888241D02*
X+2045958Y-3310063D01*
X+2045958Y-3170257D02*
X+2045958Y-3056063D01*
X+2045958Y+3539668D02*
X+2045958Y+4888242D01*
X+2134858Y-4888241D02*
X+2134858Y-4879784D01*
X+2134858Y-4596016D02*
X+2134858Y-3863784D01*
X+2134858Y-3580016D02*
X+2134858Y-3398963D01*
X+2134858Y+3532339D02*
X+2134858Y+4760121D01*
X+2223758Y-4547401D02*
X+2223758Y-3912399D01*
X+2223758Y-3531401D02*
X+2223758Y-3405259D01*
X+2223758Y+3532339D02*
X+2223758Y+4760121D01*
X+2312658Y-4547401D02*
X+2312658Y-3912399D01*
X+2312658Y-3509980D02*
X+2312658Y-3370527D01*
X+2312658Y+3575639D02*
X+2312658Y+4888242D01*
X+2401558Y-4550296D02*
X+2401558Y-3914584D01*
X+2401558Y-3421080D02*
X+2401558Y-1951084D01*
X+2401558Y-1492536D02*
X+2401558Y-1447799D01*
X+2401558Y+3590040D02*
X+2401558Y+4888242D01*
X+2490458Y-4549941D02*
X+2490458Y-3914939D01*
X+2490458Y-3332180D02*
X+2490458Y-1862184D01*
X+2490458Y-1581436D02*
X+2490458Y-1447799D01*
X+2490458Y+3678940D02*
X+2490458Y+3769361D01*
X+2490458Y+4175759D02*
X+2490458Y+4888242D01*
X+2579358Y-4480260D02*
X+2579358Y-3895308D01*
X+2579358Y-3314701D02*
X+2579358Y-1447799D01*
X+2579358Y+3767840D02*
X+2579358Y+3769361D01*
X+2579358Y+4175759D02*
X+2579358Y+4888242D01*
X+2668258Y-4391360D02*
X+2668258Y-3922559D01*
X+2668258Y-3314701D02*
X+2668258Y-1447799D01*
X+2668258Y+4175759D02*
X+2668258Y+4888242D01*
X+2757158Y-4302460D02*
X+2757158Y-3922559D01*
X+2757158Y-3292900D02*
X+2757158Y-1447799D01*
X+2757158Y+4175759D02*
X+2757158Y+4888242D01*
X+2846058Y-4213560D02*
X+2846058Y-3917479D01*
X+2846058Y-2878157D02*
X+2846058Y-2840163D01*
X+2846058Y-2624157D02*
X+2846058Y-2586163D01*
X+2846058Y-2370157D02*
X+2846058Y-2332163D01*
X+2846058Y-2116157D02*
X+2846058Y-2078163D01*
X+2846058Y-1862157D02*
X+2846058Y-1824163D01*
X+2846058Y-1608157D02*
X+2846058Y-1570163D01*
X+2846058Y+4175759D02*
X+2846058Y+4888242D01*
X+2934958Y-4124660D02*
X+2934958Y-3917479D01*
X+2934958Y+4175759D02*
X+2934958Y+4888242D01*
X+3023858Y-4035760D02*
X+3023858Y-3924744D01*
X+3023858Y+4175759D02*
X+3023858Y+4888242D01*
X+3112758Y-3946860D02*
X+3112758Y-3925099D01*
X+3112758Y+4175759D02*
X+3112758Y+4888242D01*
X+3201658Y+4175759D02*
X+3201658Y+4888242D01*
X+3290558Y+4175759D02*
X+3290558Y+4888242D01*
X+3379458Y+4123279D02*
X+3379458Y+4888242D01*
X+3468358Y+4123279D02*
X+3468358Y+4760121D01*
X+3557258Y+4123279D02*
X+3557258Y+4760121D01*
X+3646158Y+4123279D02*
X+3646158Y+4760121D01*
X+3735058Y+4123279D02*
X+3735058Y+4888242D01*
X+3823958Y+4123279D02*
X+3823958Y+4888242D01*
X+3912858Y-4888242D02*
X+3912858Y-4869799D01*
X+3912858Y+4123279D02*
X+3912858Y+4888242D01*
X+4001758Y-4888242D02*
X+4001758Y-4869799D01*
X+4001758Y+4123279D02*
X+4001758Y+4888242D01*
X+4090658Y-4888242D02*
X+4090658Y-4869799D01*
X+4090658Y+4123279D02*
X+4090658Y+4888242D01*
X+4179558Y-4888242D02*
X+4179558Y-4869799D01*
X+4179558Y+4123279D02*
X+4179558Y+4888242D01*
X+4268458Y-4888242D02*
X+4268458Y-4832023D01*
X+4268458Y-901701D02*
X+4268458Y+2059996D01*
X+4268458Y+4123279D02*
X+4268458Y+4888242D01*
X+4357358Y-4888242D02*
X+4357358Y-2281284D01*
X+4357358Y-901701D02*
X+4357358Y+1991351D01*
X+4357358Y+4167729D02*
X+4357358Y+4888242D01*
X+4446258Y-4888242D02*
X+4446258Y-2836084D01*
X+4446258Y-2631156D02*
X+4446258Y-2566084D01*
X+4446258Y-2361156D02*
X+4446258Y-2316084D01*
X+4446258Y-901701D02*
X+4446258Y+1872172D01*
X+4446258Y+4167729D02*
X+4446258Y+4593441D01*
X+4446258Y+4872439D02*
X+4446258Y+4888242D01*
X+4535158Y-4888242D02*
X+4535158Y-4883299D01*
X+4535158Y-4528101D02*
X+4535158Y-2905069D01*
X+4535158Y-901701D02*
X+4535158Y+1805579D01*
X+4535158Y+2788228D02*
X+4535158Y+2817372D01*
X+4535158Y+3048228D02*
X+4535158Y+3107352D01*
X+4535158Y+3345208D02*
X+4535158Y+3357352D01*
X+4535158Y+3595208D02*
X+4535158Y+3617352D01*
X+4535158Y+3855208D02*
X+4535158Y+3877352D01*
X+4535158Y+4115208D02*
X+4535158Y+4504541D01*
X+4624058Y-4439201D02*
X+4624058Y-2905069D01*
X+4624058Y-901701D02*
X+4624058Y+1805579D01*
X+4624058Y+2610182D02*
X+4624058Y+4451341D01*
X+4712958Y-4424101D02*
X+4712958Y-2849388D01*
X+4712958Y-901701D02*
X+4712958Y+4451341D01*
X+4801858Y-4424101D02*
X+4801858Y-2679664D01*
X+4801858Y-957216D02*
X+4801858Y+4451341D01*
X+4888242Y-4439901D02*
X+4888242Y+4517941D01*
X+4423401Y+4849582D02*
X+4423401Y+4616298D01*
X+4588358Y+4451341D01*
X+4821642Y+4451341D01*
X+4888242Y+4517941D01*
X+4888242Y-4439901D01*
X+4872442Y-4424101D01*
X+4639158Y-4424101D01*
X+4474201Y-4589058D01*
X+4474201Y-4822342D01*
X+4540101Y-4888242D01*
X+3857464Y-4888242D01*
X+3875907Y-4869799D01*
X+4230682Y-4869799D01*
X+4312919Y-4787562D01*
X+4312919Y-2325723D01*
X+4414811Y-2223831D01*
X+4414811Y-2284637D01*
X+4468794Y-2338620D01*
X+4414811Y-2392603D01*
X+4414811Y-2534637D01*
X+4478794Y-2598620D01*
X+4414811Y-2662603D01*
X+4414811Y-2804637D01*
X+4515243Y-2905069D01*
X+4657277Y-2905069D01*
X+4757709Y-2804637D01*
X+4757709Y-2723813D01*
X+4876799Y-2604723D01*
X+4876799Y-1032157D01*
X+4746343Y-901701D01*
X+4241799Y-901701D01*
X+4241799Y+2086655D01*
X+4337103Y+1991351D01*
X+4431017Y+1991351D01*
X+4431017Y+1887413D01*
X+4512851Y+1805579D01*
X+4628581Y+1805579D01*
X+4710415Y+1887413D01*
X+4710415Y+2003143D01*
X+4685015Y+2028543D01*
X+4685015Y+2549225D01*
X+4579569Y+2654671D01*
X+4579569Y+2743817D01*
X+4520586Y+2802800D01*
X+4579569Y+2861783D01*
X+4579569Y+3003817D01*
X+4505596Y+3077790D01*
X+4583069Y+3155263D01*
X+4583069Y+3297297D01*
X+4529086Y+3351280D01*
X+4583069Y+3405263D01*
X+4583069Y+3547297D01*
X+4524086Y+3606280D01*
X+4583069Y+3665263D01*
X+4583069Y+3807297D01*
X+4524086Y+3866280D01*
X+4583069Y+3925263D01*
X+4583069Y+4067297D01*
X+4482637Y+4167729D01*
X+4340603Y+4167729D01*
X+4296153Y+4123279D01*
X+3327399Y+4123279D01*
X+3327399Y+4175759D01*
X+2413001Y+4175759D01*
X+2413001Y+3769361D01*
X+2580879Y+3769361D01*
X+2387157Y+3575639D01*
X+2251561Y+3575639D01*
X+2251561Y+3532339D01*
X+2053287Y+3532339D01*
X+1988987Y+3596639D01*
X+1831173Y+3596639D01*
X+1809750Y+3575216D01*
X+1783247Y+3601719D01*
X+1625433Y+3601719D01*
X+1597660Y+3573946D01*
X+1574967Y+3596639D01*
X+1417153Y+3596639D01*
X+1383479Y+3562965D01*
X+1383479Y+3640607D01*
X+1271887Y+3752199D01*
X+1114073Y+3752199D01*
X+1075980Y+3714106D01*
X+1032887Y+3757199D01*
X+875073Y+3757199D01*
X+796980Y+3679106D01*
X+719887Y+3756199D01*
X+562073Y+3756199D01*
X+501480Y+3695606D01*
X+440887Y+3756199D01*
X+283073Y+3756199D01*
X+197980Y+3671106D01*
X+116887Y+3752199D01*
X-40927Y+3752199D01*
X-100020Y+3693106D01*
X-159113Y+3752199D01*
X-316927Y+3752199D01*
X-401020Y+3668106D01*
X-485113Y+3752199D01*
X-642927Y+3752199D01*
X-707020Y+3688106D01*
X-762113Y+3743199D01*
X-919927Y+3743199D01*
X-977520Y+3685606D01*
X-1045113Y+3753199D01*
X-1202927Y+3753199D01*
X-1282520Y+3673606D01*
X-1352113Y+3743199D01*
X-1509927Y+3743199D01*
X-1574020Y+3679106D01*
X-1648113Y+3753199D01*
X-1805927Y+3753199D01*
X-1889020Y+3670106D01*
X-1972113Y+3753199D01*
X-2129927Y+3753199D01*
X-2204020Y+3679106D01*
X-2276113Y+3751199D01*
X-2433927Y+3751199D01*
X-2502020Y+3683106D01*
X-2562113Y+3743199D01*
X-2719927Y+3743199D01*
X-2780020Y+3683106D01*
X-2851113Y+3754199D01*
X-2956651Y+3754199D01*
X-2956651Y+3904701D01*
X-2813810Y+3904701D01*
X-2668830Y+4049681D01*
X-2523850Y+3904701D01*
X-2313430Y+3904701D01*
X-2168450Y+4049681D01*
X-2023470Y+3904701D01*
X-1813050Y+3904701D01*
X-1664261Y+4053490D01*
X-1664261Y+4263910D01*
X-1813050Y+4412699D01*
X-2023470Y+4412699D01*
X-2168450Y+4267719D01*
X-2313430Y+4412699D01*
X-2523850Y+4412699D01*
X-2668830Y+4267719D01*
X-2813810Y+4412699D01*
X-3024230Y+4412699D01*
X-3173019Y+4263910D01*
X-3173019Y+4093283D01*
X-3181061Y+4085241D01*
X-3181061Y+4257310D01*
X-3329850Y+4406099D01*
X-3540270Y+4406099D01*
X-3685250Y+4261119D01*
X-3830230Y+4406099D01*
X-4040650Y+4406099D01*
X-4189439Y+4257310D01*
X-4189439Y+4046890D01*
X-4040650Y+3898101D01*
X-3830230Y+3898101D01*
X-3685250Y+4043081D01*
X-3540270Y+3898101D01*
X-3329850Y+3898101D01*
X-3223349Y+4004602D01*
X-3223349Y+3743199D01*
X-3319927Y+3743199D01*
X-3376380Y+3686746D01*
X-3431812Y+3742179D01*
X-3610668Y+3742179D01*
X-3708090Y+3644756D01*
X-3766653Y+3703319D01*
X-3924467Y+3703319D01*
X-3949867Y+3677919D01*
X-4256185Y+3677919D01*
X-4382825Y+3551279D01*
X-4480539Y+3551279D01*
X-4480539Y+3220081D01*
X-4149341Y+3220081D01*
X-4149341Y+3317795D01*
X-4119415Y+3347721D01*
X-3949867Y+3347721D01*
X-3924467Y+3322321D01*
X-3766653Y+3322321D01*
X-3694630Y+3394344D01*
X-3610668Y+3310381D01*
X-3431812Y+3310381D01*
X-3349960Y+3392234D01*
X-3319927Y+3362201D01*
X-3223349Y+3362201D01*
X-3223349Y+2998953D01*
X-3239103Y+2983199D01*
X-3319927Y+2983199D01*
X-3431519Y+2871607D01*
X-3431519Y+2725886D01*
X-3431812Y+2726179D01*
X-3610668Y+2726179D01*
X-3708090Y+2628756D01*
X-3766653Y+2687319D01*
X-3924467Y+2687319D01*
X-4036059Y+2575727D01*
X-4036059Y+2418079D01*
X-4036435Y+2418079D01*
X-4194401Y+2576045D01*
X-4194401Y+2616005D01*
X-4291115Y+2712719D01*
X-4310213Y+2712719D01*
X-4335613Y+2738119D01*
X-4493427Y+2738119D01*
X-4540827Y+2690719D01*
X-4542213Y+2690719D01*
X-4589613Y+2738119D01*
X-4747427Y+2738119D01*
X-4859019Y+2626527D01*
X-4859019Y+2468713D01*
X-4747427Y+2357121D01*
X-4655098Y+2357121D01*
X-4655098Y-349386D01*
X-4558385Y-446099D01*
X-4395307Y-446099D01*
X-4284907Y-556499D01*
X-4127093Y-556499D01*
X-4015501Y-444907D01*
X-4015501Y-287093D01*
X-4127093Y-175501D01*
X-4163014Y-175501D01*
X-4222614Y-115901D01*
X-4324902Y-115901D01*
X-4324902Y+103256D01*
X-4295307Y+73661D01*
X-4137493Y+73661D01*
X-4113530Y+97624D01*
X-4087027Y+71121D01*
X-3929213Y+71121D01*
X-3901440Y+98894D01*
X-3873667Y+71121D01*
X-3765903Y+71121D01*
X-3389984Y-304798D01*
X-3237183Y-304798D01*
X-3292819Y-360434D01*
X-3292819Y-497206D01*
X-3196106Y-593919D01*
X-3059334Y-593919D01*
X-3000720Y-535305D01*
X-2942106Y-593919D01*
X-2914561Y-593919D01*
X-3242019Y-921377D01*
X-3242019Y-1071634D01*
X-3292819Y-1122434D01*
X-3292819Y-1259206D01*
X-3226804Y-1325221D01*
X-3279946Y-1325221D01*
X-3376659Y-1421934D01*
X-3376659Y-1558706D01*
X-3320045Y-1615320D01*
X-3376659Y-1671934D01*
X-3376659Y-1808706D01*
X-3279946Y-1905419D01*
X-3208103Y-1905419D01*
X-3119481Y-1994041D01*
X-4633691Y-1994041D01*
X-4699159Y-2059509D01*
X-4699159Y-2378152D01*
X-4633692Y-2443619D01*
X+1549811Y-2443619D01*
X+1615279Y-2378151D01*
X+1615279Y-2192676D01*
X+1946466Y-2523863D01*
X+1946466Y-2884728D01*
X+2044441Y-2982703D01*
X+2044441Y-3054546D01*
X+2103055Y-3113160D01*
X+2044441Y-3171774D01*
X+2044441Y-3308546D01*
X+2141154Y-3405259D01*
X+2277926Y-3405259D01*
X+2374639Y-3308546D01*
X+2374639Y-3171774D01*
X+2316025Y-3113160D01*
X+2374639Y-3054546D01*
X+2374639Y-2917774D01*
X+2316025Y-2859160D01*
X+2374639Y-2800546D01*
X+2374639Y-2663774D01*
X+2316025Y-2605160D01*
X+2374639Y-2546546D01*
X+2374639Y-2409774D01*
X+2316025Y-2351160D01*
X+2374639Y-2292546D01*
X+2374639Y-2155774D01*
X+2316025Y-2097160D01*
X+2374639Y-2038546D01*
X+2374639Y-1955799D01*
X+2396843Y-1955799D01*
X+2527299Y-1825343D01*
X+2527299Y-1618277D01*
X+2374639Y-1465617D01*
X+2374639Y-1447799D01*
X+2806441Y-1447799D01*
X+2806441Y-1530546D01*
X+2865055Y-1589160D01*
X+2806441Y-1647774D01*
X+2806441Y-1784546D01*
X+2865055Y-1843160D01*
X+2806441Y-1901774D01*
X+2806441Y-2038546D01*
X+2865055Y-2097160D01*
X+2806441Y-2155774D01*
X+2806441Y-2292546D01*
X+2865055Y-2351160D01*
X+2806441Y-2409774D01*
X+2806441Y-2546546D01*
X+2865055Y-2605160D01*
X+2806441Y-2663774D01*
X+2806441Y-2800546D01*
X+2865055Y-2859160D01*
X+2806441Y-2917774D01*
X+2806441Y-3054546D01*
X+2826956Y-3075061D01*
X+2806441Y-3075061D01*
X+2806441Y-3243617D01*
X+2735357Y-3314701D01*
X+2507937Y-3314701D01*
X+2291237Y-3531401D01*
X+2183473Y-3531401D01*
X+2071881Y-3642993D01*
X+2071881Y-3800807D01*
X+2183473Y-3912399D01*
X+2341287Y-3912399D01*
X+2370330Y-3883356D01*
X+2401913Y-3914939D01*
X+2559727Y-3914939D01*
X+2583690Y-3890976D01*
X+2615273Y-3922559D01*
X+2773087Y-3922559D01*
X+2799590Y-3896056D01*
X+2821013Y-3917479D01*
X+2978827Y-3917479D01*
X+2997710Y-3898596D01*
X+3024213Y-3925099D01*
X+3134519Y-3925099D01*
X+2509677Y-4549941D01*
X+2401913Y-4549941D01*
X+2372870Y-4578984D01*
X+2341287Y-4547401D01*
X+2183473Y-4547401D01*
X+2071881Y-4658993D01*
X+2071881Y-4816807D01*
X+2143316Y-4888242D01*
X-4515400Y-4888241D01*
X-4459661Y-4832502D01*
X-4459661Y-4599218D01*
X-4624618Y-4434261D01*
X-4857902Y-4434261D01*
X-4888241Y-4464600D01*
X-4888242Y+3894057D01*
X-4852446Y+3858261D01*
X-4715674Y+3858261D01*
X-4664060Y+3909875D01*
X-4612446Y+3858261D01*
X-4475674Y+3858261D01*
X-4378961Y+3954974D01*
X-4378961Y+4091746D01*
X-4475674Y+4188459D01*
X-4612446Y+4188459D01*
X-4664060Y+4136845D01*
X-4715674Y+4188459D01*
X-4852446Y+4188459D01*
X-4888242Y+4152663D01*
X-4888242Y+4504541D01*
X-4845202Y+4461501D01*
X-4611918Y+4461501D01*
X-4446961Y+4626458D01*
X-4446961Y+4859742D01*
X-4475461Y+4888242D01*
X+2062101Y+4888242D01*
X+2062101Y+4760121D01*
X+2295299Y+4760121D01*
X+2295299Y+4888242D01*
X+3452101Y+4888242D01*
X+3452101Y+4760121D01*
X+3685299Y+4760121D01*
X+3685299Y+4888242D01*
X+4462061Y+4888242D01*
X+4423401Y+4849582D01*
X-4499341Y+3454273D02*
X-4499341Y+3317087D01*
X-4596347Y+3220081D01*
X-4733533Y+3220081D01*
X-4830539Y+3317087D01*
X-4830539Y+3454273D01*
X-4733533Y+3551279D01*
X-4596347Y+3551279D01*
X-4499341Y+3454273D01*
X-3323710Y-3883141D02*
X-3177310Y-3736741D01*
X-2966890Y-3736741D01*
X-2821910Y-3881721D01*
X-2676930Y-3736741D01*
X-2466510Y-3736741D01*
X-2321530Y-3881721D01*
X-2176550Y-3736741D01*
X-1966130Y-3736741D01*
X-1817341Y-3885530D01*
X-1817341Y-4095950D01*
X-1966130Y-4244739D01*
X-2176550Y-4244739D01*
X-2321530Y-4099759D01*
X-2466510Y-4244739D01*
X-2676930Y-4244739D01*
X-2821910Y-4099759D01*
X-2966890Y-4244739D01*
X-3177310Y-4244739D01*
X-3324190Y-4097859D01*
X-3470590Y-4244259D01*
X-3681010Y-4244259D01*
X-3825990Y-4099279D01*
X-3970970Y-4244259D01*
X-4181390Y-4244259D01*
X-4330179Y-4095470D01*
X-4330179Y-3885050D01*
X-4181390Y-3736261D01*
X-3970970Y-3736261D01*
X-3825990Y-3881241D01*
X-3681010Y-3736261D01*
X-3470590Y-3736261D01*
X-3323710Y-3883141D01*
X-457330Y-3882441D02*
X-311950Y-3737061D01*
X-101530Y-3737061D01*
X+43450Y-3882041D01*
X+188430Y-3737061D01*
X+398850Y-3737061D01*
X+543830Y-3882041D01*
X+688810Y-3737061D01*
X+899230Y-3737061D01*
X+1048019Y-3885850D01*
X+1048019Y-4096270D01*
X+899230Y-4245059D01*
X+688810Y-4245059D01*
X+543830Y-4100079D01*
X+398850Y-4245059D01*
X+188430Y-4245059D01*
X+43450Y-4100079D01*
X-101530Y-4245059D01*
X-311950Y-4245059D01*
X-459890Y-4097119D01*
X-605270Y-4242499D01*
X-815690Y-4242499D01*
X-960670Y-4097519D01*
X-1105650Y-4242499D01*
X-1316070Y-4242499D01*
X-1464859Y-4093710D01*
X-1464859Y-3883290D01*
X-1316070Y-3734501D01*
X-1105650Y-3734501D01*
X-960670Y-3879481D01*
X-815690Y-3734501D01*
X-605270Y-3734501D01*
X-457330Y-3882441D01*
X-141261Y+4261910D02*
X-141261Y+4051490D01*
X-290050Y+3902701D01*
X-500470Y+3902701D01*
X-645450Y+4047681D01*
X-790430Y+3902701D01*
X-1000850Y+3902701D01*
X-1145830Y+4047681D01*
X-1290810Y+3902701D01*
X-1501230Y+3902701D01*
X-1650019Y+4051490D01*
X-1650019Y+4261910D01*
X-1501230Y+4410699D01*
X-1290810Y+4410699D01*
X-1145830Y+4265719D01*
X-1000850Y+4410699D01*
X-790430Y+4410699D01*
X-645450Y+4265719D01*
X-500470Y+4410699D01*
X-290050Y+4410699D01*
X-141261Y+4261910D01*
X+1381739Y+4266910D02*
X+1381739Y+4056490D01*
X+1232950Y+3907701D01*
X+1022530Y+3907701D01*
X+877550Y+4052681D01*
X+732570Y+3907701D01*
X+522150Y+3907701D01*
X+377170Y+4052681D01*
X+232190Y+3907701D01*
X+21770Y+3907701D01*
X-127019Y+4056490D01*
X-127019Y+4266910D01*
X+21770Y+4415699D01*
X+232190Y+4415699D01*
X+377170Y+4270719D01*
X+522150Y+4415699D01*
X+732570Y+4415699D01*
X+877550Y+4270719D01*
X+1022530Y+4415699D01*
X+1232950Y+4415699D01*
X+1381739Y+4266910D01*
X-3724641Y-1421934D02*
X-3724641Y-1558706D01*
X-3781255Y-1615320D01*
X-3724641Y-1671934D01*
X-3724641Y-1808706D01*
X-3821354Y-1905419D01*
X-3958126Y-1905419D01*
X-4054839Y-1808706D01*
X-4054839Y-1671934D01*
X-3998225Y-1615320D01*
X-4054839Y-1558706D01*
X-4054839Y-1421934D01*
X-3958126Y-1325221D01*
X-3821354Y-1325221D01*
X-3724641Y-1421934D01*
X-4077539Y-2863967D02*
X-4077539Y-2716673D01*
X-3973387Y-2612521D01*
X-3826093Y-2612521D01*
X-3721941Y-2716673D01*
X-3721941Y-2863967D01*
X-3826093Y-2968119D01*
X-3973387Y-2968119D01*
X-4077539Y-2863967D01*
X-3124233Y-3118241D02*
X-2626087Y-3118241D01*
X-2613387Y-3105541D01*
X-2270593Y-3105541D01*
X-2257893Y-3118241D01*
X-1764693Y-3118241D01*
X-1653101Y-3229833D01*
X-1653101Y-3387647D01*
X-1764693Y-3499239D01*
X-2415707Y-3499239D01*
X-2428407Y-3486539D01*
X-2613387Y-3486539D01*
X-2626087Y-3473839D01*
X-3135673Y-3473839D01*
X-3142653Y-3480819D01*
X-3978647Y-3480819D01*
X-4090239Y-3369227D01*
X-4090239Y-3211413D01*
X-3978647Y-3099821D01*
X-3142653Y-3099821D01*
X-3124233Y-3118241D01*
X-3399359Y-2863967D02*
X-3399359Y-2716673D01*
X-3295207Y-2612521D01*
X-3147913Y-2612521D01*
X-3043761Y-2716673D01*
X-3043761Y-2863967D01*
X-3147913Y-2968119D01*
X-3295207Y-2968119D01*
X-3399359Y-2863967D01*
X-2712279Y-2869687D02*
X-2712279Y-2722393D01*
X-2608127Y-2618241D01*
X-2460833Y-2618241D01*
X-2356681Y-2722393D01*
X-2356681Y-2869687D01*
X-2460833Y-2973839D01*
X-2608127Y-2973839D01*
X-2712279Y-2869687D01*
X-2021399Y-2882387D02*
X-2021399Y-2735093D01*
X-1917247Y-2630941D01*
X-1769953Y-2630941D01*
X-1665801Y-2735093D01*
X-1665801Y-2882387D01*
X-1769953Y-2986539D01*
X-1917247Y-2986539D01*
X-2021399Y-2882387D01*
X-1346059Y-2889747D02*
X-1346059Y-2742453D01*
X-1241907Y-2638301D01*
X-1094613Y-2638301D01*
X-990461Y-2742453D01*
X-990461Y-2889747D01*
X-1094613Y-2993899D01*
X-1241907Y-2993899D01*
X-1346059Y-2889747D01*
X-1086813Y-3128141D02*
X-238593Y-3128141D01*
X-230973Y-3135761D01*
X+650407Y-3135761D01*
X+668187Y-3153541D01*
X+945187Y-3153541D01*
X+1056779Y-3265133D01*
X+1056779Y-3422947D01*
X+945187Y-3534539D01*
X+510373Y-3534539D01*
X+492593Y-3516759D01*
X-388787Y-3516759D01*
X-396407Y-3509139D01*
X-1244627Y-3509139D01*
X-1358759Y-3395007D01*
X-1358759Y-3237193D01*
X-1247167Y-3125601D01*
X-1089353Y-3125601D01*
X-1086813Y-3128141D01*
X-675499Y-2892287D02*
X-675499Y-2744993D01*
X-571347Y-2640841D01*
X-424053Y-2640841D01*
X-319901Y-2744993D01*
X-319901Y-2892287D01*
X-424053Y-2996439D01*
X-571347Y-2996439D01*
X-675499Y-2892287D01*
X+5221Y-2899907D02*
X+5221Y-2752613D01*
X+109373Y-2648461D01*
X+256667Y-2648461D01*
X+360819Y-2752613D01*
X+360819Y-2899907D01*
X+256667Y-3004059D01*
X+109373Y-3004059D01*
X+5221Y-2899907D01*
X+688481Y-2917687D02*
X+688481Y-2770393D01*
X+792633Y-2666241D01*
X+939927Y-2666241D01*
X+1044079Y-2770393D01*
X+1044079Y-2917687D01*
X+939927Y-3021839D01*
X+792633Y-3021839D01*
X+688481Y-2917687D01*
X-3901440Y+1440346D02*
X-3901440Y+1440346D01*
X-4324902Y+1529246D02*
X-3436519Y+1529246D01*
X-4324902Y+1618146D02*
X-3436519Y+1618146D01*
X-4324902Y+1707046D02*
X-3365080Y+1707046D01*
X-3126960Y+1707046D02*
X-3103119Y+1707046D01*
X-2772921Y+1707046D02*
X-2767080Y+1707046D01*
X-2520960Y+1707046D02*
X-2506119Y+1707046D01*
X-2175921Y+1707046D02*
X-2164080Y+1707046D01*
X-1911960Y+1707046D02*
X-1906119Y+1707046D01*
X-1575921Y+1707046D02*
X-1559080Y+1707046D01*
X-1306960Y+1707046D02*
X-1296119Y+1707046D01*
X-965921Y+1707046D02*
X-963080Y+1707046D01*
X-710960Y+1707046D02*
X-706119Y+1707046D01*
X-375921Y+1707046D02*
X-360080Y+1707046D01*
X-111960Y+1707046D02*
X-100119Y+1707046D01*
X+488040Y+1707046D02*
X+491881Y+1707046D01*
X+822079Y+1707046D02*
X+831920Y+1707046D01*
X+1078040Y+1707046D02*
X+1138881Y+1707046D01*
X+1469079Y+1707046D02*
X+2806701Y+1707046D01*
X-4324902Y+1795946D02*
X-3082259Y+1795946D01*
X-2793781Y+1795946D02*
X-2477259Y+1795946D01*
X-2204781Y+1795946D02*
X-1896259Y+1795946D01*
X-1585781Y+1795946D02*
X-1264259Y+1795946D01*
X-997781Y+1795946D02*
X-701259Y+1795946D01*
X-380781Y+1795946D02*
X-91259Y+1795946D01*
X+221219Y+1795946D02*
X+506741Y+1795946D01*
X+807219Y+1795946D02*
X+1167741Y+1795946D01*
X+1899168Y+1795946D02*
X+2806701Y+1795946D01*
X-4324902Y+1884846D02*
X-3103119Y+1884846D01*
X-2772921Y+1884846D02*
X-2506119Y+1884846D01*
X-2175921Y+1884846D02*
X-1901651Y+1884846D01*
X-1580389Y+1884846D02*
X-1296119Y+1884846D01*
X-965921Y+1884846D02*
X-696651Y+1884846D01*
X-385389Y+1884846D02*
X-94651Y+1884846D01*
X+224611Y+1884846D02*
X+491881Y+1884846D01*
X+822079Y+1884846D02*
X+1138881Y+1884846D01*
X+1988068Y+1884846D02*
X+2806701Y+1884846D01*
X-4324902Y+1973746D02*
X-3103119Y+1973746D01*
X-2772921Y+1973746D02*
X-2506119Y+1973746D01*
X-2175921Y+1973746D02*
X-1906119Y+1973746D01*
X-1575921Y+1973746D02*
X-1296119Y+1973746D01*
X-965921Y+1973746D02*
X-706119Y+1973746D01*
X-375921Y+1973746D02*
X-100119Y+1973746D01*
X+230079Y+1973746D02*
X+491881Y+1973746D01*
X+822079Y+1973746D02*
X+1138881Y+1973746D01*
X+2024379Y+1973746D02*
X+2806701Y+1973746D01*
X-4324902Y+2062646D02*
X-3055559Y+2062646D01*
X-2820480Y+2062646D02*
X-2450559Y+2062646D01*
X-2231480Y+2062646D02*
X-1869559Y+2062646D01*
X-1612480Y+2062646D02*
X-1237559Y+2062646D01*
X-1024480Y+2062646D02*
X-674559Y+2062646D01*
X-407480Y+2062646D02*
X-64559Y+2062646D01*
X+194519Y+2062646D02*
X+533440Y+2062646D01*
X+780519Y+2062646D02*
X+1194441Y+2062646D01*
X+2024379Y+2062646D02*
X+2806701Y+2062646D01*
X-4324902Y+2151546D02*
X-4200950Y+2151546D01*
X-3423150Y+2151546D02*
X-3087272Y+2151546D01*
X-2772768Y+2151546D02*
X-2515272Y+2151546D01*
X-2194768Y+2151546D02*
X-1885272Y+2151546D01*
X-1568768Y+2151546D02*
X-1282272Y+2151546D01*
X-965768Y+2151546D02*
X-723272Y+2151546D01*
X-404768Y+2151546D02*
X-121272Y+2151546D01*
X+197232Y+2151546D02*
X+485728Y+2151546D01*
X+796232Y+2151546D02*
X+1033728Y+2151546D01*
X+2024379Y+2151546D02*
X+2806701Y+2151546D01*
X-4324902Y+2240446D02*
X-4289850Y+2240446D01*
X-3368841Y+2240446D02*
X-3120519Y+2240446D01*
X-2739521Y+2240446D02*
X-2545519Y+2240446D01*
X-2164521Y+2240446D02*
X-1917519Y+2240446D01*
X-1536521Y+2240446D02*
X-1314519Y+2240446D01*
X-933521Y+2240446D02*
X-754519Y+2240446D01*
X-373521Y+2240446D02*
X-152519Y+2240446D01*
X+228479Y+2240446D02*
X+450481Y+2240446D01*
X+831479Y+2240446D02*
X+1002481Y+2240446D01*
X+2029792Y+2240446D02*
X+2806701Y+2240446D01*
X-3368841Y+2329346D02*
X-3120519Y+2329346D01*
X-2739521Y+2329346D02*
X-2545519Y+2329346D01*
X-2164521Y+2329346D02*
X-1917519Y+2329346D01*
X-1536521Y+2329346D02*
X-1314519Y+2329346D01*
X-933521Y+2329346D02*
X-754519Y+2329346D01*
X-373521Y+2329346D02*
X-152519Y+2329346D01*
X+228479Y+2329346D02*
X+450481Y+2329346D01*
X+831479Y+2329346D02*
X+1002481Y+2329346D01*
X+2100579Y+2329346D02*
X+2806701Y+2329346D01*
X-3131068Y+2418246D02*
X-3044880Y+2418246D01*
X-2815160Y+2418246D02*
X-2754972Y+2418246D01*
X-2533068Y+2418246D02*
X-2466880Y+2418246D01*
X-2243160Y+2418246D02*
X-2145972Y+2418246D01*
X-1930068Y+2418246D02*
X-1840880Y+2418246D01*
X-1613160Y+2418246D02*
X-1540972Y+2418246D01*
X-1325068Y+2418246D02*
X-1237880Y+2418246D01*
X-1010160Y+2418246D02*
X-944972Y+2418246D01*
X-729068Y+2418246D02*
X-676880Y+2418246D01*
X-451160Y+2418246D02*
X-345972Y+2418246D01*
X-126068Y+2418246D02*
X-74880Y+2418246D01*
X+150840Y+2418246D02*
X+254028Y+2418246D01*
X+463932Y+2418246D02*
X+524120Y+2418246D01*
X+757840Y+2418246D02*
X+844028Y+2418246D01*
X+1065932Y+2418246D02*
X+1080120Y+2418246D01*
X+2100579Y+2418246D02*
X+2891604Y+2418246D01*
X-3055521Y+2507146D02*
X-2834519Y+2507146D01*
X-2453521Y+2507146D02*
X-2228519Y+2507146D01*
X-1847521Y+2507146D02*
X-1623519Y+2507146D01*
X-1242521Y+2507146D02*
X-1027519Y+2507146D01*
X-646521Y+2507146D02*
X-426519Y+2507146D01*
X-45521Y+2507146D02*
X+168481Y+2507146D01*
X+549479Y+2507146D02*
X+764481Y+2507146D01*
X+1145479Y+2507146D02*
X+1343660Y+2507146D01*
X+2062480Y+2507146D02*
X+2923161Y+2507146D01*
X-3055521Y+2596046D02*
X-2834519Y+2596046D01*
X-2453521Y+2596046D02*
X-2228519Y+2596046D01*
X-1847521Y+2596046D02*
X-1623519Y+2596046D01*
X-1242521Y+2596046D02*
X-1027519Y+2596046D01*
X-646521Y+2596046D02*
X-426519Y+2596046D01*
X-45521Y+2596046D02*
X+168481Y+2596046D01*
X+549479Y+2596046D02*
X+764481Y+2596046D01*
X+1145479Y+2596046D02*
X+2266908Y+2596046D01*
X+2819692Y+2596046D02*
X+2923161Y+2596046D01*
X+1116140Y+2684946D02*
X+2225801Y+2684946D01*
X+2860799Y+2684946D02*
X+2923161Y+2684946D01*
X+1144479Y+2773846D02*
X+2225801Y+2773846D01*
X+2860799Y+2773846D02*
X+2923161Y+2773846D01*
X+1144479Y+2862746D02*
X+2293580Y+2862746D01*
X+2539020Y+2862746D02*
X+2547580Y+2862746D01*
X+2793020Y+2862746D02*
X+2923161Y+2862746D01*
X+3253359Y+2862746D02*
X+3295444Y+2862746D01*
X-2956651Y+2951646D02*
X-2751480Y+2951646D01*
X-2530560Y+2951646D02*
X-2171480Y+2951646D01*
X-1930560Y+2951646D02*
X-1541480Y+2951646D01*
X-1320560Y+2951646D02*
X-951480Y+2951646D01*
X-730560Y+2951646D02*
X-357480Y+2951646D01*
X-118560Y+2951646D02*
X+238520Y+2951646D01*
X+485440Y+2951646D02*
X+829520Y+2951646D01*
X+1078440Y+2951646D02*
X+2801288Y+2951646D01*
X+3061032Y+2951646D02*
X+3384344Y+2951646D01*
X-2956651Y+3040546D02*
X+2740661Y+3040546D01*
X+3121659Y+3040546D02*
X+3473244Y+3040546D01*
X-2956651Y+3129446D02*
X+2740661Y+3129446D01*
X+3121659Y+3129446D02*
X+3562144Y+3129446D01*
X-2956651Y+3218346D02*
X+1414448Y+3218346D01*
X+1577672Y+3218346D02*
X+1828468Y+3218346D01*
X+1991692Y+3218346D02*
X+2788920Y+3218346D01*
X+3073400Y+3218346D02*
X+3651044Y+3218346D01*
X-2956651Y+3307246D02*
X+1325548Y+3307246D01*
X+2771245Y+3307246D02*
X+3739944Y+3307246D01*
X-2828168Y+3396146D02*
X-2753872Y+3396146D01*
X-2528168Y+3396146D02*
X-2459872Y+3396146D01*
X-2250168Y+3396146D02*
X-2153872Y+3396146D01*
X-1948168Y+3396146D02*
X-1829872Y+3396146D01*
X-1624168Y+3396146D02*
X-1543872Y+3396146D01*
X-1318168Y+3396146D02*
X-1226872Y+3396146D01*
X-1021168Y+3396146D02*
X-953872Y+3396146D01*
X-728168Y+3396146D02*
X-667872Y+3396146D01*
X-460168Y+3396146D02*
X-341872Y+3396146D01*
X-134168Y+3396146D02*
X-65872Y+3396146D01*
X+141832Y+3396146D02*
X+262128Y+3396146D01*
X+461832Y+3396146D02*
X+541128Y+3396146D01*
X+740832Y+3396146D02*
X+855128Y+3396146D01*
X+1052832Y+3396146D02*
X+1089128Y+3396146D01*
X+1296832Y+3396146D02*
X+1305561Y+3396146D01*
X+2816759Y+3396146D02*
X+3828844Y+3396146D01*
X+2815032Y+3485046D02*
X+3917744Y+3485046D01*
X+2744668Y+3573946D02*
X+4006644Y+3573946D01*
X+3156648Y+3662846D02*
X+4242588Y+3662846D01*
X+3245548Y+3751746D02*
X+4240171Y+3751746D01*
X+3327399Y+3840646D02*
X+4273520Y+3840646D01*
X+3327399Y+3869281D02*
X+4296153Y+3869281D01*
X-4324902Y+1441064D02*
X-4324902Y+2275498D01*
X-4236002Y+1470659D02*
X-4236002Y+2186598D01*
X-4147102Y+1470659D02*
X-4147102Y+2113281D01*
X-4058202Y+1468119D02*
X-4058202Y+2113281D01*
X-3969302Y+1468119D02*
X-3969302Y+2113281D01*
X-3880402Y+1461384D02*
X-3880402Y+2113281D01*
X-3791502Y+1468119D02*
X-3791502Y+2113281D01*
X-3702602Y+1454868D02*
X-3702602Y+2113281D01*
X-3613702Y+1477519D02*
X-3613702Y+2113281D01*
X-3524802Y+1477519D02*
X-3524802Y+2113281D01*
X-3435902Y+1471459D02*
X-3435902Y+1477176D01*
X-3435902Y+1636224D02*
X-3435902Y+2138794D01*
X-3347002Y+1725124D02*
X-3347002Y+2379191D01*
X-3258102Y+1747199D02*
X-3258102Y+2382201D01*
X-3169202Y+1747199D02*
X-3169202Y+2382201D01*
X-3080302Y+1797903D02*
X-3080302Y+1855497D01*
X-3080302Y+2037903D02*
X-3080302Y+2144576D01*
X-3080302Y+2382824D02*
X-3080302Y+2469012D01*
X-2991402Y+2454199D02*
X-2991402Y+2659351D01*
X-2902502Y+2454199D02*
X-2902502Y+2659351D01*
X-2902502Y+2926049D02*
X-2902502Y+3373201D01*
X-2813602Y+1815767D02*
X-2813602Y+1837633D01*
X-2813602Y+2055767D02*
X-2813602Y+2110712D01*
X-2813602Y+2416688D02*
X-2813602Y+2476876D01*
X-2813602Y+2926049D02*
X-2813602Y+3410712D01*
X-2724702Y+1749424D02*
X-2724702Y+2387976D01*
X-2724702Y+2978424D02*
X-2724702Y+3366976D01*
X-2635802Y+1751199D02*
X-2635802Y+2386201D01*
X-2635802Y+2983199D02*
X-2635802Y+3362201D01*
X-2546902Y+1732988D02*
X-2546902Y+2404412D01*
X-2546902Y+2967988D02*
X-2546902Y+3377412D01*
X-2458002Y+1815203D02*
X-2458002Y+1822197D01*
X-2458002Y+2055203D02*
X-2458002Y+2094276D01*
X-2458002Y+2427124D02*
X-2458002Y+2493312D01*
X-2458002Y+2926049D02*
X-2458002Y+3394276D01*
X-2369102Y+2451199D02*
X-2369102Y+2659351D01*
X-2369102Y+2926049D02*
X-2369102Y+3370201D01*
X-2280202Y+2451199D02*
X-2280202Y+2659351D01*
X-2280202Y+2936049D02*
X-2280202Y+3370201D01*
X-2191302Y+1782467D02*
X-2191302Y+1854933D01*
X-2191302Y+2022467D02*
X-2191302Y+2155012D01*
X-2191302Y+2366388D02*
X-2191302Y+2463576D01*
X-2191302Y+2936049D02*
X-2191302Y+3433576D01*
X-2102402Y+1754199D02*
X-2102402Y+2389201D01*
X-2102402Y+2993199D02*
X-2102402Y+3372201D01*
X-2013502Y+1754199D02*
X-2013502Y+2389201D01*
X-2013502Y+2993199D02*
X-2013502Y+3372201D01*
X-1924602Y+1719688D02*
X-1924602Y+2423712D01*
X-1924602Y+2945688D02*
X-1924602Y+3419712D01*
X-1835702Y+2096503D02*
X-1835702Y+2101976D01*
X-1835702Y+2423424D02*
X-1835702Y+2669351D01*
X-1835702Y+2936049D02*
X-1835702Y+3401976D01*
X-1746802Y+2453199D02*
X-1746802Y+2669351D01*
X-1746802Y+2936049D02*
X-1746802Y+3372201D01*
X-1657902Y+2453199D02*
X-1657902Y+2669351D01*
X-1657902Y+2936049D02*
X-1657902Y+3372201D01*
X-1569002Y+1697124D02*
X-1569002Y+2151312D01*
X-1569002Y+2374088D02*
X-1569002Y+2446276D01*
X-1569002Y+2936049D02*
X-1569002Y+3421276D01*
X-1480102Y+1754199D02*
X-1480102Y+2389201D01*
X-1480102Y+2983199D02*
X-1480102Y+3362201D01*
X-1391202Y+1754199D02*
X-1391202Y+2389201D01*
X-1391202Y+2983199D02*
X-1391202Y+3362201D01*
X-1302302Y+1702388D02*
X-1302302Y+2171576D01*
X-1302302Y+2353824D02*
X-1302302Y+2441012D01*
X-1302302Y+2933388D02*
X-1302302Y+3412012D01*
X-1213402Y+2442724D02*
X-1213402Y+2659351D01*
X-1213402Y+2926049D02*
X-1213402Y+3382676D01*
X-1124502Y+2453199D02*
X-1124502Y+2659351D01*
X-1124502Y+2926049D02*
X-1124502Y+3372201D01*
X-1035602Y+2073767D02*
X-1035602Y+2081712D01*
X-1035602Y+2443688D02*
X-1035602Y+2659351D01*
X-1035602Y+2926049D02*
X-1035602Y+3381712D01*
X-946702Y+1723424D02*
X-946702Y+2170612D01*
X-946702Y+2354788D02*
X-946702Y+2419976D01*
X-946702Y+2956424D02*
X-946702Y+3388976D01*
X-857802Y+1754199D02*
X-857802Y+2389201D01*
X-857802Y+2983199D02*
X-857802Y+3362201D01*
X-768902Y+1754199D02*
X-768902Y+2389201D01*
X-768902Y+2983199D02*
X-768902Y+3362201D01*
X-680002Y+1817203D02*
X-680002Y+1868197D01*
X-680002Y+2057203D02*
X-680002Y+2108276D01*
X-680002Y+2415124D02*
X-680002Y+2467312D01*
X-680002Y+2926049D02*
X-680002Y+3408276D01*
X-591102Y+2452199D02*
X-591102Y+2659351D01*
X-591102Y+2926049D02*
X-591102Y+3371201D01*
X-502202Y+2452199D02*
X-502202Y+2659351D01*
X-502202Y+2935049D02*
X-502202Y+3371201D01*
X-413302Y+1828467D02*
X-413302Y+1856933D01*
X-413302Y+2068467D02*
X-413302Y+2143012D01*
X-413302Y+2380388D02*
X-413302Y+2485576D01*
X-413302Y+2935049D02*
X-413302Y+3443012D01*
X-324402Y+1742724D02*
X-324402Y+2396676D01*
X-324402Y+2984724D02*
X-324402Y+3378676D01*
X-235502Y+1752199D02*
X-235502Y+2387201D01*
X-235502Y+2992199D02*
X-235502Y+3371201D01*
X-146602Y+1741688D02*
X-146602Y+2176876D01*
X-146602Y+2346524D02*
X-146602Y+2397712D01*
X-146602Y+2979688D02*
X-146602Y+3383712D01*
X-57702Y+1829503D02*
X-57702Y+1847897D01*
X-57702Y+2069503D02*
X-57702Y+2087976D01*
X-57702Y+2435424D02*
X-57702Y+2486612D01*
X-57702Y+2935049D02*
X-57702Y+3387976D01*
X+31198Y+2452199D02*
X+31198Y+2668351D01*
X+31198Y+2935049D02*
X+31198Y+3371201D01*
X+120098Y+2448988D02*
X+120098Y+2668351D01*
X+120098Y+2939049D02*
X+120098Y+3374412D01*
X+208998Y+1808167D02*
X+208998Y+1869233D01*
X+208998Y+2048167D02*
X+208998Y+2163312D01*
X+208998Y+2360088D02*
X+208998Y+2463276D01*
X+208998Y+2939049D02*
X+208998Y+3449276D01*
X+297898Y+1757199D02*
X+297898Y+2392201D01*
X+297898Y+2996199D02*
X+297898Y+3375201D01*
X+386798Y+1757199D02*
X+386798Y+2392201D01*
X+386798Y+2996199D02*
X+386798Y+3375201D01*
X+475698Y+1719388D02*
X+475698Y+2161576D01*
X+475698Y+2369824D02*
X+475698Y+2430012D01*
X+475698Y+2961388D02*
X+475698Y+3410012D01*
X+564598Y+2456199D02*
X+564598Y+2672351D01*
X+564598Y+2939049D02*
X+564598Y+3375201D01*
X+653498Y+2456199D02*
X+653498Y+2672351D01*
X+653498Y+2940049D02*
X+653498Y+3375201D01*
X+742398Y+2433688D02*
X+742398Y+2672351D01*
X+742398Y+2940049D02*
X+742398Y+3397712D01*
X+831298Y+1706424D02*
X+831298Y+2186612D01*
X+831298Y+2344788D02*
X+831298Y+2430976D01*
X+831298Y+2953424D02*
X+831298Y+3419976D01*
X+920198Y+1751199D02*
X+920198Y+2386201D01*
X+920198Y+2997199D02*
X+920198Y+3376201D01*
X+1009098Y+1751199D02*
X+1009098Y+2176176D01*
X+1009098Y+2347224D02*
X+1009098Y+2386201D01*
X+1009098Y+2997199D02*
X+1009098Y+3376201D01*
X+1097998Y+1687088D02*
X+1097998Y+2087276D01*
X+1097998Y+2436124D02*
X+1097998Y+2450312D01*
X+1097998Y+2932088D02*
X+1097998Y+3387276D01*
X+1186898Y+1815103D02*
X+1186898Y+1822297D01*
X+1186898Y+2055103D02*
X+1186898Y+2071201D01*
X+1186898Y+2452199D02*
X+1186898Y+3371201D01*
X+1275798Y+2448288D02*
X+1275798Y+3375112D01*
X+1364698Y+2528184D02*
X+1364698Y+3268096D01*
X+1453598Y+2580639D02*
X+1453598Y+3215641D01*
X+1542498Y+1706119D02*
X+1542498Y+1789434D01*
X+1542498Y+2580639D02*
X+1542498Y+3215641D01*
X+1631398Y+1706119D02*
X+1631398Y+1790701D01*
X+1631398Y+2585719D02*
X+1631398Y+3220721D01*
X+1720298Y+1686048D02*
X+1720298Y+1790701D01*
X+1720298Y+2585719D02*
X+1720298Y+3220721D01*
X+1809198Y+1629918D02*
X+1809198Y+1790701D01*
X+1809198Y+2559768D02*
X+1809198Y+3237616D01*
X+1898098Y+1629918D02*
X+1898098Y+1794876D01*
X+1898098Y+2580639D02*
X+1898098Y+3215641D01*
X+1986998Y+1629918D02*
X+1986998Y+1883776D01*
X+1986998Y+2580639D02*
X+1986998Y+3215641D01*
X+2075898Y+1629918D02*
X+2075898Y+2286552D01*
X+2075898Y+2493728D02*
X+2075898Y+3302552D01*
X+2164798Y+1629918D02*
X+2164798Y+3303741D01*
X+2253698Y+1629918D02*
X+2253698Y+2609256D01*
X+2253698Y+2822864D02*
X+2253698Y+3260441D01*
X+2342598Y+1629918D02*
X+2342598Y+2525561D01*
X+2342598Y+2906559D02*
X+2342598Y+3260441D01*
X+2431498Y+1629918D02*
X+2431498Y+2525561D01*
X+2431498Y+2906559D02*
X+2431498Y+3260441D01*
X+2520398Y+1629918D02*
X+2520398Y+2550752D01*
X+2520398Y+2881368D02*
X+2520398Y+3260441D01*
X+2609298Y+1629918D02*
X+2609298Y+2525561D01*
X+2609298Y+2906559D02*
X+2609298Y+3260441D01*
X+2698198Y+1629918D02*
X+2698198Y+2525561D01*
X+2698198Y+2906559D02*
X+2698198Y+3260441D01*
X+2787098Y+1629918D02*
X+2787098Y+2563452D01*
X+2787098Y+2868668D02*
X+2787098Y+2965836D01*
X+2787098Y+3216524D02*
X+2787098Y+3323099D01*
X+2787098Y+3512980D02*
X+2787098Y+3616376D01*
X+2875998Y+2402640D02*
X+2875998Y+2900681D01*
X+2875998Y+3281679D02*
X+2875998Y+3619501D01*
X+2964898Y+3281679D02*
X+2964898Y+3619501D01*
X+3053798Y+2913019D02*
X+3053798Y+2944412D01*
X+3053798Y+3237948D02*
X+3053798Y+3619501D01*
X+3142698Y+2913019D02*
X+3142698Y+3648896D01*
X+3231598Y+2913019D02*
X+3231598Y+3737796D01*
X+3320498Y+2887800D02*
X+3320498Y+3769361D01*
X+3409398Y+2976700D02*
X+3409398Y+3869281D01*
X+3498298Y+3065600D02*
X+3498298Y+3869281D01*
X+3587198Y+3154500D02*
X+3587198Y+3869281D01*
X+3676098Y+3243400D02*
X+3676098Y+3869281D01*
X+3764998Y+3332300D02*
X+3764998Y+3869281D01*
X+3853898Y+3421200D02*
X+3853898Y+3869281D01*
X+3942798Y+3510100D02*
X+3942798Y+3869281D01*
X+4031698Y+3590578D02*
X+4031698Y+3869281D01*
X+4120598Y+3590578D02*
X+4120598Y+3869281D01*
X+4209498Y+3590578D02*
X+4209498Y+3869281D01*
X+4298398Y+3605524D02*
X+4298398Y+3607036D01*
X+4298398Y+3865524D02*
X+4298398Y+3867036D01*
X+4299154Y+3606280D02*
X+4299154Y+3606280D01*
X+4299154Y+3866280D02*
X+4299154Y+3866280D01*
X+4240171Y+3807297D01*
X+4240171Y+3665263D01*
X+4299154Y+3606280D01*
X+4283453Y+3590579D01*
X+4023276Y+3590578D01*
X+3253359Y+2820661D01*
X+3253359Y+2913019D01*
X+3022405Y+2913019D01*
X+3121659Y+3012273D01*
X+3121659Y+3170087D01*
X+3010067Y+3281679D01*
X+2852253Y+3281679D01*
X+2740661Y+3170087D01*
X+2740661Y+3012273D01*
X+2852253Y+2900681D01*
X+2923161Y+2900681D01*
X+2923161Y+2582821D01*
X+2943676Y+2582821D01*
X+2923161Y+2562306D01*
X+2923161Y+2449803D01*
X+2806701Y+2333343D01*
X+2806701Y+1629918D01*
X+2802380Y+1629918D01*
X+1776427Y+1629919D01*
X+1700227Y+1706119D01*
X+1542413Y+1706119D01*
X+1469079Y+1632785D01*
X+1469079Y+1765301D01*
X+1518365Y+1765301D01*
X+1543765Y+1790701D01*
X+1893923Y+1790701D01*
X+2024379Y+1921157D01*
X+2024379Y+2235033D01*
X+2100579Y+2311233D01*
X+2100579Y+2469047D01*
X+1988987Y+2580639D01*
X+1831173Y+2580639D01*
X+1809750Y+2559216D01*
X+1783247Y+2585719D01*
X+1625433Y+2585719D01*
X+1597660Y+2557946D01*
X+1574967Y+2580639D01*
X+1417153Y+2580639D01*
X+1305561Y+2469047D01*
X+1305561Y+2418525D01*
X+1271887Y+2452199D01*
X+1114073Y+2452199D01*
X+1002481Y+2340607D01*
X+1002481Y+2182793D01*
X+1114073Y+2071201D01*
X+1202996Y+2071201D01*
X+1138881Y+2007086D01*
X+1138881Y+1870314D01*
X+1190495Y+1818700D01*
X+1138881Y+1767086D01*
X+1138881Y+1646205D01*
X+1033887Y+1751199D01*
X+876073Y+1751199D01*
X+822079Y+1697205D01*
X+822079Y+1781086D01*
X+770465Y+1832700D01*
X+822079Y+1884314D01*
X+822079Y+2021086D01*
X+743926Y+2099240D01*
X+831479Y+2186793D01*
X+831479Y+2344607D01*
X+719887Y+2456199D01*
X+562073Y+2456199D01*
X+450481Y+2344607D01*
X+450481Y+2186793D01*
X+554034Y+2083240D01*
X+491881Y+2021086D01*
X+491881Y+1884314D01*
X+543495Y+1832700D01*
X+491881Y+1781086D01*
X+491881Y+1703205D01*
X+437887Y+1757199D01*
X+280073Y+1757199D01*
X+230079Y+1707205D01*
X+230079Y+1787086D01*
X+178465Y+1838700D01*
X+230079Y+1890314D01*
X+230079Y+2027086D01*
X+151426Y+2105740D01*
X+228479Y+2182793D01*
X+228479Y+2340607D01*
X+116887Y+2452199D01*
X-40927Y+2452199D01*
X-152519Y+2340607D01*
X-152519Y+2182793D01*
X-48466Y+2078740D01*
X-100119Y+2027086D01*
X-100119Y+1890314D01*
X-48505Y+1838700D01*
X-100119Y+1787086D01*
X-100119Y+1695205D01*
X-157113Y+1752199D01*
X-314927Y+1752199D01*
X-375921Y+1691205D01*
X-375921Y+1791086D01*
X-427535Y+1842700D01*
X-375921Y+1894314D01*
X-375921Y+2031086D01*
X-450574Y+2105740D01*
X-373521Y+2182793D01*
X-373521Y+2340607D01*
X-485113Y+2452199D01*
X-642927Y+2452199D01*
X-754519Y+2340607D01*
X-754519Y+2182793D01*
X-654466Y+2082740D01*
X-706119Y+2031086D01*
X-706119Y+1894314D01*
X-654505Y+1842700D01*
X-706119Y+1791086D01*
X-706119Y+1702205D01*
X-758113Y+1754199D01*
X-915927Y+1754199D01*
X-965921Y+1704205D01*
X-965921Y+1764086D01*
X-1017535Y+1815700D01*
X-965921Y+1867314D01*
X-965921Y+2004086D01*
X-1039574Y+2077740D01*
X-933521Y+2183793D01*
X-933521Y+2341607D01*
X-1045113Y+2453199D01*
X-1202927Y+2453199D01*
X-1314519Y+2341607D01*
X-1314519Y+2183793D01*
X-1215466Y+2084740D01*
X-1296119Y+2004086D01*
X-1296119Y+1867314D01*
X-1244505Y+1815700D01*
X-1296119Y+1764086D01*
X-1296119Y+1696205D01*
X-1354113Y+1754199D01*
X-1511927Y+1754199D01*
X-1575921Y+1690205D01*
X-1575921Y+1786086D01*
X-1627535Y+1837700D01*
X-1575921Y+1889314D01*
X-1575921Y+2026086D01*
X-1635074Y+2085240D01*
X-1536521Y+2183793D01*
X-1536521Y+2341607D01*
X-1648113Y+2453199D01*
X-1805927Y+2453199D01*
X-1917519Y+2341607D01*
X-1917519Y+2183793D01*
X-1832966Y+2099240D01*
X-1906119Y+2026086D01*
X-1906119Y+1889314D01*
X-1854505Y+1837700D01*
X-1906119Y+1786086D01*
X-1906119Y+1701205D01*
X-1959113Y+1754199D01*
X-2116927Y+1754199D01*
X-2175921Y+1695205D01*
X-2175921Y+1767086D01*
X-2227535Y+1818700D01*
X-2175921Y+1870314D01*
X-2175921Y+2007086D01*
X-2257574Y+2088740D01*
X-2164521Y+2181793D01*
X-2164521Y+2339607D01*
X-2276113Y+2451199D01*
X-2433927Y+2451199D01*
X-2545519Y+2339607D01*
X-2545519Y+2181793D01*
X-2438466Y+2074740D01*
X-2506119Y+2007086D01*
X-2506119Y+1870314D01*
X-2454505Y+1818700D01*
X-2506119Y+1767086D01*
X-2506119Y+1692205D01*
X-2565113Y+1751199D01*
X-2722927Y+1751199D01*
X-2772921Y+1701205D01*
X-2772921Y+1775086D01*
X-2824535Y+1826700D01*
X-2772921Y+1878314D01*
X-2772921Y+2015086D01*
X-2841074Y+2083240D01*
X-2739521Y+2184793D01*
X-2739521Y+2342607D01*
X-2851113Y+2454199D01*
X-3008927Y+2454199D01*
X-3120519Y+2342607D01*
X-3120519Y+2184793D01*
X-3026966Y+2091240D01*
X-3103119Y+2015086D01*
X-3103119Y+1878314D01*
X-3051505Y+1826700D01*
X-3103119Y+1775086D01*
X-3103119Y+1683205D01*
X-3167113Y+1747199D01*
X-3324927Y+1747199D01*
X-3436519Y+1635607D01*
X-3436519Y+1477793D01*
X-3430185Y+1471459D01*
X-3451267Y+1471459D01*
X-3475990Y+1446736D01*
X-3506773Y+1477519D01*
X-3664587Y+1477519D01*
X-3694920Y+1447186D01*
X-3715853Y+1468119D01*
X-3873667Y+1468119D01*
X-3901440Y+1440346D01*
X-3929213Y+1468119D01*
X-4087027Y+1468119D01*
X-4110990Y+1444156D01*
X-4137493Y+1470659D01*
X-4295307Y+1470659D01*
X-4324902Y+1441064D01*
X-4324902Y+2275498D01*
X-4162685Y+2113281D01*
X-3461415Y+2113281D01*
X-3368841Y+2205855D01*
X-3368841Y+2357352D01*
X-3334460Y+2391734D01*
X-3324927Y+2382201D01*
X-3167113Y+2382201D01*
X-3055521Y+2493793D01*
X-3055521Y+2651607D01*
X-3063265Y+2659351D01*
X-2830775Y+2659351D01*
X-2834519Y+2655607D01*
X-2834519Y+2497793D01*
X-2722927Y+2386201D01*
X-2565113Y+2386201D01*
X-2453521Y+2497793D01*
X-2453521Y+2655607D01*
X-2457265Y+2659351D01*
X-2240767Y+2659351D01*
X-2230767Y+2669351D01*
X-2217775Y+2669351D01*
X-2228519Y+2658607D01*
X-2228519Y+2500793D01*
X-2116927Y+2389201D01*
X-1959113Y+2389201D01*
X-1847521Y+2500793D01*
X-1847521Y+2658607D01*
X-1858265Y+2669351D01*
X-1612775Y+2669351D01*
X-1623519Y+2658607D01*
X-1623519Y+2500793D01*
X-1511927Y+2389201D01*
X-1354113Y+2389201D01*
X-1242521Y+2500793D01*
X-1242521Y+2658607D01*
X-1243265Y+2659351D01*
X-1026775Y+2659351D01*
X-1027519Y+2658607D01*
X-1027519Y+2500793D01*
X-915927Y+2389201D01*
X-758113Y+2389201D01*
X-646521Y+2500793D01*
X-646521Y+2658607D01*
X-647265Y+2659351D01*
X-461767Y+2659351D01*
X-452767Y+2668351D01*
X-414775Y+2668351D01*
X-426519Y+2656607D01*
X-426519Y+2498793D01*
X-314927Y+2387201D01*
X-157113Y+2387201D01*
X-45521Y+2498793D01*
X-45521Y+2656607D01*
X-57265Y+2668351D01*
X+175225Y+2668351D01*
X+168481Y+2661607D01*
X+168481Y+2503793D01*
X+280073Y+2392201D01*
X+437887Y+2392201D01*
X+549479Y+2503793D01*
X+549479Y+2661607D01*
X+538735Y+2672351D01*
X+752733Y+2672351D01*
X+753733Y+2673351D01*
X+782225Y+2673351D01*
X+764481Y+2655607D01*
X+764481Y+2497793D01*
X+876073Y+2386201D01*
X+1033887Y+2386201D01*
X+1145479Y+2497793D01*
X+1145479Y+2655607D01*
X+1108886Y+2692200D01*
X+1144479Y+2727793D01*
X+1144479Y+2885607D01*
X+1032887Y+2997199D01*
X+875073Y+2997199D01*
X+817923Y+2940049D01*
X+643267Y+2940049D01*
X+642267Y+2939049D01*
X+498037Y+2939049D01*
X+440887Y+2996199D01*
X+283073Y+2996199D01*
X+225923Y+2939049D01*
X+71767Y+2939049D01*
X+67767Y+2935049D01*
X-101963Y+2935049D01*
X-159113Y+2992199D01*
X-316927Y+2992199D01*
X-374077Y+2935049D01*
X-563233Y+2935049D01*
X-572233Y+2926049D01*
X-704963Y+2926049D01*
X-762113Y+2983199D01*
X-919927Y+2983199D01*
X-977077Y+2926049D01*
X-1294963Y+2926049D01*
X-1352113Y+2983199D01*
X-1509927Y+2983199D01*
X-1557077Y+2936049D01*
X-1914963Y+2936049D01*
X-1972113Y+2993199D01*
X-2129927Y+2993199D01*
X-2187077Y+2936049D01*
X-2341233Y+2936049D01*
X-2351233Y+2926049D01*
X-2504963Y+2926049D01*
X-2562113Y+2983199D01*
X-2719927Y+2983199D01*
X-2777077Y+2926049D01*
X-2956651Y+2926049D01*
X-2956651Y+3373201D01*
X-2851113Y+3373201D01*
X-2791020Y+3433294D01*
X-2719927Y+3362201D01*
X-2562113Y+3362201D01*
X-2494020Y+3430294D01*
X-2433927Y+3370201D01*
X-2276113Y+3370201D01*
X-2202020Y+3444294D01*
X-2129927Y+3372201D01*
X-1972113Y+3372201D01*
X-1889020Y+3455294D01*
X-1805927Y+3372201D01*
X-1648113Y+3372201D01*
X-1584020Y+3436294D01*
X-1509927Y+3362201D01*
X-1352113Y+3362201D01*
X-1272520Y+3441794D01*
X-1202927Y+3372201D01*
X-1045113Y+3372201D01*
X-987520Y+3429794D01*
X-919927Y+3362201D01*
X-762113Y+3362201D01*
X-698020Y+3426294D01*
X-642927Y+3371201D01*
X-485113Y+3371201D01*
X-401020Y+3455294D01*
X-316927Y+3371201D01*
X-159113Y+3371201D01*
X-100020Y+3430294D01*
X-40927Y+3371201D01*
X+116887Y+3371201D01*
X+201980Y+3456294D01*
X+283073Y+3375201D01*
X+440887Y+3375201D01*
X+501480Y+3435794D01*
X+562073Y+3375201D01*
X+719887Y+3375201D01*
X+797980Y+3453294D01*
X+875073Y+3376201D01*
X+1032887Y+3376201D01*
X+1070980Y+3414294D01*
X+1114073Y+3371201D01*
X+1271887Y+3371201D01*
X+1305561Y+3404875D01*
X+1305561Y+3327233D01*
X+1417153Y+3215641D01*
X+1574967Y+3215641D01*
X+1602740Y+3243414D01*
X+1625433Y+3220721D01*
X+1783247Y+3220721D01*
X+1804670Y+3242144D01*
X+1831173Y+3215641D01*
X+1988987Y+3215641D01*
X+2077087Y+3303741D01*
X+2251561Y+3303741D01*
X+2251561Y+3260441D01*
X+2566759Y+3260441D01*
X+2566759Y+3287562D01*
X+2593880Y+3260441D01*
X+2724440Y+3260441D01*
X+2816759Y+3352760D01*
X+2816759Y+3483320D01*
X+2735400Y+3564678D01*
X+2790223Y+3619501D01*
X+3113303Y+3619501D01*
X+3251198Y+3757396D01*
X+3251198Y+3769361D01*
X+3327399Y+3769361D01*
X+3327399Y+3869281D01*
X+4296153Y+3869281D01*
X+4299154Y+3866280D01*
X+2860799Y+2794967D02*
X+2860799Y+2637153D01*
X+2749207Y+2525561D01*
X+2591393Y+2525561D01*
X+2543300Y+2573654D01*
X+2495207Y+2525561D01*
X+2337393Y+2525561D01*
X+2225801Y+2637153D01*
X+2225801Y+2794967D01*
X+2337393Y+2906559D01*
X+2495207Y+2906559D01*
X+2543300Y+2858466D01*
X+2591393Y+2906559D01*
X+2749207Y+2906559D01*
X+2860799Y+2794967D01*
X+4152883Y+3047099D02*
X+4279953Y+3047099D01*
X+4137659Y+3135999D02*
X+4259435Y+3135999D01*
X+4082847Y+3224899D02*
X+4240171Y+3224899D01*
X+4069781Y+3313799D02*
X+4256673Y+3313799D01*
X+4117964Y+3361982D02*
X+4117964Y+3361982D01*
X+4031864Y+3275882D02*
X+4031864Y+3275882D01*
X+4120764Y+3186982D02*
X+4120764Y+3361981D01*
X+4209664Y+3047099D02*
X+4209664Y+3361981D01*
X+4298564Y+3065710D02*
X+4298564Y+3096870D01*
X+4314144Y+3081290D02*
X+4314144Y+3081290D01*
X+4283453Y+3361981D02*
X+4294154Y+3351280D01*
X+4240171Y+3297297D01*
X+4240171Y+3155263D01*
X+4314144Y+3081290D01*
X+4279953Y+3047099D01*
X+4152883Y+3047099D01*
X+4137659Y+3062323D01*
X+4137659Y+3170087D01*
X+4031864Y+3275882D01*
X+4117964Y+3361982D01*
X+4283453Y+3361981D01*
X-4324902Y+425064D02*
X-4324902Y+425064D01*
X-4324902Y+513964D02*
X-3917418Y+513964D01*
X-1077921Y+513964D02*
X-764119Y+513964D01*
X-4324902Y+602864D02*
X-3828518Y+602864D01*
X-1077921Y+602864D02*
X-764119Y+602864D01*
X-4324902Y+691764D02*
X-3739618Y+691764D01*
X-1164599Y+691764D02*
X-681441Y+691764D01*
X-516599Y+691764D02*
X-427441Y+691764D01*
X-262599Y+691764D02*
X-173441Y+691764D01*
X-4324902Y+780664D02*
X-3650718Y+780664D01*
X-1325342Y+780664D02*
X-43498Y+780664D01*
X-4324902Y+869564D02*
X-3561818Y+869564D01*
X-1414242Y+869564D02*
X+45402Y+869564D01*
X+2948878Y+869564D02*
X+2955131Y+869564D01*
X-4324902Y+958464D02*
X-3472918Y+958464D01*
X-1503142Y+958464D02*
X+2431357Y+958464D01*
X+2687763Y+958464D02*
X+2923161Y+958464D01*
X-4324902Y+1047364D02*
X+510674Y+1047364D01*
X+831286Y+1047364D02*
X+1168072Y+1047364D01*
X+1971006Y+1047364D02*
X+2378890Y+1047364D01*
X+2552190Y+1047364D02*
X+2632890Y+1047364D01*
X-3247650Y+1136264D02*
X-3092069Y+1136264D01*
X-2949971Y+1136264D02*
X-2838069Y+1136264D01*
X-2695971Y+1136264D02*
X-2584069Y+1136264D01*
X-2441971Y+1136264D02*
X-2330069Y+1136264D01*
X-2187971Y+1136264D02*
X-2076069Y+1136264D01*
X-1933971Y+1136264D02*
X-1822069Y+1136264D01*
X-1679971Y+1136264D02*
X-1568069Y+1136264D01*
X-1425971Y+1136264D02*
X-1408119Y+1136264D01*
X-1077921Y+1136264D02*
X+421774Y+1136264D01*
X+920186Y+1136264D02*
X+1130301Y+1136264D01*
X+2059906Y+1136264D02*
X+2289990Y+1136264D01*
X-3181861Y+1225164D02*
X-3180969Y+1225164D01*
X-1077921Y+1225164D02*
X-754969Y+1225164D01*
X+2148806Y+1225164D02*
X+2275041Y+1225164D01*
X-1077921Y+1314064D02*
X-764119Y+1314064D01*
X-1077921Y+1402964D02*
X-945690Y+1402964D01*
X-1077921Y+1449401D02*
X-992127Y+1449401D01*
X-4324902Y+425064D02*
X-4324902Y+1119256D01*
X-4236002Y+454659D02*
X-4236002Y+1089661D01*
X-4147102Y+454659D02*
X-4147102Y+1089661D01*
X-4058202Y+452119D02*
X-4058202Y+1087121D01*
X-3969302Y+462080D02*
X-3969302Y+1087121D01*
X-3880402Y+550980D02*
X-3880402Y+1093856D01*
X-3791502Y+639880D02*
X-3791502Y+1087121D01*
X-3702602Y+728780D02*
X-3702602Y+1100372D01*
X-3613702Y+817680D02*
X-3613702Y+1096521D01*
X-3524802Y+906580D02*
X-3524802Y+1096521D01*
X-3435902Y+995480D02*
X-3435902Y+1090461D01*
X-3347002Y+1003299D02*
X-3347002Y+1090461D01*
X-3258102Y+1003299D02*
X-3258102Y+1125812D01*
X-3169202Y+1003299D02*
X-3169202Y+1213397D01*
X-3080302Y+1003299D02*
X-3080302Y+1133601D01*
X-2991402Y+1003299D02*
X-2991402Y+1133601D01*
X-2902502Y+1003299D02*
X-2902502Y+1183733D01*
X-2813602Y+1003299D02*
X-2813602Y+1133601D01*
X-2724702Y+1003299D02*
X-2724702Y+1133601D01*
X-2635802Y+1003299D02*
X-2635802Y+1187997D01*
X-2546902Y+1003299D02*
X-2546902Y+1133601D01*
X-2458002Y+1003299D02*
X-2458002Y+1133601D01*
X-2369102Y+1003299D02*
X-2369102Y+1175297D01*
X-2280202Y+1003299D02*
X-2280202Y+1133601D01*
X-2191302Y+1003299D02*
X-2191302Y+1133601D01*
X-2102402Y+1003299D02*
X-2102402Y+1162597D01*
X-2013502Y+1003299D02*
X-2013502Y+1133601D01*
X-1924602Y+1003299D02*
X-1924602Y+1145633D01*
X-1835702Y+1003299D02*
X-1835702Y+1149897D01*
X-1746802Y+1003299D02*
X-1746802Y+1133601D01*
X-1657902Y+1003299D02*
X-1657902Y+1158333D01*
X-1569002Y+1003299D02*
X-1569002Y+1137197D01*
X-1480102Y+935424D02*
X-1480102Y+1133601D01*
X-1391202Y+846524D02*
X-1391202Y+1133601D01*
X-1302302Y+757624D02*
X-1302302Y+1133601D01*
X-1213402Y+701799D02*
X-1213402Y+1133601D01*
X-1124502Y+651667D02*
X-1124502Y+1133601D01*
X-1035602Y+431799D02*
X-1035602Y+1449401D01*
X-946702Y+431799D02*
X-946702Y+1403976D01*
X-857802Y+431799D02*
X-857802Y+1373201D01*
X-768902Y+431799D02*
X-768902Y+1373201D01*
X-680002Y+693203D02*
X-680002Y+1150197D01*
X-591102Y+705799D02*
X-591102Y+1137601D01*
X-502202Y+677367D02*
X-502202Y+1166033D01*
X-413302Y+705799D02*
X-413302Y+1137601D01*
X-324402Y+705799D02*
X-324402Y+1137601D01*
X-235502Y+664667D02*
X-235502Y+1178733D01*
X-146602Y+705799D02*
X-146602Y+1137601D01*
X-57702Y+766460D02*
X-57702Y+1137601D01*
X+31198Y+855360D02*
X+31198Y+1191433D01*
X+120098Y+876299D02*
X+120098Y+1137601D01*
X+208998Y+876299D02*
X+208998Y+1137601D01*
X+297898Y+876299D02*
X+297898Y+1188297D01*
X+386798Y+876299D02*
X+386798Y+1137601D01*
X+475698Y+876299D02*
X+475698Y+1082340D01*
X+564598Y+876299D02*
X+564598Y+1028701D01*
X+653498Y+876299D02*
X+653498Y+1028701D01*
X+742398Y+876299D02*
X+742398Y+1028701D01*
X+831298Y+876299D02*
X+831298Y+1047376D01*
X+920198Y+876299D02*
X+920198Y+1136276D01*
X+1009098Y+876299D02*
X+1009098Y+1153333D01*
X+1097998Y+876299D02*
X+1097998Y+1137601D01*
X+1186898Y+876299D02*
X+1186898Y+1028538D01*
X+1275798Y+876299D02*
X+1275798Y+1003301D01*
X+1364698Y+876299D02*
X+1364698Y+1028701D01*
X+1453598Y+876299D02*
X+1453598Y+1028701D01*
X+1542498Y+876299D02*
X+1542498Y+1028701D01*
X+1631398Y+876299D02*
X+1631398Y+1028701D01*
X+1720298Y+876299D02*
X+1720298Y+1028701D01*
X+1809198Y+876299D02*
X+1809198Y+1028701D01*
X+1898098Y+876299D02*
X+1898098Y+1028701D01*
X+1986998Y+876299D02*
X+1986998Y+1063356D01*
X+2075898Y+876299D02*
X+2075898Y+1152256D01*
X+2164798Y+876299D02*
X+2164798Y+1241156D01*
X+2253698Y+876299D02*
X+2253698Y+1282701D01*
X+2342598Y+876299D02*
X+2342598Y+1083656D01*
X+2431498Y+958605D02*
X+2431498Y+1039621D01*
X+2520398Y+1002499D02*
X+2520398Y+1039621D01*
X+2609298Y+1002499D02*
X+2609298Y+1070956D01*
X+2698198Y+948029D02*
X+2698198Y+1039621D01*
X+2787098Y+913599D02*
X+2787098Y+1039621D01*
X+2875998Y+913599D02*
X+2875998Y+965201D01*
X+2964898Y+853544D02*
X+2964898Y+859797D01*
X+2981775Y+842920D02*
X+2981775Y+842920D01*
X-915927Y+1373201D02*
X-762004Y+1373201D01*
X-764119Y+1371086D01*
X-764119Y+1234314D01*
X-667406Y+1137601D01*
X-530634Y+1137601D01*
X-472020Y+1196215D01*
X-413406Y+1137601D01*
X-276634Y+1137601D01*
X-218020Y+1196215D01*
X-159406Y+1137601D01*
X-22634Y+1137601D01*
X+35980Y+1196215D01*
X+94594Y+1137601D01*
X+231366Y+1137601D01*
X+289980Y+1196215D01*
X+348594Y+1137601D01*
X+420437Y+1137601D01*
X+529337Y+1028701D01*
X+812623Y+1028701D01*
X+921523Y+1137601D01*
X+993366Y+1137601D01*
X+1013881Y+1158116D01*
X+1013881Y+1137601D01*
X+1130301Y+1137601D01*
X+1130301Y+1085135D01*
X+1212135Y+1003301D01*
X+1327865Y+1003301D01*
X+1353265Y+1028701D01*
X+1952343Y+1028701D01*
X+2206343Y+1282701D01*
X+2275041Y+1282701D01*
X+2275041Y+1151213D01*
X+2386633Y+1039621D01*
X+2544447Y+1039621D01*
X+2592540Y+1087714D01*
X+2640633Y+1039621D01*
X+2798447Y+1039621D01*
X+2798842Y+1040016D01*
X+2873657Y+965201D01*
X+2923161Y+965201D01*
X+2923161Y+901534D01*
X+2981775Y+842920D01*
X+2978648Y+839794D01*
X+2904843Y+913599D01*
X+2732628Y+913599D01*
X+2643728Y+1002499D01*
X+2475392Y+1002499D01*
X+2356361Y+883468D01*
X+2356361Y+876299D01*
X+52137Y+876299D01*
X-78319Y+745843D01*
X-78319Y+705799D01*
X-159406Y+705799D01*
X-218020Y+647185D01*
X-276634Y+705799D01*
X-413406Y+705799D01*
X-472020Y+647185D01*
X-530634Y+705799D01*
X-667406Y+705799D01*
X-764119Y+609086D01*
X-764119Y+472314D01*
X-723604Y+431799D01*
X-1114436Y+431799D01*
X-1077921Y+468314D01*
X-1077921Y+605086D01*
X-1174634Y+701799D01*
X-1246477Y+701799D01*
X-1547977Y+1003299D01*
X-3428083Y+1003299D01*
X-3979263Y+452119D01*
X-4087027Y+452119D01*
X-4110990Y+428156D01*
X-4137493Y+454659D01*
X-4295307Y+454659D01*
X-4324902Y+425064D01*
X-4324902Y+1119256D01*
X-4295307Y+1089661D01*
X-4137493Y+1089661D01*
X-4113530Y+1113624D01*
X-4087027Y+1087121D01*
X-3929213Y+1087121D01*
X-3901440Y+1114894D01*
X-3873667Y+1087121D01*
X-3715853Y+1087121D01*
X-3685520Y+1117454D01*
X-3664587Y+1096521D01*
X-3506773Y+1096521D01*
X-3482050Y+1121244D01*
X-3451267Y+1090461D01*
X-3293453Y+1090461D01*
X-3181861Y+1202053D01*
X-3181861Y+1226056D01*
X-3089406Y+1133601D01*
X-2952634Y+1133601D01*
X-2894020Y+1192215D01*
X-2835406Y+1133601D01*
X-2698634Y+1133601D01*
X-2640020Y+1192215D01*
X-2581406Y+1133601D01*
X-2444634Y+1133601D01*
X-2386020Y+1192215D01*
X-2327406Y+1133601D01*
X-2190634Y+1133601D01*
X-2132020Y+1192215D01*
X-2073406Y+1133601D01*
X-1936634Y+1133601D01*
X-1878020Y+1192215D01*
X-1819406Y+1133601D01*
X-1682634Y+1133601D01*
X-1624020Y+1192215D01*
X-1565406Y+1133601D01*
X-1428634Y+1133601D01*
X-1408119Y+1154116D01*
X-1408119Y+1133601D01*
X-1077921Y+1133601D01*
X-1077921Y+1449401D01*
X-992127Y+1449401D01*
X-915927Y+1373201D01*
X+3253359Y+685799D02*
X+3685161Y+685799D01*
X+3253359Y+774699D02*
X+3685161Y+774699D01*
X+3215424Y+863599D02*
X+3723096Y+863599D01*
X+3372563Y+952499D02*
X+3685161Y+952499D01*
X+3441699Y+1041399D02*
X+3688254Y+1041399D01*
X+3441699Y+1130299D02*
X+3710396Y+1130299D01*
X+3253359Y+1219199D02*
X+3685161Y+1219199D01*
X+3438241Y+1308099D02*
X+3700954Y+1308099D01*
X+3479799Y+1396999D02*
X+3697696Y+1396999D01*
X+3479799Y+1485899D02*
X+3685161Y+1485899D01*
X+3479799Y+1574799D02*
X+3713654Y+1574799D01*
X+3479799Y+1663699D02*
X+3685161Y+1663699D01*
X+3479799Y+1752599D02*
X+3685161Y+1752599D01*
X+3479799Y+1841499D02*
X+3726354Y+1841499D01*
X+3479799Y+1930399D02*
X+3685161Y+1930399D01*
X+3450941Y+1981201D02*
X+3685161Y+1981201D01*
X+3194745Y+842920D02*
X+3194745Y+842920D01*
X+3283645Y+685799D02*
X+3283645Y+939801D01*
X+3283645Y+1219199D02*
X+3283645Y+1219201D01*
X+3372545Y+685799D02*
X+3372545Y+952481D01*
X+3372545Y+1206519D02*
X+3372545Y+1242403D01*
X+3461445Y+685799D02*
X+3461445Y+1331303D01*
X+3461445Y+1970697D02*
X+3461445Y+1981201D01*
X+3550345Y+685799D02*
X+3550345Y+1981201D01*
X+3639245Y+685799D02*
X+3639245Y+1981201D01*
X+3728145Y+827290D02*
X+3728145Y+858550D01*
X+3728145Y+1081290D02*
X+3728145Y+1112550D01*
X+3728145Y+1335290D02*
X+3728145Y+1366550D01*
X+3728145Y+1589290D02*
X+3728145Y+1620550D01*
X+3728145Y+1843290D02*
X+3728145Y+1874550D01*
X+3743775Y+842920D02*
X+3743775Y+842920D01*
X+3743775Y+1096920D02*
X+3743775Y+1096920D01*
X+3743775Y+1350920D02*
X+3743775Y+1350920D01*
X+3743775Y+1604920D02*
X+3743775Y+1604920D01*
X+3743775Y+1858920D02*
X+3743775Y+1858920D01*
X+3685161Y+1917534D02*
X+3743775Y+1858920D01*
X+3685161Y+1800306D01*
X+3685161Y+1663534D01*
X+3743775Y+1604920D01*
X+3685161Y+1546306D01*
X+3685161Y+1409534D01*
X+3743775Y+1350920D01*
X+3685161Y+1292306D01*
X+3685161Y+1155534D01*
X+3743775Y+1096920D01*
X+3685161Y+1038306D01*
X+3685161Y+901534D01*
X+3743775Y+842920D01*
X+3685161Y+784306D01*
X+3685161Y+685799D01*
X+3253359Y+685799D01*
X+3253359Y+784306D01*
X+3194745Y+842920D01*
X+3253359Y+901534D01*
X+3253359Y+939801D01*
X+3359865Y+939801D01*
X+3441699Y+1021635D01*
X+3441699Y+1137365D01*
X+3359865Y+1219199D01*
X+3253359Y+1219199D01*
X+3253359Y+1219201D01*
X+3349343Y+1219201D01*
X+3479799Y+1349657D01*
X+3479799Y+1952343D01*
X+3450941Y+1981201D01*
X+3685161Y+1981201D01*
X+3685161Y+1917534D01*
X+1131101Y+131485D02*
X+1131101Y+131485D01*
X+244641Y+220385D02*
X+330999Y+220385D01*
X+498641Y+220385D02*
X+615479Y+220385D01*
X+788201Y+220385D02*
X+869479Y+220385D01*
X+1042201Y+220385D02*
X+1131101Y+220385D01*
X+150279Y+309285D02*
X+1131101Y+309285D01*
X+253950Y+398185D02*
X+326010Y+398185D01*
X+507950Y+398185D02*
X+580010Y+398185D01*
X+761950Y+398185D02*
X+834010Y+398185D01*
X+1015950Y+398185D02*
X+1088010Y+398185D01*
X+289980Y+434215D02*
X+289980Y+434215D01*
X+543980Y+434215D02*
X+543980Y+434215D01*
X+797980Y+434215D02*
X+797980Y+434215D01*
X+1051980Y+434215D02*
X+1051980Y+434215D01*
X+100702Y+256560D02*
X+100702Y+256560D01*
X+189602Y+225299D02*
X+189602Y+375601D01*
X+278502Y+186524D02*
X+278502Y+422737D01*
X+367402Y+225299D02*
X+367402Y+375601D01*
X+456302Y+225299D02*
X+456302Y+375601D01*
X+545202Y+173824D02*
X+545202Y+432993D01*
X+634102Y+227839D02*
X+634102Y+375601D01*
X+723002Y+227839D02*
X+723002Y+375601D01*
X+811902Y+196684D02*
X+811902Y+420293D01*
X+900802Y+227839D02*
X+900802Y+375601D01*
X+989702Y+227839D02*
X+989702Y+355340D01*
X+1078602Y+183984D02*
X+1078602Y+407593D01*
X+1131101Y+131485D02*
X+1131101Y+375601D01*
X+1110594Y+375601D02*
X+1131101Y+375601D01*
X+1131101Y+131485D01*
X+1034747Y+227839D01*
X+876933Y+227839D01*
X+828840Y+179746D01*
X+780747Y+227839D01*
X+622933Y+227839D01*
X+557060Y+161966D01*
X+493727Y+225299D01*
X+335913Y+225299D01*
X+287820Y+177206D01*
X+239727Y+225299D01*
X+131963Y+225299D01*
X+100702Y+256560D01*
X+150279Y+306137D01*
X+150279Y+375601D01*
X+231366Y+375601D01*
X+289980Y+434215D01*
X+348594Y+375601D01*
X+485366Y+375601D01*
X+543980Y+434215D01*
X+602594Y+375601D01*
X+739366Y+375601D01*
X+797980Y+434215D01*
X+856594Y+375601D01*
X+908050Y+375601D01*
X+908050Y+362588D01*
X+934088Y+336550D01*
X+970912Y+336550D01*
X+996950Y+362588D01*
X+996950Y+379185D01*
X+1051980Y+434215D01*
X+1110594Y+375601D01*
X-3181861Y+211779D02*
X-3114579Y+211779D01*
X-3181861Y+300679D02*
X-3114579Y+300679D01*
X-3227573Y+389579D02*
X-3107384Y+389579D01*
X-3216579Y+478479D02*
X-3186119Y+478479D01*
X-3186119Y+508939D02*
X-3186119Y+508939D01*
X-3266526Y+428532D02*
X-3266526Y+428532D01*
X-3177626Y+211779D02*
X-3177626Y+459821D01*
X-3088726Y+327196D02*
X-3088726Y+371601D01*
X-3044321Y+371601D02*
X-3044321Y+371601D01*
X-3186119Y+468314D02*
X-3089406Y+371601D01*
X-3044321Y+371601D01*
X-3114579Y+301343D01*
X-3114579Y+211779D01*
X-3181861Y+211779D01*
X-3181861Y+343867D01*
X-3266526Y+428532D01*
X-3186119Y+508939D01*
X-3186119Y+468314D01*
X+1330379Y-584201D02*
X+2923161Y-584201D01*
X+1330379Y-495301D02*
X+2923161Y-495301D01*
X+2148663Y-406401D02*
X+2961096Y-406401D01*
X+2179699Y-317501D02*
X+2402715Y-317501D01*
X+2572205Y-317501D02*
X+2656715Y-317501D01*
X+2826205Y-317501D02*
X+2923161Y-317501D01*
X+2148665Y-228601D02*
X+2313815Y-228601D01*
X+2915105Y-228601D02*
X+2926254Y-228601D01*
X+1965959Y-139701D02*
X+2296961Y-139701D01*
X+2931959Y-139701D02*
X+2948396Y-139701D01*
X+1965959Y-50801D02*
X+2300093Y-50801D01*
X+1965959Y+38099D02*
X+2388993Y+38099D01*
X+2585927Y+38099D02*
X+2627161Y+38099D01*
X+1965959Y+126999D02*
X+2436494Y+126999D01*
X+1965959Y+215899D02*
X+2356361Y+215899D01*
X+1965959Y+304799D02*
X+2356361Y+304799D01*
X+1784805Y+393699D02*
X+2374592Y+393699D01*
X+1811819Y+482599D02*
X+2463492Y+482599D01*
X+1811819Y+571499D02*
X+2378359Y+571499D01*
X+1742645Y+647701D02*
X+2302157Y+647701D01*
X+1330379Y-584201D02*
X+1330379Y-431799D01*
X+1419279Y-584201D02*
X+1419279Y-431799D01*
X+1508179Y-584201D02*
X+1508179Y-431799D01*
X+1597079Y-584201D02*
X+1597079Y-431799D01*
X+1685979Y-584201D02*
X+1685979Y-431799D01*
X+1774879Y-584201D02*
X+1774879Y-431799D01*
X+1774879Y+615467D02*
X+1774879Y+647701D01*
X+1863779Y-584201D02*
X+1863779Y-431799D01*
X+1863779Y+386079D02*
X+1863779Y+647701D01*
X+1952679Y-584201D02*
X+1952679Y-431799D01*
X+1952679Y+386079D02*
X+1952679Y+647701D01*
X+2041579Y-584201D02*
X+2041579Y-457199D01*
X+2041579Y-177801D02*
X+2041579Y+647701D01*
X+2130479Y-584201D02*
X+2130479Y-424585D01*
X+2130479Y-210415D02*
X+2130479Y+647701D01*
X+2219379Y-584201D02*
X+2219379Y+647701D01*
X+2308279Y-584201D02*
X+2308279Y-223065D01*
X+2308279Y-42615D02*
X+2308279Y+641579D01*
X+2397179Y-584201D02*
X+2397179Y-311965D01*
X+2397179Y+46285D02*
X+2397179Y+166314D01*
X+2397179Y+416285D02*
X+2397179Y+552679D01*
X+2486079Y-584201D02*
X+2486079Y-323339D01*
X+2486079Y+57659D02*
X+2486079Y+88101D01*
X+2574979Y-584201D02*
X+2574979Y-314727D01*
X+2574979Y+49047D02*
X+2574979Y+88101D01*
X+2663879Y-584201D02*
X+2663879Y-323339D01*
X+2752779Y-584201D02*
X+2752779Y-323339D01*
X+2841679Y-584201D02*
X+2841679Y-302027D01*
X+2930579Y-478276D02*
X+2930579Y-375884D01*
X+2930579Y-224276D02*
X+2930579Y-213127D01*
X+2981775Y-427080D02*
X+2981775Y-427080D01*
X+2981775Y-173080D02*
X+2981775Y-173080D01*
X+2459179Y+490679D02*
X+2465376Y+484482D01*
X+2356361Y+375468D01*
X+2356361Y+207132D01*
X+2475392Y+88101D01*
X+2627161Y+88101D01*
X+2627161Y+22267D01*
X+2614460Y+9566D01*
X+2566367Y+57659D01*
X+2408553Y+57659D01*
X+2296961Y-53933D01*
X+2296961Y-211747D01*
X+2408553Y-323339D01*
X+2566367Y-323339D01*
X+2614460Y-275246D01*
X+2662553Y-323339D01*
X+2820367Y-323339D01*
X+2931959Y-211747D01*
X+2931959Y-123264D01*
X+2981775Y-173080D01*
X+2923161Y-231694D01*
X+2923161Y-368466D01*
X+2981775Y-427080D01*
X+2923161Y-485694D01*
X+2923161Y-584201D01*
X+1330379Y-584201D01*
X+1330379Y-431799D01*
X+1956735Y-431799D01*
X+1982135Y-457199D01*
X+2097865Y-457199D01*
X+2179699Y-375365D01*
X+2179699Y-259635D01*
X+2097865Y-177801D01*
X+1982135Y-177801D01*
X+1965959Y-193977D01*
X+1965959Y+386079D01*
X+1777185Y+386079D01*
X+1811819Y+420713D01*
X+1811819Y+578527D01*
X+1742645Y+647701D01*
X+2302157Y+647701D01*
X+2459179Y+490679D01*
X-3317779Y-53719D02*
X-3317779Y-53719D01*
X-3406679Y+35181D02*
X-3317779Y+35181D01*
X-3445959Y+74461D02*
X-3317779Y+74461D01*
X-3445959Y+74461D02*
X-3445959Y+74461D01*
X-3357059Y-14439D02*
X-3357059Y+74461D01*
X-3317779Y-53719D02*
X-3317779Y+74461D01*
X-3317779Y-53719D02*
X-3445959Y+74461D01*
X-3317779Y+74461D01*
X-3317779Y-53719D01*
X+1537499Y-203201D02*
X+1559561Y-203201D01*
X+1537499Y-114301D02*
X+1559561Y-114301D01*
X+1537499Y-25401D02*
X+1559561Y-25401D01*
X+1537499Y+63499D02*
X+1559561Y+63499D01*
X+1537499Y+152399D02*
X+1559561Y+152399D01*
X+1537499Y+241299D02*
X+1559561Y+241299D01*
X+1537499Y+314035D02*
X+1537499Y+314035D01*
X+1537499Y-203201D02*
X+1537499Y+314035D01*
X+1559561Y-203201D02*
X+1559561Y+309121D01*
X+1542413Y+309121D02*
X+1559561Y+309121D01*
X+1559561Y-203201D01*
X+1537499Y-203201D01*
X+1537499Y+314035D01*
X+1542413Y+309121D01*
X-565239Y-457201D02*
X-523819Y-457201D01*
X-523819Y-415781D02*
X-523819Y-415781D01*
X-565239Y-457201D02*
X-565239Y-457201D01*
X-523819Y-457201D02*
X-523819Y-415781D01*
X-523819Y-457201D02*
X-565239Y-457201D01*
X-523819Y-415781D01*
X-523819Y-457201D01*
X+2470863Y-1219201D02*
X+2806441Y-1219201D01*
X+2489199Y-1130301D02*
X+2815914Y-1130301D01*
X+2489199Y-1130299D02*
X+2815916Y-1130299D01*
X+2470863Y-1219201D02*
X+2470863Y-1219201D01*
X+2559763Y-1219201D02*
X+2559763Y-1130299D01*
X+2648663Y-1219201D02*
X+2648663Y-1130299D01*
X+2737563Y-1219201D02*
X+2737563Y-1130299D01*
X+2815916Y-1130299D02*
X+2815916Y-1130299D01*
X+2806441Y-1139774D02*
X+2806441Y-1219201D01*
X+2470863Y-1219201D01*
X+2489199Y-1200865D01*
X+2489199Y-1130299D01*
X+2815916Y-1130299D01*
X+2806441Y-1139774D01*
X+4425028Y-1342386D02*
X+4425028Y-1342386D01*
X+3977259Y-1253486D02*
X+4648201Y-1253486D01*
X+4001379Y-1164586D02*
X+4648201Y-1164586D01*
X+4001379Y-1130299D02*
X+4648201Y-1130299D01*
X+3949765Y-1280980D02*
X+3949765Y-1280980D01*
X+4038665Y-1286681D02*
X+4038665Y-1130299D01*
X+4127565Y-1286681D02*
X+4127565Y-1130299D01*
X+4216465Y-1286681D02*
X+4216465Y-1130299D01*
X+4305365Y-1286681D02*
X+4305365Y-1130299D01*
X+4394265Y-1311623D02*
X+4394265Y-1130299D01*
X+4483165Y-1284249D02*
X+4483165Y-1130299D01*
X+4572065Y-1262171D02*
X+4572065Y-1130299D01*
X+4648201Y-1263095D02*
X+4648201Y-1130299D01*
X+4648201Y-1263095D02*
X+4647277Y-1262171D01*
X+4505243Y-1262171D01*
X+4425028Y-1342386D01*
X+4369323Y-1286681D01*
X+3955466Y-1286681D01*
X+3949765Y-1280980D01*
X+4001379Y-1229366D01*
X+4001379Y-1130299D01*
X+4648201Y-1130299D01*
X+4648201Y-1263095D01*
X+3603343Y-1409701D02*
X+3671181Y-1409701D01*
X+3550159Y-1320801D02*
X+3682974Y-1320801D01*
X+3235043Y-1231901D02*
X+3260353Y-1231901D01*
X+3509766Y-1231901D02*
X+3673716Y-1231901D01*
X+3136639Y-1143001D02*
X+3671181Y-1143001D01*
X+3127164Y-1130299D02*
X+3671181Y-1130299D01*
X+3127164Y-1130299D02*
X+3127164Y-1130299D01*
X+3216064Y-1219201D02*
X+3216064Y-1130299D01*
X+3304964Y-1187290D02*
X+3304964Y-1130299D01*
X+3393864Y-1175581D02*
X+3393864Y-1130299D01*
X+3482764Y-1204899D02*
X+3482764Y-1130299D01*
X+3571664Y-1378022D02*
X+3571664Y-1130299D01*
X+3660564Y-1409701D02*
X+3660564Y-1130299D01*
X+3722795Y-1280980D02*
X+3722795Y-1280980D01*
X+3671181Y-1229366D02*
X+3722795Y-1280980D01*
X+3671181Y-1332594D01*
X+3671181Y-1409701D01*
X+3603343Y-1409701D01*
X+3550159Y-1356517D01*
X+3550159Y-1272294D01*
X+3453446Y-1175581D01*
X+3316674Y-1175581D01*
X+3247698Y-1244556D01*
X+3222343Y-1219201D01*
X+3136639Y-1219201D01*
X+3136639Y-1139774D01*
X+3127164Y-1130299D01*
X+3671181Y-1130299D01*
X+3671181Y-1229366D01*
X+3685161Y+1223920D02*
X+3850260Y+1223920D01*
X+4576260Y-1262171D02*
X+4576260Y-1433620D01*
X-3292819Y-428820D02*
X-3127720Y-428820D01*
X-3127720Y-593919D02*
X-3127720Y-428820D01*
X+3136639Y-1208160D02*
X+2971540Y-1208160D01*
X+2806441Y-1208160D02*
X+2971540Y-1208160D01*
X-764119Y+540700D02*
X-599020Y+540700D01*
X-599020Y+705799D02*
X-599020Y+540700D01*
X-91020Y+705799D02*
X-91020Y+540700D01*
X+416980Y+375601D02*
X+416980Y+540700D01*
X-523819Y-422820D02*
X-358720Y-422820D01*
X+4240171Y+3226280D02*
X+4411620Y+3226280D01*
X+4583069Y+3226280D02*
X+4411620Y+3226280D01*
X+4408120Y+1991351D02*
X+4408120Y+2162800D01*
X-4499341Y+3385680D02*
X-4664940Y+3385680D01*
X-4830539Y+3385680D02*
X-4664940Y+3385680D01*
X-4664940Y+3551279D02*
X-4664940Y+3385680D01*
X-4664940Y+3220081D02*
X-4664940Y+3385680D01*
X+2816759Y+3418040D02*
X+2659160Y+3418040D01*
X+2659160Y+3260441D02*
X+2659160Y+3418040D01*
X+2870200Y+4175759D02*
X+2870200Y+3972560D01*
X-3181061Y+4152100D02*
X-3435060Y+4152100D01*
X-3435060Y+4406099D02*
X-3435060Y+4152100D01*
X-3435060Y+3898101D02*
X-3435060Y+4152100D01*
X-3317779Y+21280D02*
X-3127280Y+21280D01*
X-3127280Y+211779D02*
X-3127280Y+21280D01*
X+414820Y+225299D02*
X+414820Y+34800D01*
X+955840Y+227839D02*
X+955840Y+37340D01*
X-4859019Y+2547620D02*
X-4668520Y+2547620D01*
X-4668520Y+2738119D02*
X-4668520Y+2547620D01*
X-4668520Y+2357121D02*
X-4668520Y+2547620D01*
X+2860799Y+2716060D02*
X+2670300Y+2716060D01*
X+2670300Y+2906559D02*
X+2670300Y+2716060D01*
X+2670300Y+2525561D02*
X+2670300Y+2716060D01*
X+2719540Y+1039621D02*
X+2719540Y+1230120D01*
X+2296961Y-132840D02*
X+2487460Y-132840D01*
X+2487460Y-323339D02*
X+2487460Y-132840D01*
X+2487460Y+57659D02*
X+2487460Y-132840D01*
X+1559561Y+182880D02*
X+1762760Y+182880D01*
X+1965959Y+182880D02*
X+1762760Y+182880D01*
X-4784060Y+3858261D02*
X-4784060Y+4023360D01*
X-4784060Y+4188459D02*
X-4784060Y+4023360D01*
D19*
X+3088260Y+2747920D03*
D70*
X+3088260Y+2493920D03*
X+3088260Y+2239920D03*
X+3088260Y+1985920D03*
X+3088260Y+1731920D03*
X+3088260Y+1477920D03*
X+3088260Y+1223920D03*
X+3088260Y+969920D03*
X+3088260Y+715920D03*
X+3088260Y+461920D03*
X+3088260Y+207920D03*
X+3088260Y-46080D03*
X+3088260Y-300080D03*
X+3088260Y-554080D03*
X+3850260Y-554080D03*
X+3850260Y-300080D03*
X+3850260Y-46080D03*
X+3850260Y+207920D03*
X+3850260Y+461920D03*
X+3850260Y+715920D03*
X+3850260Y+969920D03*
X+3850260Y+1223920D03*
X+3850260Y+1477920D03*
X+3850260Y+1731920D03*
X+3850260Y+1985920D03*
X+3850260Y+2239920D03*
X+3850260Y+2493920D03*
X+3850260Y+2745920D03*
D71*
X+4586260Y-2733620D03*
X+4586260Y-2463620D03*
X+4586260Y-2213620D03*
X+4586260Y-1963620D03*
X+4576260Y-1703620D03*
X+4576260Y-1433620D03*
D19*
X-841720Y-428820D03*
D70*
X-1095720Y-428820D03*
X-1349720Y-428820D03*
X-1603720Y-428820D03*
X-1857720Y-428820D03*
X-2111720Y-428820D03*
X-2365720Y-428820D03*
X-2619720Y-428820D03*
X-2873720Y-428820D03*
X-3127720Y-428820D03*
X-3127720Y-1190820D03*
X-2873720Y-1190820D03*
X-2619720Y-1190820D03*
X-2365720Y-1190820D03*
X-2111720Y-1190820D03*
X-1857720Y-1190820D03*
X-1603720Y-1190820D03*
X-1349720Y-1190820D03*
X-1095720Y-1190820D03*
X-841720Y-1190820D03*
D19*
X+2971540Y-3240160D03*
D70*
X+2971540Y-2986160D03*
X+2971540Y-2732160D03*
X+2971540Y-2478160D03*
X+2971540Y-2224160D03*
X+2971540Y-1970160D03*
X+2971540Y-1716160D03*
X+2971540Y-1462160D03*
X+2971540Y-1208160D03*
X+2209540Y-1208160D03*
X+2209540Y-1462160D03*
X+2209540Y-1716160D03*
X+2209540Y-1970160D03*
X+2209540Y-2224160D03*
X+2209540Y-2478160D03*
X+2209540Y-2732160D03*
X+2209540Y-2986160D03*
X+2209540Y-3240160D03*
D19*
X+1178980Y+1302700D03*
D70*
X+924980Y+1302700D03*
X+670980Y+1302700D03*
X+416980Y+1302700D03*
X+162980Y+1302700D03*
X-91020Y+1302700D03*
X-345020Y+1302700D03*
X-599020Y+1302700D03*
X-599020Y+540700D03*
X-345020Y+540700D03*
X-91020Y+540700D03*
X+162980Y+540700D03*
X+416980Y+540700D03*
X+670980Y+540700D03*
X+924980Y+540700D03*
X+1178980Y+540700D03*
D19*
X-1243020Y+1298700D03*
D70*
X-1497020Y+1298700D03*
X-1751020Y+1298700D03*
X-2005020Y+1298700D03*
X-2259020Y+1298700D03*
X-2513020Y+1298700D03*
X-2767020Y+1298700D03*
X-3021020Y+1298700D03*
X-3021020Y+536700D03*
X-2767020Y+536700D03*
X-2513020Y+536700D03*
X-2259020Y+536700D03*
X-2005020Y+536700D03*
X-1751020Y+536700D03*
X-1497020Y+536700D03*
X-1243020Y+536700D03*
D19*
X+1165280Y-422820D03*
D70*
X+911280Y-422820D03*
X+657280Y-422820D03*
X+403280Y-422820D03*
X+149280Y-422820D03*
X-104720Y-422820D03*
X-358720Y-422820D03*
X-358720Y-1184820D03*
X-104720Y-1184820D03*
X+149280Y-1184820D03*
X+403280Y-1184820D03*
X+657280Y-1184820D03*
X+911280Y-1184820D03*
X+1165280Y-1184820D03*
D71*
X+4411620Y+3996280D03*
X+4411620Y+3736280D03*
X+4411620Y+3476280D03*
X+4411620Y+3226280D03*
X+4408120Y+2932800D03*
X+4408120Y+2672800D03*
X+4408120Y+2412800D03*
X+4408120Y+2162800D03*
D20*
X-4314940Y+3385680D03*
D21*
X-4314940Y+3385680D03*
D22*
X-4664940Y+3385680D03*
D23*
X-3072100Y-3990740D03*
X-2571720Y-3990740D03*
X-2071340Y-3990740D03*
X+794020Y-3991060D03*
X+293640Y-3991060D03*
X-206740Y-3991060D03*
X-2919020Y+4158700D03*
X-2418640Y+4158700D03*
X-1918260Y+4158700D03*
X-1396020Y+4156700D03*
X-895640Y+4156700D03*
X-395260Y+4156700D03*
X+126980Y+4161700D03*
X+627360Y+4161700D03*
X+1127740Y+4161700D03*
D24*
X+2559560Y+799300D03*
X+2559560Y+291300D03*
D70*
X-3889740Y-1490320D03*
X-3889740Y-1740320D03*
D25*
X-3899740Y-2790320D03*
X-3899740Y-3290320D03*
D70*
X-3211560Y-1490320D03*
X-3211560Y-1740320D03*
D25*
X-3221560Y-2790320D03*
X-3221560Y-3290320D03*
D70*
X-2524480Y-1496040D03*
X-2524480Y-1746040D03*
D25*
X-2534480Y-2796040D03*
X-2534480Y-3296040D03*
D70*
X-1833600Y-1508740D03*
X-1833600Y-1758740D03*
D25*
X-1843600Y-2808740D03*
X-1843600Y-3308740D03*
D23*
X-3575800Y-3990260D03*
X-4076180Y-3990260D03*
D70*
X-1158260Y-1516100D03*
X-1158260Y-1766100D03*
D25*
X-1168260Y-2816100D03*
X-1168260Y-3316100D03*
D70*
X-487700Y-1518640D03*
X-487700Y-1768640D03*
D25*
X-497700Y-2818640D03*
X-497700Y-3318640D03*
D70*
X+193020Y-1526260D03*
X+193020Y-1776260D03*
D25*
X+183020Y-2826260D03*
X+183020Y-3326260D03*
D70*
X+876280Y-1544040D03*
X+876280Y-1794040D03*
D25*
X+866280Y-2844040D03*
X+866280Y-3344040D03*
D23*
X-710480Y-3988500D03*
X-1210860Y-3988500D03*
D26*
X+2409160Y+3418040D03*
D21*
X+2409160Y+3418040D03*
D27*
X+2659160Y+3418040D03*
D28*
X+2616200Y+3972560D03*
X+2870200Y+3972560D03*
X+3124200Y+3972560D03*
D18*
X+1704340Y+2395220D03*
X+1704340Y+3411220D03*
X+3947160Y+3091180D03*
X+2931160Y+3091180D03*
X+1910080Y+2390140D03*
X+1910080Y+3406140D03*
X+1496060Y+2390140D03*
X+1496060Y+3406140D03*
X+1621320Y+499620D03*
X+1621320Y+1515620D03*
X-3794760Y+261620D03*
X-3794760Y+1277620D03*
X-4008120Y+261620D03*
X-4008120Y+1277620D03*
X-3585680Y+271020D03*
X-3585680Y+1287020D03*
D23*
X-3435060Y+4152100D03*
X-3935440Y+4152100D03*
D29*
X-3521240Y+3526280D03*
X-3521240Y+2510280D03*
D18*
X-2318260Y+26200D03*
X-2572260Y+26200D03*
X-3127280Y+21280D03*
X-2873280Y+21280D03*
X-1463580Y+26360D03*
X-1209580Y+26360D03*
X-2012220Y+26360D03*
X-1758220Y+26360D03*
X-922020Y+38100D03*
X-668020Y+38100D03*
X-381000Y+38100D03*
X-127000Y+38100D03*
X+414820Y+34800D03*
X+160820Y+34800D03*
X+955840Y+37340D03*
X+701840Y+37340D03*
X-4414520Y+2547620D03*
X-4668520Y+2547620D03*
X+2670300Y+2716060D03*
X+2416300Y+2716060D03*
X+2719540Y+1230120D03*
X+2465540Y+1230120D03*
X+2487460Y-132840D03*
X+2741460Y-132840D03*
D28*
X+1762760Y+182880D03*
X+1762760Y-71120D03*
X+1334300Y+182120D03*
X+1334300Y-71880D03*
D18*
X+1192980Y+3561700D03*
X+1192980Y+2261700D03*
X+954980Y+2576700D03*
X+954980Y+1560700D03*
D70*
X+1303980Y+1938700D03*
X+1303980Y+1698700D03*
D18*
X+953980Y+2806700D03*
X+953980Y+3566700D03*
X+640980Y+3565700D03*
X+640980Y+2265700D03*
X+358980Y+1566700D03*
X+358980Y+2582700D03*
D70*
X+656980Y+1952700D03*
X+656980Y+1712700D03*
D18*
X+361980Y+2805700D03*
X+361980Y+3565700D03*
X+37980Y+3561700D03*
X+37980Y+2261700D03*
X-236020Y+1561700D03*
X-236020Y+2577700D03*
D70*
X+64980Y+1958700D03*
X+64980Y+1718700D03*
D18*
X-238020Y+2801700D03*
X-238020Y+3561700D03*
X-564020Y+3561700D03*
X-564020Y+2261700D03*
X-837020Y+1563700D03*
X-837020Y+2579700D03*
D70*
X-541020Y+1962700D03*
X-541020Y+1722700D03*
D18*
X-841020Y+2792700D03*
X-841020Y+3552700D03*
X-1124020Y+3562700D03*
X-1124020Y+2262700D03*
X-1433020Y+1563700D03*
X-1433020Y+2579700D03*
D70*
X-1131020Y+1935700D03*
X-1131020Y+1695700D03*
D18*
X-1431020Y+2792700D03*
X-1431020Y+3552700D03*
X-1727020Y+3562700D03*
X-1727020Y+2262700D03*
X-2038020Y+1563700D03*
X-2038020Y+2579700D03*
D70*
X-1741020Y+1957700D03*
X-1741020Y+1717700D03*
D18*
X-2051020Y+2802700D03*
X-2051020Y+3562700D03*
X-2355020Y+3560700D03*
X-2355020Y+2260700D03*
X-2644020Y+1560700D03*
X-2644020Y+2576700D03*
D70*
X-2341020Y+1938700D03*
X-2341020Y+1698700D03*
D18*
X-2641020Y+2792700D03*
X-2641020Y+3552700D03*
X-2930020Y+3563700D03*
X-2930020Y+2263700D03*
X-3246020Y+1556700D03*
X-3246020Y+2572700D03*
D70*
X-2938020Y+1946700D03*
X-2938020Y+1706700D03*
D18*
X-3241020Y+2792700D03*
X-3241020Y+3552700D03*
X+2262380Y-4737900D03*
X+2262380Y-3721900D03*
D70*
X+3425660Y-2977420D03*
X+3425660Y-3217420D03*
D18*
X+2480820Y-4740440D03*
X+2480820Y-3724440D03*
D70*
X+3799840Y-2724180D03*
X+3799840Y-2964180D03*
D18*
X+2694180Y-4748060D03*
X+2694180Y-3732060D03*
D70*
X+3411220Y-2368580D03*
X+3411220Y-2608580D03*
D18*
X+2899920Y-4742980D03*
X+2899920Y-3726980D03*
D70*
X+3829520Y-2177320D03*
X+3829520Y-2417320D03*
D18*
X+3103120Y-4750600D03*
X+3103120Y-3734600D03*
D70*
X+3378200Y-1836420D03*
X+3378200Y-2076420D03*
D18*
X+3307880Y-4753100D03*
X+3307880Y-3737100D03*
D70*
X+3824440Y-1656620D03*
X+3824440Y-1896620D03*
D18*
X+3512820Y-4752340D03*
X+3512820Y-3736340D03*
D70*
X+3385060Y-1340680D03*
X+3385060Y-1580680D03*
D18*
X+3720800Y-4755500D03*
X+3720800Y-3739500D03*
D70*
X+3836280Y-1160980D03*
X+3836280Y-1400980D03*
D18*
X-3845560Y+3512820D03*
X-3845560Y+2496820D03*
D70*
X-4544060Y+4023360D03*
X-4784060Y+4023360D03*
D18*
X-4216400Y+264160D03*
X-4216400Y+1280160D03*
X-3372360Y+264960D03*
X-3372360Y+1280960D03*
D72*
X+3568700Y+4871720D03*
X+2178700Y+4871720D03*
D73*
X-5000000Y-5000000D02*
X+5000000Y-5000000D01*
X+5000000Y+5000000D01*
X-5000000Y+5000000D01*
X-5000000Y-5000000D01*
X-4587400Y-2331860D02*
X+1503520Y-2331860D01*
X+1503520Y-2105800D01*
X-4587400Y-2105800D01*
X-4587400Y-2331860D01*
M02*
