G04 PROTEUS RS274X GERBER FILE*
%FSLAX45Y45*%
%MOMM*%
G01*
%ADD43C,0.203200*%
%ADD100C,0.127000*%
%ADD48C,0.063500*%
D43*
X-571500Y+1905000D02*
X-571500Y+1778000D01*
X-635000Y+1841500D02*
X-508000Y+1841500D01*
X-616401Y+1886401D02*
X-526599Y+1796599D01*
X-616401Y+1796599D02*
X-526599Y+1886401D01*
X-3746500Y+1778000D02*
X-3746500Y+1651000D01*
X-3810000Y+1714500D02*
X-3683000Y+1714500D01*
X-3791401Y+1759401D02*
X-3701599Y+1669599D01*
X-3791401Y+1669599D02*
X-3701599Y+1759401D01*
X-3492500Y-1143000D02*
X-3492500Y-1270000D01*
X-3556000Y-1206500D02*
X-3429000Y-1206500D01*
X-3537401Y-1161599D02*
X-3447599Y-1251401D01*
X-3537401Y-1251401D02*
X-3447599Y-1161599D01*
X-3746500Y+317500D02*
X-3746500Y+190500D01*
X-3810000Y+254000D02*
X-3683000Y+254000D01*
X-3791401Y+298901D02*
X-3701599Y+209099D01*
X-3791401Y+209099D02*
X-3701599Y+298901D01*
X-3746500Y+889000D02*
X-3746500Y+762000D01*
X-3810000Y+825500D02*
X-3683000Y+825500D01*
X-3791401Y+870401D02*
X-3701599Y+780599D01*
X-3791401Y+780599D02*
X-3701599Y+870401D01*
X-3746500Y+1397000D02*
X-3746500Y+1270000D01*
X-3810000Y+1333500D02*
X-3683000Y+1333500D01*
X-3791401Y+1378401D02*
X-3701599Y+1288599D01*
X-3791401Y+1288599D02*
X-3701599Y+1378401D01*
X-3492500Y-190500D02*
X-3492500Y-317500D01*
X-3556000Y-254000D02*
X-3429000Y-254000D01*
X-3537401Y-209099D02*
X-3447599Y-298901D01*
X-3537401Y-298901D02*
X-3447599Y-209099D01*
X-3492500Y-1651000D02*
X-3492500Y-1778000D01*
X-3556000Y-1714500D02*
X-3429000Y-1714500D01*
X-3537401Y-1669599D02*
X-3447599Y-1759401D01*
X-3537401Y-1759401D02*
X-3447599Y-1669599D01*
X-1460500Y-571500D02*
X-1460500Y-698500D01*
X-1524000Y-635000D02*
X-1397000Y-635000D01*
X-1505401Y-590099D02*
X-1415599Y-679901D01*
X-1505401Y-679901D02*
X-1415599Y-590099D01*
X-698500Y-762000D02*
X-698500Y-889000D01*
X-762000Y-825500D02*
X-635000Y-825500D01*
X-743401Y-780599D02*
X-653599Y-870401D01*
X-743401Y-870401D02*
X-653599Y-780599D01*
X-381000Y-1651000D02*
X-381000Y-1778000D01*
X-444500Y-1714500D02*
X-317500Y-1714500D01*
X-425901Y-1669599D02*
X-336099Y-1759401D01*
X-425901Y-1759401D02*
X-336099Y-1669599D01*
X-952500Y-1651000D02*
X-952500Y-1778000D01*
X-1016000Y-1714500D02*
X-889000Y-1714500D01*
X-997401Y-1669599D02*
X-907599Y-1759401D01*
X-997401Y-1759401D02*
X-907599Y-1669599D01*
X-190500Y+0D02*
X-190500Y-127000D01*
X-254000Y-63500D02*
X-127000Y-63500D01*
X-235401Y-18599D02*
X-145599Y-108401D01*
X-235401Y-108401D02*
X-145599Y-18599D01*
X-571500Y-1524000D02*
X-571500Y-1651000D01*
X-635000Y-1587500D02*
X-508000Y-1587500D01*
X-616401Y-1542599D02*
X-526599Y-1632401D01*
X-616401Y-1632401D02*
X-526599Y-1542599D01*
X-2222500Y-2413000D02*
X-2222500Y-2540000D01*
X-2286000Y-2476500D02*
X-2159000Y-2476500D01*
X-2267401Y-2431599D02*
X-2177599Y-2521401D01*
X-2267401Y-2521401D02*
X-2177599Y-2431599D01*
X-2222500Y+952500D02*
X-2222500Y+825500D01*
X-2286000Y+889000D02*
X-2159000Y+889000D01*
X-2267401Y+933901D02*
X-2177599Y+844099D01*
X-2267401Y+844099D02*
X-2177599Y+933901D01*
X-1460500Y+1460500D02*
X-1460500Y+1333500D01*
X-1524000Y+1397000D02*
X-1397000Y+1397000D01*
X-1505401Y+1441901D02*
X-1415599Y+1352099D01*
X-1505401Y+1352099D02*
X-1415599Y+1441901D01*
X-825500Y+190500D02*
X-825500Y+63500D01*
X-889000Y+127000D02*
X-762000Y+127000D01*
X-870401Y+171901D02*
X-780599Y+82099D01*
X-870401Y+82099D02*
X-780599Y+171901D01*
X-825500Y-63500D02*
X-825500Y-190500D01*
X-889000Y-127000D02*
X-762000Y-127000D01*
X-870401Y-82099D02*
X-780599Y-171901D01*
X-870401Y-171901D02*
X-780599Y-82099D01*
X-1651000Y+2032000D02*
X-1651000Y+1905000D01*
X-1714500Y+1968500D02*
X-1587500Y+1968500D01*
X-1695901Y+2013401D02*
X-1606099Y+1923599D01*
X-1695901Y+1923599D02*
X-1606099Y+2013401D01*
X-1333500Y+1905000D02*
X-1333500Y+1778000D01*
X-1397000Y+1841500D02*
X-1270000Y+1841500D01*
X-1378401Y+1886401D02*
X-1288599Y+1796599D01*
X-1378401Y+1796599D02*
X-1288599Y+1886401D01*
X-698500Y+317500D02*
X-698500Y+190500D01*
X-762000Y+254000D02*
X-635000Y+254000D01*
X-743401Y+298901D02*
X-653599Y+209099D01*
X-743401Y+209099D02*
X-653599Y+298901D01*
X-889000Y+1778000D02*
X-889000Y+1651000D01*
X-952500Y+1714500D02*
X-825500Y+1714500D01*
X-933901Y+1759401D02*
X-844099Y+1669599D01*
X-933901Y+1669599D02*
X-844099Y+1759401D01*
X-698500Y+63500D02*
X-698500Y-63500D01*
X-762000Y+0D02*
X-635000Y+0D01*
X-743401Y+44901D02*
X-653599Y-44901D01*
X-743401Y-44901D02*
X-653599Y+44901D01*
X-317500Y+508000D02*
X-317500Y+381000D01*
X-381000Y+444500D02*
X-254000Y+444500D01*
X-362401Y+489401D02*
X-272599Y+399599D01*
X-362401Y+399599D02*
X-272599Y+489401D01*
X-317500Y+825500D02*
X-317500Y+698500D01*
X-381000Y+762000D02*
X-254000Y+762000D01*
X-362401Y+806901D02*
X-272599Y+717099D01*
X-362401Y+717099D02*
X-272599Y+806901D01*
X-698500Y-1206500D02*
X-698500Y-1333500D01*
X-762000Y-1270000D02*
X-635000Y-1270000D01*
X-743401Y-1225099D02*
X-653599Y-1314901D01*
X-743401Y-1314901D02*
X-653599Y-1225099D01*
X-889000Y+1587500D02*
X-889000Y+1460500D01*
X-952500Y+1524000D02*
X-825500Y+1524000D01*
X-933901Y+1568901D02*
X-844099Y+1479099D01*
X-933901Y+1479099D02*
X-844099Y+1568901D01*
X-889000Y+1397000D02*
X-889000Y+1270000D01*
X-952500Y+1333500D02*
X-825500Y+1333500D01*
X-933901Y+1378401D02*
X-844099Y+1288599D01*
X-933901Y+1288599D02*
X-844099Y+1378401D01*
X-698500Y-1079500D02*
X-698500Y-1206500D01*
X-762000Y-1143000D02*
X-635000Y-1143000D01*
X-743401Y-1098099D02*
X-653599Y-1187901D01*
X-743401Y-1187901D02*
X-653599Y-1098099D01*
X-1270000Y-1206500D02*
X-1270000Y-1333500D01*
X-1333500Y-1270000D02*
X-1206500Y-1270000D01*
X-1314901Y-1225099D02*
X-1225099Y-1314901D01*
X-1314901Y-1314901D02*
X-1225099Y-1225099D01*
X-1587500Y-2032000D02*
X-1587500Y-2159000D01*
X-1651000Y-2095500D02*
X-1524000Y-2095500D01*
X-1632401Y-2050599D02*
X-1542599Y-2140401D01*
X-1632401Y-2140401D02*
X-1542599Y-2050599D01*
X+1651000Y+4254500D02*
X+1651000Y+4127500D01*
X+1587500Y+4191000D02*
X+1714500Y+4191000D01*
X+1606099Y+4235901D02*
X+1695901Y+4146099D01*
X+1606099Y+4146099D02*
X+1695901Y+4235901D01*
X-1270000Y+2730500D02*
X-1270000Y+2603500D01*
X-1333500Y+2667000D02*
X-1206500Y+2667000D01*
X-1314901Y+2711901D02*
X-1225099Y+2622099D01*
X-1314901Y+2622099D02*
X-1225099Y+2711901D01*
X+1016000Y+4064000D02*
X+1016000Y+3937000D01*
X+952500Y+4000500D02*
X+1079500Y+4000500D01*
X+971099Y+4045401D02*
X+1060901Y+3955599D01*
X+971099Y+3955599D02*
X+1060901Y+4045401D01*
X-1651000Y-317500D02*
X-1651000Y-444500D01*
X-1714500Y-381000D02*
X-1587500Y-381000D01*
X-1695901Y-336099D02*
X-1606099Y-425901D01*
X-1695901Y-425901D02*
X-1606099Y-336099D01*
X-1270000Y-1397000D02*
X-1270000Y-1524000D01*
X-1333500Y-1460500D02*
X-1206500Y-1460500D01*
X-1314901Y-1415599D02*
X-1225099Y-1505401D01*
X-1314901Y-1505401D02*
X-1225099Y-1415599D01*
X-1968500Y+2984500D02*
X-1968500Y+2857500D01*
X-2032000Y+2921000D02*
X-1905000Y+2921000D01*
X-2013401Y+2965901D02*
X-1923599Y+2876099D01*
X-2013401Y+2876099D02*
X-1923599Y+2965901D01*
X-2413000Y-1841500D02*
X-2413000Y-1968500D01*
X-2476500Y-1905000D02*
X-2349500Y-1905000D01*
X-2457901Y-1860099D02*
X-2368099Y-1949901D01*
X-2457901Y-1949901D02*
X-2368099Y-1860099D01*
X-2413000Y-127000D02*
X-2413000Y-254000D01*
X-2476500Y-190500D02*
X-2349500Y-190500D01*
X-2457901Y-145599D02*
X-2368099Y-235401D01*
X-2457901Y-235401D02*
X-2368099Y-145599D01*
X-2032000Y+1968500D02*
X-2032000Y+1841500D01*
X-2095500Y+1905000D02*
X-1968500Y+1905000D01*
X-2076901Y+1949901D02*
X-1987099Y+1860099D01*
X-2076901Y+1860099D02*
X-1987099Y+1949901D01*
X-1016000Y+2984500D02*
X-1016000Y+2857500D01*
X-1079500Y+2921000D02*
X-952500Y+2921000D01*
X-1060901Y+2965901D02*
X-971099Y+2876099D01*
X-1060901Y+2876099D02*
X-971099Y+2965901D01*
X-1968500Y+2349500D02*
X-1968500Y+2222500D01*
X-2032000Y+2286000D02*
X-1905000Y+2286000D01*
X-2013401Y+2330901D02*
X-1923599Y+2241099D01*
X-2013401Y+2241099D02*
X-1923599Y+2330901D01*
X-825500Y-317500D02*
X-825500Y-444500D01*
X-889000Y-381000D02*
X-762000Y-381000D01*
X-870401Y-336099D02*
X-780599Y-425901D01*
X-870401Y-425901D02*
X-780599Y-336099D01*
X-2413000Y+1397000D02*
X-2413000Y+1270000D01*
X-2476500Y+1333500D02*
X-2349500Y+1333500D01*
X-2457901Y+1378401D02*
X-2368099Y+1288599D01*
X-2457901Y+1288599D02*
X-2368099Y+1378401D01*
X-2413000Y-1206500D02*
X-2413000Y-1333500D01*
X-2476500Y-1270000D02*
X-2349500Y-1270000D01*
X-2457901Y-1225099D02*
X-2368099Y-1314901D01*
X-2457901Y-1314901D02*
X-2368099Y-1225099D01*
X-2413000Y-762000D02*
X-2413000Y-889000D01*
X-2476500Y-825500D02*
X-2349500Y-825500D01*
X-2457901Y-780599D02*
X-2368099Y-870401D01*
X-2457901Y-870401D02*
X-2368099Y-780599D01*
X-2413000Y+825500D02*
X-2413000Y+698500D01*
X-2476500Y+762000D02*
X-2349500Y+762000D01*
X-2457901Y+806901D02*
X-2368099Y+717099D01*
X-2457901Y+717099D02*
X-2368099Y+806901D01*
X-127000Y+3048000D02*
X-127000Y+2921000D01*
X-190500Y+2984500D02*
X-63500Y+2984500D01*
X-171901Y+3029401D02*
X-82099Y+2939599D01*
X-171901Y+2939599D02*
X-82099Y+3029401D01*
X-635000Y+2730500D02*
X-635000Y+2603500D01*
X-698500Y+2667000D02*
X-571500Y+2667000D01*
X-679901Y+2711901D02*
X-590099Y+2622099D01*
X-679901Y+2622099D02*
X-590099Y+2711901D01*
X-1333500Y+3048000D02*
X-1333500Y+2921000D01*
X-1397000Y+2984500D02*
X-1270000Y+2984500D01*
X-1378401Y+3029401D02*
X-1288599Y+2939599D01*
X-1378401Y+2939599D02*
X-1288599Y+3029401D01*
X-635000Y+2603500D02*
X-635000Y+2476500D01*
X-698500Y+2540000D02*
X-571500Y+2540000D01*
X-679901Y+2584901D02*
X-590099Y+2495099D01*
X-679901Y+2495099D02*
X-590099Y+2584901D01*
X+1079500Y+3238500D02*
X+1079500Y+3111500D01*
X+1016000Y+3175000D02*
X+1143000Y+3175000D01*
X+1034599Y+3219901D02*
X+1124401Y+3130099D01*
X+1034599Y+3130099D02*
X+1124401Y+3219901D01*
X+952500Y+2794000D02*
X+952500Y+2667000D01*
X+889000Y+2730500D02*
X+1016000Y+2730500D01*
X+907599Y+2775401D02*
X+997401Y+2685599D01*
X+907599Y+2685599D02*
X+997401Y+2775401D01*
X+381000Y+3302000D02*
X+381000Y+3175000D01*
X+317500Y+3238500D02*
X+444500Y+3238500D01*
X+336099Y+3283401D02*
X+425901Y+3193599D01*
X+336099Y+3193599D02*
X+425901Y+3283401D01*
X+952500Y+2667000D02*
X+952500Y+2540000D01*
X+889000Y+2603500D02*
X+1016000Y+2603500D01*
X+907599Y+2648401D02*
X+997401Y+2558599D01*
X+907599Y+2558599D02*
X+997401Y+2648401D01*
X+190500Y+3111500D02*
X+190500Y+2984500D01*
X+127000Y+3048000D02*
X+254000Y+3048000D01*
X+145599Y+3092901D02*
X+235401Y+3003099D01*
X+145599Y+3003099D02*
X+235401Y+3092901D01*
X+952500Y+3111500D02*
X+952500Y+2984500D01*
X+889000Y+3048000D02*
X+1016000Y+3048000D01*
X+907599Y+3092901D02*
X+997401Y+3003099D01*
X+907599Y+3003099D02*
X+997401Y+3092901D01*
X+508000Y+3429000D02*
X+508000Y+3302000D01*
X+444500Y+3365500D02*
X+571500Y+3365500D01*
X+463099Y+3410401D02*
X+552901Y+3320599D01*
X+463099Y+3320599D02*
X+552901Y+3410401D01*
X+254000Y+3556000D02*
X+254000Y+3429000D01*
X+190500Y+3492500D02*
X+317500Y+3492500D01*
X+209099Y+3537401D02*
X+298901Y+3447599D01*
X+209099Y+3447599D02*
X+298901Y+3537401D01*
X+952500Y+2159000D02*
X+952500Y+2032000D01*
X+889000Y+2095500D02*
X+1016000Y+2095500D01*
X+907599Y+2140401D02*
X+997401Y+2050599D01*
X+907599Y+2050599D02*
X+997401Y+2140401D01*
X-508000Y+3746500D02*
X-508000Y+3619500D01*
X-571500Y+3683000D02*
X-444500Y+3683000D01*
X-552901Y+3727901D02*
X-463099Y+3638099D01*
X-552901Y+3638099D02*
X-463099Y+3727901D01*
X-762000Y+3746500D02*
X-762000Y+3619500D01*
X-825500Y+3683000D02*
X-698500Y+3683000D01*
X-806901Y+3727901D02*
X-717099Y+3638099D01*
X-806901Y+3638099D02*
X-717099Y+3727901D01*
X-127000Y+4953000D02*
X-127000Y+4826000D01*
X-190500Y+4889500D02*
X-63500Y+4889500D01*
X-171901Y+4934401D02*
X-82099Y+4844599D01*
X-171901Y+4844599D02*
X-82099Y+4934401D01*
X-571500Y+4254500D02*
X-571500Y+4127500D01*
X-635000Y+4191000D02*
X-508000Y+4191000D01*
X-616401Y+4235901D02*
X-526599Y+4146099D01*
X-616401Y+4146099D02*
X-526599Y+4235901D01*
X-254000Y+3111500D02*
X-254000Y+2984500D01*
X-317500Y+3048000D02*
X-190500Y+3048000D01*
X-298901Y+3092901D02*
X-209099Y+3003099D01*
X-298901Y+3003099D02*
X-209099Y+3092901D01*
X-508000Y+3873500D02*
X-508000Y+3746500D01*
X-571500Y+3810000D02*
X-444500Y+3810000D01*
X-552901Y+3854901D02*
X-463099Y+3765099D01*
X-552901Y+3765099D02*
X-463099Y+3854901D01*
X+1905000Y+3365500D02*
X+1905000Y+3238500D01*
X+1841500Y+3302000D02*
X+1968500Y+3302000D01*
X+1860099Y+3346901D02*
X+1949901Y+3257099D01*
X+1860099Y+3257099D02*
X+1949901Y+3346901D01*
X-762000Y+2921000D02*
X-762000Y+2794000D01*
X-825500Y+2857500D02*
X-698500Y+2857500D01*
X-806901Y+2902401D02*
X-717099Y+2812599D01*
X-806901Y+2812599D02*
X-717099Y+2902401D01*
X-1778000Y+889000D02*
X-1778000Y+762000D01*
X-1841500Y+825500D02*
X-1714500Y+825500D01*
X-1822901Y+870401D02*
X-1733099Y+780599D01*
X-1822901Y+780599D02*
X-1733099Y+870401D01*
X-698500Y-635000D02*
X-698500Y-762000D01*
X-762000Y-698500D02*
X-635000Y-698500D01*
X-743401Y-653599D02*
X-653599Y-743401D01*
X-743401Y-743401D02*
X-653599Y-653599D01*
X-1079500Y-2159000D02*
X-1079500Y-2286000D01*
X-1143000Y-2222500D02*
X-1016000Y-2222500D01*
X-1124401Y-2177599D02*
X-1034599Y-2267401D01*
X-1124401Y-2267401D02*
X-1034599Y-2177599D01*
X+508000Y+4445000D02*
X+508000Y+4318000D01*
X+444500Y+4381500D02*
X+571500Y+4381500D01*
X+463099Y+4426401D02*
X+552901Y+4336599D01*
X+463099Y+4336599D02*
X+552901Y+4426401D01*
X-1587500Y-635000D02*
X-1587500Y-762000D01*
X-1651000Y-698500D02*
X-1524000Y-698500D01*
X-1632401Y-653599D02*
X-1542599Y-743401D01*
X-1632401Y-743401D02*
X-1542599Y-653599D01*
X-1460500Y-1079500D02*
X-1460500Y-1206500D01*
X-1524000Y-1143000D02*
X-1397000Y-1143000D01*
X-1505401Y-1098099D02*
X-1415599Y-1187901D01*
X-1505401Y-1187901D02*
X-1415599Y-1098099D01*
X-317500Y+317500D02*
X-317500Y+190500D01*
X-381000Y+254000D02*
X-254000Y+254000D01*
X-362401Y+298901D02*
X-272599Y+209099D01*
X-362401Y+209099D02*
X-272599Y+298901D01*
X+370000Y+623500D02*
X+370000Y+496500D01*
X+306500Y+560000D02*
X+433500Y+560000D01*
X+325099Y+604901D02*
X+414901Y+515099D01*
X+325099Y+515099D02*
X+414901Y+604901D01*
X+655517Y-105038D02*
X+655517Y-232038D01*
X+592017Y-168538D02*
X+719017Y-168538D01*
X+610616Y-123637D02*
X+700418Y-213439D01*
X+610616Y-213439D02*
X+700418Y-123637D01*
X+474168Y+660487D02*
X+474168Y+533487D01*
X+410668Y+596987D02*
X+537668Y+596987D01*
X+429267Y+641888D02*
X+519069Y+552086D01*
X+429267Y+552086D02*
X+519069Y+641888D01*
X+449931Y-34460D02*
X+449931Y-161460D01*
X+386431Y-97960D02*
X+513431Y-97960D01*
X+405030Y-53059D02*
X+494832Y-142861D01*
X+405030Y-142861D02*
X+494832Y-53059D01*
X+544842Y-659668D02*
X+544842Y-786668D01*
X+481342Y-723168D02*
X+608342Y-723168D01*
X+499941Y-678267D02*
X+589743Y-768069D01*
X+499941Y-768069D02*
X+589743Y-678267D01*
X+883810Y-659668D02*
X+883810Y-786668D01*
X+820310Y-723168D02*
X+947310Y-723168D01*
X+838909Y-678267D02*
X+928711Y-768069D01*
X+838909Y-768069D02*
X+928711Y-678267D01*
X+565210Y+727008D02*
X+565210Y+600008D01*
X+501710Y+663508D02*
X+628710Y+663508D01*
X+520309Y+708409D02*
X+610111Y+618607D01*
X+520309Y+618607D02*
X+610111Y+708409D01*
X+527073Y+31564D02*
X+527073Y-95436D01*
X+463573Y-31936D02*
X+590573Y-31936D01*
X+482172Y+12965D02*
X+571974Y-76837D01*
X+482172Y-76837D02*
X+571974Y+12965D01*
X+638407Y+817047D02*
X+638407Y+690047D01*
X+574907Y+753547D02*
X+701907Y+753547D01*
X+593506Y+798448D02*
X+683308Y+708646D01*
X+593506Y+708646D02*
X+683308Y+798448D01*
X+586306Y+114254D02*
X+586306Y-12746D01*
X+522806Y+50754D02*
X+649806Y+50754D01*
X+541405Y+95655D02*
X+631207Y+5853D01*
X+541405Y+5853D02*
X+631207Y+95655D01*
X+618446Y-405914D02*
X+618446Y-532914D01*
X+554946Y-469414D02*
X+681946Y-469414D01*
X+573545Y-424513D02*
X+663347Y-514315D01*
X+573545Y-514315D02*
X+663347Y-424513D01*
X+564776Y-2069205D02*
X+564776Y-2196205D01*
X+501276Y-2132705D02*
X+628276Y-2132705D01*
X+519875Y-2087804D02*
X+609677Y-2177606D01*
X+519875Y-2177606D02*
X+609677Y-2087804D01*
X+638888Y+941533D02*
X+638888Y+814533D01*
X+575388Y+878033D02*
X+702388Y+878033D01*
X+593987Y+922934D02*
X+683789Y+833132D01*
X+593987Y+833132D02*
X+683789Y+922934D01*
X+572518Y-2792220D02*
X+572518Y-2919220D01*
X+509018Y-2855720D02*
X+636018Y-2855720D01*
X+527617Y-2810819D02*
X+617419Y-2900621D01*
X+527617Y-2900621D02*
X+617419Y-2810819D01*
X+736506Y+969857D02*
X+736506Y+842857D01*
X+673006Y+906357D02*
X+800006Y+906357D01*
X+691605Y+951258D02*
X+781407Y+861456D01*
X+691605Y+861456D02*
X+781407Y+951258D01*
X+570085Y-3451909D02*
X+570085Y-3578909D01*
X+506585Y-3515409D02*
X+633585Y-3515409D01*
X+525184Y-3470508D02*
X+614986Y-3560310D01*
X+525184Y-3560310D02*
X+614986Y-3470508D01*
X+841984Y+979963D02*
X+841984Y+852963D01*
X+778484Y+916463D02*
X+905484Y+916463D01*
X+797083Y+961364D02*
X+886885Y+871562D01*
X+797083Y+871562D02*
X+886885Y+961364D01*
X+534981Y-3614630D02*
X+534981Y-3741630D01*
X+471481Y-3678130D02*
X+598481Y-3678130D01*
X+490080Y-3633229D02*
X+579882Y-3723031D01*
X+490080Y-3723031D02*
X+579882Y-3633229D01*
X+1007245Y+1089252D02*
X+1007245Y+962252D01*
X+943745Y+1025752D02*
X+1070745Y+1025752D01*
X+962344Y+1070653D02*
X+1052146Y+980851D01*
X+962344Y+980851D02*
X+1052146Y+1070653D01*
X+996335Y+96383D02*
X+996335Y-30617D01*
X+932835Y+32883D02*
X+1059835Y+32883D01*
X+951434Y+77784D02*
X+1041236Y-12018D01*
X+951434Y-12018D02*
X+1041236Y+77784D01*
X+1086093Y+1022044D02*
X+1086093Y+895044D01*
X+1022593Y+958544D02*
X+1149593Y+958544D01*
X+1041192Y+1003445D02*
X+1130994Y+913643D01*
X+1041192Y+913643D02*
X+1130994Y+1003445D01*
X+1098652Y-332426D02*
X+1098652Y-459426D01*
X+1035152Y-395926D02*
X+1162152Y-395926D01*
X+1053751Y-351025D02*
X+1143553Y-440827D01*
X+1053751Y-440827D02*
X+1143553Y-351025D01*
X+1188967Y+973709D02*
X+1188967Y+846709D01*
X+1125467Y+910209D02*
X+1252467Y+910209D01*
X+1144066Y+955110D02*
X+1233868Y+865308D01*
X+1144066Y+865308D02*
X+1233868Y+955110D01*
X+1134885Y-887510D02*
X+1134885Y-1014510D01*
X+1071385Y-951010D02*
X+1198385Y-951010D01*
X+1089984Y-906109D02*
X+1179786Y-995911D01*
X+1089984Y-995911D02*
X+1179786Y-906109D01*
X+1274328Y+904204D02*
X+1274328Y+777204D01*
X+1210828Y+840704D02*
X+1337828Y+840704D01*
X+1229427Y+885605D02*
X+1319229Y+795803D01*
X+1229427Y+795803D02*
X+1319229Y+885605D01*
X+904105Y-1791526D02*
X+904105Y-1918526D01*
X+840605Y-1855026D02*
X+967605Y-1855026D01*
X+859204Y-1810125D02*
X+949006Y-1899927D01*
X+859204Y-1899927D02*
X+949006Y-1810125D01*
X+2095500Y+3810000D02*
X+2095500Y+3683000D01*
X+2032000Y+3746500D02*
X+2159000Y+3746500D01*
X+2050599Y+3791401D02*
X+2140401Y+3701599D01*
X+2050599Y+3701599D02*
X+2140401Y+3791401D01*
X+2105500Y+2115500D02*
X+2105500Y+1988500D01*
X+2042000Y+2052000D02*
X+2169000Y+2052000D01*
X+2060599Y+2096901D02*
X+2150401Y+2007099D01*
X+2060599Y+2007099D02*
X+2150401Y+2096901D01*
X+1359671Y+841612D02*
X+1359671Y+714612D01*
X+1296171Y+778112D02*
X+1423171Y+778112D01*
X+1314770Y+823013D02*
X+1404572Y+733211D01*
X+1314770Y+733211D02*
X+1404572Y+823013D01*
X+869417Y-2466770D02*
X+869417Y-2593770D01*
X+805917Y-2530270D02*
X+932917Y-2530270D01*
X+824516Y-2485369D02*
X+914318Y-2575171D01*
X+824516Y-2575171D02*
X+914318Y-2485369D01*
X+1445885Y+783581D02*
X+1445885Y+656581D01*
X+1382385Y+720081D02*
X+1509385Y+720081D01*
X+1400984Y+764982D02*
X+1490786Y+675180D01*
X+1400984Y+675180D02*
X+1490786Y+764982D01*
X+811026Y-3596124D02*
X+811026Y-3723124D01*
X+747526Y-3659624D02*
X+874526Y-3659624D01*
X+766125Y-3614723D02*
X+855927Y-3704525D01*
X+766125Y-3704525D02*
X+855927Y-3614723D01*
X+1441050Y+664549D02*
X+1441050Y+537549D01*
X+1377550Y+601049D02*
X+1504550Y+601049D01*
X+1396149Y+645950D02*
X+1485951Y+556148D01*
X+1396149Y+556148D02*
X+1485951Y+645950D01*
X+930569Y-3065287D02*
X+930569Y-3192287D01*
X+867069Y-3128787D02*
X+994069Y-3128787D01*
X+885668Y-3083886D02*
X+975470Y-3173688D01*
X+885668Y-3173688D02*
X+975470Y-3083886D01*
X+2821226Y+3371417D02*
X+2821226Y+3244417D01*
X+2757726Y+3307917D02*
X+2884726Y+3307917D01*
X+2776325Y+3352818D02*
X+2866127Y+3263016D01*
X+2776325Y+3263016D02*
X+2866127Y+3352818D01*
X+2819699Y+3229870D02*
X+2819699Y+3102870D01*
X+2756199Y+3166370D02*
X+2883199Y+3166370D01*
X+2774798Y+3211271D02*
X+2864600Y+3121469D01*
X+2774798Y+3121469D02*
X+2864600Y+3211271D01*
X+2842404Y+3107565D02*
X+2842404Y+2980565D01*
X+2778904Y+3044065D02*
X+2905904Y+3044065D01*
X+2797503Y+3088966D02*
X+2887305Y+2999164D01*
X+2797503Y+2999164D02*
X+2887305Y+3088966D01*
X+2874954Y+2956844D02*
X+2874954Y+2829844D01*
X+2811454Y+2893344D02*
X+2938454Y+2893344D01*
X+2830053Y+2938245D02*
X+2919855Y+2848443D01*
X+2830053Y+2848443D02*
X+2919855Y+2938245D01*
X+2803946Y+2859342D02*
X+2803946Y+2732342D01*
X+2740446Y+2795842D02*
X+2867446Y+2795842D01*
X+2759045Y+2840743D02*
X+2848847Y+2750941D01*
X+2759045Y+2750941D02*
X+2848847Y+2840743D01*
X+2902313Y+2139138D02*
X+2902313Y+2012138D01*
X+2838813Y+2075638D02*
X+2965813Y+2075638D01*
X+2857412Y+2120539D02*
X+2947214Y+2030737D01*
X+2857412Y+2030737D02*
X+2947214Y+2120539D01*
X+456766Y+2042675D02*
X+456766Y+1915675D01*
X+393266Y+1979175D02*
X+520266Y+1979175D01*
X+411865Y+2024076D02*
X+501667Y+1934274D01*
X+411865Y+1934274D02*
X+501667Y+2024076D01*
X-1270000Y+3783500D02*
X-1270000Y+3656500D01*
X-1333500Y+3720000D02*
X-1206500Y+3720000D01*
X-1314901Y+3764901D02*
X-1225099Y+3675099D01*
X-1314901Y+3675099D02*
X-1225099Y+3764901D01*
X+190500Y+2794000D02*
X+190500Y+2667000D01*
X+127000Y+2730500D02*
X+254000Y+2730500D01*
X+145599Y+2775401D02*
X+235401Y+2685599D01*
X+145599Y+2685599D02*
X+235401Y+2775401D01*
X+4030000Y-1956740D02*
X+4030000Y-2083740D01*
X+3966500Y-2020240D02*
X+4093500Y-2020240D01*
X+3985099Y-1975339D02*
X+4074901Y-2065141D01*
X+3985099Y-2065141D02*
X+4074901Y-1975339D01*
X+1778000Y+3365500D02*
X+1778000Y+3238500D01*
X+1714500Y+3302000D02*
X+1841500Y+3302000D01*
X+1733099Y+3346901D02*
X+1822901Y+3257099D01*
X+1733099Y+3257099D02*
X+1822901Y+3346901D01*
X+127000Y+1905000D02*
X+127000Y+1778000D01*
X+63500Y+1841500D02*
X+190500Y+1841500D01*
X+82099Y+1886401D02*
X+171901Y+1796599D01*
X+82099Y+1796599D02*
X+171901Y+1886401D01*
X+276499Y+2064007D02*
X+276499Y+1937007D01*
X+212999Y+2000507D02*
X+339999Y+2000507D01*
X+231598Y+2045408D02*
X+321400Y+1955606D01*
X+231598Y+1955606D02*
X+321400Y+2045408D01*
X+952500Y+2286000D02*
X+952500Y+2159000D01*
X+889000Y+2222500D02*
X+1016000Y+2222500D01*
X+907599Y+2267401D02*
X+997401Y+2177599D01*
X+907599Y+2177599D02*
X+997401Y+2267401D01*
X+123884Y+2624242D02*
X+123884Y+2497242D01*
X+60384Y+2560742D02*
X+187384Y+2560742D01*
X+78983Y+2605643D02*
X+168785Y+2515841D01*
X+78983Y+2515841D02*
X+168785Y+2605643D01*
X+57290Y+1437753D02*
X+57290Y+1310753D01*
X-6210Y+1374253D02*
X+120790Y+1374253D01*
X+12389Y+1419154D02*
X+102191Y+1329352D01*
X+12389Y+1329352D02*
X+102191Y+1419154D01*
X+3439Y+2643429D02*
X+3439Y+2516429D01*
X-60061Y+2579929D02*
X+66939Y+2579929D01*
X-41462Y+2624830D02*
X+48340Y+2535028D01*
X-41462Y+2535028D02*
X+48340Y+2624830D01*
X+114134Y+1312099D02*
X+114134Y+1185099D01*
X+50634Y+1248599D02*
X+177634Y+1248599D01*
X+69233Y+1293500D02*
X+159035Y+1203698D01*
X+69233Y+1203698D02*
X+159035Y+1293500D01*
X-33537Y+2759673D02*
X-33537Y+2632673D01*
X-97037Y+2696173D02*
X+29963Y+2696173D01*
X-78438Y+2741074D02*
X+11364Y+2651272D01*
X-78438Y+2651272D02*
X+11364Y+2741074D01*
X+117377Y+1187235D02*
X+117377Y+1060235D01*
X+53877Y+1123735D02*
X+180877Y+1123735D01*
X+72476Y+1168636D02*
X+162278Y+1078834D01*
X+72476Y+1078834D02*
X+162278Y+1168636D01*
X-151661Y+2778659D02*
X-151661Y+2651659D01*
X-215161Y+2715159D02*
X-88161Y+2715159D01*
X-196562Y+2760060D02*
X-106760Y+2670258D01*
X-196562Y+2670258D02*
X-106760Y+2760060D01*
X+113012Y+1059794D02*
X+113012Y+932794D01*
X+49512Y+996294D02*
X+176512Y+996294D01*
X+68111Y+1041195D02*
X+157913Y+951393D01*
X+68111Y+951393D02*
X+157913Y+1041195D01*
X-249339Y+2684473D02*
X-249339Y+2557473D01*
X-312839Y+2620973D02*
X-185839Y+2620973D01*
X-294240Y+2665874D02*
X-204438Y+2576072D01*
X-294240Y+2576072D02*
X-204438Y+2665874D01*
X-358424Y+1248036D02*
X-358424Y+1121036D01*
X-421924Y+1184536D02*
X-294924Y+1184536D01*
X-403325Y+1229437D02*
X-313523Y+1139635D01*
X-403325Y+1139635D02*
X-313523Y+1229437D01*
X-747954Y+2517738D02*
X-747954Y+2390738D01*
X-811454Y+2454238D02*
X-684454Y+2454238D01*
X-792855Y+2499139D02*
X-703053Y+2409337D01*
X-792855Y+2409337D02*
X-703053Y+2499139D01*
X-776473Y+1891815D02*
X-776473Y+1764815D01*
X-839973Y+1828315D02*
X-712973Y+1828315D01*
X-821374Y+1873216D02*
X-731572Y+1783414D01*
X-821374Y+1783414D02*
X-731572Y+1873216D01*
X-1187535Y+2321283D02*
X-1187535Y+2194283D01*
X-1251035Y+2257783D02*
X-1124035Y+2257783D01*
X-1232436Y+2302684D02*
X-1142634Y+2212882D01*
X-1232436Y+2212882D02*
X-1142634Y+2302684D01*
X-1651000Y+127000D02*
X-1651000Y+0D01*
X-1714500Y+63500D02*
X-1587500Y+63500D01*
X-1695901Y+108401D02*
X-1606099Y+18599D01*
X-1695901Y+18599D02*
X-1606099Y+108401D01*
X-698500Y-889000D02*
X-698500Y-1016000D01*
X-762000Y-952500D02*
X-635000Y-952500D01*
X-743401Y-907599D02*
X-653599Y-997401D01*
X-743401Y-997401D02*
X-653599Y-907599D01*
X-712013Y-159067D02*
X-712013Y-286067D01*
X-775513Y-222567D02*
X-648513Y-222567D01*
X-756914Y-177666D02*
X-667112Y-267468D01*
X-756914Y-267468D02*
X-667112Y-177666D01*
X-700984Y+190586D02*
X-700984Y+63586D01*
X-764484Y+127086D02*
X-637484Y+127086D01*
X-745885Y+171987D02*
X-656083Y+82185D01*
X-745885Y+82185D02*
X-656083Y+171987D01*
X-622829Y+3190017D02*
X-622829Y+3063017D01*
X-686329Y+3126517D02*
X-559329Y+3126517D01*
X-667730Y+3171418D02*
X-577928Y+3081616D01*
X-667730Y+3081616D02*
X-577928Y+3171418D01*
X-280000Y+213500D02*
X-280000Y+86500D01*
X-343500Y+150000D02*
X-216500Y+150000D01*
X-324901Y+194901D02*
X-235099Y+105099D01*
X-324901Y+105099D02*
X-235099Y+194901D01*
X-238445Y-219989D02*
X-238445Y-346989D01*
X-301945Y-283489D02*
X-174945Y-283489D01*
X-283346Y-238588D02*
X-193544Y-328390D01*
X-283346Y-328390D02*
X-193544Y-238588D01*
X-1079500Y-1714500D02*
X-1079500Y-1841500D01*
X-1143000Y-1778000D02*
X-1016000Y-1778000D01*
X-1124401Y-1733099D02*
X-1034599Y-1822901D01*
X-1124401Y-1822901D02*
X-1034599Y-1733099D01*
X-1446296Y-2093085D02*
X-1446296Y-2220085D01*
X-1509796Y-2156585D02*
X-1382796Y-2156585D01*
X-1491197Y-2111684D02*
X-1401395Y-2201486D01*
X-1491197Y-2201486D02*
X-1401395Y-2111684D01*
X-1461945Y+2437907D02*
X-1461945Y+2310907D01*
X-1525445Y+2374407D02*
X-1398445Y+2374407D01*
X-1506846Y+2419308D02*
X-1417044Y+2329506D01*
X-1506846Y+2329506D02*
X-1417044Y+2419308D01*
X-1472987Y+1915154D02*
X-1472987Y+1788154D01*
X-1536487Y+1851654D02*
X-1409487Y+1851654D01*
X-1517888Y+1896555D02*
X-1428086Y+1806753D01*
X-1517888Y+1806753D02*
X-1428086Y+1896555D01*
X+90500Y-256500D02*
X+90500Y-383500D01*
X+27000Y-320000D02*
X+154000Y-320000D01*
X+45599Y-275099D02*
X+135401Y-364901D01*
X+45599Y-364901D02*
X+135401Y-275099D01*
X-2095500Y-2476500D02*
X-2095500Y-2603500D01*
X-2159000Y-2540000D02*
X-2032000Y-2540000D01*
X-2140401Y-2495099D02*
X-2050599Y-2584901D01*
X-2140401Y-2584901D02*
X-2050599Y-2495099D01*
X-1841500Y+3111500D02*
X-1841500Y+2984500D01*
X-1905000Y+3048000D02*
X-1778000Y+3048000D01*
X-1886401Y+3092901D02*
X-1796599Y+3003099D01*
X-1886401Y+3003099D02*
X-1796599Y+3092901D01*
X-522521Y+2383714D02*
X-522521Y+2256714D01*
X-586021Y+2320214D02*
X-459021Y+2320214D01*
X-567422Y+2365115D02*
X-477620Y+2275313D01*
X-567422Y+2275313D02*
X-477620Y+2365115D01*
X-1441114Y+3098202D02*
X-1441114Y+2971202D01*
X-1504614Y+3034702D02*
X-1377614Y+3034702D01*
X-1486015Y+3079603D02*
X-1396213Y+2989801D01*
X-1486015Y+2989801D02*
X-1396213Y+3079603D01*
X-1308462Y+3471962D02*
X-1308462Y+3344962D01*
X-1371962Y+3408462D02*
X-1244962Y+3408462D01*
X-1353363Y+3453363D02*
X-1263561Y+3363561D01*
X-1353363Y+3363561D02*
X-1263561Y+3453363D01*
X+845423Y+3333296D02*
X+845423Y+3206296D01*
X+781923Y+3269796D02*
X+908923Y+3269796D01*
X+800522Y+3314697D02*
X+890324Y+3224895D01*
X+800522Y+3224895D02*
X+890324Y+3314697D01*
X+1336986Y+3497658D02*
X+1336986Y+3370658D01*
X+1273486Y+3434158D02*
X+1400486Y+3434158D01*
X+1292085Y+3479059D02*
X+1381887Y+3389257D01*
X+1292085Y+3389257D02*
X+1381887Y+3479059D01*
X+1209379Y+3771462D02*
X+1209379Y+3644462D01*
X+1145879Y+3707962D02*
X+1272879Y+3707962D01*
X+1164478Y+3752863D02*
X+1254280Y+3663061D01*
X+1164478Y+3663061D02*
X+1254280Y+3752863D01*
X+116500Y+4268000D02*
X+116283Y+4273247D01*
X+114518Y+4283742D01*
X+110826Y+4294237D01*
X+104798Y+4304732D01*
X+95576Y+4315112D01*
X+85081Y+4322800D01*
X+74586Y+4327718D01*
X+64091Y+4330524D01*
X+53596Y+4331497D01*
X+53000Y+4331500D01*
X-10500Y+4268000D02*
X-10283Y+4273247D01*
X-8518Y+4283742D01*
X-4826Y+4294237D01*
X+1202Y+4304732D01*
X+10424Y+4315112D01*
X+20919Y+4322800D01*
X+31414Y+4327718D01*
X+41909Y+4330524D01*
X+52404Y+4331497D01*
X+53000Y+4331500D01*
X-10500Y+4268000D02*
X-10283Y+4262753D01*
X-8518Y+4252258D01*
X-4826Y+4241763D01*
X+1202Y+4231268D01*
X+10424Y+4220888D01*
X+20919Y+4213200D01*
X+31414Y+4208282D01*
X+41909Y+4205476D01*
X+52404Y+4204503D01*
X+53000Y+4204500D01*
X+116500Y+4268000D02*
X+116283Y+4262753D01*
X+114518Y+4252258D01*
X+110826Y+4241763D01*
X+104798Y+4231268D01*
X+95576Y+4220888D01*
X+85081Y+4213200D01*
X+74586Y+4208282D01*
X+64091Y+4205476D01*
X+53596Y+4204503D01*
X+53000Y+4204500D01*
X+53000Y+4331500D02*
X+53000Y+4204500D01*
X-10500Y+4268000D02*
X+116500Y+4268000D01*
X+116283Y+4273247D01*
X+114518Y+4283742D01*
X+110826Y+4294237D01*
X+104798Y+4304732D01*
X+95576Y+4315112D01*
X+85081Y+4322800D01*
X+74586Y+4327718D01*
X+64091Y+4330524D01*
X+53596Y+4331497D01*
X+53000Y+4331500D01*
X-10500Y+4268000D02*
X-10283Y+4273247D01*
X-8518Y+4283742D01*
X-4826Y+4294237D01*
X+1202Y+4304732D01*
X+10424Y+4315112D01*
X+20919Y+4322800D01*
X+31414Y+4327718D01*
X+41909Y+4330524D01*
X+52404Y+4331497D01*
X+53000Y+4331500D01*
X-10500Y+4268000D02*
X-10283Y+4262753D01*
X-8518Y+4252258D01*
X-4826Y+4241763D01*
X+1202Y+4231268D01*
X+10424Y+4220888D01*
X+20919Y+4213200D01*
X+31414Y+4208282D01*
X+41909Y+4205476D01*
X+52404Y+4204503D01*
X+53000Y+4204500D01*
X+116500Y+4268000D02*
X+116283Y+4262753D01*
X+114518Y+4252258D01*
X+110826Y+4241763D01*
X+104798Y+4231268D01*
X+95576Y+4220888D01*
X+85081Y+4213200D01*
X+74586Y+4208282D01*
X+64091Y+4205476D01*
X+53596Y+4204503D01*
X+53000Y+4204500D01*
X+8099Y+4312901D02*
X+97901Y+4223099D01*
X+8099Y+4223099D02*
X+97901Y+4312901D01*
X+365420Y+4268000D02*
X+365203Y+4273247D01*
X+363438Y+4283742D01*
X+359746Y+4294237D01*
X+353718Y+4304732D01*
X+344496Y+4315112D01*
X+334001Y+4322800D01*
X+323506Y+4327718D01*
X+313011Y+4330524D01*
X+302516Y+4331497D01*
X+301920Y+4331500D01*
X+238420Y+4268000D02*
X+238637Y+4273247D01*
X+240402Y+4283742D01*
X+244094Y+4294237D01*
X+250122Y+4304732D01*
X+259344Y+4315112D01*
X+269839Y+4322800D01*
X+280334Y+4327718D01*
X+290829Y+4330524D01*
X+301324Y+4331497D01*
X+301920Y+4331500D01*
X+238420Y+4268000D02*
X+238637Y+4262753D01*
X+240402Y+4252258D01*
X+244094Y+4241763D01*
X+250122Y+4231268D01*
X+259344Y+4220888D01*
X+269839Y+4213200D01*
X+280334Y+4208282D01*
X+290829Y+4205476D01*
X+301324Y+4204503D01*
X+301920Y+4204500D01*
X+365420Y+4268000D02*
X+365203Y+4262753D01*
X+363438Y+4252258D01*
X+359746Y+4241763D01*
X+353718Y+4231268D01*
X+344496Y+4220888D01*
X+334001Y+4213200D01*
X+323506Y+4208282D01*
X+313011Y+4205476D01*
X+302516Y+4204503D01*
X+301920Y+4204500D01*
X+301920Y+4331500D02*
X+301920Y+4204500D01*
X+238420Y+4268000D02*
X+365420Y+4268000D01*
X+365203Y+4273247D01*
X+363438Y+4283742D01*
X+359746Y+4294237D01*
X+353718Y+4304732D01*
X+344496Y+4315112D01*
X+334001Y+4322800D01*
X+323506Y+4327718D01*
X+313011Y+4330524D01*
X+302516Y+4331497D01*
X+301920Y+4331500D01*
X+238420Y+4268000D02*
X+238637Y+4273247D01*
X+240402Y+4283742D01*
X+244094Y+4294237D01*
X+250122Y+4304732D01*
X+259344Y+4315112D01*
X+269839Y+4322800D01*
X+280334Y+4327718D01*
X+290829Y+4330524D01*
X+301324Y+4331497D01*
X+301920Y+4331500D01*
X+238420Y+4268000D02*
X+238637Y+4262753D01*
X+240402Y+4252258D01*
X+244094Y+4241763D01*
X+250122Y+4231268D01*
X+259344Y+4220888D01*
X+269839Y+4213200D01*
X+280334Y+4208282D01*
X+290829Y+4205476D01*
X+301324Y+4204503D01*
X+301920Y+4204500D01*
X+365420Y+4268000D02*
X+365203Y+4262753D01*
X+363438Y+4252258D01*
X+359746Y+4241763D01*
X+353718Y+4231268D01*
X+344496Y+4220888D01*
X+334001Y+4213200D01*
X+323506Y+4208282D01*
X+313011Y+4205476D01*
X+302516Y+4204503D01*
X+301920Y+4204500D01*
X+257019Y+4312901D02*
X+346821Y+4223099D01*
X+257019Y+4223099D02*
X+346821Y+4312901D01*
X+365420Y+4479780D02*
X+365203Y+4485027D01*
X+363438Y+4495522D01*
X+359746Y+4506017D01*
X+353718Y+4516512D01*
X+344496Y+4526892D01*
X+334001Y+4534580D01*
X+323506Y+4539498D01*
X+313011Y+4542304D01*
X+302516Y+4543277D01*
X+301920Y+4543280D01*
X+238420Y+4479780D02*
X+238637Y+4485027D01*
X+240402Y+4495522D01*
X+244094Y+4506017D01*
X+250122Y+4516512D01*
X+259344Y+4526892D01*
X+269839Y+4534580D01*
X+280334Y+4539498D01*
X+290829Y+4542304D01*
X+301324Y+4543277D01*
X+301920Y+4543280D01*
X+238420Y+4479780D02*
X+238637Y+4474533D01*
X+240402Y+4464038D01*
X+244094Y+4453543D01*
X+250122Y+4443048D01*
X+259344Y+4432668D01*
X+269839Y+4424980D01*
X+280334Y+4420062D01*
X+290829Y+4417256D01*
X+301324Y+4416283D01*
X+301920Y+4416280D01*
X+365420Y+4479780D02*
X+365203Y+4474533D01*
X+363438Y+4464038D01*
X+359746Y+4453543D01*
X+353718Y+4443048D01*
X+344496Y+4432668D01*
X+334001Y+4424980D01*
X+323506Y+4420062D01*
X+313011Y+4417256D01*
X+302516Y+4416283D01*
X+301920Y+4416280D01*
X+301920Y+4543280D02*
X+301920Y+4416280D01*
X+238420Y+4479780D02*
X+365420Y+4479780D01*
X+365203Y+4485027D01*
X+363438Y+4495522D01*
X+359746Y+4506017D01*
X+353718Y+4516512D01*
X+344496Y+4526892D01*
X+334001Y+4534580D01*
X+323506Y+4539498D01*
X+313011Y+4542304D01*
X+302516Y+4543277D01*
X+301920Y+4543280D01*
X+238420Y+4479780D02*
X+238637Y+4485027D01*
X+240402Y+4495522D01*
X+244094Y+4506017D01*
X+250122Y+4516512D01*
X+259344Y+4526892D01*
X+269839Y+4534580D01*
X+280334Y+4539498D01*
X+290829Y+4542304D01*
X+301324Y+4543277D01*
X+301920Y+4543280D01*
X+238420Y+4479780D02*
X+238637Y+4474533D01*
X+240402Y+4464038D01*
X+244094Y+4453543D01*
X+250122Y+4443048D01*
X+259344Y+4432668D01*
X+269839Y+4424980D01*
X+280334Y+4420062D01*
X+290829Y+4417256D01*
X+301324Y+4416283D01*
X+301920Y+4416280D01*
X+365420Y+4479780D02*
X+365203Y+4474533D01*
X+363438Y+4464038D01*
X+359746Y+4453543D01*
X+353718Y+4443048D01*
X+344496Y+4432668D01*
X+334001Y+4424980D01*
X+323506Y+4420062D01*
X+313011Y+4417256D01*
X+302516Y+4416283D01*
X+301920Y+4416280D01*
X+257019Y+4524681D02*
X+346821Y+4434879D01*
X+257019Y+4434879D02*
X+346821Y+4524681D01*
X+116500Y+4479780D02*
X+116283Y+4485027D01*
X+114518Y+4495522D01*
X+110826Y+4506017D01*
X+104798Y+4516512D01*
X+95576Y+4526892D01*
X+85081Y+4534580D01*
X+74586Y+4539498D01*
X+64091Y+4542304D01*
X+53596Y+4543277D01*
X+53000Y+4543280D01*
X-10500Y+4479780D02*
X-10283Y+4485027D01*
X-8518Y+4495522D01*
X-4826Y+4506017D01*
X+1202Y+4516512D01*
X+10424Y+4526892D01*
X+20919Y+4534580D01*
X+31414Y+4539498D01*
X+41909Y+4542304D01*
X+52404Y+4543277D01*
X+53000Y+4543280D01*
X-10500Y+4479780D02*
X-10283Y+4474533D01*
X-8518Y+4464038D01*
X-4826Y+4453543D01*
X+1202Y+4443048D01*
X+10424Y+4432668D01*
X+20919Y+4424980D01*
X+31414Y+4420062D01*
X+41909Y+4417256D01*
X+52404Y+4416283D01*
X+53000Y+4416280D01*
X+116500Y+4479780D02*
X+116283Y+4474533D01*
X+114518Y+4464038D01*
X+110826Y+4453543D01*
X+104798Y+4443048D01*
X+95576Y+4432668D01*
X+85081Y+4424980D01*
X+74586Y+4420062D01*
X+64091Y+4417256D01*
X+53596Y+4416283D01*
X+53000Y+4416280D01*
X+53000Y+4543280D02*
X+53000Y+4416280D01*
X-10500Y+4479780D02*
X+116500Y+4479780D01*
X+116283Y+4485027D01*
X+114518Y+4495522D01*
X+110826Y+4506017D01*
X+104798Y+4516512D01*
X+95576Y+4526892D01*
X+85081Y+4534580D01*
X+74586Y+4539498D01*
X+64091Y+4542304D01*
X+53596Y+4543277D01*
X+53000Y+4543280D01*
X-10500Y+4479780D02*
X-10283Y+4485027D01*
X-8518Y+4495522D01*
X-4826Y+4506017D01*
X+1202Y+4516512D01*
X+10424Y+4526892D01*
X+20919Y+4534580D01*
X+31414Y+4539498D01*
X+41909Y+4542304D01*
X+52404Y+4543277D01*
X+53000Y+4543280D01*
X-10500Y+4479780D02*
X-10283Y+4474533D01*
X-8518Y+4464038D01*
X-4826Y+4453543D01*
X+1202Y+4443048D01*
X+10424Y+4432668D01*
X+20919Y+4424980D01*
X+31414Y+4420062D01*
X+41909Y+4417256D01*
X+52404Y+4416283D01*
X+53000Y+4416280D01*
X+116500Y+4479780D02*
X+116283Y+4474533D01*
X+114518Y+4464038D01*
X+110826Y+4453543D01*
X+104798Y+4443048D01*
X+95576Y+4432668D01*
X+85081Y+4424980D01*
X+74586Y+4420062D01*
X+64091Y+4417256D01*
X+53596Y+4416283D01*
X+53000Y+4416280D01*
X+8099Y+4524681D02*
X+97901Y+4434879D01*
X+8099Y+4434879D02*
X+97901Y+4524681D01*
X-471901Y+4694681D02*
X-382099Y+4604879D01*
X-471901Y+4604879D02*
X-382099Y+4694681D01*
X-427000Y+4559977D02*
X-337197Y+4649780D01*
X-427000Y+4739582D01*
X-516803Y+4649780D01*
X-427000Y+4559977D01*
X+728099Y+4694681D02*
X+817901Y+4604879D01*
X+728099Y+4604879D02*
X+817901Y+4694681D01*
X+773000Y+4559977D02*
X+862803Y+4649780D01*
X+773000Y+4739582D01*
X+683197Y+4649780D01*
X+773000Y+4559977D01*
X-4179620Y+2432500D02*
X-4179620Y+2305500D01*
X-4243120Y+2369000D02*
X-4116120Y+2369000D01*
X-4243120Y+2305500D02*
X-4116120Y+2305500D01*
X-4116120Y+2432500D01*
X-4243120Y+2432500D01*
X-4243120Y+2305500D01*
X-4243120Y+2432500D02*
X-4116120Y+2305500D01*
X-4243120Y+2305500D02*
X-4116120Y+2432500D01*
X-4179620Y+1932120D02*
X-4179620Y+1805120D01*
X-4243120Y+1868620D02*
X-4116120Y+1868620D01*
X-4243120Y+1805120D02*
X-4116120Y+1805120D01*
X-4116120Y+1932120D01*
X-4243120Y+1932120D01*
X-4243120Y+1805120D01*
X-4243120Y+1932120D02*
X-4116120Y+1805120D01*
X-4243120Y+1805120D02*
X-4116120Y+1932120D01*
X-4179620Y+1431740D02*
X-4179620Y+1304740D01*
X-4243120Y+1368240D02*
X-4116120Y+1368240D01*
X-4243120Y+1304740D02*
X-4116120Y+1304740D01*
X-4116120Y+1431740D01*
X-4243120Y+1431740D01*
X-4243120Y+1304740D01*
X-4243120Y+1431740D02*
X-4116120Y+1304740D01*
X-4243120Y+1304740D02*
X-4116120Y+1431740D01*
X-4176620Y+909500D02*
X-4176620Y+782500D01*
X-4240120Y+846000D02*
X-4113120Y+846000D01*
X-4240120Y+782500D02*
X-4113120Y+782500D01*
X-4113120Y+909500D01*
X-4240120Y+909500D01*
X-4240120Y+782500D01*
X-4240120Y+909500D02*
X-4113120Y+782500D01*
X-4240120Y+782500D02*
X-4113120Y+909500D01*
X-4176620Y+409120D02*
X-4176620Y+282120D01*
X-4240120Y+345620D02*
X-4113120Y+345620D01*
X-4240120Y+282120D02*
X-4113120Y+282120D01*
X-4113120Y+409120D01*
X-4240120Y+409120D01*
X-4240120Y+282120D01*
X-4240120Y+409120D02*
X-4113120Y+282120D01*
X-4240120Y+282120D02*
X-4113120Y+409120D01*
X-4176620Y-91260D02*
X-4176620Y-218260D01*
X-4240120Y-154760D02*
X-4113120Y-154760D01*
X-4240120Y-218260D02*
X-4113120Y-218260D01*
X-4113120Y-91260D01*
X-4240120Y-91260D01*
X-4240120Y-218260D01*
X-4240120Y-91260D02*
X-4113120Y-218260D01*
X-4240120Y-218260D02*
X-4113120Y-91260D01*
X-4179620Y-613500D02*
X-4179620Y-740500D01*
X-4243120Y-677000D02*
X-4116120Y-677000D01*
X-4243120Y-740500D02*
X-4116120Y-740500D01*
X-4116120Y-613500D01*
X-4243120Y-613500D01*
X-4243120Y-740500D01*
X-4243120Y-613500D02*
X-4116120Y-740500D01*
X-4243120Y-740500D02*
X-4116120Y-613500D01*
X-4179620Y-1113880D02*
X-4179620Y-1240880D01*
X-4243120Y-1177380D02*
X-4116120Y-1177380D01*
X-4243120Y-1240880D02*
X-4116120Y-1240880D01*
X-4116120Y-1113880D01*
X-4243120Y-1113880D01*
X-4243120Y-1240880D01*
X-4243120Y-1113880D02*
X-4116120Y-1240880D01*
X-4243120Y-1240880D02*
X-4116120Y-1113880D01*
X-4179620Y-1614260D02*
X-4179620Y-1741260D01*
X-4243120Y-1677760D02*
X-4116120Y-1677760D01*
X-4243120Y-1741260D02*
X-4116120Y-1741260D01*
X-4116120Y-1614260D01*
X-4243120Y-1614260D01*
X-4243120Y-1741260D01*
X-4243120Y-1614260D02*
X-4116120Y-1741260D01*
X-4243120Y-1741260D02*
X-4116120Y-1614260D01*
X+4029000Y-2958500D02*
X+4029000Y-3085500D01*
X+3965500Y-3022000D02*
X+4092500Y-3022000D01*
X+3965500Y-3085500D02*
X+4092500Y-3085500D01*
X+4092500Y-2958500D01*
X+3965500Y-2958500D01*
X+3965500Y-3085500D01*
X+3965500Y-2958500D02*
X+4092500Y-3085500D01*
X+3965500Y-3085500D02*
X+4092500Y-2958500D01*
X+4029000Y-2458120D02*
X+4029000Y-2585120D01*
X+3965500Y-2521620D02*
X+4092500Y-2521620D01*
X+3965500Y-2585120D02*
X+4092500Y-2585120D01*
X+4092500Y-2458120D01*
X+3965500Y-2458120D01*
X+3965500Y-2585120D01*
X+3965500Y-2458120D02*
X+4092500Y-2585120D01*
X+3965500Y-2585120D02*
X+4092500Y-2458120D01*
X+4029000Y-1957740D02*
X+4029000Y-2084740D01*
X+3965500Y-2021240D02*
X+4092500Y-2021240D01*
X+3965500Y-2084740D02*
X+4092500Y-2084740D01*
X+4092500Y-1957740D01*
X+3965500Y-1957740D01*
X+3965500Y-2084740D01*
X+3965500Y-1957740D02*
X+4092500Y-2084740D01*
X+3965500Y-2084740D02*
X+4092500Y-1957740D01*
X+4066000Y-191500D02*
X+4066000Y-318500D01*
X+4002500Y-255000D02*
X+4129500Y-255000D01*
X+4002500Y-318500D02*
X+4129500Y-318500D01*
X+4129500Y-191500D01*
X+4002500Y-191500D01*
X+4002500Y-318500D01*
X+4002500Y-191500D02*
X+4129500Y-318500D01*
X+4002500Y-318500D02*
X+4129500Y-191500D01*
X+4066000Y+308880D02*
X+4066000Y+181880D01*
X+4002500Y+245380D02*
X+4129500Y+245380D01*
X+4002500Y+181880D02*
X+4129500Y+181880D01*
X+4129500Y+308880D01*
X+4002500Y+308880D01*
X+4002500Y+181880D01*
X+4002500Y+308880D02*
X+4129500Y+181880D01*
X+4002500Y+181880D02*
X+4129500Y+308880D01*
X+4066000Y+809260D02*
X+4066000Y+682260D01*
X+4002500Y+745760D02*
X+4129500Y+745760D01*
X+4002500Y+682260D02*
X+4129500Y+682260D01*
X+4129500Y+809260D01*
X+4002500Y+809260D01*
X+4002500Y+682260D01*
X+4002500Y+809260D02*
X+4129500Y+682260D01*
X+4002500Y+682260D02*
X+4129500Y+809260D01*
X+1680500Y-3853000D02*
X+1680283Y-3847753D01*
X+1678518Y-3837258D01*
X+1674826Y-3826763D01*
X+1668798Y-3816268D01*
X+1659576Y-3805888D01*
X+1649081Y-3798200D01*
X+1638586Y-3793282D01*
X+1628091Y-3790476D01*
X+1617596Y-3789503D01*
X+1617000Y-3789500D01*
X+1553500Y-3853000D02*
X+1553717Y-3847753D01*
X+1555482Y-3837258D01*
X+1559174Y-3826763D01*
X+1565202Y-3816268D01*
X+1574424Y-3805888D01*
X+1584919Y-3798200D01*
X+1595414Y-3793282D01*
X+1605909Y-3790476D01*
X+1616404Y-3789503D01*
X+1617000Y-3789500D01*
X+1553500Y-3853000D02*
X+1553717Y-3858247D01*
X+1555482Y-3868742D01*
X+1559174Y-3879237D01*
X+1565202Y-3889732D01*
X+1574424Y-3900112D01*
X+1584919Y-3907800D01*
X+1595414Y-3912718D01*
X+1605909Y-3915524D01*
X+1616404Y-3916497D01*
X+1617000Y-3916500D01*
X+1680500Y-3853000D02*
X+1680283Y-3858247D01*
X+1678518Y-3868742D01*
X+1674826Y-3879237D01*
X+1668798Y-3889732D01*
X+1659576Y-3900112D01*
X+1649081Y-3907800D01*
X+1638586Y-3912718D01*
X+1628091Y-3915524D01*
X+1617596Y-3916497D01*
X+1617000Y-3916500D01*
X+1617000Y-3789500D02*
X+1617000Y-3916500D01*
X+1553500Y-3853000D02*
X+1680500Y-3853000D01*
X+1930500Y-3853000D02*
X+1930283Y-3847753D01*
X+1928518Y-3837258D01*
X+1924826Y-3826763D01*
X+1918798Y-3816268D01*
X+1909576Y-3805888D01*
X+1899081Y-3798200D01*
X+1888586Y-3793282D01*
X+1878091Y-3790476D01*
X+1867596Y-3789503D01*
X+1867000Y-3789500D01*
X+1803500Y-3853000D02*
X+1803717Y-3847753D01*
X+1805482Y-3837258D01*
X+1809174Y-3826763D01*
X+1815202Y-3816268D01*
X+1824424Y-3805888D01*
X+1834919Y-3798200D01*
X+1845414Y-3793282D01*
X+1855909Y-3790476D01*
X+1866404Y-3789503D01*
X+1867000Y-3789500D01*
X+1803500Y-3853000D02*
X+1803717Y-3858247D01*
X+1805482Y-3868742D01*
X+1809174Y-3879237D01*
X+1815202Y-3889732D01*
X+1824424Y-3900112D01*
X+1834919Y-3907800D01*
X+1845414Y-3912718D01*
X+1855909Y-3915524D01*
X+1866404Y-3916497D01*
X+1867000Y-3916500D01*
X+1930500Y-3853000D02*
X+1930283Y-3858247D01*
X+1928518Y-3868742D01*
X+1924826Y-3879237D01*
X+1918798Y-3889732D01*
X+1909576Y-3900112D01*
X+1899081Y-3907800D01*
X+1888586Y-3912718D01*
X+1878091Y-3915524D01*
X+1867596Y-3916497D01*
X+1867000Y-3916500D01*
X+1867000Y-3789500D02*
X+1867000Y-3916500D01*
X+1803500Y-3853000D02*
X+1930500Y-3853000D01*
X+2917000Y-3799500D02*
X+2917000Y-3926500D01*
X+2853500Y-3863000D02*
X+2980500Y-3863000D01*
X+2853500Y-3926500D02*
X+2980500Y-3926500D01*
X+2980500Y-3799500D01*
X+2853500Y-3799500D01*
X+2853500Y-3926500D01*
X+3417000Y-3799500D02*
X+3417000Y-3926500D01*
X+3353500Y-3863000D02*
X+3480500Y-3863000D01*
X+3353500Y-3926500D02*
X+3480500Y-3926500D01*
X+3480500Y-3799500D01*
X+3353500Y-3799500D01*
X+3353500Y-3926500D01*
X+1700500Y-3185000D02*
X+1700283Y-3179753D01*
X+1698518Y-3169258D01*
X+1694826Y-3158763D01*
X+1688798Y-3148268D01*
X+1679576Y-3137888D01*
X+1669081Y-3130200D01*
X+1658586Y-3125282D01*
X+1648091Y-3122476D01*
X+1637596Y-3121503D01*
X+1637000Y-3121500D01*
X+1573500Y-3185000D02*
X+1573717Y-3179753D01*
X+1575482Y-3169258D01*
X+1579174Y-3158763D01*
X+1585202Y-3148268D01*
X+1594424Y-3137888D01*
X+1604919Y-3130200D01*
X+1615414Y-3125282D01*
X+1625909Y-3122476D01*
X+1636404Y-3121503D01*
X+1637000Y-3121500D01*
X+1573500Y-3185000D02*
X+1573717Y-3190247D01*
X+1575482Y-3200742D01*
X+1579174Y-3211237D01*
X+1585202Y-3221732D01*
X+1594424Y-3232112D01*
X+1604919Y-3239800D01*
X+1615414Y-3244718D01*
X+1625909Y-3247524D01*
X+1636404Y-3248497D01*
X+1637000Y-3248500D01*
X+1700500Y-3185000D02*
X+1700283Y-3190247D01*
X+1698518Y-3200742D01*
X+1694826Y-3211237D01*
X+1688798Y-3221732D01*
X+1679576Y-3232112D01*
X+1669081Y-3239800D01*
X+1658586Y-3244718D01*
X+1648091Y-3247524D01*
X+1637596Y-3248497D01*
X+1637000Y-3248500D01*
X+1637000Y-3121500D02*
X+1637000Y-3248500D01*
X+1573500Y-3185000D02*
X+1700500Y-3185000D01*
X+1950500Y-3185000D02*
X+1950283Y-3179753D01*
X+1948518Y-3169258D01*
X+1944826Y-3158763D01*
X+1938798Y-3148268D01*
X+1929576Y-3137888D01*
X+1919081Y-3130200D01*
X+1908586Y-3125282D01*
X+1898091Y-3122476D01*
X+1887596Y-3121503D01*
X+1887000Y-3121500D01*
X+1823500Y-3185000D02*
X+1823717Y-3179753D01*
X+1825482Y-3169258D01*
X+1829174Y-3158763D01*
X+1835202Y-3148268D01*
X+1844424Y-3137888D01*
X+1854919Y-3130200D01*
X+1865414Y-3125282D01*
X+1875909Y-3122476D01*
X+1886404Y-3121503D01*
X+1887000Y-3121500D01*
X+1823500Y-3185000D02*
X+1823717Y-3190247D01*
X+1825482Y-3200742D01*
X+1829174Y-3211237D01*
X+1835202Y-3221732D01*
X+1844424Y-3232112D01*
X+1854919Y-3239800D01*
X+1865414Y-3244718D01*
X+1875909Y-3247524D01*
X+1886404Y-3248497D01*
X+1887000Y-3248500D01*
X+1950500Y-3185000D02*
X+1950283Y-3190247D01*
X+1948518Y-3200742D01*
X+1944826Y-3211237D01*
X+1938798Y-3221732D01*
X+1929576Y-3232112D01*
X+1919081Y-3239800D01*
X+1908586Y-3244718D01*
X+1898091Y-3247524D01*
X+1887596Y-3248497D01*
X+1887000Y-3248500D01*
X+1887000Y-3121500D02*
X+1887000Y-3248500D01*
X+1823500Y-3185000D02*
X+1950500Y-3185000D01*
X+2937000Y-3131500D02*
X+2937000Y-3258500D01*
X+2873500Y-3195000D02*
X+3000500Y-3195000D01*
X+2873500Y-3258500D02*
X+3000500Y-3258500D01*
X+3000500Y-3131500D01*
X+2873500Y-3131500D01*
X+2873500Y-3258500D01*
X+3437000Y-3131500D02*
X+3437000Y-3258500D01*
X+3373500Y-3195000D02*
X+3500500Y-3195000D01*
X+3373500Y-3258500D02*
X+3500500Y-3258500D01*
X+3500500Y-3131500D01*
X+3373500Y-3131500D01*
X+3373500Y-3258500D01*
X+1690500Y-2567000D02*
X+1690283Y-2561753D01*
X+1688518Y-2551258D01*
X+1684826Y-2540763D01*
X+1678798Y-2530268D01*
X+1669576Y-2519888D01*
X+1659081Y-2512200D01*
X+1648586Y-2507282D01*
X+1638091Y-2504476D01*
X+1627596Y-2503503D01*
X+1627000Y-2503500D01*
X+1563500Y-2567000D02*
X+1563717Y-2561753D01*
X+1565482Y-2551258D01*
X+1569174Y-2540763D01*
X+1575202Y-2530268D01*
X+1584424Y-2519888D01*
X+1594919Y-2512200D01*
X+1605414Y-2507282D01*
X+1615909Y-2504476D01*
X+1626404Y-2503503D01*
X+1627000Y-2503500D01*
X+1563500Y-2567000D02*
X+1563717Y-2572247D01*
X+1565482Y-2582742D01*
X+1569174Y-2593237D01*
X+1575202Y-2603732D01*
X+1584424Y-2614112D01*
X+1594919Y-2621800D01*
X+1605414Y-2626718D01*
X+1615909Y-2629524D01*
X+1626404Y-2630497D01*
X+1627000Y-2630500D01*
X+1690500Y-2567000D02*
X+1690283Y-2572247D01*
X+1688518Y-2582742D01*
X+1684826Y-2593237D01*
X+1678798Y-2603732D01*
X+1669576Y-2614112D01*
X+1659081Y-2621800D01*
X+1648586Y-2626718D01*
X+1638091Y-2629524D01*
X+1627596Y-2630497D01*
X+1627000Y-2630500D01*
X+1627000Y-2503500D02*
X+1627000Y-2630500D01*
X+1563500Y-2567000D02*
X+1690500Y-2567000D01*
X+1940500Y-2567000D02*
X+1940283Y-2561753D01*
X+1938518Y-2551258D01*
X+1934826Y-2540763D01*
X+1928798Y-2530268D01*
X+1919576Y-2519888D01*
X+1909081Y-2512200D01*
X+1898586Y-2507282D01*
X+1888091Y-2504476D01*
X+1877596Y-2503503D01*
X+1877000Y-2503500D01*
X+1813500Y-2567000D02*
X+1813717Y-2561753D01*
X+1815482Y-2551258D01*
X+1819174Y-2540763D01*
X+1825202Y-2530268D01*
X+1834424Y-2519888D01*
X+1844919Y-2512200D01*
X+1855414Y-2507282D01*
X+1865909Y-2504476D01*
X+1876404Y-2503503D01*
X+1877000Y-2503500D01*
X+1813500Y-2567000D02*
X+1813717Y-2572247D01*
X+1815482Y-2582742D01*
X+1819174Y-2593237D01*
X+1825202Y-2603732D01*
X+1834424Y-2614112D01*
X+1844919Y-2621800D01*
X+1855414Y-2626718D01*
X+1865909Y-2629524D01*
X+1876404Y-2630497D01*
X+1877000Y-2630500D01*
X+1940500Y-2567000D02*
X+1940283Y-2572247D01*
X+1938518Y-2582742D01*
X+1934826Y-2593237D01*
X+1928798Y-2603732D01*
X+1919576Y-2614112D01*
X+1909081Y-2621800D01*
X+1898586Y-2626718D01*
X+1888091Y-2629524D01*
X+1877596Y-2630497D01*
X+1877000Y-2630500D01*
X+1877000Y-2503500D02*
X+1877000Y-2630500D01*
X+1813500Y-2567000D02*
X+1940500Y-2567000D01*
X+2927000Y-2513500D02*
X+2927000Y-2640500D01*
X+2863500Y-2577000D02*
X+2990500Y-2577000D01*
X+2863500Y-2640500D02*
X+2990500Y-2640500D01*
X+2990500Y-2513500D01*
X+2863500Y-2513500D01*
X+2863500Y-2640500D01*
X+3427000Y-2513500D02*
X+3427000Y-2640500D01*
X+3363500Y-2577000D02*
X+3490500Y-2577000D01*
X+3363500Y-2640500D02*
X+3490500Y-2640500D01*
X+3490500Y-2513500D01*
X+3363500Y-2513500D01*
X+3363500Y-2640500D01*
X+1700500Y-1939000D02*
X+1700283Y-1933753D01*
X+1698518Y-1923258D01*
X+1694826Y-1912763D01*
X+1688798Y-1902268D01*
X+1679576Y-1891888D01*
X+1669081Y-1884200D01*
X+1658586Y-1879282D01*
X+1648091Y-1876476D01*
X+1637596Y-1875503D01*
X+1637000Y-1875500D01*
X+1573500Y-1939000D02*
X+1573717Y-1933753D01*
X+1575482Y-1923258D01*
X+1579174Y-1912763D01*
X+1585202Y-1902268D01*
X+1594424Y-1891888D01*
X+1604919Y-1884200D01*
X+1615414Y-1879282D01*
X+1625909Y-1876476D01*
X+1636404Y-1875503D01*
X+1637000Y-1875500D01*
X+1573500Y-1939000D02*
X+1573717Y-1944247D01*
X+1575482Y-1954742D01*
X+1579174Y-1965237D01*
X+1585202Y-1975732D01*
X+1594424Y-1986112D01*
X+1604919Y-1993800D01*
X+1615414Y-1998718D01*
X+1625909Y-2001524D01*
X+1636404Y-2002497D01*
X+1637000Y-2002500D01*
X+1700500Y-1939000D02*
X+1700283Y-1944247D01*
X+1698518Y-1954742D01*
X+1694826Y-1965237D01*
X+1688798Y-1975732D01*
X+1679576Y-1986112D01*
X+1669081Y-1993800D01*
X+1658586Y-1998718D01*
X+1648091Y-2001524D01*
X+1637596Y-2002497D01*
X+1637000Y-2002500D01*
X+1637000Y-1875500D02*
X+1637000Y-2002500D01*
X+1573500Y-1939000D02*
X+1700500Y-1939000D01*
X+1950500Y-1939000D02*
X+1950283Y-1933753D01*
X+1948518Y-1923258D01*
X+1944826Y-1912763D01*
X+1938798Y-1902268D01*
X+1929576Y-1891888D01*
X+1919081Y-1884200D01*
X+1908586Y-1879282D01*
X+1898091Y-1876476D01*
X+1887596Y-1875503D01*
X+1887000Y-1875500D01*
X+1823500Y-1939000D02*
X+1823717Y-1933753D01*
X+1825482Y-1923258D01*
X+1829174Y-1912763D01*
X+1835202Y-1902268D01*
X+1844424Y-1891888D01*
X+1854919Y-1884200D01*
X+1865414Y-1879282D01*
X+1875909Y-1876476D01*
X+1886404Y-1875503D01*
X+1887000Y-1875500D01*
X+1823500Y-1939000D02*
X+1823717Y-1944247D01*
X+1825482Y-1954742D01*
X+1829174Y-1965237D01*
X+1835202Y-1975732D01*
X+1844424Y-1986112D01*
X+1854919Y-1993800D01*
X+1865414Y-1998718D01*
X+1875909Y-2001524D01*
X+1886404Y-2002497D01*
X+1887000Y-2002500D01*
X+1950500Y-1939000D02*
X+1950283Y-1944247D01*
X+1948518Y-1954742D01*
X+1944826Y-1965237D01*
X+1938798Y-1975732D01*
X+1929576Y-1986112D01*
X+1919081Y-1993800D01*
X+1908586Y-1998718D01*
X+1898091Y-2001524D01*
X+1887596Y-2002497D01*
X+1887000Y-2002500D01*
X+1887000Y-1875500D02*
X+1887000Y-2002500D01*
X+1823500Y-1939000D02*
X+1950500Y-1939000D01*
X+2937000Y-1885500D02*
X+2937000Y-2012500D01*
X+2873500Y-1949000D02*
X+3000500Y-1949000D01*
X+2873500Y-2012500D02*
X+3000500Y-2012500D01*
X+3000500Y-1885500D01*
X+2873500Y-1885500D01*
X+2873500Y-2012500D01*
X+3437000Y-1885500D02*
X+3437000Y-2012500D01*
X+3373500Y-1949000D02*
X+3500500Y-1949000D01*
X+3373500Y-2012500D02*
X+3500500Y-2012500D01*
X+3500500Y-1885500D01*
X+3373500Y-1885500D01*
X+3373500Y-2012500D01*
X+1763500Y-1060000D02*
X+1763283Y-1054753D01*
X+1761518Y-1044258D01*
X+1757826Y-1033763D01*
X+1751798Y-1023268D01*
X+1742576Y-1012888D01*
X+1732081Y-1005200D01*
X+1721586Y-1000282D01*
X+1711091Y-997476D01*
X+1700596Y-996503D01*
X+1700000Y-996500D01*
X+1636500Y-1060000D02*
X+1636717Y-1054753D01*
X+1638482Y-1044258D01*
X+1642174Y-1033763D01*
X+1648202Y-1023268D01*
X+1657424Y-1012888D01*
X+1667919Y-1005200D01*
X+1678414Y-1000282D01*
X+1688909Y-997476D01*
X+1699404Y-996503D01*
X+1700000Y-996500D01*
X+1636500Y-1060000D02*
X+1636717Y-1065247D01*
X+1638482Y-1075742D01*
X+1642174Y-1086237D01*
X+1648202Y-1096732D01*
X+1657424Y-1107112D01*
X+1667919Y-1114800D01*
X+1678414Y-1119718D01*
X+1688909Y-1122524D01*
X+1699404Y-1123497D01*
X+1700000Y-1123500D01*
X+1763500Y-1060000D02*
X+1763283Y-1065247D01*
X+1761518Y-1075742D01*
X+1757826Y-1086237D01*
X+1751798Y-1096732D01*
X+1742576Y-1107112D01*
X+1732081Y-1114800D01*
X+1721586Y-1119718D01*
X+1711091Y-1122524D01*
X+1700596Y-1123497D01*
X+1700000Y-1123500D01*
X+1700000Y-996500D02*
X+1700000Y-1123500D01*
X+1636500Y-1060000D02*
X+1763500Y-1060000D01*
X+2013500Y-1060000D02*
X+2013283Y-1054753D01*
X+2011518Y-1044258D01*
X+2007826Y-1033763D01*
X+2001798Y-1023268D01*
X+1992576Y-1012888D01*
X+1982081Y-1005200D01*
X+1971586Y-1000282D01*
X+1961091Y-997476D01*
X+1950596Y-996503D01*
X+1950000Y-996500D01*
X+1886500Y-1060000D02*
X+1886717Y-1054753D01*
X+1888482Y-1044258D01*
X+1892174Y-1033763D01*
X+1898202Y-1023268D01*
X+1907424Y-1012888D01*
X+1917919Y-1005200D01*
X+1928414Y-1000282D01*
X+1938909Y-997476D01*
X+1949404Y-996503D01*
X+1950000Y-996500D01*
X+1886500Y-1060000D02*
X+1886717Y-1065247D01*
X+1888482Y-1075742D01*
X+1892174Y-1086237D01*
X+1898202Y-1096732D01*
X+1907424Y-1107112D01*
X+1917919Y-1114800D01*
X+1928414Y-1119718D01*
X+1938909Y-1122524D01*
X+1949404Y-1123497D01*
X+1950000Y-1123500D01*
X+2013500Y-1060000D02*
X+2013283Y-1065247D01*
X+2011518Y-1075742D01*
X+2007826Y-1086237D01*
X+2001798Y-1096732D01*
X+1992576Y-1107112D01*
X+1982081Y-1114800D01*
X+1971586Y-1119718D01*
X+1961091Y-1122524D01*
X+1950596Y-1123497D01*
X+1950000Y-1123500D01*
X+1950000Y-996500D02*
X+1950000Y-1123500D01*
X+1886500Y-1060000D02*
X+2013500Y-1060000D01*
X+3000000Y-1006500D02*
X+3000000Y-1133500D01*
X+2936500Y-1070000D02*
X+3063500Y-1070000D01*
X+2936500Y-1133500D02*
X+3063500Y-1133500D01*
X+3063500Y-1006500D01*
X+2936500Y-1006500D01*
X+2936500Y-1133500D01*
X+3500000Y-1006500D02*
X+3500000Y-1133500D01*
X+3436500Y-1070000D02*
X+3563500Y-1070000D01*
X+3436500Y-1133500D02*
X+3563500Y-1133500D01*
X+3563500Y-1006500D01*
X+3436500Y-1006500D01*
X+3436500Y-1133500D01*
X+1776500Y-451000D02*
X+1776283Y-445753D01*
X+1774518Y-435258D01*
X+1770826Y-424763D01*
X+1764798Y-414268D01*
X+1755576Y-403888D01*
X+1745081Y-396200D01*
X+1734586Y-391282D01*
X+1724091Y-388476D01*
X+1713596Y-387503D01*
X+1713000Y-387500D01*
X+1649500Y-451000D02*
X+1649717Y-445753D01*
X+1651482Y-435258D01*
X+1655174Y-424763D01*
X+1661202Y-414268D01*
X+1670424Y-403888D01*
X+1680919Y-396200D01*
X+1691414Y-391282D01*
X+1701909Y-388476D01*
X+1712404Y-387503D01*
X+1713000Y-387500D01*
X+1649500Y-451000D02*
X+1649717Y-456247D01*
X+1651482Y-466742D01*
X+1655174Y-477237D01*
X+1661202Y-487732D01*
X+1670424Y-498112D01*
X+1680919Y-505800D01*
X+1691414Y-510718D01*
X+1701909Y-513524D01*
X+1712404Y-514497D01*
X+1713000Y-514500D01*
X+1776500Y-451000D02*
X+1776283Y-456247D01*
X+1774518Y-466742D01*
X+1770826Y-477237D01*
X+1764798Y-487732D01*
X+1755576Y-498112D01*
X+1745081Y-505800D01*
X+1734586Y-510718D01*
X+1724091Y-513524D01*
X+1713596Y-514497D01*
X+1713000Y-514500D01*
X+1713000Y-387500D02*
X+1713000Y-514500D01*
X+1649500Y-451000D02*
X+1776500Y-451000D01*
X+2026500Y-451000D02*
X+2026283Y-445753D01*
X+2024518Y-435258D01*
X+2020826Y-424763D01*
X+2014798Y-414268D01*
X+2005576Y-403888D01*
X+1995081Y-396200D01*
X+1984586Y-391282D01*
X+1974091Y-388476D01*
X+1963596Y-387503D01*
X+1963000Y-387500D01*
X+1899500Y-451000D02*
X+1899717Y-445753D01*
X+1901482Y-435258D01*
X+1905174Y-424763D01*
X+1911202Y-414268D01*
X+1920424Y-403888D01*
X+1930919Y-396200D01*
X+1941414Y-391282D01*
X+1951909Y-388476D01*
X+1962404Y-387503D01*
X+1963000Y-387500D01*
X+1899500Y-451000D02*
X+1899717Y-456247D01*
X+1901482Y-466742D01*
X+1905174Y-477237D01*
X+1911202Y-487732D01*
X+1920424Y-498112D01*
X+1930919Y-505800D01*
X+1941414Y-510718D01*
X+1951909Y-513524D01*
X+1962404Y-514497D01*
X+1963000Y-514500D01*
X+2026500Y-451000D02*
X+2026283Y-456247D01*
X+2024518Y-466742D01*
X+2020826Y-477237D01*
X+2014798Y-487732D01*
X+2005576Y-498112D01*
X+1995081Y-505800D01*
X+1984586Y-510718D01*
X+1974091Y-513524D01*
X+1963596Y-514497D01*
X+1963000Y-514500D01*
X+1963000Y-387500D02*
X+1963000Y-514500D01*
X+1899500Y-451000D02*
X+2026500Y-451000D01*
X+3013000Y-397500D02*
X+3013000Y-524500D01*
X+2949500Y-461000D02*
X+3076500Y-461000D01*
X+2949500Y-524500D02*
X+3076500Y-524500D01*
X+3076500Y-397500D01*
X+2949500Y-397500D01*
X+2949500Y-524500D01*
X+3513000Y-397500D02*
X+3513000Y-524500D01*
X+3449500Y-461000D02*
X+3576500Y-461000D01*
X+3449500Y-524500D02*
X+3576500Y-524500D01*
X+3576500Y-397500D01*
X+3449500Y-397500D01*
X+3449500Y-524500D01*
X+1776500Y+131000D02*
X+1776283Y+136247D01*
X+1774518Y+146742D01*
X+1770826Y+157237D01*
X+1764798Y+167732D01*
X+1755576Y+178112D01*
X+1745081Y+185800D01*
X+1734586Y+190718D01*
X+1724091Y+193524D01*
X+1713596Y+194497D01*
X+1713000Y+194500D01*
X+1649500Y+131000D02*
X+1649717Y+136247D01*
X+1651482Y+146742D01*
X+1655174Y+157237D01*
X+1661202Y+167732D01*
X+1670424Y+178112D01*
X+1680919Y+185800D01*
X+1691414Y+190718D01*
X+1701909Y+193524D01*
X+1712404Y+194497D01*
X+1713000Y+194500D01*
X+1649500Y+131000D02*
X+1649717Y+125753D01*
X+1651482Y+115258D01*
X+1655174Y+104763D01*
X+1661202Y+94268D01*
X+1670424Y+83888D01*
X+1680919Y+76200D01*
X+1691414Y+71282D01*
X+1701909Y+68476D01*
X+1712404Y+67503D01*
X+1713000Y+67500D01*
X+1776500Y+131000D02*
X+1776283Y+125753D01*
X+1774518Y+115258D01*
X+1770826Y+104763D01*
X+1764798Y+94268D01*
X+1755576Y+83888D01*
X+1745081Y+76200D01*
X+1734586Y+71282D01*
X+1724091Y+68476D01*
X+1713596Y+67503D01*
X+1713000Y+67500D01*
X+1713000Y+194500D02*
X+1713000Y+67500D01*
X+1649500Y+131000D02*
X+1776500Y+131000D01*
X+2026500Y+131000D02*
X+2026283Y+136247D01*
X+2024518Y+146742D01*
X+2020826Y+157237D01*
X+2014798Y+167732D01*
X+2005576Y+178112D01*
X+1995081Y+185800D01*
X+1984586Y+190718D01*
X+1974091Y+193524D01*
X+1963596Y+194497D01*
X+1963000Y+194500D01*
X+1899500Y+131000D02*
X+1899717Y+136247D01*
X+1901482Y+146742D01*
X+1905174Y+157237D01*
X+1911202Y+167732D01*
X+1920424Y+178112D01*
X+1930919Y+185800D01*
X+1941414Y+190718D01*
X+1951909Y+193524D01*
X+1962404Y+194497D01*
X+1963000Y+194500D01*
X+1899500Y+131000D02*
X+1899717Y+125753D01*
X+1901482Y+115258D01*
X+1905174Y+104763D01*
X+1911202Y+94268D01*
X+1920424Y+83888D01*
X+1930919Y+76200D01*
X+1941414Y+71282D01*
X+1951909Y+68476D01*
X+1962404Y+67503D01*
X+1963000Y+67500D01*
X+2026500Y+131000D02*
X+2026283Y+125753D01*
X+2024518Y+115258D01*
X+2020826Y+104763D01*
X+2014798Y+94268D01*
X+2005576Y+83888D01*
X+1995081Y+76200D01*
X+1984586Y+71282D01*
X+1974091Y+68476D01*
X+1963596Y+67503D01*
X+1963000Y+67500D01*
X+1963000Y+194500D02*
X+1963000Y+67500D01*
X+1899500Y+131000D02*
X+2026500Y+131000D01*
X+3013000Y+184500D02*
X+3013000Y+57500D01*
X+2949500Y+121000D02*
X+3076500Y+121000D01*
X+2949500Y+57500D02*
X+3076500Y+57500D01*
X+3076500Y+184500D01*
X+2949500Y+184500D01*
X+2949500Y+57500D01*
X+3513000Y+184500D02*
X+3513000Y+57500D01*
X+3449500Y+121000D02*
X+3576500Y+121000D01*
X+3449500Y+57500D02*
X+3576500Y+57500D01*
X+3576500Y+184500D01*
X+3449500Y+184500D01*
X+3449500Y+57500D01*
X+1776500Y+773000D02*
X+1776283Y+778247D01*
X+1774518Y+788742D01*
X+1770826Y+799237D01*
X+1764798Y+809732D01*
X+1755576Y+820112D01*
X+1745081Y+827800D01*
X+1734586Y+832718D01*
X+1724091Y+835524D01*
X+1713596Y+836497D01*
X+1713000Y+836500D01*
X+1649500Y+773000D02*
X+1649717Y+778247D01*
X+1651482Y+788742D01*
X+1655174Y+799237D01*
X+1661202Y+809732D01*
X+1670424Y+820112D01*
X+1680919Y+827800D01*
X+1691414Y+832718D01*
X+1701909Y+835524D01*
X+1712404Y+836497D01*
X+1713000Y+836500D01*
X+1649500Y+773000D02*
X+1649717Y+767753D01*
X+1651482Y+757258D01*
X+1655174Y+746763D01*
X+1661202Y+736268D01*
X+1670424Y+725888D01*
X+1680919Y+718200D01*
X+1691414Y+713282D01*
X+1701909Y+710476D01*
X+1712404Y+709503D01*
X+1713000Y+709500D01*
X+1776500Y+773000D02*
X+1776283Y+767753D01*
X+1774518Y+757258D01*
X+1770826Y+746763D01*
X+1764798Y+736268D01*
X+1755576Y+725888D01*
X+1745081Y+718200D01*
X+1734586Y+713282D01*
X+1724091Y+710476D01*
X+1713596Y+709503D01*
X+1713000Y+709500D01*
X+1713000Y+836500D02*
X+1713000Y+709500D01*
X+1649500Y+773000D02*
X+1776500Y+773000D01*
X+2026500Y+773000D02*
X+2026283Y+778247D01*
X+2024518Y+788742D01*
X+2020826Y+799237D01*
X+2014798Y+809732D01*
X+2005576Y+820112D01*
X+1995081Y+827800D01*
X+1984586Y+832718D01*
X+1974091Y+835524D01*
X+1963596Y+836497D01*
X+1963000Y+836500D01*
X+1899500Y+773000D02*
X+1899717Y+778247D01*
X+1901482Y+788742D01*
X+1905174Y+799237D01*
X+1911202Y+809732D01*
X+1920424Y+820112D01*
X+1930919Y+827800D01*
X+1941414Y+832718D01*
X+1951909Y+835524D01*
X+1962404Y+836497D01*
X+1963000Y+836500D01*
X+1899500Y+773000D02*
X+1899717Y+767753D01*
X+1901482Y+757258D01*
X+1905174Y+746763D01*
X+1911202Y+736268D01*
X+1920424Y+725888D01*
X+1930919Y+718200D01*
X+1941414Y+713282D01*
X+1951909Y+710476D01*
X+1962404Y+709503D01*
X+1963000Y+709500D01*
X+2026500Y+773000D02*
X+2026283Y+767753D01*
X+2024518Y+757258D01*
X+2020826Y+746763D01*
X+2014798Y+736268D01*
X+2005576Y+725888D01*
X+1995081Y+718200D01*
X+1984586Y+713282D01*
X+1974091Y+710476D01*
X+1963596Y+709503D01*
X+1963000Y+709500D01*
X+1963000Y+836500D02*
X+1963000Y+709500D01*
X+1899500Y+773000D02*
X+2026500Y+773000D01*
X+3013000Y+826500D02*
X+3013000Y+699500D01*
X+2949500Y+763000D02*
X+3076500Y+763000D01*
X+2949500Y+699500D02*
X+3076500Y+699500D01*
X+3076500Y+826500D01*
X+2949500Y+826500D01*
X+2949500Y+699500D01*
X+3513000Y+826500D02*
X+3513000Y+699500D01*
X+3449500Y+763000D02*
X+3576500Y+763000D01*
X+3449500Y+699500D02*
X+3576500Y+699500D01*
X+3576500Y+826500D01*
X+3449500Y+826500D01*
X+3449500Y+699500D01*
X+4024000Y-3965500D02*
X+4024000Y-4092500D01*
X+3960500Y-4029000D02*
X+4087500Y-4029000D01*
X+3960500Y-4092500D02*
X+4087500Y-4092500D01*
X+4087500Y-3965500D01*
X+3960500Y-3965500D01*
X+3960500Y-4092500D01*
X+3960500Y-3965500D02*
X+4087500Y-4092500D01*
X+3960500Y-4092500D02*
X+4087500Y-3965500D01*
X+4024000Y-3465120D02*
X+4024000Y-3592120D01*
X+3960500Y-3528620D02*
X+4087500Y-3528620D01*
X+3960500Y-3592120D02*
X+4087500Y-3592120D01*
X+4087500Y-3465120D01*
X+3960500Y-3465120D01*
X+3960500Y-3592120D01*
X+3960500Y-3465120D02*
X+4087500Y-3592120D01*
X+3960500Y-3592120D02*
X+4087500Y-3465120D01*
X+4057000Y-1193500D02*
X+4057000Y-1320500D01*
X+3993500Y-1257000D02*
X+4120500Y-1257000D01*
X+3993500Y-1320500D02*
X+4120500Y-1320500D01*
X+4120500Y-1193500D01*
X+3993500Y-1193500D01*
X+3993500Y-1320500D01*
X+3993500Y-1193500D02*
X+4120500Y-1320500D01*
X+3993500Y-1320500D02*
X+4120500Y-1193500D01*
X+4057000Y-693120D02*
X+4057000Y-820120D01*
X+3993500Y-756620D02*
X+4120500Y-756620D01*
X+3993500Y-820120D02*
X+4120500Y-820120D01*
X+4120500Y-693120D01*
X+3993500Y-693120D01*
X+3993500Y-820120D01*
X+3993500Y-693120D02*
X+4120500Y-820120D01*
X+3993500Y-820120D02*
X+4120500Y-693120D01*
X-4181620Y-2130500D02*
X-4181620Y-2257500D01*
X-4245120Y-2194000D02*
X-4118120Y-2194000D01*
X-4245120Y-2257500D02*
X-4118120Y-2257500D01*
X-4118120Y-2130500D01*
X-4245120Y-2130500D01*
X-4245120Y-2257500D01*
X-4245120Y-2130500D02*
X-4118120Y-2257500D01*
X-4245120Y-2257500D02*
X-4118120Y-2130500D01*
X-4181620Y-2630880D02*
X-4181620Y-2757880D01*
X-4245120Y-2694380D02*
X-4118120Y-2694380D01*
X-4245120Y-2757880D02*
X-4118120Y-2757880D01*
X-4118120Y-2630880D01*
X-4245120Y-2630880D01*
X-4245120Y-2757880D01*
X-4245120Y-2630880D02*
X-4118120Y-2757880D01*
X-4245120Y-2757880D02*
X-4118120Y-2630880D01*
X-4180620Y-3128500D02*
X-4180620Y-3255500D01*
X-4244120Y-3192000D02*
X-4117120Y-3192000D01*
X-4244120Y-3255500D02*
X-4117120Y-3255500D01*
X-4117120Y-3128500D01*
X-4244120Y-3128500D01*
X-4244120Y-3255500D01*
X-4244120Y-3128500D02*
X-4117120Y-3255500D01*
X-4244120Y-3255500D02*
X-4117120Y-3128500D01*
X-4180620Y-3628880D02*
X-4180620Y-3755880D01*
X-4244120Y-3692380D02*
X-4117120Y-3692380D01*
X-4244120Y-3755880D02*
X-4117120Y-3755880D01*
X-4117120Y-3628880D01*
X-4244120Y-3628880D01*
X-4244120Y-3755880D01*
X-4244120Y-3628880D02*
X-4117120Y-3755880D01*
X-4244120Y-3755880D02*
X-4117120Y-3628880D01*
X-886500Y+3250000D02*
X-886717Y+3255247D01*
X-888482Y+3265742D01*
X-892174Y+3276237D01*
X-898202Y+3286732D01*
X-907424Y+3297112D01*
X-917919Y+3304800D01*
X-928414Y+3309718D01*
X-938909Y+3312524D01*
X-949404Y+3313497D01*
X-950000Y+3313500D01*
X-1013500Y+3250000D02*
X-1013283Y+3255247D01*
X-1011518Y+3265742D01*
X-1007826Y+3276237D01*
X-1001798Y+3286732D01*
X-992576Y+3297112D01*
X-982081Y+3304800D01*
X-971586Y+3309718D01*
X-961091Y+3312524D01*
X-950596Y+3313497D01*
X-950000Y+3313500D01*
X-1013500Y+3250000D02*
X-1013283Y+3244753D01*
X-1011518Y+3234258D01*
X-1007826Y+3223763D01*
X-1001798Y+3213268D01*
X-992576Y+3202888D01*
X-982081Y+3195200D01*
X-971586Y+3190282D01*
X-961091Y+3187476D01*
X-950596Y+3186503D01*
X-950000Y+3186500D01*
X-886500Y+3250000D02*
X-886717Y+3244753D01*
X-888482Y+3234258D01*
X-892174Y+3223763D01*
X-898202Y+3213268D01*
X-907424Y+3202888D01*
X-917919Y+3195200D01*
X-928414Y+3190282D01*
X-938909Y+3187476D01*
X-949404Y+3186503D01*
X-950000Y+3186500D01*
X-994901Y+3294901D02*
X-905099Y+3205099D01*
X-994901Y+3205099D02*
X-905099Y+3294901D01*
X-886500Y+2742000D02*
X-886717Y+2747247D01*
X-888482Y+2757742D01*
X-892174Y+2768237D01*
X-898202Y+2778732D01*
X-907424Y+2789112D01*
X-917919Y+2796800D01*
X-928414Y+2801718D01*
X-938909Y+2804524D01*
X-949404Y+2805497D01*
X-950000Y+2805500D01*
X-1013500Y+2742000D02*
X-1013283Y+2747247D01*
X-1011518Y+2757742D01*
X-1007826Y+2768237D01*
X-1001798Y+2778732D01*
X-992576Y+2789112D01*
X-982081Y+2796800D01*
X-971586Y+2801718D01*
X-961091Y+2804524D01*
X-950596Y+2805497D01*
X-950000Y+2805500D01*
X-1013500Y+2742000D02*
X-1013283Y+2736753D01*
X-1011518Y+2726258D01*
X-1007826Y+2715763D01*
X-1001798Y+2705268D01*
X-992576Y+2694888D01*
X-982081Y+2687200D01*
X-971586Y+2682282D01*
X-961091Y+2679476D01*
X-950596Y+2678503D01*
X-950000Y+2678500D01*
X-886500Y+2742000D02*
X-886717Y+2736753D01*
X-888482Y+2726258D01*
X-892174Y+2715763D01*
X-898202Y+2705268D01*
X-907424Y+2694888D01*
X-917919Y+2687200D01*
X-928414Y+2682282D01*
X-938909Y+2679476D01*
X-949404Y+2678503D01*
X-950000Y+2678500D01*
X-994901Y+2786901D02*
X-905099Y+2697099D01*
X-994901Y+2697099D02*
X-905099Y+2786901D01*
X-3214901Y-2970099D02*
X-3125099Y-3059901D01*
X-3214901Y-3059901D02*
X-3125099Y-2970099D01*
X-3214901Y-2620099D02*
X-3125099Y-2709901D01*
X-3214901Y-2709901D02*
X-3125099Y-2620099D01*
X-1965000Y-2866500D02*
X-1965000Y-2993500D01*
X-2028500Y-2930000D02*
X-1901500Y-2930000D01*
X-1715000Y-2866500D02*
X-1715000Y-2993500D01*
X-1778500Y-2930000D02*
X-1651500Y-2930000D01*
X-2266500Y+4420000D02*
X-2266717Y+4425247D01*
X-2268482Y+4435742D01*
X-2272174Y+4446237D01*
X-2278202Y+4456732D01*
X-2287424Y+4467112D01*
X-2297919Y+4474800D01*
X-2308414Y+4479718D01*
X-2318909Y+4482524D01*
X-2329404Y+4483497D01*
X-2330000Y+4483500D01*
X-2393500Y+4420000D02*
X-2393283Y+4425247D01*
X-2391518Y+4435742D01*
X-2387826Y+4446237D01*
X-2381798Y+4456732D01*
X-2372576Y+4467112D01*
X-2362081Y+4474800D01*
X-2351586Y+4479718D01*
X-2341091Y+4482524D01*
X-2330596Y+4483497D01*
X-2330000Y+4483500D01*
X-2393500Y+4420000D02*
X-2393283Y+4414753D01*
X-2391518Y+4404258D01*
X-2387826Y+4393763D01*
X-2381798Y+4383268D01*
X-2372576Y+4372888D01*
X-2362081Y+4365200D01*
X-2351586Y+4360282D01*
X-2341091Y+4357476D01*
X-2330596Y+4356503D01*
X-2330000Y+4356500D01*
X-2266500Y+4420000D02*
X-2266717Y+4414753D01*
X-2268482Y+4404258D01*
X-2272174Y+4393763D01*
X-2278202Y+4383268D01*
X-2287424Y+4372888D01*
X-2297919Y+4365200D01*
X-2308414Y+4360282D01*
X-2318909Y+4357476D01*
X-2329404Y+4356503D01*
X-2330000Y+4356500D01*
X-2330000Y+4483500D02*
X-2330000Y+4356500D01*
X-2393500Y+4420000D02*
X-2266500Y+4420000D01*
X-2266717Y+4425247D01*
X-2268482Y+4435742D01*
X-2272174Y+4446237D01*
X-2278202Y+4456732D01*
X-2287424Y+4467112D01*
X-2297919Y+4474800D01*
X-2308414Y+4479718D01*
X-2318909Y+4482524D01*
X-2329404Y+4483497D01*
X-2330000Y+4483500D01*
X-2393500Y+4420000D02*
X-2393283Y+4425247D01*
X-2391518Y+4435742D01*
X-2387826Y+4446237D01*
X-2381798Y+4456732D01*
X-2372576Y+4467112D01*
X-2362081Y+4474800D01*
X-2351586Y+4479718D01*
X-2341091Y+4482524D01*
X-2330596Y+4483497D01*
X-2330000Y+4483500D01*
X-2393500Y+4420000D02*
X-2393283Y+4414753D01*
X-2391518Y+4404258D01*
X-2387826Y+4393763D01*
X-2381798Y+4383268D01*
X-2372576Y+4372888D01*
X-2362081Y+4365200D01*
X-2351586Y+4360282D01*
X-2341091Y+4357476D01*
X-2330596Y+4356503D01*
X-2330000Y+4356500D01*
X-2266500Y+4420000D02*
X-2266717Y+4414753D01*
X-2268482Y+4404258D01*
X-2272174Y+4393763D01*
X-2278202Y+4383268D01*
X-2287424Y+4372888D01*
X-2297919Y+4365200D01*
X-2308414Y+4360282D01*
X-2318909Y+4357476D01*
X-2329404Y+4356503D01*
X-2330000Y+4356500D01*
X-2374901Y+4464901D02*
X-2285099Y+4375099D01*
X-2374901Y+4375099D02*
X-2285099Y+4464901D01*
X-1996500Y+4420000D02*
X-1996717Y+4425247D01*
X-1998482Y+4435742D01*
X-2002174Y+4446237D01*
X-2008202Y+4456732D01*
X-2017424Y+4467112D01*
X-2027919Y+4474800D01*
X-2038414Y+4479718D01*
X-2048909Y+4482524D01*
X-2059404Y+4483497D01*
X-2060000Y+4483500D01*
X-2123500Y+4420000D02*
X-2123283Y+4425247D01*
X-2121518Y+4435742D01*
X-2117826Y+4446237D01*
X-2111798Y+4456732D01*
X-2102576Y+4467112D01*
X-2092081Y+4474800D01*
X-2081586Y+4479718D01*
X-2071091Y+4482524D01*
X-2060596Y+4483497D01*
X-2060000Y+4483500D01*
X-2123500Y+4420000D02*
X-2123283Y+4414753D01*
X-2121518Y+4404258D01*
X-2117826Y+4393763D01*
X-2111798Y+4383268D01*
X-2102576Y+4372888D01*
X-2092081Y+4365200D01*
X-2081586Y+4360282D01*
X-2071091Y+4357476D01*
X-2060596Y+4356503D01*
X-2060000Y+4356500D01*
X-1996500Y+4420000D02*
X-1996717Y+4414753D01*
X-1998482Y+4404258D01*
X-2002174Y+4393763D01*
X-2008202Y+4383268D01*
X-2017424Y+4372888D01*
X-2027919Y+4365200D01*
X-2038414Y+4360282D01*
X-2048909Y+4357476D01*
X-2059404Y+4356503D01*
X-2060000Y+4356500D01*
X-2060000Y+4483500D02*
X-2060000Y+4356500D01*
X-2123500Y+4420000D02*
X-1996500Y+4420000D01*
X-1996717Y+4425247D01*
X-1998482Y+4435742D01*
X-2002174Y+4446237D01*
X-2008202Y+4456732D01*
X-2017424Y+4467112D01*
X-2027919Y+4474800D01*
X-2038414Y+4479718D01*
X-2048909Y+4482524D01*
X-2059404Y+4483497D01*
X-2060000Y+4483500D01*
X-2123500Y+4420000D02*
X-2123283Y+4425247D01*
X-2121518Y+4435742D01*
X-2117826Y+4446237D01*
X-2111798Y+4456732D01*
X-2102576Y+4467112D01*
X-2092081Y+4474800D01*
X-2081586Y+4479718D01*
X-2071091Y+4482524D01*
X-2060596Y+4483497D01*
X-2060000Y+4483500D01*
X-2123500Y+4420000D02*
X-2123283Y+4414753D01*
X-2121518Y+4404258D01*
X-2117826Y+4393763D01*
X-2111798Y+4383268D01*
X-2102576Y+4372888D01*
X-2092081Y+4365200D01*
X-2081586Y+4360282D01*
X-2071091Y+4357476D01*
X-2060596Y+4356503D01*
X-2060000Y+4356500D01*
X-1996500Y+4420000D02*
X-1996717Y+4414753D01*
X-1998482Y+4404258D01*
X-2002174Y+4393763D01*
X-2008202Y+4383268D01*
X-2017424Y+4372888D01*
X-2027919Y+4365200D01*
X-2038414Y+4360282D01*
X-2048909Y+4357476D01*
X-2059404Y+4356503D01*
X-2060000Y+4356500D01*
X-2104901Y+4464901D02*
X-2015099Y+4375099D01*
X-2104901Y+4375099D02*
X-2015099Y+4464901D01*
X-1746500Y+4420000D02*
X-1746717Y+4425247D01*
X-1748482Y+4435742D01*
X-1752174Y+4446237D01*
X-1758202Y+4456732D01*
X-1767424Y+4467112D01*
X-1777919Y+4474800D01*
X-1788414Y+4479718D01*
X-1798909Y+4482524D01*
X-1809404Y+4483497D01*
X-1810000Y+4483500D01*
X-1873500Y+4420000D02*
X-1873283Y+4425247D01*
X-1871518Y+4435742D01*
X-1867826Y+4446237D01*
X-1861798Y+4456732D01*
X-1852576Y+4467112D01*
X-1842081Y+4474800D01*
X-1831586Y+4479718D01*
X-1821091Y+4482524D01*
X-1810596Y+4483497D01*
X-1810000Y+4483500D01*
X-1873500Y+4420000D02*
X-1873283Y+4414753D01*
X-1871518Y+4404258D01*
X-1867826Y+4393763D01*
X-1861798Y+4383268D01*
X-1852576Y+4372888D01*
X-1842081Y+4365200D01*
X-1831586Y+4360282D01*
X-1821091Y+4357476D01*
X-1810596Y+4356503D01*
X-1810000Y+4356500D01*
X-1746500Y+4420000D02*
X-1746717Y+4414753D01*
X-1748482Y+4404258D01*
X-1752174Y+4393763D01*
X-1758202Y+4383268D01*
X-1767424Y+4372888D01*
X-1777919Y+4365200D01*
X-1788414Y+4360282D01*
X-1798909Y+4357476D01*
X-1809404Y+4356503D01*
X-1810000Y+4356500D01*
X-1810000Y+4483500D02*
X-1810000Y+4356500D01*
X-1873500Y+4420000D02*
X-1746500Y+4420000D01*
X-1746717Y+4425247D01*
X-1748482Y+4435742D01*
X-1752174Y+4446237D01*
X-1758202Y+4456732D01*
X-1767424Y+4467112D01*
X-1777919Y+4474800D01*
X-1788414Y+4479718D01*
X-1798909Y+4482524D01*
X-1809404Y+4483497D01*
X-1810000Y+4483500D01*
X-1873500Y+4420000D02*
X-1873283Y+4425247D01*
X-1871518Y+4435742D01*
X-1867826Y+4446237D01*
X-1861798Y+4456732D01*
X-1852576Y+4467112D01*
X-1842081Y+4474800D01*
X-1831586Y+4479718D01*
X-1821091Y+4482524D01*
X-1810596Y+4483497D01*
X-1810000Y+4483500D01*
X-1873500Y+4420000D02*
X-1873283Y+4414753D01*
X-1871518Y+4404258D01*
X-1867826Y+4393763D01*
X-1861798Y+4383268D01*
X-1852576Y+4372888D01*
X-1842081Y+4365200D01*
X-1831586Y+4360282D01*
X-1821091Y+4357476D01*
X-1810596Y+4356503D01*
X-1810000Y+4356500D01*
X-1746500Y+4420000D02*
X-1746717Y+4414753D01*
X-1748482Y+4404258D01*
X-1752174Y+4393763D01*
X-1758202Y+4383268D01*
X-1767424Y+4372888D01*
X-1777919Y+4365200D01*
X-1788414Y+4360282D01*
X-1798909Y+4357476D01*
X-1809404Y+4356503D01*
X-1810000Y+4356500D01*
X-1854901Y+4464901D02*
X-1765099Y+4375099D01*
X-1854901Y+4375099D02*
X-1765099Y+4464901D01*
X-1496500Y+4420000D02*
X-1496717Y+4425247D01*
X-1498482Y+4435742D01*
X-1502174Y+4446237D01*
X-1508202Y+4456732D01*
X-1517424Y+4467112D01*
X-1527919Y+4474800D01*
X-1538414Y+4479718D01*
X-1548909Y+4482524D01*
X-1559404Y+4483497D01*
X-1560000Y+4483500D01*
X-1623500Y+4420000D02*
X-1623283Y+4425247D01*
X-1621518Y+4435742D01*
X-1617826Y+4446237D01*
X-1611798Y+4456732D01*
X-1602576Y+4467112D01*
X-1592081Y+4474800D01*
X-1581586Y+4479718D01*
X-1571091Y+4482524D01*
X-1560596Y+4483497D01*
X-1560000Y+4483500D01*
X-1623500Y+4420000D02*
X-1623283Y+4414753D01*
X-1621518Y+4404258D01*
X-1617826Y+4393763D01*
X-1611798Y+4383268D01*
X-1602576Y+4372888D01*
X-1592081Y+4365200D01*
X-1581586Y+4360282D01*
X-1571091Y+4357476D01*
X-1560596Y+4356503D01*
X-1560000Y+4356500D01*
X-1496500Y+4420000D02*
X-1496717Y+4414753D01*
X-1498482Y+4404258D01*
X-1502174Y+4393763D01*
X-1508202Y+4383268D01*
X-1517424Y+4372888D01*
X-1527919Y+4365200D01*
X-1538414Y+4360282D01*
X-1548909Y+4357476D01*
X-1559404Y+4356503D01*
X-1560000Y+4356500D01*
X-1560000Y+4483500D02*
X-1560000Y+4356500D01*
X-1623500Y+4420000D02*
X-1496500Y+4420000D01*
X-1496717Y+4425247D01*
X-1498482Y+4435742D01*
X-1502174Y+4446237D01*
X-1508202Y+4456732D01*
X-1517424Y+4467112D01*
X-1527919Y+4474800D01*
X-1538414Y+4479718D01*
X-1548909Y+4482524D01*
X-1559404Y+4483497D01*
X-1560000Y+4483500D01*
X-1623500Y+4420000D02*
X-1623283Y+4425247D01*
X-1621518Y+4435742D01*
X-1617826Y+4446237D01*
X-1611798Y+4456732D01*
X-1602576Y+4467112D01*
X-1592081Y+4474800D01*
X-1581586Y+4479718D01*
X-1571091Y+4482524D01*
X-1560596Y+4483497D01*
X-1560000Y+4483500D01*
X-1623500Y+4420000D02*
X-1623283Y+4414753D01*
X-1621518Y+4404258D01*
X-1617826Y+4393763D01*
X-1611798Y+4383268D01*
X-1602576Y+4372888D01*
X-1592081Y+4365200D01*
X-1581586Y+4360282D01*
X-1571091Y+4357476D01*
X-1560596Y+4356503D01*
X-1560000Y+4356500D01*
X-1496500Y+4420000D02*
X-1496717Y+4414753D01*
X-1498482Y+4404258D01*
X-1502174Y+4393763D01*
X-1508202Y+4383268D01*
X-1517424Y+4372888D01*
X-1527919Y+4365200D01*
X-1538414Y+4360282D01*
X-1548909Y+4357476D01*
X-1559404Y+4356503D01*
X-1560000Y+4356500D01*
X-1604901Y+4464901D02*
X-1515099Y+4375099D01*
X-1604901Y+4375099D02*
X-1515099Y+4464901D01*
X-1236500Y+4430000D02*
X-1236717Y+4435247D01*
X-1238482Y+4445742D01*
X-1242174Y+4456237D01*
X-1248202Y+4466732D01*
X-1257424Y+4477112D01*
X-1267919Y+4484800D01*
X-1278414Y+4489718D01*
X-1288909Y+4492524D01*
X-1299404Y+4493497D01*
X-1300000Y+4493500D01*
X-1363500Y+4430000D02*
X-1363283Y+4435247D01*
X-1361518Y+4445742D01*
X-1357826Y+4456237D01*
X-1351798Y+4466732D01*
X-1342576Y+4477112D01*
X-1332081Y+4484800D01*
X-1321586Y+4489718D01*
X-1311091Y+4492524D01*
X-1300596Y+4493497D01*
X-1300000Y+4493500D01*
X-1363500Y+4430000D02*
X-1363283Y+4424753D01*
X-1361518Y+4414258D01*
X-1357826Y+4403763D01*
X-1351798Y+4393268D01*
X-1342576Y+4382888D01*
X-1332081Y+4375200D01*
X-1321586Y+4370282D01*
X-1311091Y+4367476D01*
X-1300596Y+4366503D01*
X-1300000Y+4366500D01*
X-1236500Y+4430000D02*
X-1236717Y+4424753D01*
X-1238482Y+4414258D01*
X-1242174Y+4403763D01*
X-1248202Y+4393268D01*
X-1257424Y+4382888D01*
X-1267919Y+4375200D01*
X-1278414Y+4370282D01*
X-1288909Y+4367476D01*
X-1299404Y+4366503D01*
X-1300000Y+4366500D01*
X-1300000Y+4493500D02*
X-1300000Y+4366500D01*
X-1363500Y+4430000D02*
X-1236500Y+4430000D01*
X-1236717Y+4435247D01*
X-1238482Y+4445742D01*
X-1242174Y+4456237D01*
X-1248202Y+4466732D01*
X-1257424Y+4477112D01*
X-1267919Y+4484800D01*
X-1278414Y+4489718D01*
X-1288909Y+4492524D01*
X-1299404Y+4493497D01*
X-1300000Y+4493500D01*
X-1363500Y+4430000D02*
X-1363283Y+4435247D01*
X-1361518Y+4445742D01*
X-1357826Y+4456237D01*
X-1351798Y+4466732D01*
X-1342576Y+4477112D01*
X-1332081Y+4484800D01*
X-1321586Y+4489718D01*
X-1311091Y+4492524D01*
X-1300596Y+4493497D01*
X-1300000Y+4493500D01*
X-1363500Y+4430000D02*
X-1363283Y+4424753D01*
X-1361518Y+4414258D01*
X-1357826Y+4403763D01*
X-1351798Y+4393268D01*
X-1342576Y+4382888D01*
X-1332081Y+4375200D01*
X-1321586Y+4370282D01*
X-1311091Y+4367476D01*
X-1300596Y+4366503D01*
X-1300000Y+4366500D01*
X-1236500Y+4430000D02*
X-1236717Y+4424753D01*
X-1238482Y+4414258D01*
X-1242174Y+4403763D01*
X-1248202Y+4393268D01*
X-1257424Y+4382888D01*
X-1267919Y+4375200D01*
X-1278414Y+4370282D01*
X-1288909Y+4367476D01*
X-1299404Y+4366503D01*
X-1300000Y+4366500D01*
X-1344901Y+4474901D02*
X-1255099Y+4385099D01*
X-1344901Y+4385099D02*
X-1255099Y+4474901D01*
X-966500Y+4430000D02*
X-966717Y+4435247D01*
X-968482Y+4445742D01*
X-972174Y+4456237D01*
X-978202Y+4466732D01*
X-987424Y+4477112D01*
X-997919Y+4484800D01*
X-1008414Y+4489718D01*
X-1018909Y+4492524D01*
X-1029404Y+4493497D01*
X-1030000Y+4493500D01*
X-1093500Y+4430000D02*
X-1093283Y+4435247D01*
X-1091518Y+4445742D01*
X-1087826Y+4456237D01*
X-1081798Y+4466732D01*
X-1072576Y+4477112D01*
X-1062081Y+4484800D01*
X-1051586Y+4489718D01*
X-1041091Y+4492524D01*
X-1030596Y+4493497D01*
X-1030000Y+4493500D01*
X-1093500Y+4430000D02*
X-1093283Y+4424753D01*
X-1091518Y+4414258D01*
X-1087826Y+4403763D01*
X-1081798Y+4393268D01*
X-1072576Y+4382888D01*
X-1062081Y+4375200D01*
X-1051586Y+4370282D01*
X-1041091Y+4367476D01*
X-1030596Y+4366503D01*
X-1030000Y+4366500D01*
X-966500Y+4430000D02*
X-966717Y+4424753D01*
X-968482Y+4414258D01*
X-972174Y+4403763D01*
X-978202Y+4393268D01*
X-987424Y+4382888D01*
X-997919Y+4375200D01*
X-1008414Y+4370282D01*
X-1018909Y+4367476D01*
X-1029404Y+4366503D01*
X-1030000Y+4366500D01*
X-1030000Y+4493500D02*
X-1030000Y+4366500D01*
X-1093500Y+4430000D02*
X-966500Y+4430000D01*
X-966717Y+4435247D01*
X-968482Y+4445742D01*
X-972174Y+4456237D01*
X-978202Y+4466732D01*
X-987424Y+4477112D01*
X-997919Y+4484800D01*
X-1008414Y+4489718D01*
X-1018909Y+4492524D01*
X-1029404Y+4493497D01*
X-1030000Y+4493500D01*
X-1093500Y+4430000D02*
X-1093283Y+4435247D01*
X-1091518Y+4445742D01*
X-1087826Y+4456237D01*
X-1081798Y+4466732D01*
X-1072576Y+4477112D01*
X-1062081Y+4484800D01*
X-1051586Y+4489718D01*
X-1041091Y+4492524D01*
X-1030596Y+4493497D01*
X-1030000Y+4493500D01*
X-1093500Y+4430000D02*
X-1093283Y+4424753D01*
X-1091518Y+4414258D01*
X-1087826Y+4403763D01*
X-1081798Y+4393268D01*
X-1072576Y+4382888D01*
X-1062081Y+4375200D01*
X-1051586Y+4370282D01*
X-1041091Y+4367476D01*
X-1030596Y+4366503D01*
X-1030000Y+4366500D01*
X-966500Y+4430000D02*
X-966717Y+4424753D01*
X-968482Y+4414258D01*
X-972174Y+4403763D01*
X-978202Y+4393268D01*
X-987424Y+4382888D01*
X-997919Y+4375200D01*
X-1008414Y+4370282D01*
X-1018909Y+4367476D01*
X-1029404Y+4366503D01*
X-1030000Y+4366500D01*
X-1074901Y+4474901D02*
X-985099Y+4385099D01*
X-1074901Y+4385099D02*
X-985099Y+4474901D01*
X-1669500Y-3943500D02*
X-1542500Y-3943500D01*
X-1542500Y-3816500D01*
X-1669500Y-3816500D01*
X-1669500Y-3943500D01*
X-1669500Y-3816500D02*
X-1542500Y-3943500D01*
X-1669500Y-3943500D02*
X-1542500Y-3816500D01*
X-1923500Y-3943500D02*
X-1796500Y-3943500D01*
X-1796500Y-3816500D01*
X-1923500Y-3816500D01*
X-1923500Y-3943500D01*
X-1923500Y-3816500D02*
X-1796500Y-3943500D01*
X-1923500Y-3943500D02*
X-1796500Y-3816500D01*
X-2177500Y-3943500D02*
X-2050500Y-3943500D01*
X-2050500Y-3816500D01*
X-2177500Y-3816500D01*
X-2177500Y-3943500D01*
X-2177500Y-3816500D02*
X-2050500Y-3943500D01*
X-2177500Y-3943500D02*
X-2050500Y-3816500D01*
X-1013500Y+2106500D02*
X-886500Y+2106500D01*
X-886500Y+2233500D01*
X-1013500Y+2233500D01*
X-1013500Y+2106500D01*
X-1013500Y+2233500D02*
X-886500Y+2106500D01*
X-1013500Y+2106500D02*
X-886500Y+2233500D01*
X-759500Y+2106500D02*
X-632500Y+2106500D01*
X-632500Y+2233500D01*
X-759500Y+2233500D01*
X-759500Y+2106500D01*
X-759500Y+2233500D02*
X-632500Y+2106500D01*
X-759500Y+2106500D02*
X-632500Y+2233500D01*
X+732500Y+3396500D02*
X+859500Y+3396500D01*
X+859500Y+3523500D01*
X+732500Y+3523500D01*
X+732500Y+3396500D01*
X+732500Y+3523500D02*
X+859500Y+3396500D01*
X+732500Y+3396500D02*
X+859500Y+3523500D01*
X+986500Y+3396500D02*
X+1113500Y+3396500D01*
X+1113500Y+3523500D01*
X+986500Y+3523500D01*
X+986500Y+3396500D01*
X+986500Y+3523500D02*
X+1113500Y+3396500D01*
X+986500Y+3396500D02*
X+1113500Y+3523500D01*
X-4172250Y+4461250D02*
X-4172250Y+4334250D01*
X-4235750Y+4397750D02*
X-4108750Y+4397750D01*
X-4235750Y+4334250D02*
X-4108750Y+4334250D01*
X-4108750Y+4461250D01*
X-4235750Y+4461250D01*
X-4235750Y+4334250D01*
X-4235750Y+4461250D02*
X-4108750Y+4334250D01*
X-4235750Y+4334250D02*
X-4108750Y+4461250D01*
X-4172250Y+3960870D02*
X-4172250Y+3833870D01*
X-4235750Y+3897370D02*
X-4108750Y+3897370D01*
X-4235750Y+3833870D02*
X-4108750Y+3833870D01*
X-4108750Y+3960870D01*
X-4235750Y+3960870D01*
X-4235750Y+3833870D01*
X-4235750Y+3960870D02*
X-4108750Y+3833870D01*
X-4235750Y+3833870D02*
X-4108750Y+3960870D01*
X-4172250Y+3460490D02*
X-4172250Y+3333490D01*
X-4235750Y+3396990D02*
X-4108750Y+3396990D01*
X-4235750Y+3333490D02*
X-4108750Y+3333490D01*
X-4108750Y+3460490D01*
X-4235750Y+3460490D01*
X-4235750Y+3333490D01*
X-4235750Y+3460490D02*
X-4108750Y+3333490D01*
X-4235750Y+3333490D02*
X-4108750Y+3460490D01*
X-4172250Y+2960110D02*
X-4172250Y+2833110D01*
X-4235750Y+2896610D02*
X-4108750Y+2896610D01*
X-4235750Y+2833110D02*
X-4108750Y+2833110D01*
X-4108750Y+2960110D01*
X-4235750Y+2960110D01*
X-4235750Y+2833110D01*
X-4235750Y+2960110D02*
X-4108750Y+2833110D01*
X-4235750Y+2833110D02*
X-4108750Y+2960110D01*
X-3306500Y+2970000D02*
X-3306717Y+2975247D01*
X-3308482Y+2985742D01*
X-3312174Y+2996237D01*
X-3318202Y+3006732D01*
X-3327424Y+3017112D01*
X-3337919Y+3024800D01*
X-3348414Y+3029718D01*
X-3358909Y+3032524D01*
X-3369404Y+3033497D01*
X-3370000Y+3033500D01*
X-3433500Y+2970000D02*
X-3433283Y+2975247D01*
X-3431518Y+2985742D01*
X-3427826Y+2996237D01*
X-3421798Y+3006732D01*
X-3412576Y+3017112D01*
X-3402081Y+3024800D01*
X-3391586Y+3029718D01*
X-3381091Y+3032524D01*
X-3370596Y+3033497D01*
X-3370000Y+3033500D01*
X-3433500Y+2970000D02*
X-3433283Y+2964753D01*
X-3431518Y+2954258D01*
X-3427826Y+2943763D01*
X-3421798Y+2933268D01*
X-3412576Y+2922888D01*
X-3402081Y+2915200D01*
X-3391586Y+2910282D01*
X-3381091Y+2907476D01*
X-3370596Y+2906503D01*
X-3370000Y+2906500D01*
X-3306500Y+2970000D02*
X-3306717Y+2964753D01*
X-3308482Y+2954258D01*
X-3312174Y+2943763D01*
X-3318202Y+2933268D01*
X-3327424Y+2922888D01*
X-3337919Y+2915200D01*
X-3348414Y+2910282D01*
X-3358909Y+2907476D01*
X-3369404Y+2906503D01*
X-3370000Y+2906500D01*
X-3414901Y+3014901D02*
X-3325099Y+2925099D01*
X-3414901Y+2925099D02*
X-3325099Y+3014901D01*
X-2290500Y+2970000D02*
X-2290717Y+2975247D01*
X-2292482Y+2985742D01*
X-2296174Y+2996237D01*
X-2302202Y+3006732D01*
X-2311424Y+3017112D01*
X-2321919Y+3024800D01*
X-2332414Y+3029718D01*
X-2342909Y+3032524D01*
X-2353404Y+3033497D01*
X-2354000Y+3033500D01*
X-2417500Y+2970000D02*
X-2417283Y+2975247D01*
X-2415518Y+2985742D01*
X-2411826Y+2996237D01*
X-2405798Y+3006732D01*
X-2396576Y+3017112D01*
X-2386081Y+3024800D01*
X-2375586Y+3029718D01*
X-2365091Y+3032524D01*
X-2354596Y+3033497D01*
X-2354000Y+3033500D01*
X-2417500Y+2970000D02*
X-2417283Y+2964753D01*
X-2415518Y+2954258D01*
X-2411826Y+2943763D01*
X-2405798Y+2933268D01*
X-2396576Y+2922888D01*
X-2386081Y+2915200D01*
X-2375586Y+2910282D01*
X-2365091Y+2907476D01*
X-2354596Y+2906503D01*
X-2354000Y+2906500D01*
X-2290500Y+2970000D02*
X-2290717Y+2964753D01*
X-2292482Y+2954258D01*
X-2296174Y+2943763D01*
X-2302202Y+2933268D01*
X-2311424Y+2922888D01*
X-2321919Y+2915200D01*
X-2332414Y+2910282D01*
X-2342909Y+2907476D01*
X-2353404Y+2906503D01*
X-2354000Y+2906500D01*
X-2398901Y+3014901D02*
X-2309099Y+2925099D01*
X-2398901Y+2925099D02*
X-2309099Y+3014901D01*
X-3306500Y+3210000D02*
X-3306717Y+3215247D01*
X-3308482Y+3225742D01*
X-3312174Y+3236237D01*
X-3318202Y+3246732D01*
X-3327424Y+3257112D01*
X-3337919Y+3264800D01*
X-3348414Y+3269718D01*
X-3358909Y+3272524D01*
X-3369404Y+3273497D01*
X-3370000Y+3273500D01*
X-3433500Y+3210000D02*
X-3433283Y+3215247D01*
X-3431518Y+3225742D01*
X-3427826Y+3236237D01*
X-3421798Y+3246732D01*
X-3412576Y+3257112D01*
X-3402081Y+3264800D01*
X-3391586Y+3269718D01*
X-3381091Y+3272524D01*
X-3370596Y+3273497D01*
X-3370000Y+3273500D01*
X-3433500Y+3210000D02*
X-3433283Y+3204753D01*
X-3431518Y+3194258D01*
X-3427826Y+3183763D01*
X-3421798Y+3173268D01*
X-3412576Y+3162888D01*
X-3402081Y+3155200D01*
X-3391586Y+3150282D01*
X-3381091Y+3147476D01*
X-3370596Y+3146503D01*
X-3370000Y+3146500D01*
X-3306500Y+3210000D02*
X-3306717Y+3204753D01*
X-3308482Y+3194258D01*
X-3312174Y+3183763D01*
X-3318202Y+3173268D01*
X-3327424Y+3162888D01*
X-3337919Y+3155200D01*
X-3348414Y+3150282D01*
X-3358909Y+3147476D01*
X-3369404Y+3146503D01*
X-3370000Y+3146500D01*
X-3414901Y+3254901D02*
X-3325099Y+3165099D01*
X-3414901Y+3165099D02*
X-3325099Y+3254901D01*
X-2290500Y+3210000D02*
X-2290717Y+3215247D01*
X-2292482Y+3225742D01*
X-2296174Y+3236237D01*
X-2302202Y+3246732D01*
X-2311424Y+3257112D01*
X-2321919Y+3264800D01*
X-2332414Y+3269718D01*
X-2342909Y+3272524D01*
X-2353404Y+3273497D01*
X-2354000Y+3273500D01*
X-2417500Y+3210000D02*
X-2417283Y+3215247D01*
X-2415518Y+3225742D01*
X-2411826Y+3236237D01*
X-2405798Y+3246732D01*
X-2396576Y+3257112D01*
X-2386081Y+3264800D01*
X-2375586Y+3269718D01*
X-2365091Y+3272524D01*
X-2354596Y+3273497D01*
X-2354000Y+3273500D01*
X-2417500Y+3210000D02*
X-2417283Y+3204753D01*
X-2415518Y+3194258D01*
X-2411826Y+3183763D01*
X-2405798Y+3173268D01*
X-2396576Y+3162888D01*
X-2386081Y+3155200D01*
X-2375586Y+3150282D01*
X-2365091Y+3147476D01*
X-2354596Y+3146503D01*
X-2354000Y+3146500D01*
X-2290500Y+3210000D02*
X-2290717Y+3204753D01*
X-2292482Y+3194258D01*
X-2296174Y+3183763D01*
X-2302202Y+3173268D01*
X-2311424Y+3162888D01*
X-2321919Y+3155200D01*
X-2332414Y+3150282D01*
X-2342909Y+3147476D01*
X-2353404Y+3146503D01*
X-2354000Y+3146500D01*
X-2398901Y+3254901D02*
X-2309099Y+3165099D01*
X-2398901Y+3165099D02*
X-2309099Y+3254901D01*
X-3306500Y+3660000D02*
X-3306717Y+3665247D01*
X-3308482Y+3675742D01*
X-3312174Y+3686237D01*
X-3318202Y+3696732D01*
X-3327424Y+3707112D01*
X-3337919Y+3714800D01*
X-3348414Y+3719718D01*
X-3358909Y+3722524D01*
X-3369404Y+3723497D01*
X-3370000Y+3723500D01*
X-3433500Y+3660000D02*
X-3433283Y+3665247D01*
X-3431518Y+3675742D01*
X-3427826Y+3686237D01*
X-3421798Y+3696732D01*
X-3412576Y+3707112D01*
X-3402081Y+3714800D01*
X-3391586Y+3719718D01*
X-3381091Y+3722524D01*
X-3370596Y+3723497D01*
X-3370000Y+3723500D01*
X-3433500Y+3660000D02*
X-3433283Y+3654753D01*
X-3431518Y+3644258D01*
X-3427826Y+3633763D01*
X-3421798Y+3623268D01*
X-3412576Y+3612888D01*
X-3402081Y+3605200D01*
X-3391586Y+3600282D01*
X-3381091Y+3597476D01*
X-3370596Y+3596503D01*
X-3370000Y+3596500D01*
X-3306500Y+3660000D02*
X-3306717Y+3654753D01*
X-3308482Y+3644258D01*
X-3312174Y+3633763D01*
X-3318202Y+3623268D01*
X-3327424Y+3612888D01*
X-3337919Y+3605200D01*
X-3348414Y+3600282D01*
X-3358909Y+3597476D01*
X-3369404Y+3596503D01*
X-3370000Y+3596500D01*
X-3414901Y+3704901D02*
X-3325099Y+3615099D01*
X-3414901Y+3615099D02*
X-3325099Y+3704901D01*
X-2290500Y+3660000D02*
X-2290717Y+3665247D01*
X-2292482Y+3675742D01*
X-2296174Y+3686237D01*
X-2302202Y+3696732D01*
X-2311424Y+3707112D01*
X-2321919Y+3714800D01*
X-2332414Y+3719718D01*
X-2342909Y+3722524D01*
X-2353404Y+3723497D01*
X-2354000Y+3723500D01*
X-2417500Y+3660000D02*
X-2417283Y+3665247D01*
X-2415518Y+3675742D01*
X-2411826Y+3686237D01*
X-2405798Y+3696732D01*
X-2396576Y+3707112D01*
X-2386081Y+3714800D01*
X-2375586Y+3719718D01*
X-2365091Y+3722524D01*
X-2354596Y+3723497D01*
X-2354000Y+3723500D01*
X-2417500Y+3660000D02*
X-2417283Y+3654753D01*
X-2415518Y+3644258D01*
X-2411826Y+3633763D01*
X-2405798Y+3623268D01*
X-2396576Y+3612888D01*
X-2386081Y+3605200D01*
X-2375586Y+3600282D01*
X-2365091Y+3597476D01*
X-2354596Y+3596503D01*
X-2354000Y+3596500D01*
X-2290500Y+3660000D02*
X-2290717Y+3654753D01*
X-2292482Y+3644258D01*
X-2296174Y+3633763D01*
X-2302202Y+3623268D01*
X-2311424Y+3612888D01*
X-2321919Y+3605200D01*
X-2332414Y+3600282D01*
X-2342909Y+3597476D01*
X-2353404Y+3596503D01*
X-2354000Y+3596500D01*
X-2398901Y+3704901D02*
X-2309099Y+3615099D01*
X-2398901Y+3615099D02*
X-2309099Y+3704901D01*
X-2296500Y+3420000D02*
X-2296717Y+3425247D01*
X-2298482Y+3435742D01*
X-2302174Y+3446237D01*
X-2308202Y+3456732D01*
X-2317424Y+3467112D01*
X-2327919Y+3474800D01*
X-2338414Y+3479718D01*
X-2348909Y+3482524D01*
X-2359404Y+3483497D01*
X-2360000Y+3483500D01*
X-2423500Y+3420000D02*
X-2423283Y+3425247D01*
X-2421518Y+3435742D01*
X-2417826Y+3446237D01*
X-2411798Y+3456732D01*
X-2402576Y+3467112D01*
X-2392081Y+3474800D01*
X-2381586Y+3479718D01*
X-2371091Y+3482524D01*
X-2360596Y+3483497D01*
X-2360000Y+3483500D01*
X-2423500Y+3420000D02*
X-2423283Y+3414753D01*
X-2421518Y+3404258D01*
X-2417826Y+3393763D01*
X-2411798Y+3383268D01*
X-2402576Y+3372888D01*
X-2392081Y+3365200D01*
X-2381586Y+3360282D01*
X-2371091Y+3357476D01*
X-2360596Y+3356503D01*
X-2360000Y+3356500D01*
X-2296500Y+3420000D02*
X-2296717Y+3414753D01*
X-2298482Y+3404258D01*
X-2302174Y+3393763D01*
X-2308202Y+3383268D01*
X-2317424Y+3372888D01*
X-2327919Y+3365200D01*
X-2338414Y+3360282D01*
X-2348909Y+3357476D01*
X-2359404Y+3356503D01*
X-2360000Y+3356500D01*
X-2404901Y+3464901D02*
X-2315099Y+3375099D01*
X-2404901Y+3375099D02*
X-2315099Y+3464901D01*
X-3312500Y+3420000D02*
X-3312717Y+3425247D01*
X-3314482Y+3435742D01*
X-3318174Y+3446237D01*
X-3324202Y+3456732D01*
X-3333424Y+3467112D01*
X-3343919Y+3474800D01*
X-3354414Y+3479718D01*
X-3364909Y+3482524D01*
X-3375404Y+3483497D01*
X-3376000Y+3483500D01*
X-3439500Y+3420000D02*
X-3439283Y+3425247D01*
X-3437518Y+3435742D01*
X-3433826Y+3446237D01*
X-3427798Y+3456732D01*
X-3418576Y+3467112D01*
X-3408081Y+3474800D01*
X-3397586Y+3479718D01*
X-3387091Y+3482524D01*
X-3376596Y+3483497D01*
X-3376000Y+3483500D01*
X-3439500Y+3420000D02*
X-3439283Y+3414753D01*
X-3437518Y+3404258D01*
X-3433826Y+3393763D01*
X-3427798Y+3383268D01*
X-3418576Y+3372888D01*
X-3408081Y+3365200D01*
X-3397586Y+3360282D01*
X-3387091Y+3357476D01*
X-3376596Y+3356503D01*
X-3376000Y+3356500D01*
X-3312500Y+3420000D02*
X-3312717Y+3414753D01*
X-3314482Y+3404258D01*
X-3318174Y+3393763D01*
X-3324202Y+3383268D01*
X-3333424Y+3372888D01*
X-3343919Y+3365200D01*
X-3354414Y+3360282D01*
X-3364909Y+3357476D01*
X-3375404Y+3356503D01*
X-3376000Y+3356500D01*
X-3420901Y+3464901D02*
X-3331099Y+3375099D01*
X-3420901Y+3375099D02*
X-3331099Y+3464901D01*
X+4598740Y+4514337D02*
X+4688543Y+4604140D01*
X+4598740Y+4693942D01*
X+4508937Y+4604140D01*
X+4598740Y+4514337D01*
X+4508937Y+4604140D02*
X+4688543Y+4604140D01*
X+4598740Y+4514337D02*
X+4598740Y+4693943D01*
X-4681260Y-4775663D02*
X-4591457Y-4685860D01*
X-4681260Y-4596058D01*
X-4771063Y-4685860D01*
X-4681260Y-4775663D01*
X-4771063Y-4685860D02*
X-4591457Y-4685860D01*
X-4681260Y-4775663D02*
X-4681260Y-4596057D01*
X+4668740Y-4795663D02*
X+4758543Y-4705860D01*
X+4668740Y-4616058D01*
X+4578937Y-4705860D01*
X+4668740Y-4795663D01*
X+4578937Y-4705860D02*
X+4758543Y-4705860D01*
X+4668740Y-4795663D02*
X+4668740Y-4616057D01*
X-5000000Y-5000000D02*
X+5000000Y-5000000D01*
X+5000000Y+5000000D01*
X-5000000Y+5000000D01*
X-5000000Y-5000000D01*
X+2520000Y-4830000D02*
X+2760000Y-4830000D01*
X+2760000Y+1340000D01*
X+2520000Y+1340000D01*
X+2520000Y-4830000D01*
D100*
X-5010160Y-8269208D02*
X-2264420Y-8269208D01*
X-2264420Y-5335508D01*
X-5010160Y-5335508D01*
X-5010160Y-8269208D01*
D48*
X-4542798Y-5335508D02*
X-4542798Y-8269208D01*
X-3628398Y-5335508D02*
X-3628398Y-8269208D01*
X-2795278Y-5335508D02*
X-2795278Y-8269208D01*
X-5010160Y-5608558D02*
X-2264420Y-5608558D01*
X-5010160Y-5849858D02*
X-2264420Y-5849858D01*
X-5010160Y-6091158D02*
X-2264420Y-6091158D01*
X-5010160Y-6332458D02*
X-2264420Y-6332458D01*
X-5010160Y-6573758D02*
X-2264420Y-6573758D01*
X-5010160Y-6815058D02*
X-2264420Y-6815058D01*
X-5010160Y-7056358D02*
X-2264420Y-7056358D01*
X-5010160Y-7297658D02*
X-2264420Y-7297658D01*
X-5010160Y-7538958D02*
X-2264420Y-7538958D01*
X-5010160Y-7780258D02*
X-2264420Y-7780258D01*
X-5010160Y-8021558D02*
X-2264420Y-8021558D01*
D100*
X-4953010Y-5499338D02*
X-4937770Y-5514578D01*
X-4876810Y-5514578D01*
X-4861570Y-5499338D01*
X-4861570Y-5484098D01*
X-4876810Y-5468858D01*
X-4937770Y-5468858D01*
X-4953010Y-5453618D01*
X-4953010Y-5438378D01*
X-4937770Y-5423138D01*
X-4876810Y-5423138D01*
X-4861570Y-5438378D01*
X-4739650Y-5423138D02*
X-4831090Y-5514578D01*
X-4831090Y-5423138D02*
X-4785370Y-5468858D01*
X-4709170Y-5514578D02*
X-4709170Y-5423138D01*
X-4663450Y-5468858D01*
X-4617730Y-5423138D01*
X-4617730Y-5514578D01*
X-4485650Y-5499338D02*
X-4470410Y-5514578D01*
X-4409450Y-5514578D01*
X-4394210Y-5499338D01*
X-4394210Y-5484098D01*
X-4409450Y-5468858D01*
X-4470410Y-5468858D01*
X-4485650Y-5453618D01*
X-4485650Y-5438378D01*
X-4470410Y-5423138D01*
X-4409450Y-5423138D01*
X-4394210Y-5438378D01*
X-4348490Y-5423138D02*
X-4287530Y-5423138D01*
X-4318010Y-5423138D02*
X-4318010Y-5514578D01*
X-4348490Y-5514578D02*
X-4287530Y-5514578D01*
X-4241810Y-5423138D02*
X-4150370Y-5423138D01*
X-4241810Y-5514578D01*
X-4150370Y-5514578D01*
X-4028450Y-5514578D02*
X-4119890Y-5514578D01*
X-4119890Y-5423138D01*
X-4028450Y-5423138D01*
X-4119890Y-5468858D02*
X-4058930Y-5468858D01*
X-3571250Y-5514578D02*
X-3571250Y-5423138D01*
X-3495050Y-5423138D01*
X-3479810Y-5438378D01*
X-3479810Y-5453618D01*
X-3495050Y-5468858D01*
X-3571250Y-5468858D01*
X-3449330Y-5423138D02*
X-3449330Y-5514578D01*
X-3357890Y-5514578D01*
X-3327410Y-5514578D02*
X-3327410Y-5453618D01*
X-3296930Y-5423138D01*
X-3266450Y-5423138D01*
X-3235970Y-5453618D01*
X-3235970Y-5514578D01*
X-3327410Y-5484098D02*
X-3235970Y-5484098D01*
X-3205490Y-5423138D02*
X-3114050Y-5423138D01*
X-3159770Y-5423138D02*
X-3159770Y-5514578D01*
X-2992130Y-5514578D02*
X-3083570Y-5514578D01*
X-3083570Y-5423138D01*
X-2992130Y-5423138D01*
X-3083570Y-5468858D02*
X-3022610Y-5468858D01*
X-2961650Y-5514578D02*
X-2961650Y-5423138D01*
X-2900690Y-5423138D01*
X-2870210Y-5453618D01*
X-2870210Y-5484098D01*
X-2900690Y-5514578D01*
X-2961650Y-5514578D01*
X-2738130Y-5453618D02*
X-2707650Y-5423138D01*
X-2677170Y-5423138D01*
X-2646690Y-5453618D01*
X-2646690Y-5484098D01*
X-2677170Y-5514578D01*
X-2707650Y-5514578D01*
X-2738130Y-5484098D01*
X-2738130Y-5453618D01*
X-2677170Y-5484098D02*
X-2646690Y-5514578D01*
X-2616210Y-5423138D02*
X-2524770Y-5423138D01*
X-2570490Y-5423138D02*
X-2570490Y-5514578D01*
X-2402850Y-5423138D02*
X-2494290Y-5514578D01*
X-2494290Y-5423138D02*
X-2448570Y-5468858D01*
D43*
X-4763780Y-5659358D02*
X-4763780Y-5786358D01*
X-4827280Y-5722858D02*
X-4700280Y-5722858D01*
D100*
X-4466600Y-5748258D02*
X-4466600Y-5697458D01*
X-4453900Y-5684758D01*
X-4403100Y-5684758D01*
X-4390400Y-5697458D01*
X-4390400Y-5748258D01*
X-4403100Y-5760958D01*
X-4453900Y-5760958D01*
X-4466600Y-5748258D01*
X-4466600Y-5760958D02*
X-4390400Y-5684758D01*
X-4326900Y-5748258D02*
X-4314200Y-5748258D01*
X-4314200Y-5760958D01*
X-4326900Y-5760958D01*
X-4326900Y-5748258D01*
X-4250700Y-5684758D02*
X-4187200Y-5684758D01*
X-4187200Y-5697458D01*
X-4250700Y-5760958D01*
X-4085600Y-5684758D02*
X-4149100Y-5684758D01*
X-4149100Y-5710158D01*
X-4098300Y-5710158D01*
X-4085600Y-5722858D01*
X-4085600Y-5748258D01*
X-4098300Y-5760958D01*
X-4136400Y-5760958D01*
X-4149100Y-5748258D01*
X-4060200Y-5760958D02*
X-4060200Y-5710158D01*
X-4060200Y-5722858D02*
X-4047500Y-5710158D01*
X-4022100Y-5735558D01*
X-3996700Y-5710158D01*
X-3984000Y-5722858D01*
X-3984000Y-5760958D01*
X-3958600Y-5760958D02*
X-3958600Y-5710158D01*
X-3958600Y-5722858D02*
X-3945900Y-5710158D01*
X-3920500Y-5735558D01*
X-3895100Y-5710158D01*
X-3882400Y-5722858D01*
X-3882400Y-5760958D01*
X-3463300Y-5684758D02*
X-3539500Y-5760958D01*
X-3539500Y-5684758D02*
X-3501400Y-5722858D01*
X-3361700Y-5760958D02*
X-3437900Y-5760958D01*
X-3437900Y-5684758D01*
X-3361700Y-5684758D01*
X-3437900Y-5722858D02*
X-3387100Y-5722858D01*
X-3336300Y-5748258D02*
X-3323600Y-5760958D01*
X-3272800Y-5760958D01*
X-3260100Y-5748258D01*
X-3260100Y-5735558D01*
X-3272800Y-5722858D01*
X-3323600Y-5722858D01*
X-3336300Y-5710158D01*
X-3336300Y-5697458D01*
X-3323600Y-5684758D01*
X-3272800Y-5684758D01*
X-3260100Y-5697458D01*
X-2680980Y-5697458D02*
X-2668280Y-5684758D01*
X-2630180Y-5684758D01*
X-2617480Y-5697458D01*
X-2617480Y-5710158D01*
X-2630180Y-5722858D01*
X-2668280Y-5722858D01*
X-2680980Y-5735558D01*
X-2680980Y-5760958D01*
X-2617480Y-5760958D01*
D43*
X-4808681Y-5919257D02*
X-4718879Y-6009059D01*
X-4808681Y-6009059D02*
X-4718879Y-5919257D01*
D100*
X-4466600Y-5989558D02*
X-4466600Y-5938758D01*
X-4453900Y-5926058D01*
X-4403100Y-5926058D01*
X-4390400Y-5938758D01*
X-4390400Y-5989558D01*
X-4403100Y-6002258D01*
X-4453900Y-6002258D01*
X-4466600Y-5989558D01*
X-4466600Y-6002258D02*
X-4390400Y-5926058D01*
X-4326900Y-5989558D02*
X-4314200Y-5989558D01*
X-4314200Y-6002258D01*
X-4326900Y-6002258D01*
X-4326900Y-5989558D01*
X-4238000Y-5964158D02*
X-4250700Y-5951458D01*
X-4250700Y-5938758D01*
X-4238000Y-5926058D01*
X-4199900Y-5926058D01*
X-4187200Y-5938758D01*
X-4187200Y-5951458D01*
X-4199900Y-5964158D01*
X-4238000Y-5964158D01*
X-4250700Y-5976858D01*
X-4250700Y-5989558D01*
X-4238000Y-6002258D01*
X-4199900Y-6002258D01*
X-4187200Y-5989558D01*
X-4187200Y-5976858D01*
X-4199900Y-5964158D01*
X-4085600Y-5926058D02*
X-4149100Y-5926058D01*
X-4149100Y-5951458D01*
X-4098300Y-5951458D01*
X-4085600Y-5964158D01*
X-4085600Y-5989558D01*
X-4098300Y-6002258D01*
X-4136400Y-6002258D01*
X-4149100Y-5989558D01*
X-4060200Y-6002258D02*
X-4060200Y-5951458D01*
X-4060200Y-5964158D02*
X-4047500Y-5951458D01*
X-4022100Y-5976858D01*
X-3996700Y-5951458D01*
X-3984000Y-5964158D01*
X-3984000Y-6002258D01*
X-3958600Y-6002258D02*
X-3958600Y-5951458D01*
X-3958600Y-5964158D02*
X-3945900Y-5951458D01*
X-3920500Y-5976858D01*
X-3895100Y-5951458D01*
X-3882400Y-5964158D01*
X-3882400Y-6002258D01*
X-3463300Y-5926058D02*
X-3539500Y-6002258D01*
X-3539500Y-5926058D02*
X-3501400Y-5964158D01*
X-3361700Y-6002258D02*
X-3437900Y-6002258D01*
X-3437900Y-5926058D01*
X-3361700Y-5926058D01*
X-3437900Y-5964158D02*
X-3387100Y-5964158D01*
X-3336300Y-5989558D02*
X-3323600Y-6002258D01*
X-3272800Y-6002258D01*
X-3260100Y-5989558D01*
X-3260100Y-5976858D01*
X-3272800Y-5964158D01*
X-3323600Y-5964158D01*
X-3336300Y-5951458D01*
X-3336300Y-5938758D01*
X-3323600Y-5926058D01*
X-3272800Y-5926058D01*
X-3260100Y-5938758D01*
X-2680980Y-5938758D02*
X-2668280Y-5926058D01*
X-2630180Y-5926058D01*
X-2617480Y-5938758D01*
X-2617480Y-5951458D01*
X-2630180Y-5964158D01*
X-2668280Y-5964158D01*
X-2680980Y-5976858D01*
X-2680980Y-6002258D01*
X-2617480Y-6002258D01*
D43*
X-4763780Y-6141958D02*
X-4763780Y-6268958D01*
X-4827280Y-6205458D02*
X-4700280Y-6205458D01*
X-4808681Y-6160557D02*
X-4718879Y-6250359D01*
X-4808681Y-6250359D02*
X-4718879Y-6160557D01*
D100*
X-4466600Y-6230858D02*
X-4466600Y-6180058D01*
X-4453900Y-6167358D01*
X-4403100Y-6167358D01*
X-4390400Y-6180058D01*
X-4390400Y-6230858D01*
X-4403100Y-6243558D01*
X-4453900Y-6243558D01*
X-4466600Y-6230858D01*
X-4466600Y-6243558D02*
X-4390400Y-6167358D01*
X-4326900Y-6230858D02*
X-4314200Y-6230858D01*
X-4314200Y-6243558D01*
X-4326900Y-6243558D01*
X-4326900Y-6230858D01*
X-4250700Y-6180058D02*
X-4238000Y-6167358D01*
X-4199900Y-6167358D01*
X-4187200Y-6180058D01*
X-4187200Y-6192758D01*
X-4199900Y-6205458D01*
X-4187200Y-6218158D01*
X-4187200Y-6230858D01*
X-4199900Y-6243558D01*
X-4238000Y-6243558D01*
X-4250700Y-6230858D01*
X-4225300Y-6205458D02*
X-4199900Y-6205458D01*
X-4136400Y-6205458D02*
X-4149100Y-6192758D01*
X-4149100Y-6180058D01*
X-4136400Y-6167358D01*
X-4098300Y-6167358D01*
X-4085600Y-6180058D01*
X-4085600Y-6192758D01*
X-4098300Y-6205458D01*
X-4136400Y-6205458D01*
X-4149100Y-6218158D01*
X-4149100Y-6230858D01*
X-4136400Y-6243558D01*
X-4098300Y-6243558D01*
X-4085600Y-6230858D01*
X-4085600Y-6218158D01*
X-4098300Y-6205458D01*
X-4034800Y-6192758D02*
X-4009400Y-6167358D01*
X-4009400Y-6243558D01*
X-3958600Y-6243558D02*
X-3958600Y-6192758D01*
X-3958600Y-6205458D02*
X-3945900Y-6192758D01*
X-3920500Y-6218158D01*
X-3895100Y-6192758D01*
X-3882400Y-6205458D01*
X-3882400Y-6243558D01*
X-3857000Y-6243558D02*
X-3857000Y-6192758D01*
X-3857000Y-6205458D02*
X-3844300Y-6192758D01*
X-3818900Y-6218158D01*
X-3793500Y-6192758D01*
X-3780800Y-6205458D01*
X-3780800Y-6243558D01*
X-3463300Y-6167358D02*
X-3539500Y-6243558D01*
X-3539500Y-6167358D02*
X-3501400Y-6205458D01*
X-3361700Y-6243558D02*
X-3437900Y-6243558D01*
X-3437900Y-6167358D01*
X-3361700Y-6167358D01*
X-3437900Y-6205458D02*
X-3387100Y-6205458D01*
X-3336300Y-6230858D02*
X-3323600Y-6243558D01*
X-3272800Y-6243558D01*
X-3260100Y-6230858D01*
X-3260100Y-6218158D01*
X-3272800Y-6205458D01*
X-3323600Y-6205458D01*
X-3336300Y-6192758D01*
X-3336300Y-6180058D01*
X-3323600Y-6167358D01*
X-3272800Y-6167358D01*
X-3260100Y-6180058D01*
X-2668280Y-6192758D02*
X-2642880Y-6167358D01*
X-2642880Y-6243558D01*
X-2515880Y-6167358D02*
X-2579380Y-6167358D01*
X-2579380Y-6192758D01*
X-2528580Y-6192758D01*
X-2515880Y-6205458D01*
X-2515880Y-6230858D01*
X-2528580Y-6243558D01*
X-2566680Y-6243558D01*
X-2579380Y-6230858D01*
X-2477780Y-6167358D02*
X-2414280Y-6167358D01*
X-2414280Y-6180058D01*
X-2477780Y-6243558D01*
D43*
X-4700280Y-6446758D02*
X-4700497Y-6441511D01*
X-4702262Y-6431016D01*
X-4705954Y-6420521D01*
X-4711982Y-6410026D01*
X-4721204Y-6399646D01*
X-4731699Y-6391958D01*
X-4742194Y-6387040D01*
X-4752689Y-6384234D01*
X-4763184Y-6383261D01*
X-4763780Y-6383258D01*
X-4827280Y-6446758D02*
X-4827063Y-6441511D01*
X-4825298Y-6431016D01*
X-4821606Y-6420521D01*
X-4815578Y-6410026D01*
X-4806356Y-6399646D01*
X-4795861Y-6391958D01*
X-4785366Y-6387040D01*
X-4774871Y-6384234D01*
X-4764376Y-6383261D01*
X-4763780Y-6383258D01*
X-4827280Y-6446758D02*
X-4827063Y-6452005D01*
X-4825298Y-6462500D01*
X-4821606Y-6472995D01*
X-4815578Y-6483490D01*
X-4806356Y-6493870D01*
X-4795861Y-6501558D01*
X-4785366Y-6506476D01*
X-4774871Y-6509282D01*
X-4764376Y-6510255D01*
X-4763780Y-6510258D01*
X-4700280Y-6446758D02*
X-4700497Y-6452005D01*
X-4702262Y-6462500D01*
X-4705954Y-6472995D01*
X-4711982Y-6483490D01*
X-4721204Y-6493870D01*
X-4731699Y-6501558D01*
X-4742194Y-6506476D01*
X-4752689Y-6509282D01*
X-4763184Y-6510255D01*
X-4763780Y-6510258D01*
X-4763780Y-6383258D02*
X-4763780Y-6510258D01*
X-4827280Y-6446758D02*
X-4700280Y-6446758D01*
D100*
X-4466600Y-6472158D02*
X-4466600Y-6421358D01*
X-4453900Y-6408658D01*
X-4403100Y-6408658D01*
X-4390400Y-6421358D01*
X-4390400Y-6472158D01*
X-4403100Y-6484858D01*
X-4453900Y-6484858D01*
X-4466600Y-6472158D01*
X-4466600Y-6484858D02*
X-4390400Y-6408658D01*
X-4326900Y-6472158D02*
X-4314200Y-6472158D01*
X-4314200Y-6484858D01*
X-4326900Y-6484858D01*
X-4326900Y-6472158D01*
X-4187200Y-6421358D02*
X-4199900Y-6408658D01*
X-4238000Y-6408658D01*
X-4250700Y-6421358D01*
X-4250700Y-6472158D01*
X-4238000Y-6484858D01*
X-4199900Y-6484858D01*
X-4187200Y-6472158D01*
X-4187200Y-6459458D01*
X-4199900Y-6446758D01*
X-4250700Y-6446758D01*
X-4149100Y-6421358D02*
X-4136400Y-6408658D01*
X-4098300Y-6408658D01*
X-4085600Y-6421358D01*
X-4085600Y-6434058D01*
X-4098300Y-6446758D01*
X-4085600Y-6459458D01*
X-4085600Y-6472158D01*
X-4098300Y-6484858D01*
X-4136400Y-6484858D01*
X-4149100Y-6472158D01*
X-4123700Y-6446758D02*
X-4098300Y-6446758D01*
X-3984000Y-6408658D02*
X-4047500Y-6408658D01*
X-4047500Y-6434058D01*
X-3996700Y-6434058D01*
X-3984000Y-6446758D01*
X-3984000Y-6472158D01*
X-3996700Y-6484858D01*
X-4034800Y-6484858D01*
X-4047500Y-6472158D01*
X-3958600Y-6484858D02*
X-3958600Y-6434058D01*
X-3958600Y-6446758D02*
X-3945900Y-6434058D01*
X-3920500Y-6459458D01*
X-3895100Y-6434058D01*
X-3882400Y-6446758D01*
X-3882400Y-6484858D01*
X-3857000Y-6484858D02*
X-3857000Y-6434058D01*
X-3857000Y-6446758D02*
X-3844300Y-6434058D01*
X-3818900Y-6459458D01*
X-3793500Y-6434058D01*
X-3780800Y-6446758D01*
X-3780800Y-6484858D01*
X-3463300Y-6408658D02*
X-3539500Y-6484858D01*
X-3539500Y-6408658D02*
X-3501400Y-6446758D01*
X-3361700Y-6484858D02*
X-3437900Y-6484858D01*
X-3437900Y-6408658D01*
X-3361700Y-6408658D01*
X-3437900Y-6446758D02*
X-3387100Y-6446758D01*
X-3336300Y-6472158D02*
X-3323600Y-6484858D01*
X-3272800Y-6484858D01*
X-3260100Y-6472158D01*
X-3260100Y-6459458D01*
X-3272800Y-6446758D01*
X-3323600Y-6446758D01*
X-3336300Y-6434058D01*
X-3336300Y-6421358D01*
X-3323600Y-6408658D01*
X-3272800Y-6408658D01*
X-3260100Y-6421358D01*
X-2668280Y-6434058D02*
X-2642880Y-6408658D01*
X-2642880Y-6484858D01*
X-2515880Y-6421358D02*
X-2528580Y-6408658D01*
X-2566680Y-6408658D01*
X-2579380Y-6421358D01*
X-2579380Y-6472158D01*
X-2566680Y-6484858D01*
X-2528580Y-6484858D01*
X-2515880Y-6472158D01*
X-2515880Y-6459458D01*
X-2528580Y-6446758D01*
X-2579380Y-6446758D01*
D43*
X-4700280Y-6688058D02*
X-4700497Y-6682811D01*
X-4702262Y-6672316D01*
X-4705954Y-6661821D01*
X-4711982Y-6651326D01*
X-4721204Y-6640946D01*
X-4731699Y-6633258D01*
X-4742194Y-6628340D01*
X-4752689Y-6625534D01*
X-4763184Y-6624561D01*
X-4763780Y-6624558D01*
X-4827280Y-6688058D02*
X-4827063Y-6682811D01*
X-4825298Y-6672316D01*
X-4821606Y-6661821D01*
X-4815578Y-6651326D01*
X-4806356Y-6640946D01*
X-4795861Y-6633258D01*
X-4785366Y-6628340D01*
X-4774871Y-6625534D01*
X-4764376Y-6624561D01*
X-4763780Y-6624558D01*
X-4827280Y-6688058D02*
X-4827063Y-6693305D01*
X-4825298Y-6703800D01*
X-4821606Y-6714295D01*
X-4815578Y-6724790D01*
X-4806356Y-6735170D01*
X-4795861Y-6742858D01*
X-4785366Y-6747776D01*
X-4774871Y-6750582D01*
X-4764376Y-6751555D01*
X-4763780Y-6751558D01*
X-4700280Y-6688058D02*
X-4700497Y-6693305D01*
X-4702262Y-6703800D01*
X-4705954Y-6714295D01*
X-4711982Y-6724790D01*
X-4721204Y-6735170D01*
X-4731699Y-6742858D01*
X-4742194Y-6747776D01*
X-4752689Y-6750582D01*
X-4763184Y-6751555D01*
X-4763780Y-6751558D01*
X-4808681Y-6643157D02*
X-4718879Y-6732959D01*
X-4808681Y-6732959D02*
X-4718879Y-6643157D01*
D100*
X-4466600Y-6713458D02*
X-4466600Y-6662658D01*
X-4453900Y-6649958D01*
X-4403100Y-6649958D01*
X-4390400Y-6662658D01*
X-4390400Y-6713458D01*
X-4403100Y-6726158D01*
X-4453900Y-6726158D01*
X-4466600Y-6713458D01*
X-4466600Y-6726158D02*
X-4390400Y-6649958D01*
X-4326900Y-6713458D02*
X-4314200Y-6713458D01*
X-4314200Y-6726158D01*
X-4326900Y-6726158D01*
X-4326900Y-6713458D01*
X-4250700Y-6649958D02*
X-4187200Y-6649958D01*
X-4187200Y-6662658D01*
X-4250700Y-6726158D01*
X-4085600Y-6662658D02*
X-4098300Y-6649958D01*
X-4136400Y-6649958D01*
X-4149100Y-6662658D01*
X-4149100Y-6713458D01*
X-4136400Y-6726158D01*
X-4098300Y-6726158D01*
X-4085600Y-6713458D01*
X-4085600Y-6700758D01*
X-4098300Y-6688058D01*
X-4149100Y-6688058D01*
X-4047500Y-6662658D02*
X-4034800Y-6649958D01*
X-3996700Y-6649958D01*
X-3984000Y-6662658D01*
X-3984000Y-6675358D01*
X-3996700Y-6688058D01*
X-4034800Y-6688058D01*
X-4047500Y-6700758D01*
X-4047500Y-6726158D01*
X-3984000Y-6726158D01*
X-3958600Y-6726158D02*
X-3958600Y-6675358D01*
X-3958600Y-6688058D02*
X-3945900Y-6675358D01*
X-3920500Y-6700758D01*
X-3895100Y-6675358D01*
X-3882400Y-6688058D01*
X-3882400Y-6726158D01*
X-3857000Y-6726158D02*
X-3857000Y-6675358D01*
X-3857000Y-6688058D02*
X-3844300Y-6675358D01*
X-3818900Y-6700758D01*
X-3793500Y-6675358D01*
X-3780800Y-6688058D01*
X-3780800Y-6726158D01*
X-3463300Y-6649958D02*
X-3539500Y-6726158D01*
X-3539500Y-6649958D02*
X-3501400Y-6688058D01*
X-3361700Y-6726158D02*
X-3437900Y-6726158D01*
X-3437900Y-6649958D01*
X-3361700Y-6649958D01*
X-3437900Y-6688058D02*
X-3387100Y-6688058D01*
X-3336300Y-6713458D02*
X-3323600Y-6726158D01*
X-3272800Y-6726158D01*
X-3260100Y-6713458D01*
X-3260100Y-6700758D01*
X-3272800Y-6688058D01*
X-3323600Y-6688058D01*
X-3336300Y-6675358D01*
X-3336300Y-6662658D01*
X-3323600Y-6649958D01*
X-3272800Y-6649958D01*
X-3260100Y-6662658D01*
X-2668280Y-6675358D02*
X-2642880Y-6649958D01*
X-2642880Y-6726158D01*
X-2592080Y-6713458D02*
X-2592080Y-6662658D01*
X-2579380Y-6649958D01*
X-2528580Y-6649958D01*
X-2515880Y-6662658D01*
X-2515880Y-6713458D01*
X-2528580Y-6726158D01*
X-2579380Y-6726158D01*
X-2592080Y-6713458D01*
X-2592080Y-6726158D02*
X-2515880Y-6649958D01*
D43*
X-4700280Y-6929358D02*
X-4700497Y-6924111D01*
X-4702262Y-6913616D01*
X-4705954Y-6903121D01*
X-4711982Y-6892626D01*
X-4721204Y-6882246D01*
X-4731699Y-6874558D01*
X-4742194Y-6869640D01*
X-4752689Y-6866834D01*
X-4763184Y-6865861D01*
X-4763780Y-6865858D01*
X-4827280Y-6929358D02*
X-4827063Y-6924111D01*
X-4825298Y-6913616D01*
X-4821606Y-6903121D01*
X-4815578Y-6892626D01*
X-4806356Y-6882246D01*
X-4795861Y-6874558D01*
X-4785366Y-6869640D01*
X-4774871Y-6866834D01*
X-4764376Y-6865861D01*
X-4763780Y-6865858D01*
X-4827280Y-6929358D02*
X-4827063Y-6934605D01*
X-4825298Y-6945100D01*
X-4821606Y-6955595D01*
X-4815578Y-6966090D01*
X-4806356Y-6976470D01*
X-4795861Y-6984158D01*
X-4785366Y-6989076D01*
X-4774871Y-6991882D01*
X-4764376Y-6992855D01*
X-4763780Y-6992858D01*
X-4700280Y-6929358D02*
X-4700497Y-6934605D01*
X-4702262Y-6945100D01*
X-4705954Y-6955595D01*
X-4711982Y-6966090D01*
X-4721204Y-6976470D01*
X-4731699Y-6984158D01*
X-4742194Y-6989076D01*
X-4752689Y-6991882D01*
X-4763184Y-6992855D01*
X-4763780Y-6992858D01*
X-4763780Y-6865858D02*
X-4763780Y-6992858D01*
X-4827280Y-6929358D02*
X-4700280Y-6929358D01*
X-4700497Y-6924111D01*
X-4702262Y-6913616D01*
X-4705954Y-6903121D01*
X-4711982Y-6892626D01*
X-4721204Y-6882246D01*
X-4731699Y-6874558D01*
X-4742194Y-6869640D01*
X-4752689Y-6866834D01*
X-4763184Y-6865861D01*
X-4763780Y-6865858D01*
X-4827280Y-6929358D02*
X-4827063Y-6924111D01*
X-4825298Y-6913616D01*
X-4821606Y-6903121D01*
X-4815578Y-6892626D01*
X-4806356Y-6882246D01*
X-4795861Y-6874558D01*
X-4785366Y-6869640D01*
X-4774871Y-6866834D01*
X-4764376Y-6865861D01*
X-4763780Y-6865858D01*
X-4827280Y-6929358D02*
X-4827063Y-6934605D01*
X-4825298Y-6945100D01*
X-4821606Y-6955595D01*
X-4815578Y-6966090D01*
X-4806356Y-6976470D01*
X-4795861Y-6984158D01*
X-4785366Y-6989076D01*
X-4774871Y-6991882D01*
X-4764376Y-6992855D01*
X-4763780Y-6992858D01*
X-4700280Y-6929358D02*
X-4700497Y-6934605D01*
X-4702262Y-6945100D01*
X-4705954Y-6955595D01*
X-4711982Y-6966090D01*
X-4721204Y-6976470D01*
X-4731699Y-6984158D01*
X-4742194Y-6989076D01*
X-4752689Y-6991882D01*
X-4763184Y-6992855D01*
X-4763780Y-6992858D01*
X-4808681Y-6884457D02*
X-4718879Y-6974259D01*
X-4808681Y-6974259D02*
X-4718879Y-6884457D01*
D100*
X-4466600Y-6954758D02*
X-4466600Y-6903958D01*
X-4453900Y-6891258D01*
X-4403100Y-6891258D01*
X-4390400Y-6903958D01*
X-4390400Y-6954758D01*
X-4403100Y-6967458D01*
X-4453900Y-6967458D01*
X-4466600Y-6954758D01*
X-4466600Y-6967458D02*
X-4390400Y-6891258D01*
X-4326900Y-6954758D02*
X-4314200Y-6954758D01*
X-4314200Y-6967458D01*
X-4326900Y-6967458D01*
X-4326900Y-6954758D01*
X-4238000Y-6929358D02*
X-4250700Y-6916658D01*
X-4250700Y-6903958D01*
X-4238000Y-6891258D01*
X-4199900Y-6891258D01*
X-4187200Y-6903958D01*
X-4187200Y-6916658D01*
X-4199900Y-6929358D01*
X-4238000Y-6929358D01*
X-4250700Y-6942058D01*
X-4250700Y-6954758D01*
X-4238000Y-6967458D01*
X-4199900Y-6967458D01*
X-4187200Y-6954758D01*
X-4187200Y-6942058D01*
X-4199900Y-6929358D01*
X-4136400Y-6929358D02*
X-4149100Y-6916658D01*
X-4149100Y-6903958D01*
X-4136400Y-6891258D01*
X-4098300Y-6891258D01*
X-4085600Y-6903958D01*
X-4085600Y-6916658D01*
X-4098300Y-6929358D01*
X-4136400Y-6929358D01*
X-4149100Y-6942058D01*
X-4149100Y-6954758D01*
X-4136400Y-6967458D01*
X-4098300Y-6967458D01*
X-4085600Y-6954758D01*
X-4085600Y-6942058D01*
X-4098300Y-6929358D01*
X-3984000Y-6916658D02*
X-3996700Y-6929358D01*
X-4034800Y-6929358D01*
X-4047500Y-6916658D01*
X-4047500Y-6903958D01*
X-4034800Y-6891258D01*
X-3996700Y-6891258D01*
X-3984000Y-6903958D01*
X-3984000Y-6954758D01*
X-3996700Y-6967458D01*
X-4034800Y-6967458D01*
X-3958600Y-6967458D02*
X-3958600Y-6916658D01*
X-3958600Y-6929358D02*
X-3945900Y-6916658D01*
X-3920500Y-6942058D01*
X-3895100Y-6916658D01*
X-3882400Y-6929358D01*
X-3882400Y-6967458D01*
X-3857000Y-6967458D02*
X-3857000Y-6916658D01*
X-3857000Y-6929358D02*
X-3844300Y-6916658D01*
X-3818900Y-6942058D01*
X-3793500Y-6916658D01*
X-3780800Y-6929358D01*
X-3780800Y-6967458D01*
X-3463300Y-6891258D02*
X-3539500Y-6967458D01*
X-3539500Y-6891258D02*
X-3501400Y-6929358D01*
X-3361700Y-6967458D02*
X-3437900Y-6967458D01*
X-3437900Y-6891258D01*
X-3361700Y-6891258D01*
X-3437900Y-6929358D02*
X-3387100Y-6929358D01*
X-3336300Y-6954758D02*
X-3323600Y-6967458D01*
X-3272800Y-6967458D01*
X-3260100Y-6954758D01*
X-3260100Y-6942058D01*
X-3272800Y-6929358D01*
X-3323600Y-6929358D01*
X-3336300Y-6916658D01*
X-3336300Y-6903958D01*
X-3323600Y-6891258D01*
X-3272800Y-6891258D01*
X-3260100Y-6903958D01*
X-2668280Y-6916658D02*
X-2642880Y-6891258D01*
X-2642880Y-6967458D01*
X-2592080Y-6954758D02*
X-2592080Y-6903958D01*
X-2579380Y-6891258D01*
X-2528580Y-6891258D01*
X-2515880Y-6903958D01*
X-2515880Y-6954758D01*
X-2528580Y-6967458D01*
X-2579380Y-6967458D01*
X-2592080Y-6954758D01*
X-2592080Y-6967458D02*
X-2515880Y-6891258D01*
D43*
X-4763780Y-7107158D02*
X-4763780Y-7234158D01*
X-4827280Y-7170658D02*
X-4700280Y-7170658D01*
X-4827280Y-7234158D02*
X-4700280Y-7234158D01*
X-4700280Y-7107158D01*
X-4827280Y-7107158D01*
X-4827280Y-7234158D01*
D100*
X-4466600Y-7196058D02*
X-4466600Y-7145258D01*
X-4453900Y-7132558D01*
X-4403100Y-7132558D01*
X-4390400Y-7145258D01*
X-4390400Y-7196058D01*
X-4403100Y-7208758D01*
X-4453900Y-7208758D01*
X-4466600Y-7196058D01*
X-4466600Y-7208758D02*
X-4390400Y-7132558D01*
X-4326900Y-7196058D02*
X-4314200Y-7196058D01*
X-4314200Y-7208758D01*
X-4326900Y-7208758D01*
X-4326900Y-7196058D01*
X-4187200Y-7157958D02*
X-4199900Y-7170658D01*
X-4238000Y-7170658D01*
X-4250700Y-7157958D01*
X-4250700Y-7145258D01*
X-4238000Y-7132558D01*
X-4199900Y-7132558D01*
X-4187200Y-7145258D01*
X-4187200Y-7196058D01*
X-4199900Y-7208758D01*
X-4238000Y-7208758D01*
X-4136400Y-7157958D02*
X-4111000Y-7132558D01*
X-4111000Y-7208758D01*
X-3984000Y-7183358D02*
X-4060200Y-7183358D01*
X-4009400Y-7132558D01*
X-4009400Y-7208758D01*
X-3882400Y-7183358D02*
X-3958600Y-7183358D01*
X-3907800Y-7132558D01*
X-3907800Y-7208758D01*
X-3857000Y-7208758D02*
X-3857000Y-7157958D01*
X-3857000Y-7170658D02*
X-3844300Y-7157958D01*
X-3818900Y-7183358D01*
X-3793500Y-7157958D01*
X-3780800Y-7170658D01*
X-3780800Y-7208758D01*
X-3755400Y-7208758D02*
X-3755400Y-7157958D01*
X-3755400Y-7170658D02*
X-3742700Y-7157958D01*
X-3717300Y-7183358D01*
X-3691900Y-7157958D01*
X-3679200Y-7170658D01*
X-3679200Y-7208758D01*
X-3463300Y-7132558D02*
X-3539500Y-7208758D01*
X-3539500Y-7132558D02*
X-3501400Y-7170658D01*
X-3361700Y-7208758D02*
X-3437900Y-7208758D01*
X-3437900Y-7132558D01*
X-3361700Y-7132558D01*
X-3437900Y-7170658D02*
X-3387100Y-7170658D01*
X-3336300Y-7196058D02*
X-3323600Y-7208758D01*
X-3272800Y-7208758D01*
X-3260100Y-7196058D01*
X-3260100Y-7183358D01*
X-3272800Y-7170658D01*
X-3323600Y-7170658D01*
X-3336300Y-7157958D01*
X-3336300Y-7145258D01*
X-3323600Y-7132558D01*
X-3272800Y-7132558D01*
X-3260100Y-7145258D01*
X-2668280Y-7157958D02*
X-2642880Y-7132558D01*
X-2642880Y-7208758D01*
X-2515880Y-7145258D02*
X-2528580Y-7132558D01*
X-2566680Y-7132558D01*
X-2579380Y-7145258D01*
X-2579380Y-7196058D01*
X-2566680Y-7208758D01*
X-2528580Y-7208758D01*
X-2515880Y-7196058D01*
X-2515880Y-7183358D01*
X-2528580Y-7170658D01*
X-2579380Y-7170658D01*
D43*
X-4827280Y-7475458D02*
X-4700280Y-7475458D01*
X-4700280Y-7348458D01*
X-4827280Y-7348458D01*
X-4827280Y-7475458D01*
X-4827280Y-7348458D02*
X-4700280Y-7475458D01*
X-4827280Y-7475458D02*
X-4700280Y-7348458D01*
D100*
X-4441200Y-7399258D02*
X-4415800Y-7373858D01*
X-4415800Y-7450058D01*
X-4326900Y-7437358D02*
X-4314200Y-7437358D01*
X-4314200Y-7450058D01*
X-4326900Y-7450058D01*
X-4326900Y-7437358D01*
X-4263400Y-7437358D02*
X-4263400Y-7386558D01*
X-4250700Y-7373858D01*
X-4199900Y-7373858D01*
X-4187200Y-7386558D01*
X-4187200Y-7437358D01*
X-4199900Y-7450058D01*
X-4250700Y-7450058D01*
X-4263400Y-7437358D01*
X-4263400Y-7450058D02*
X-4187200Y-7373858D01*
X-4136400Y-7399258D02*
X-4111000Y-7373858D01*
X-4111000Y-7450058D01*
X-3984000Y-7386558D02*
X-3996700Y-7373858D01*
X-4034800Y-7373858D01*
X-4047500Y-7386558D01*
X-4047500Y-7437358D01*
X-4034800Y-7450058D01*
X-3996700Y-7450058D01*
X-3984000Y-7437358D01*
X-3984000Y-7424658D01*
X-3996700Y-7411958D01*
X-4047500Y-7411958D01*
X-3958600Y-7450058D02*
X-3958600Y-7399258D01*
X-3958600Y-7411958D02*
X-3945900Y-7399258D01*
X-3920500Y-7424658D01*
X-3895100Y-7399258D01*
X-3882400Y-7411958D01*
X-3882400Y-7450058D01*
X-3857000Y-7450058D02*
X-3857000Y-7399258D01*
X-3857000Y-7411958D02*
X-3844300Y-7399258D01*
X-3818900Y-7424658D01*
X-3793500Y-7399258D01*
X-3780800Y-7411958D01*
X-3780800Y-7450058D01*
X-3463300Y-7373858D02*
X-3539500Y-7450058D01*
X-3539500Y-7373858D02*
X-3501400Y-7411958D01*
X-3361700Y-7450058D02*
X-3437900Y-7450058D01*
X-3437900Y-7373858D01*
X-3361700Y-7373858D01*
X-3437900Y-7411958D02*
X-3387100Y-7411958D01*
X-3336300Y-7437358D02*
X-3323600Y-7450058D01*
X-3272800Y-7450058D01*
X-3260100Y-7437358D01*
X-3260100Y-7424658D01*
X-3272800Y-7411958D01*
X-3323600Y-7411958D01*
X-3336300Y-7399258D01*
X-3336300Y-7386558D01*
X-3323600Y-7373858D01*
X-3272800Y-7373858D01*
X-3260100Y-7386558D01*
X-2680980Y-7373858D02*
X-2617480Y-7373858D01*
X-2617480Y-7386558D01*
X-2680980Y-7450058D01*
D43*
X-4763780Y-7589758D02*
X-4763780Y-7716758D01*
X-4827280Y-7653258D02*
X-4700280Y-7653258D01*
X-4827280Y-7716758D02*
X-4700280Y-7716758D01*
X-4700280Y-7589758D01*
X-4827280Y-7589758D01*
X-4827280Y-7716758D01*
X-4827280Y-7589758D02*
X-4700280Y-7716758D01*
X-4827280Y-7716758D02*
X-4700280Y-7589758D01*
D100*
X-4441200Y-7640558D02*
X-4415800Y-7615158D01*
X-4415800Y-7691358D01*
X-4326900Y-7678658D02*
X-4314200Y-7678658D01*
X-4314200Y-7691358D01*
X-4326900Y-7691358D01*
X-4326900Y-7678658D01*
X-4187200Y-7615158D02*
X-4250700Y-7615158D01*
X-4250700Y-7640558D01*
X-4199900Y-7640558D01*
X-4187200Y-7653258D01*
X-4187200Y-7678658D01*
X-4199900Y-7691358D01*
X-4238000Y-7691358D01*
X-4250700Y-7678658D01*
X-4149100Y-7627858D02*
X-4136400Y-7615158D01*
X-4098300Y-7615158D01*
X-4085600Y-7627858D01*
X-4085600Y-7640558D01*
X-4098300Y-7653258D01*
X-4136400Y-7653258D01*
X-4149100Y-7665958D01*
X-4149100Y-7691358D01*
X-4085600Y-7691358D01*
X-3984000Y-7665958D02*
X-4060200Y-7665958D01*
X-4009400Y-7615158D01*
X-4009400Y-7691358D01*
X-3958600Y-7691358D02*
X-3958600Y-7640558D01*
X-3958600Y-7653258D02*
X-3945900Y-7640558D01*
X-3920500Y-7665958D01*
X-3895100Y-7640558D01*
X-3882400Y-7653258D01*
X-3882400Y-7691358D01*
X-3857000Y-7691358D02*
X-3857000Y-7640558D01*
X-3857000Y-7653258D02*
X-3844300Y-7640558D01*
X-3818900Y-7665958D01*
X-3793500Y-7640558D01*
X-3780800Y-7653258D01*
X-3780800Y-7691358D01*
X-3463300Y-7615158D02*
X-3539500Y-7691358D01*
X-3539500Y-7615158D02*
X-3501400Y-7653258D01*
X-3361700Y-7691358D02*
X-3437900Y-7691358D01*
X-3437900Y-7615158D01*
X-3361700Y-7615158D01*
X-3437900Y-7653258D02*
X-3387100Y-7653258D01*
X-3336300Y-7678658D02*
X-3323600Y-7691358D01*
X-3272800Y-7691358D01*
X-3260100Y-7678658D01*
X-3260100Y-7665958D01*
X-3272800Y-7653258D01*
X-3323600Y-7653258D01*
X-3336300Y-7640558D01*
X-3336300Y-7627858D01*
X-3323600Y-7615158D01*
X-3272800Y-7615158D01*
X-3260100Y-7627858D01*
X-2680980Y-7627858D02*
X-2668280Y-7615158D01*
X-2630180Y-7615158D01*
X-2617480Y-7627858D01*
X-2617480Y-7640558D01*
X-2630180Y-7653258D01*
X-2668280Y-7653258D01*
X-2680980Y-7665958D01*
X-2680980Y-7691358D01*
X-2617480Y-7691358D01*
X-2579380Y-7615158D02*
X-2515880Y-7615158D01*
X-2515880Y-7627858D01*
X-2579380Y-7691358D01*
D43*
X-4763780Y-7984361D02*
X-4673977Y-7894558D01*
X-4763780Y-7804756D01*
X-4853583Y-7894558D01*
X-4763780Y-7984361D01*
X-4853583Y-7894558D02*
X-4673977Y-7894558D01*
X-4763780Y-7984361D02*
X-4763780Y-7804755D01*
D100*
X-4453900Y-7869158D02*
X-4441200Y-7856458D01*
X-4403100Y-7856458D01*
X-4390400Y-7869158D01*
X-4390400Y-7881858D01*
X-4403100Y-7894558D01*
X-4390400Y-7907258D01*
X-4390400Y-7919958D01*
X-4403100Y-7932658D01*
X-4441200Y-7932658D01*
X-4453900Y-7919958D01*
X-4428500Y-7894558D02*
X-4403100Y-7894558D01*
X-4326900Y-7919958D02*
X-4314200Y-7919958D01*
X-4314200Y-7932658D01*
X-4326900Y-7932658D01*
X-4326900Y-7919958D01*
X-4187200Y-7869158D02*
X-4199900Y-7856458D01*
X-4238000Y-7856458D01*
X-4250700Y-7869158D01*
X-4250700Y-7919958D01*
X-4238000Y-7932658D01*
X-4199900Y-7932658D01*
X-4187200Y-7919958D01*
X-4187200Y-7907258D01*
X-4199900Y-7894558D01*
X-4250700Y-7894558D01*
X-4161800Y-7932658D02*
X-4161800Y-7881858D01*
X-4161800Y-7894558D02*
X-4149100Y-7881858D01*
X-4123700Y-7907258D01*
X-4098300Y-7881858D01*
X-4085600Y-7894558D01*
X-4085600Y-7932658D01*
X-4060200Y-7932658D02*
X-4060200Y-7881858D01*
X-4060200Y-7894558D02*
X-4047500Y-7881858D01*
X-4022100Y-7907258D01*
X-3996700Y-7881858D01*
X-3984000Y-7894558D01*
X-3984000Y-7932658D01*
X-3463300Y-7856458D02*
X-3539500Y-7932658D01*
X-3539500Y-7856458D02*
X-3501400Y-7894558D01*
X-3361700Y-7932658D02*
X-3437900Y-7932658D01*
X-3437900Y-7856458D01*
X-3361700Y-7856458D01*
X-3437900Y-7894558D02*
X-3387100Y-7894558D01*
X-3336300Y-7919958D02*
X-3323600Y-7932658D01*
X-3272800Y-7932658D01*
X-3260100Y-7919958D01*
X-3260100Y-7907258D01*
X-3272800Y-7894558D01*
X-3323600Y-7894558D01*
X-3336300Y-7881858D01*
X-3336300Y-7869158D01*
X-3323600Y-7856458D01*
X-3272800Y-7856458D01*
X-3260100Y-7869158D01*
X-2680980Y-7869158D02*
X-2668280Y-7856458D01*
X-2630180Y-7856458D01*
X-2617480Y-7869158D01*
X-2617480Y-7881858D01*
X-2630180Y-7894558D01*
X-2617480Y-7907258D01*
X-2617480Y-7919958D01*
X-2630180Y-7932658D01*
X-2668280Y-7932658D01*
X-2680980Y-7919958D01*
X-2655580Y-7894558D02*
X-2630180Y-7894558D01*
D43*
X-4808681Y-8090957D02*
X-4718879Y-8180759D01*
X-4808681Y-8180759D02*
X-4718879Y-8090957D01*
X-4763780Y-8225661D02*
X-4673977Y-8135858D01*
X-4763780Y-8046056D01*
X-4853583Y-8135858D01*
X-4763780Y-8225661D01*
D100*
X-4453900Y-8110458D02*
X-4441200Y-8097758D01*
X-4403100Y-8097758D01*
X-4390400Y-8110458D01*
X-4390400Y-8123158D01*
X-4403100Y-8135858D01*
X-4390400Y-8148558D01*
X-4390400Y-8161258D01*
X-4403100Y-8173958D01*
X-4441200Y-8173958D01*
X-4453900Y-8161258D01*
X-4428500Y-8135858D02*
X-4403100Y-8135858D01*
X-4365000Y-8173958D02*
X-4365000Y-8123158D01*
X-4365000Y-8135858D02*
X-4352300Y-8123158D01*
X-4326900Y-8148558D01*
X-4301500Y-8123158D01*
X-4288800Y-8135858D01*
X-4288800Y-8173958D01*
X-4263400Y-8173958D02*
X-4263400Y-8123158D01*
X-4263400Y-8135858D02*
X-4250700Y-8123158D01*
X-4225300Y-8148558D01*
X-4199900Y-8123158D01*
X-4187200Y-8135858D01*
X-4187200Y-8173958D01*
X-3463300Y-8097758D02*
X-3539500Y-8173958D01*
X-3539500Y-8097758D02*
X-3501400Y-8135858D01*
X-3361700Y-8173958D02*
X-3437900Y-8173958D01*
X-3437900Y-8097758D01*
X-3361700Y-8097758D01*
X-3437900Y-8135858D02*
X-3387100Y-8135858D01*
X-3336300Y-8161258D02*
X-3323600Y-8173958D01*
X-3272800Y-8173958D01*
X-3260100Y-8161258D01*
X-3260100Y-8148558D01*
X-3272800Y-8135858D01*
X-3323600Y-8135858D01*
X-3336300Y-8123158D01*
X-3336300Y-8110458D01*
X-3323600Y-8097758D01*
X-3272800Y-8097758D01*
X-3260100Y-8110458D01*
X-2680980Y-8110458D02*
X-2668280Y-8097758D01*
X-2630180Y-8097758D01*
X-2617480Y-8110458D01*
X-2617480Y-8123158D01*
X-2630180Y-8135858D01*
X-2668280Y-8135858D01*
X-2680980Y-8148558D01*
X-2680980Y-8173958D01*
X-2617480Y-8173958D01*
M02*
