G04 PROTEUS RS274X GERBER FILE*
%FSLAX45Y45*%
%MOMM*%
G01*
%ADD43C,0.203200*%
%ADD48C,0.063500*%
D43*
X-5000000Y-5000000D02*
X+5000000Y-5000000D01*
X+5000000Y+5000000D01*
X-5000000Y+5000000D01*
X-5000000Y-5000000D01*
X+2520000Y-4830000D02*
X+2760000Y-4830000D01*
X+2760000Y+1340000D01*
X+2520000Y+1340000D01*
X+2520000Y-4830000D01*
D48*
X-1598640Y+1389837D02*
X-1578320Y+1389837D01*
X-1598640Y+1394917D02*
X-1578320Y+1394917D01*
X-1598640Y+1399997D02*
X-1578320Y+1399997D01*
X-1598640Y+1405077D02*
X-1578320Y+1405077D01*
X-1598640Y+1410157D02*
X-1578320Y+1410157D01*
X-1598640Y+1415237D02*
X-1578320Y+1415237D01*
X-1598640Y+1420317D02*
X-1578320Y+1420317D01*
X-1598640Y+1425397D02*
X-1578320Y+1425397D01*
X-1598640Y+1430477D02*
X-1578320Y+1430477D01*
X-2005040Y+1435557D02*
X-1984720Y+1435557D01*
X-1852640Y+1435557D02*
X-1817080Y+1435557D01*
X-1644360Y+1435557D02*
X-1618960Y+1435557D01*
X-1598640Y+1435557D02*
X-1578320Y+1435557D01*
X-1517360Y+1435557D02*
X-1481800Y+1435557D01*
X-1420840Y+1435557D02*
X-1314160Y+1435557D01*
X-1263360Y+1435557D02*
X-1227800Y+1435557D01*
X-1166840Y+1435557D02*
X-1146520Y+1435557D01*
X-1090640Y+1435557D02*
X-1050000Y+1435557D01*
X-989040Y+1435557D02*
X-968720Y+1435557D01*
X-917920Y+1435557D02*
X-897600Y+1435557D01*
X-846800Y+1435557D02*
X-826480Y+1435557D01*
X-750280Y+1435557D02*
X-729960Y+1435557D01*
X-679160Y+1435557D02*
X-658840Y+1435557D01*
X-552160Y+1435557D02*
X-531840Y+1435557D01*
X-460720Y+1435557D02*
X-440400Y+1435557D01*
X-354040Y+1435557D02*
X-333720Y+1435557D01*
X-252440Y+1435557D02*
X-232120Y+1435557D01*
X-150840Y+1435557D02*
X-130520Y+1435557D01*
X-69560Y+1435557D02*
X-44160Y+1435557D01*
X+42200Y+1435557D02*
X+67600Y+1435557D01*
X+230160Y+1435557D02*
X+275880Y+1435557D01*
X+341920Y+1435557D02*
X+463840Y+1435557D01*
X+504480Y+1435557D02*
X+524800Y+1435557D01*
X+550200Y+1435557D02*
X+575600Y+1435557D01*
X+667040Y+1435557D02*
X+687360Y+1435557D01*
X+768640Y+1435557D02*
X+788960Y+1435557D01*
X+900720Y+1435557D02*
X+946440Y+1435557D01*
X+1058200Y+1435557D02*
X+1103920Y+1435557D01*
X+1220760Y+1435557D02*
X+1307120Y+1435557D01*
X+1342680Y+1435557D02*
X+1368080Y+1435557D01*
X+1449360Y+1435557D02*
X+1469680Y+1435557D01*
X+1510320Y+1435557D02*
X+1530640Y+1435557D01*
X+1622080Y+1435557D02*
X+1647480Y+1435557D01*
X+1738920Y+1435557D02*
X+1759240Y+1435557D01*
X+1845600Y+1435557D02*
X+1891320Y+1435557D01*
X+2053880Y+1435557D02*
X+2074200Y+1435557D01*
X+2292640Y+1435557D02*
X+2338360Y+1435557D01*
X+2409480Y+1435557D02*
X+2511080Y+1435557D01*
X+2643160Y+1435557D02*
X+2663480Y+1435557D01*
X+2887000Y+1435557D02*
X+2973360Y+1435557D01*
X+2998760Y+1435557D02*
X+3024160Y+1435557D01*
X+3115600Y+1435557D02*
X+3135920Y+1435557D01*
X+3161320Y+1435557D02*
X+3181640Y+1435557D01*
X+3288320Y+1435557D02*
X+3308640Y+1435557D01*
X+3374680Y+1435557D02*
X+3420400Y+1435557D01*
X+3532160Y+1435557D02*
X+3618520Y+1435557D01*
X+3699800Y+1435557D02*
X+3801400Y+1435557D01*
X+3887760Y+1435557D02*
X+3933480Y+1435557D01*
X+4004600Y+1435557D02*
X+4030000Y+1435557D01*
X+4121440Y+1435557D02*
X+4141760Y+1435557D01*
X+4223040Y+1435557D02*
X+4243360Y+1435557D01*
X+4319560Y+1435557D02*
X+4344960Y+1435557D01*
X+4426240Y+1435557D02*
X+4446560Y+1435557D01*
X+4532920Y+1435557D02*
X+4578640Y+1435557D01*
X+4695480Y+1435557D02*
X+4741200Y+1435557D01*
X-2005040Y+1440637D02*
X-1984720Y+1440637D01*
X-1852640Y+1440637D02*
X-1817080Y+1440637D01*
X-1654520Y+1440637D02*
X-1608800Y+1440637D01*
X-1598640Y+1440637D02*
X-1578320Y+1440637D01*
X-1527520Y+1440637D02*
X-1471640Y+1440637D01*
X-1420840Y+1440637D02*
X-1314160Y+1440637D01*
X-1273520Y+1440637D02*
X-1217640Y+1440637D01*
X-1166840Y+1440637D02*
X-1146520Y+1440637D01*
X-1100800Y+1440637D02*
X-1039840Y+1440637D01*
X-989040Y+1440637D02*
X-968720Y+1440637D01*
X-917920Y+1440637D02*
X-897600Y+1440637D01*
X-846800Y+1440637D02*
X-826480Y+1440637D01*
X-750280Y+1440637D02*
X-729960Y+1440637D01*
X-679160Y+1440637D02*
X-653760Y+1440637D01*
X-557240Y+1440637D02*
X-531840Y+1440637D01*
X-460720Y+1440637D02*
X-440400Y+1440637D01*
X-354040Y+1440637D02*
X-333720Y+1440637D01*
X-252440Y+1440637D02*
X-232120Y+1440637D01*
X-150840Y+1440637D02*
X-130520Y+1440637D01*
X-69560Y+1440637D02*
X-39080Y+1440637D01*
X+37120Y+1440637D02*
X+67600Y+1440637D01*
X+214920Y+1440637D02*
X+291120Y+1440637D01*
X+341920Y+1440637D02*
X+463840Y+1440637D01*
X+504480Y+1440637D02*
X+524800Y+1440637D01*
X+555280Y+1440637D02*
X+580680Y+1440637D01*
X+667040Y+1440637D02*
X+687360Y+1440637D01*
X+768640Y+1440637D02*
X+788960Y+1440637D01*
X+885480Y+1440637D02*
X+961680Y+1440637D01*
X+1042960Y+1440637D02*
X+1119160Y+1440637D01*
X+1205520Y+1440637D02*
X+1307120Y+1440637D01*
X+1342680Y+1440637D02*
X+1368080Y+1440637D01*
X+1449360Y+1440637D02*
X+1469680Y+1440637D01*
X+1510320Y+1440637D02*
X+1530640Y+1440637D01*
X+1627160Y+1440637D02*
X+1652560Y+1440637D01*
X+1738920Y+1440637D02*
X+1759240Y+1440637D01*
X+1830360Y+1440637D02*
X+1906560Y+1440637D01*
X+2053880Y+1440637D02*
X+2074200Y+1440637D01*
X+2282480Y+1440637D02*
X+2353600Y+1440637D01*
X+2409480Y+1440637D02*
X+2511080Y+1440637D01*
X+2643160Y+1440637D02*
X+2663480Y+1440637D01*
X+2871760Y+1440637D02*
X+2973360Y+1440637D01*
X+3003840Y+1440637D02*
X+3029240Y+1440637D01*
X+3115600Y+1440637D02*
X+3135920Y+1440637D01*
X+3161320Y+1440637D02*
X+3186720Y+1440637D01*
X+3283240Y+1440637D02*
X+3308640Y+1440637D01*
X+3359440Y+1440637D02*
X+3435640Y+1440637D01*
X+3516920Y+1440637D02*
X+3618520Y+1440637D01*
X+3699800Y+1440637D02*
X+3801400Y+1440637D01*
X+3872520Y+1440637D02*
X+3948720Y+1440637D01*
X+4009680Y+1440637D02*
X+4035080Y+1440637D01*
X+4121440Y+1440637D02*
X+4141760Y+1440637D01*
X+4223040Y+1440637D02*
X+4243360Y+1440637D01*
X+4319560Y+1440637D02*
X+4344960Y+1440637D01*
X+4426240Y+1440637D02*
X+4446560Y+1440637D01*
X+4517680Y+1440637D02*
X+4593880Y+1440637D01*
X+4685320Y+1440637D02*
X+4756440Y+1440637D01*
X-2005040Y+1445717D02*
X-1984720Y+1445717D01*
X-1852640Y+1445717D02*
X-1817080Y+1445717D01*
X-1659600Y+1445717D02*
X-1603720Y+1445717D01*
X-1598640Y+1445717D02*
X-1578320Y+1445717D01*
X-1537680Y+1445717D02*
X-1461480Y+1445717D01*
X-1420840Y+1445717D02*
X-1314160Y+1445717D01*
X-1283680Y+1445717D02*
X-1207480Y+1445717D01*
X-1166840Y+1445717D02*
X-1146520Y+1445717D01*
X-1105880Y+1445717D02*
X-1034760Y+1445717D01*
X-989040Y+1445717D02*
X-968720Y+1445717D01*
X-917920Y+1445717D02*
X-897600Y+1445717D01*
X-846800Y+1445717D02*
X-826480Y+1445717D01*
X-750280Y+1445717D02*
X-729960Y+1445717D01*
X-674080Y+1445717D02*
X-653760Y+1445717D01*
X-557240Y+1445717D02*
X-536920Y+1445717D01*
X-460720Y+1445717D02*
X-440400Y+1445717D01*
X-354040Y+1445717D02*
X-333720Y+1445717D01*
X-252440Y+1445717D02*
X-232120Y+1445717D01*
X-150840Y+1445717D02*
X-130520Y+1445717D01*
X-69560Y+1445717D02*
X-39080Y+1445717D01*
X+37120Y+1445717D02*
X+67600Y+1445717D01*
X+209840Y+1445717D02*
X+296200Y+1445717D01*
X+341920Y+1445717D02*
X+463840Y+1445717D01*
X+504480Y+1445717D02*
X+524800Y+1445717D01*
X+560360Y+1445717D02*
X+580680Y+1445717D01*
X+667040Y+1445717D02*
X+687360Y+1445717D01*
X+768640Y+1445717D02*
X+788960Y+1445717D01*
X+880400Y+1445717D02*
X+966760Y+1445717D01*
X+1037880Y+1445717D02*
X+1124240Y+1445717D01*
X+1200440Y+1445717D02*
X+1307120Y+1445717D01*
X+1342680Y+1445717D02*
X+1373160Y+1445717D01*
X+1449360Y+1445717D02*
X+1469680Y+1445717D01*
X+1510320Y+1445717D02*
X+1530640Y+1445717D01*
X+1632240Y+1445717D02*
X+1652560Y+1445717D01*
X+1738920Y+1445717D02*
X+1759240Y+1445717D01*
X+1825280Y+1445717D02*
X+1911640Y+1445717D01*
X+2053880Y+1445717D02*
X+2074200Y+1445717D01*
X+2272320Y+1445717D02*
X+2363760Y+1445717D01*
X+2409480Y+1445717D02*
X+2511080Y+1445717D01*
X+2643160Y+1445717D02*
X+2663480Y+1445717D01*
X+2866680Y+1445717D02*
X+2973360Y+1445717D01*
X+3008920Y+1445717D02*
X+3029240Y+1445717D01*
X+3115600Y+1445717D02*
X+3135920Y+1445717D01*
X+3166400Y+1445717D02*
X+3186720Y+1445717D01*
X+3283240Y+1445717D02*
X+3303560Y+1445717D01*
X+3354360Y+1445717D02*
X+3440720Y+1445717D01*
X+3511840Y+1445717D02*
X+3618520Y+1445717D01*
X+3699800Y+1445717D02*
X+3801400Y+1445717D01*
X+3867440Y+1445717D02*
X+3953800Y+1445717D01*
X+4014760Y+1445717D02*
X+4035080Y+1445717D01*
X+4121440Y+1445717D02*
X+4141760Y+1445717D01*
X+4223040Y+1445717D02*
X+4243360Y+1445717D01*
X+4319560Y+1445717D02*
X+4350040Y+1445717D01*
X+4426240Y+1445717D02*
X+4446560Y+1445717D01*
X+4512600Y+1445717D02*
X+4598960Y+1445717D01*
X+4675160Y+1445717D02*
X+4766600Y+1445717D01*
X-2005040Y+1450797D02*
X-1984720Y+1450797D01*
X-1857720Y+1450797D02*
X-1812000Y+1450797D01*
X-1664680Y+1450797D02*
X-1578320Y+1450797D01*
X-1542760Y+1450797D02*
X-1456400Y+1450797D01*
X-1420840Y+1450797D02*
X-1319240Y+1450797D01*
X-1288760Y+1450797D02*
X-1202400Y+1450797D01*
X-1166840Y+1450797D02*
X-1146520Y+1450797D01*
X-1110960Y+1450797D02*
X-1029680Y+1450797D01*
X-989040Y+1450797D02*
X-968720Y+1450797D01*
X-917920Y+1450797D02*
X-897600Y+1450797D01*
X-846800Y+1450797D02*
X-826480Y+1450797D01*
X-750280Y+1450797D02*
X-729960Y+1450797D01*
X-674080Y+1450797D02*
X-653760Y+1450797D01*
X-557240Y+1450797D02*
X-536920Y+1450797D01*
X-460720Y+1450797D02*
X-440400Y+1450797D01*
X-354040Y+1450797D02*
X-333720Y+1450797D01*
X-252440Y+1450797D02*
X-232120Y+1450797D01*
X-150840Y+1450797D02*
X-130520Y+1450797D01*
X-69560Y+1450797D02*
X-39080Y+1450797D01*
X+37120Y+1450797D02*
X+67600Y+1450797D01*
X+199680Y+1450797D02*
X+306360Y+1450797D01*
X+341920Y+1450797D02*
X+463840Y+1450797D01*
X+504480Y+1450797D02*
X+524800Y+1450797D01*
X+560360Y+1450797D02*
X+585760Y+1450797D01*
X+667040Y+1450797D02*
X+687360Y+1450797D01*
X+768640Y+1450797D02*
X+788960Y+1450797D01*
X+870240Y+1450797D02*
X+976920Y+1450797D01*
X+1032800Y+1450797D02*
X+1129320Y+1450797D01*
X+1190280Y+1450797D02*
X+1307120Y+1450797D01*
X+1342680Y+1450797D02*
X+1378240Y+1450797D01*
X+1449360Y+1450797D02*
X+1469680Y+1450797D01*
X+1510320Y+1450797D02*
X+1530640Y+1450797D01*
X+1632240Y+1450797D02*
X+1657640Y+1450797D01*
X+1738920Y+1450797D02*
X+1759240Y+1450797D01*
X+1815120Y+1450797D02*
X+1921800Y+1450797D01*
X+2053880Y+1450797D02*
X+2074200Y+1450797D01*
X+2267240Y+1450797D02*
X+2368840Y+1450797D01*
X+2409480Y+1450797D02*
X+2511080Y+1450797D01*
X+2643160Y+1450797D02*
X+2663480Y+1450797D01*
X+2856520Y+1450797D02*
X+2973360Y+1450797D01*
X+3008920Y+1450797D02*
X+3034320Y+1450797D01*
X+3115600Y+1450797D02*
X+3135920Y+1450797D01*
X+3166400Y+1450797D02*
X+3186720Y+1450797D01*
X+3283240Y+1450797D02*
X+3303560Y+1450797D01*
X+3344200Y+1450797D02*
X+3450880Y+1450797D01*
X+3506760Y+1450797D02*
X+3618520Y+1450797D01*
X+3699800Y+1450797D02*
X+3801400Y+1450797D01*
X+3857280Y+1450797D02*
X+3963960Y+1450797D01*
X+4014760Y+1450797D02*
X+4040160Y+1450797D01*
X+4121440Y+1450797D02*
X+4141760Y+1450797D01*
X+4223040Y+1450797D02*
X+4243360Y+1450797D01*
X+4319560Y+1450797D02*
X+4355120Y+1450797D01*
X+4426240Y+1450797D02*
X+4446560Y+1450797D01*
X+4502440Y+1450797D02*
X+4609120Y+1450797D01*
X+4670080Y+1450797D02*
X+4771680Y+1450797D01*
X-2005040Y+1455877D02*
X-1984720Y+1455877D01*
X-1857720Y+1455877D02*
X-1837400Y+1455877D01*
X-1832320Y+1455877D02*
X-1812000Y+1455877D01*
X-1669760Y+1455877D02*
X-1639280Y+1455877D01*
X-1618960Y+1455877D02*
X-1578320Y+1455877D01*
X-1542760Y+1455877D02*
X-1517360Y+1455877D01*
X-1486880Y+1455877D02*
X-1456400Y+1455877D01*
X-1344640Y+1455877D02*
X-1319240Y+1455877D01*
X-1288760Y+1455877D02*
X-1258280Y+1455877D01*
X-1227800Y+1455877D02*
X-1197320Y+1455877D01*
X-1166840Y+1455877D02*
X-1146520Y+1455877D01*
X-1116040Y+1455877D02*
X-1085560Y+1455877D01*
X-1055080Y+1455877D02*
X-1024600Y+1455877D01*
X-989040Y+1455877D02*
X-968720Y+1455877D01*
X-917920Y+1455877D02*
X-897600Y+1455877D01*
X-846800Y+1455877D02*
X-826480Y+1455877D01*
X-750280Y+1455877D02*
X-729960Y+1455877D01*
X-669000Y+1455877D02*
X-648680Y+1455877D01*
X-562320Y+1455877D02*
X-542000Y+1455877D01*
X-460720Y+1455877D02*
X-440400Y+1455877D01*
X-354040Y+1455877D02*
X-333720Y+1455877D01*
X-252440Y+1455877D02*
X-232120Y+1455877D01*
X-150840Y+1455877D02*
X-130520Y+1455877D01*
X-74640Y+1455877D02*
X-59400Y+1455877D01*
X-54320Y+1455877D02*
X-34000Y+1455877D01*
X+32040Y+1455877D02*
X+52360Y+1455877D01*
X+57440Y+1455877D02*
X+72680Y+1455877D01*
X+199680Y+1455877D02*
X+235240Y+1455877D01*
X+270800Y+1455877D02*
X+306360Y+1455877D01*
X+443520Y+1455877D02*
X+463840Y+1455877D01*
X+504480Y+1455877D02*
X+524800Y+1455877D01*
X+565440Y+1455877D02*
X+590840Y+1455877D01*
X+667040Y+1455877D02*
X+687360Y+1455877D01*
X+768640Y+1455877D02*
X+788960Y+1455877D01*
X+870240Y+1455877D02*
X+905800Y+1455877D01*
X+941360Y+1455877D02*
X+976920Y+1455877D01*
X+1027720Y+1455877D02*
X+1063280Y+1455877D01*
X+1098840Y+1455877D02*
X+1134400Y+1455877D01*
X+1190280Y+1455877D02*
X+1225840Y+1455877D01*
X+1286800Y+1455877D02*
X+1307120Y+1455877D01*
X+1342680Y+1455877D02*
X+1378240Y+1455877D01*
X+1449360Y+1455877D02*
X+1469680Y+1455877D01*
X+1510320Y+1455877D02*
X+1530640Y+1455877D01*
X+1637320Y+1455877D02*
X+1662720Y+1455877D01*
X+1738920Y+1455877D02*
X+1759240Y+1455877D01*
X+1810040Y+1455877D02*
X+1850680Y+1455877D01*
X+1886240Y+1455877D02*
X+1926880Y+1455877D01*
X+2053880Y+1455877D02*
X+2074200Y+1455877D01*
X+2262160Y+1455877D02*
X+2297720Y+1455877D01*
X+2338360Y+1455877D02*
X+2373920Y+1455877D01*
X+2490760Y+1455877D02*
X+2511080Y+1455877D01*
X+2643160Y+1455877D02*
X+2663480Y+1455877D01*
X+2856520Y+1455877D02*
X+2892080Y+1455877D01*
X+2953040Y+1455877D02*
X+2973360Y+1455877D01*
X+3014000Y+1455877D02*
X+3039400Y+1455877D01*
X+3115600Y+1455877D02*
X+3135920Y+1455877D01*
X+3171480Y+1455877D02*
X+3191800Y+1455877D01*
X+3278160Y+1455877D02*
X+3298480Y+1455877D01*
X+3339120Y+1455877D02*
X+3379760Y+1455877D01*
X+3415320Y+1455877D02*
X+3455960Y+1455877D01*
X+3501680Y+1455877D02*
X+3532160Y+1455877D01*
X+3598200Y+1455877D02*
X+3618520Y+1455877D01*
X+3781080Y+1455877D02*
X+3801400Y+1455877D01*
X+3852200Y+1455877D02*
X+3892840Y+1455877D01*
X+3928400Y+1455877D02*
X+3969040Y+1455877D01*
X+4019840Y+1455877D02*
X+4045240Y+1455877D01*
X+4121440Y+1455877D02*
X+4141760Y+1455877D01*
X+4223040Y+1455877D02*
X+4243360Y+1455877D01*
X+4319560Y+1455877D02*
X+4355120Y+1455877D01*
X+4426240Y+1455877D02*
X+4446560Y+1455877D01*
X+4497360Y+1455877D02*
X+4538000Y+1455877D01*
X+4573560Y+1455877D02*
X+4614200Y+1455877D01*
X+4665000Y+1455877D02*
X+4700560Y+1455877D01*
X+4741200Y+1455877D02*
X+4776760Y+1455877D01*
X-2005040Y+1460957D02*
X-1984720Y+1460957D01*
X-1857720Y+1460957D02*
X-1837400Y+1460957D01*
X-1832320Y+1460957D02*
X-1812000Y+1460957D01*
X-1674840Y+1460957D02*
X-1649440Y+1460957D01*
X-1608800Y+1460957D02*
X-1578320Y+1460957D01*
X-1547840Y+1460957D02*
X-1522440Y+1460957D01*
X-1476720Y+1460957D02*
X-1451320Y+1460957D01*
X-1349720Y+1460957D02*
X-1324320Y+1460957D01*
X-1293840Y+1460957D02*
X-1268440Y+1460957D01*
X-1222720Y+1460957D02*
X-1197320Y+1460957D01*
X-1166840Y+1460957D02*
X-1146520Y+1460957D01*
X-1116040Y+1460957D02*
X-1090640Y+1460957D01*
X-1044920Y+1460957D02*
X-1019520Y+1460957D01*
X-989040Y+1460957D02*
X-968720Y+1460957D01*
X-917920Y+1460957D02*
X-897600Y+1460957D01*
X-846800Y+1460957D02*
X-826480Y+1460957D01*
X-750280Y+1460957D02*
X-729960Y+1460957D01*
X-669000Y+1460957D02*
X-648680Y+1460957D01*
X-562320Y+1460957D02*
X-542000Y+1460957D01*
X-460720Y+1460957D02*
X-440400Y+1460957D01*
X-354040Y+1460957D02*
X-333720Y+1460957D01*
X-252440Y+1460957D02*
X-232120Y+1460957D01*
X-150840Y+1460957D02*
X-130520Y+1460957D01*
X-74640Y+1460957D02*
X-59400Y+1460957D01*
X-54320Y+1460957D02*
X-34000Y+1460957D01*
X+32040Y+1460957D02*
X+52360Y+1460957D01*
X+57440Y+1460957D02*
X+72680Y+1460957D01*
X+194600Y+1460957D02*
X+220000Y+1460957D01*
X+280960Y+1460957D02*
X+311440Y+1460957D01*
X+443520Y+1460957D02*
X+463840Y+1460957D01*
X+504480Y+1460957D02*
X+524800Y+1460957D01*
X+570520Y+1460957D02*
X+590840Y+1460957D01*
X+667040Y+1460957D02*
X+687360Y+1460957D01*
X+768640Y+1460957D02*
X+788960Y+1460957D01*
X+865160Y+1460957D02*
X+890560Y+1460957D01*
X+951520Y+1460957D02*
X+982000Y+1460957D01*
X+1022640Y+1460957D02*
X+1053120Y+1460957D01*
X+1109000Y+1460957D02*
X+1139480Y+1460957D01*
X+1185200Y+1460957D02*
X+1210600Y+1460957D01*
X+1286800Y+1460957D02*
X+1307120Y+1460957D01*
X+1342680Y+1460957D02*
X+1383320Y+1460957D01*
X+1449360Y+1460957D02*
X+1469680Y+1460957D01*
X+1510320Y+1460957D02*
X+1530640Y+1460957D01*
X+1642400Y+1460957D02*
X+1662720Y+1460957D01*
X+1738920Y+1460957D02*
X+1759240Y+1460957D01*
X+1804960Y+1460957D02*
X+1835440Y+1460957D01*
X+1901480Y+1460957D02*
X+1931960Y+1460957D01*
X+2053880Y+1460957D02*
X+2074200Y+1460957D01*
X+2257080Y+1460957D02*
X+2287560Y+1460957D01*
X+2348520Y+1460957D02*
X+2379000Y+1460957D01*
X+2490760Y+1460957D02*
X+2511080Y+1460957D01*
X+2643160Y+1460957D02*
X+2663480Y+1460957D01*
X+2851440Y+1460957D02*
X+2876840Y+1460957D01*
X+2953040Y+1460957D02*
X+2973360Y+1460957D01*
X+3019080Y+1460957D02*
X+3039400Y+1460957D01*
X+3115600Y+1460957D02*
X+3135920Y+1460957D01*
X+3171480Y+1460957D02*
X+3191800Y+1460957D01*
X+3278160Y+1460957D02*
X+3298480Y+1460957D01*
X+3334040Y+1460957D02*
X+3364520Y+1460957D01*
X+3430560Y+1460957D02*
X+3461040Y+1460957D01*
X+3501680Y+1460957D02*
X+3527080Y+1460957D01*
X+3598200Y+1460957D02*
X+3618520Y+1460957D01*
X+3781080Y+1460957D02*
X+3801400Y+1460957D01*
X+3847120Y+1460957D02*
X+3877600Y+1460957D01*
X+3943640Y+1460957D02*
X+3974120Y+1460957D01*
X+4024920Y+1460957D02*
X+4045240Y+1460957D01*
X+4121440Y+1460957D02*
X+4141760Y+1460957D01*
X+4223040Y+1460957D02*
X+4243360Y+1460957D01*
X+4319560Y+1460957D02*
X+4360200Y+1460957D01*
X+4426240Y+1460957D02*
X+4446560Y+1460957D01*
X+4492280Y+1460957D02*
X+4522760Y+1460957D01*
X+4588800Y+1460957D02*
X+4619280Y+1460957D01*
X+4659920Y+1460957D02*
X+4690400Y+1460957D01*
X+4751360Y+1460957D02*
X+4781840Y+1460957D01*
X-2005040Y+1466037D02*
X-1984720Y+1466037D01*
X-1862800Y+1466037D02*
X-1837400Y+1466037D01*
X-1832320Y+1466037D02*
X-1806920Y+1466037D01*
X-1674840Y+1466037D02*
X-1654520Y+1466037D01*
X-1603720Y+1466037D02*
X-1578320Y+1466037D01*
X-1547840Y+1466037D02*
X-1527520Y+1466037D01*
X-1471640Y+1466037D02*
X-1451320Y+1466037D01*
X-1354800Y+1466037D02*
X-1329400Y+1466037D01*
X-1293840Y+1466037D02*
X-1273520Y+1466037D01*
X-1217640Y+1466037D02*
X-1197320Y+1466037D01*
X-1166840Y+1466037D02*
X-1146520Y+1466037D01*
X-1121120Y+1466037D02*
X-1095720Y+1466037D01*
X-1039840Y+1466037D02*
X-1019520Y+1466037D01*
X-989040Y+1466037D02*
X-968720Y+1466037D01*
X-917920Y+1466037D02*
X-897600Y+1466037D01*
X-846800Y+1466037D02*
X-826480Y+1466037D01*
X-750280Y+1466037D02*
X-729960Y+1466037D01*
X-669000Y+1466037D02*
X-648680Y+1466037D01*
X-562320Y+1466037D02*
X-542000Y+1466037D01*
X-460720Y+1466037D02*
X-440400Y+1466037D01*
X-354040Y+1466037D02*
X-333720Y+1466037D01*
X-252440Y+1466037D02*
X-232120Y+1466037D01*
X-150840Y+1466037D02*
X-130520Y+1466037D01*
X-74640Y+1466037D02*
X-59400Y+1466037D01*
X-54320Y+1466037D02*
X-34000Y+1466037D01*
X+32040Y+1466037D02*
X+52360Y+1466037D01*
X+57440Y+1466037D02*
X+72680Y+1466037D01*
X+189520Y+1466037D02*
X+214920Y+1466037D01*
X+291120Y+1466037D02*
X+316520Y+1466037D01*
X+443520Y+1466037D02*
X+463840Y+1466037D01*
X+504480Y+1466037D02*
X+524800Y+1466037D01*
X+570520Y+1466037D02*
X+595920Y+1466037D01*
X+667040Y+1466037D02*
X+687360Y+1466037D01*
X+768640Y+1466037D02*
X+788960Y+1466037D01*
X+860080Y+1466037D02*
X+885480Y+1466037D01*
X+961680Y+1466037D02*
X+987080Y+1466037D01*
X+1022640Y+1466037D02*
X+1048040Y+1466037D01*
X+1114080Y+1466037D02*
X+1139480Y+1466037D01*
X+1180120Y+1466037D02*
X+1205520Y+1466037D01*
X+1286800Y+1466037D02*
X+1307120Y+1466037D01*
X+1342680Y+1466037D02*
X+1388400Y+1466037D01*
X+1449360Y+1466037D02*
X+1469680Y+1466037D01*
X+1510320Y+1466037D02*
X+1530640Y+1466037D01*
X+1642400Y+1466037D02*
X+1667800Y+1466037D01*
X+1738920Y+1466037D02*
X+1759240Y+1466037D01*
X+1804960Y+1466037D02*
X+1830360Y+1466037D01*
X+1906560Y+1466037D02*
X+1931960Y+1466037D01*
X+2053880Y+1466037D02*
X+2074200Y+1466037D01*
X+2257080Y+1466037D02*
X+2282480Y+1466037D01*
X+2353600Y+1466037D02*
X+2384080Y+1466037D01*
X+2490760Y+1466037D02*
X+2511080Y+1466037D01*
X+2643160Y+1466037D02*
X+2663480Y+1466037D01*
X+2846360Y+1466037D02*
X+2871760Y+1466037D01*
X+2953040Y+1466037D02*
X+2973360Y+1466037D01*
X+3019080Y+1466037D02*
X+3044480Y+1466037D01*
X+3115600Y+1466037D02*
X+3135920Y+1466037D01*
X+3171480Y+1466037D02*
X+3191800Y+1466037D01*
X+3278160Y+1466037D02*
X+3298480Y+1466037D01*
X+3334040Y+1466037D02*
X+3359440Y+1466037D01*
X+3435640Y+1466037D02*
X+3461040Y+1466037D01*
X+3496600Y+1466037D02*
X+3522000Y+1466037D01*
X+3598200Y+1466037D02*
X+3618520Y+1466037D01*
X+3781080Y+1466037D02*
X+3801400Y+1466037D01*
X+3847120Y+1466037D02*
X+3872520Y+1466037D01*
X+3948720Y+1466037D02*
X+3974120Y+1466037D01*
X+4024920Y+1466037D02*
X+4050320Y+1466037D01*
X+4121440Y+1466037D02*
X+4141760Y+1466037D01*
X+4223040Y+1466037D02*
X+4243360Y+1466037D01*
X+4319560Y+1466037D02*
X+4365280Y+1466037D01*
X+4426240Y+1466037D02*
X+4446560Y+1466037D01*
X+4492280Y+1466037D02*
X+4517680Y+1466037D01*
X+4593880Y+1466037D02*
X+4619280Y+1466037D01*
X+4659920Y+1466037D02*
X+4685320Y+1466037D01*
X+4756440Y+1466037D02*
X+4786920Y+1466037D01*
X-2005040Y+1471117D02*
X-1984720Y+1471117D01*
X-1862800Y+1471117D02*
X-1842480Y+1471117D01*
X-1827240Y+1471117D02*
X-1806920Y+1471117D01*
X-1674840Y+1471117D02*
X-1654520Y+1471117D01*
X-1603720Y+1471117D02*
X-1578320Y+1471117D01*
X-1552920Y+1471117D02*
X-1532600Y+1471117D01*
X-1466560Y+1471117D02*
X-1446240Y+1471117D01*
X-1359880Y+1471117D02*
X-1334480Y+1471117D01*
X-1298920Y+1471117D02*
X-1278600Y+1471117D01*
X-1217640Y+1471117D02*
X-1192240Y+1471117D01*
X-1166840Y+1471117D02*
X-1146520Y+1471117D01*
X-1110960Y+1471117D02*
X-1100800Y+1471117D01*
X-1039840Y+1471117D02*
X-1019520Y+1471117D01*
X-989040Y+1471117D02*
X-968720Y+1471117D01*
X-917920Y+1471117D02*
X-897600Y+1471117D01*
X-846800Y+1471117D02*
X-826480Y+1471117D01*
X-750280Y+1471117D02*
X-729960Y+1471117D01*
X-663920Y+1471117D02*
X-643600Y+1471117D01*
X-567400Y+1471117D02*
X-547080Y+1471117D01*
X-460720Y+1471117D02*
X-440400Y+1471117D01*
X-354040Y+1471117D02*
X-333720Y+1471117D01*
X-252440Y+1471117D02*
X-232120Y+1471117D01*
X-150840Y+1471117D02*
X-130520Y+1471117D01*
X-79720Y+1471117D02*
X-59400Y+1471117D01*
X-54320Y+1471117D02*
X-34000Y+1471117D01*
X+32040Y+1471117D02*
X+52360Y+1471117D01*
X+57440Y+1471117D02*
X+77760Y+1471117D01*
X+189520Y+1471117D02*
X+214920Y+1471117D01*
X+291120Y+1471117D02*
X+316520Y+1471117D01*
X+443520Y+1471117D02*
X+463840Y+1471117D01*
X+504480Y+1471117D02*
X+524800Y+1471117D01*
X+575600Y+1471117D02*
X+601000Y+1471117D01*
X+667040Y+1471117D02*
X+687360Y+1471117D01*
X+768640Y+1471117D02*
X+788960Y+1471117D01*
X+860080Y+1471117D02*
X+885480Y+1471117D01*
X+961680Y+1471117D02*
X+987080Y+1471117D01*
X+1022640Y+1471117D02*
X+1042960Y+1471117D01*
X+1119160Y+1471117D02*
X+1139480Y+1471117D01*
X+1180120Y+1471117D02*
X+1200440Y+1471117D01*
X+1286800Y+1471117D02*
X+1307120Y+1471117D01*
X+1342680Y+1471117D02*
X+1363000Y+1471117D01*
X+1368080Y+1471117D02*
X+1388400Y+1471117D01*
X+1449360Y+1471117D02*
X+1469680Y+1471117D01*
X+1510320Y+1471117D02*
X+1530640Y+1471117D01*
X+1647480Y+1471117D02*
X+1672880Y+1471117D01*
X+1738920Y+1471117D02*
X+1759240Y+1471117D01*
X+1799880Y+1471117D02*
X+1825280Y+1471117D01*
X+1911640Y+1471117D02*
X+1937040Y+1471117D01*
X+2053880Y+1471117D02*
X+2074200Y+1471117D01*
X+2252000Y+1471117D02*
X+2277400Y+1471117D01*
X+2358680Y+1471117D02*
X+2384080Y+1471117D01*
X+2490760Y+1471117D02*
X+2511080Y+1471117D01*
X+2643160Y+1471117D02*
X+2663480Y+1471117D01*
X+2846360Y+1471117D02*
X+2866680Y+1471117D01*
X+2953040Y+1471117D02*
X+2973360Y+1471117D01*
X+3024160Y+1471117D02*
X+3049560Y+1471117D01*
X+3115600Y+1471117D02*
X+3135920Y+1471117D01*
X+3176560Y+1471117D02*
X+3196880Y+1471117D01*
X+3273080Y+1471117D02*
X+3293400Y+1471117D01*
X+3328960Y+1471117D02*
X+3354360Y+1471117D01*
X+3440720Y+1471117D02*
X+3466120Y+1471117D01*
X+3496600Y+1471117D02*
X+3516920Y+1471117D01*
X+3598200Y+1471117D02*
X+3618520Y+1471117D01*
X+3781080Y+1471117D02*
X+3801400Y+1471117D01*
X+3842040Y+1471117D02*
X+3867440Y+1471117D01*
X+3953800Y+1471117D02*
X+3979200Y+1471117D01*
X+4030000Y+1471117D02*
X+4055400Y+1471117D01*
X+4121440Y+1471117D02*
X+4141760Y+1471117D01*
X+4223040Y+1471117D02*
X+4243360Y+1471117D01*
X+4319560Y+1471117D02*
X+4339880Y+1471117D01*
X+4344960Y+1471117D02*
X+4365280Y+1471117D01*
X+4426240Y+1471117D02*
X+4446560Y+1471117D01*
X+4487200Y+1471117D02*
X+4512600Y+1471117D01*
X+4598960Y+1471117D02*
X+4624360Y+1471117D01*
X+4654840Y+1471117D02*
X+4680240Y+1471117D01*
X+4761520Y+1471117D02*
X+4786920Y+1471117D01*
X-2025360Y+1476197D02*
X-1913600Y+1476197D01*
X-1867880Y+1476197D02*
X-1842480Y+1476197D01*
X-1827240Y+1476197D02*
X-1806920Y+1476197D01*
X-1679920Y+1476197D02*
X-1659600Y+1476197D01*
X-1598640Y+1476197D02*
X-1578320Y+1476197D01*
X-1552920Y+1476197D02*
X-1532600Y+1476197D01*
X-1466560Y+1476197D02*
X-1446240Y+1476197D01*
X-1364960Y+1476197D02*
X-1339560Y+1476197D01*
X-1298920Y+1476197D02*
X-1278600Y+1476197D01*
X-1212560Y+1476197D02*
X-1192240Y+1476197D01*
X-1166840Y+1476197D02*
X-1146520Y+1476197D01*
X-1034760Y+1476197D02*
X-1014440Y+1476197D01*
X-989040Y+1476197D02*
X-968720Y+1476197D01*
X-917920Y+1476197D02*
X-897600Y+1476197D01*
X-846800Y+1476197D02*
X-826480Y+1476197D01*
X-750280Y+1476197D02*
X-729960Y+1476197D01*
X-663920Y+1476197D02*
X-643600Y+1476197D01*
X-567400Y+1476197D02*
X-547080Y+1476197D01*
X-460720Y+1476197D02*
X-440400Y+1476197D01*
X-354040Y+1476197D02*
X-333720Y+1476197D01*
X-252440Y+1476197D02*
X-232120Y+1476197D01*
X-150840Y+1476197D02*
X-130520Y+1476197D01*
X-79720Y+1476197D02*
X-59400Y+1476197D01*
X-49240Y+1476197D02*
X-28920Y+1476197D01*
X+26960Y+1476197D02*
X+47280Y+1476197D01*
X+57440Y+1476197D02*
X+77760Y+1476197D01*
X+189520Y+1476197D02*
X+209840Y+1476197D01*
X+296200Y+1476197D02*
X+316520Y+1476197D01*
X+443520Y+1476197D02*
X+463840Y+1476197D01*
X+504480Y+1476197D02*
X+524800Y+1476197D01*
X+575600Y+1476197D02*
X+601000Y+1476197D01*
X+667040Y+1476197D02*
X+687360Y+1476197D01*
X+768640Y+1476197D02*
X+788960Y+1476197D01*
X+860080Y+1476197D02*
X+880400Y+1476197D01*
X+966760Y+1476197D02*
X+987080Y+1476197D01*
X+1017560Y+1476197D02*
X+1042960Y+1476197D01*
X+1119160Y+1476197D02*
X+1144560Y+1476197D01*
X+1175040Y+1476197D02*
X+1200440Y+1476197D01*
X+1286800Y+1476197D02*
X+1307120Y+1476197D01*
X+1342680Y+1476197D02*
X+1363000Y+1476197D01*
X+1368080Y+1476197D02*
X+1393480Y+1476197D01*
X+1449360Y+1476197D02*
X+1469680Y+1476197D01*
X+1510320Y+1476197D02*
X+1530640Y+1476197D01*
X+1647480Y+1476197D02*
X+1672880Y+1476197D01*
X+1738920Y+1476197D02*
X+1759240Y+1476197D01*
X+1799880Y+1476197D02*
X+1820200Y+1476197D01*
X+1916720Y+1476197D02*
X+1937040Y+1476197D01*
X+2053880Y+1476197D02*
X+2074200Y+1476197D01*
X+2252000Y+1476197D02*
X+2272320Y+1476197D01*
X+2363760Y+1476197D02*
X+2389160Y+1476197D01*
X+2490760Y+1476197D02*
X+2511080Y+1476197D01*
X+2643160Y+1476197D02*
X+2663480Y+1476197D01*
X+2841280Y+1476197D02*
X+2866680Y+1476197D01*
X+2953040Y+1476197D02*
X+2973360Y+1476197D01*
X+3024160Y+1476197D02*
X+3049560Y+1476197D01*
X+3115600Y+1476197D02*
X+3135920Y+1476197D01*
X+3176560Y+1476197D02*
X+3196880Y+1476197D01*
X+3273080Y+1476197D02*
X+3293400Y+1476197D01*
X+3328960Y+1476197D02*
X+3349280Y+1476197D01*
X+3445800Y+1476197D02*
X+3466120Y+1476197D01*
X+3496600Y+1476197D02*
X+3516920Y+1476197D01*
X+3598200Y+1476197D02*
X+3618520Y+1476197D01*
X+3781080Y+1476197D02*
X+3801400Y+1476197D01*
X+3842040Y+1476197D02*
X+3862360Y+1476197D01*
X+3958880Y+1476197D02*
X+3979200Y+1476197D01*
X+4030000Y+1476197D02*
X+4055400Y+1476197D01*
X+4121440Y+1476197D02*
X+4141760Y+1476197D01*
X+4223040Y+1476197D02*
X+4243360Y+1476197D01*
X+4319560Y+1476197D02*
X+4339880Y+1476197D01*
X+4344960Y+1476197D02*
X+4370360Y+1476197D01*
X+4426240Y+1476197D02*
X+4446560Y+1476197D01*
X+4487200Y+1476197D02*
X+4507520Y+1476197D01*
X+4604040Y+1476197D02*
X+4624360Y+1476197D01*
X+4654840Y+1476197D02*
X+4675160Y+1476197D01*
X+4766600Y+1476197D02*
X+4792000Y+1476197D01*
X-2025360Y+1481277D02*
X-1913600Y+1481277D01*
X-1867880Y+1481277D02*
X-1847560Y+1481277D01*
X-1822160Y+1481277D02*
X-1801840Y+1481277D01*
X-1679920Y+1481277D02*
X-1659600Y+1481277D01*
X-1598640Y+1481277D02*
X-1578320Y+1481277D01*
X-1552920Y+1481277D02*
X-1532600Y+1481277D01*
X-1466560Y+1481277D02*
X-1446240Y+1481277D01*
X-1370040Y+1481277D02*
X-1344640Y+1481277D01*
X-1298920Y+1481277D02*
X-1278600Y+1481277D01*
X-1212560Y+1481277D02*
X-1202400Y+1481277D01*
X-1166840Y+1481277D02*
X-1146520Y+1481277D01*
X-1034760Y+1481277D02*
X-1014440Y+1481277D01*
X-989040Y+1481277D02*
X-968720Y+1481277D01*
X-917920Y+1481277D02*
X-897600Y+1481277D01*
X-846800Y+1481277D02*
X-826480Y+1481277D01*
X-750280Y+1481277D02*
X-729960Y+1481277D01*
X-658840Y+1481277D02*
X-638520Y+1481277D01*
X-572480Y+1481277D02*
X-552160Y+1481277D01*
X-460720Y+1481277D02*
X-440400Y+1481277D01*
X-354040Y+1481277D02*
X-333720Y+1481277D01*
X-252440Y+1481277D02*
X-232120Y+1481277D01*
X-150840Y+1481277D02*
X-130520Y+1481277D01*
X-79720Y+1481277D02*
X-64480Y+1481277D01*
X-49240Y+1481277D02*
X-28920Y+1481277D01*
X+26960Y+1481277D02*
X+47280Y+1481277D01*
X+62520Y+1481277D02*
X+77760Y+1481277D01*
X+189520Y+1481277D02*
X+209840Y+1481277D01*
X+296200Y+1481277D02*
X+321600Y+1481277D01*
X+443520Y+1481277D02*
X+463840Y+1481277D01*
X+504480Y+1481277D02*
X+524800Y+1481277D01*
X+580680Y+1481277D02*
X+606080Y+1481277D01*
X+667040Y+1481277D02*
X+687360Y+1481277D01*
X+768640Y+1481277D02*
X+788960Y+1481277D01*
X+860080Y+1481277D02*
X+880400Y+1481277D01*
X+966760Y+1481277D02*
X+992160Y+1481277D01*
X+1017560Y+1481277D02*
X+1037880Y+1481277D01*
X+1124240Y+1481277D02*
X+1144560Y+1481277D01*
X+1175040Y+1481277D02*
X+1195360Y+1481277D01*
X+1286800Y+1481277D02*
X+1307120Y+1481277D01*
X+1342680Y+1481277D02*
X+1363000Y+1481277D01*
X+1373160Y+1481277D02*
X+1398560Y+1481277D01*
X+1449360Y+1481277D02*
X+1469680Y+1481277D01*
X+1510320Y+1481277D02*
X+1530640Y+1481277D01*
X+1652560Y+1481277D02*
X+1677960Y+1481277D01*
X+1738920Y+1481277D02*
X+1759240Y+1481277D01*
X+1794800Y+1481277D02*
X+1815120Y+1481277D01*
X+1921800Y+1481277D02*
X+1942120Y+1481277D01*
X+2053880Y+1481277D02*
X+2074200Y+1481277D01*
X+2246920Y+1481277D02*
X+2272320Y+1481277D01*
X+2368840Y+1481277D02*
X+2389160Y+1481277D01*
X+2490760Y+1481277D02*
X+2511080Y+1481277D01*
X+2643160Y+1481277D02*
X+2663480Y+1481277D01*
X+2841280Y+1481277D02*
X+2861600Y+1481277D01*
X+2953040Y+1481277D02*
X+2973360Y+1481277D01*
X+3029240Y+1481277D02*
X+3054640Y+1481277D01*
X+3115600Y+1481277D02*
X+3135920Y+1481277D01*
X+3181640Y+1481277D02*
X+3201960Y+1481277D01*
X+3268000Y+1481277D02*
X+3288320Y+1481277D01*
X+3323880Y+1481277D02*
X+3344200Y+1481277D01*
X+3450880Y+1481277D02*
X+3471200Y+1481277D01*
X+3496600Y+1481277D02*
X+3516920Y+1481277D01*
X+3598200Y+1481277D02*
X+3618520Y+1481277D01*
X+3781080Y+1481277D02*
X+3801400Y+1481277D01*
X+3836960Y+1481277D02*
X+3857280Y+1481277D01*
X+3963960Y+1481277D02*
X+3984280Y+1481277D01*
X+4035080Y+1481277D02*
X+4060480Y+1481277D01*
X+4121440Y+1481277D02*
X+4141760Y+1481277D01*
X+4223040Y+1481277D02*
X+4243360Y+1481277D01*
X+4319560Y+1481277D02*
X+4339880Y+1481277D01*
X+4350040Y+1481277D02*
X+4375440Y+1481277D01*
X+4426240Y+1481277D02*
X+4446560Y+1481277D01*
X+4482120Y+1481277D02*
X+4502440Y+1481277D01*
X+4609120Y+1481277D02*
X+4629440Y+1481277D01*
X+4649760Y+1481277D02*
X+4675160Y+1481277D01*
X+4771680Y+1481277D02*
X+4792000Y+1481277D01*
X-2025360Y+1486357D02*
X-1913600Y+1486357D01*
X-1867880Y+1486357D02*
X-1847560Y+1486357D01*
X-1822160Y+1486357D02*
X-1801840Y+1486357D01*
X-1679920Y+1486357D02*
X-1659600Y+1486357D01*
X-1598640Y+1486357D02*
X-1578320Y+1486357D01*
X-1552920Y+1486357D02*
X-1532600Y+1486357D01*
X-1466560Y+1486357D02*
X-1446240Y+1486357D01*
X-1380200Y+1486357D02*
X-1349720Y+1486357D01*
X-1298920Y+1486357D02*
X-1278600Y+1486357D01*
X-1166840Y+1486357D02*
X-1146520Y+1486357D01*
X-1034760Y+1486357D02*
X-1014440Y+1486357D01*
X-989040Y+1486357D02*
X-968720Y+1486357D01*
X-917920Y+1486357D02*
X-897600Y+1486357D01*
X-846800Y+1486357D02*
X-826480Y+1486357D01*
X-750280Y+1486357D02*
X-729960Y+1486357D01*
X-658840Y+1486357D02*
X-552160Y+1486357D01*
X-460720Y+1486357D02*
X-440400Y+1486357D01*
X-354040Y+1486357D02*
X-333720Y+1486357D01*
X-252440Y+1486357D02*
X-232120Y+1486357D01*
X-150840Y+1486357D02*
X-130520Y+1486357D01*
X-79720Y+1486357D02*
X-64480Y+1486357D01*
X-49240Y+1486357D02*
X-28920Y+1486357D01*
X+26960Y+1486357D02*
X+47280Y+1486357D01*
X+62520Y+1486357D02*
X+77760Y+1486357D01*
X+189520Y+1486357D02*
X+209840Y+1486357D01*
X+301280Y+1486357D02*
X+321600Y+1486357D01*
X+443520Y+1486357D02*
X+463840Y+1486357D01*
X+504480Y+1486357D02*
X+524800Y+1486357D01*
X+585760Y+1486357D02*
X+611160Y+1486357D01*
X+667040Y+1486357D02*
X+687360Y+1486357D01*
X+768640Y+1486357D02*
X+788960Y+1486357D01*
X+860080Y+1486357D02*
X+880400Y+1486357D01*
X+971840Y+1486357D02*
X+992160Y+1486357D01*
X+1017560Y+1486357D02*
X+1037880Y+1486357D01*
X+1124240Y+1486357D02*
X+1144560Y+1486357D01*
X+1175040Y+1486357D02*
X+1195360Y+1486357D01*
X+1286800Y+1486357D02*
X+1307120Y+1486357D01*
X+1342680Y+1486357D02*
X+1363000Y+1486357D01*
X+1378240Y+1486357D02*
X+1398560Y+1486357D01*
X+1449360Y+1486357D02*
X+1469680Y+1486357D01*
X+1510320Y+1486357D02*
X+1530640Y+1486357D01*
X+1657640Y+1486357D02*
X+1683040Y+1486357D01*
X+1738920Y+1486357D02*
X+1759240Y+1486357D01*
X+1794800Y+1486357D02*
X+1815120Y+1486357D01*
X+1921800Y+1486357D02*
X+1942120Y+1486357D01*
X+2053880Y+1486357D02*
X+2074200Y+1486357D01*
X+2246920Y+1486357D02*
X+2267240Y+1486357D01*
X+2368840Y+1486357D02*
X+2389160Y+1486357D01*
X+2490760Y+1486357D02*
X+2511080Y+1486357D01*
X+2643160Y+1486357D02*
X+2663480Y+1486357D01*
X+2841280Y+1486357D02*
X+2861600Y+1486357D01*
X+2953040Y+1486357D02*
X+2973360Y+1486357D01*
X+3034320Y+1486357D02*
X+3059720Y+1486357D01*
X+3115600Y+1486357D02*
X+3135920Y+1486357D01*
X+3181640Y+1486357D02*
X+3288320Y+1486357D01*
X+3323880Y+1486357D02*
X+3344200Y+1486357D01*
X+3450880Y+1486357D02*
X+3471200Y+1486357D01*
X+3496600Y+1486357D02*
X+3516920Y+1486357D01*
X+3598200Y+1486357D02*
X+3618520Y+1486357D01*
X+3781080Y+1486357D02*
X+3801400Y+1486357D01*
X+3836960Y+1486357D02*
X+3857280Y+1486357D01*
X+3963960Y+1486357D02*
X+3984280Y+1486357D01*
X+4040160Y+1486357D02*
X+4065560Y+1486357D01*
X+4121440Y+1486357D02*
X+4141760Y+1486357D01*
X+4223040Y+1486357D02*
X+4243360Y+1486357D01*
X+4319560Y+1486357D02*
X+4339880Y+1486357D01*
X+4355120Y+1486357D02*
X+4375440Y+1486357D01*
X+4426240Y+1486357D02*
X+4446560Y+1486357D01*
X+4482120Y+1486357D02*
X+4502440Y+1486357D01*
X+4609120Y+1486357D02*
X+4629440Y+1486357D01*
X+4649760Y+1486357D02*
X+4670080Y+1486357D01*
X+4771680Y+1486357D02*
X+4792000Y+1486357D01*
X-2025360Y+1491437D02*
X-1913600Y+1491437D01*
X-1872960Y+1491437D02*
X-1847560Y+1491437D01*
X-1822160Y+1491437D02*
X-1796760Y+1491437D01*
X-1679920Y+1491437D02*
X-1659600Y+1491437D01*
X-1598640Y+1491437D02*
X-1578320Y+1491437D01*
X-1552920Y+1491437D02*
X-1532600Y+1491437D01*
X-1466560Y+1491437D02*
X-1446240Y+1491437D01*
X-1385280Y+1491437D02*
X-1354800Y+1491437D01*
X-1298920Y+1491437D02*
X-1278600Y+1491437D01*
X-1166840Y+1491437D02*
X-1146520Y+1491437D01*
X-1121120Y+1491437D02*
X-1014440Y+1491437D01*
X-989040Y+1491437D02*
X-968720Y+1491437D01*
X-917920Y+1491437D02*
X-897600Y+1491437D01*
X-846800Y+1491437D02*
X-826480Y+1491437D01*
X-750280Y+1491437D02*
X-729960Y+1491437D01*
X-653760Y+1491437D02*
X-557240Y+1491437D01*
X-460720Y+1491437D02*
X-440400Y+1491437D01*
X-354040Y+1491437D02*
X-333720Y+1491437D01*
X-252440Y+1491437D02*
X-232120Y+1491437D01*
X-150840Y+1491437D02*
X-130520Y+1491437D01*
X-84800Y+1491437D02*
X-64480Y+1491437D01*
X-44160Y+1491437D02*
X-23840Y+1491437D01*
X+21880Y+1491437D02*
X+42200Y+1491437D01*
X+62520Y+1491437D02*
X+82840Y+1491437D01*
X+189520Y+1491437D02*
X+214920Y+1491437D01*
X+301280Y+1491437D02*
X+321600Y+1491437D01*
X+443520Y+1491437D02*
X+463840Y+1491437D01*
X+504480Y+1491437D02*
X+524800Y+1491437D01*
X+590840Y+1491437D02*
X+616240Y+1491437D01*
X+667040Y+1491437D02*
X+687360Y+1491437D01*
X+768640Y+1491437D02*
X+788960Y+1491437D01*
X+860080Y+1491437D02*
X+885480Y+1491437D01*
X+971840Y+1491437D02*
X+992160Y+1491437D01*
X+1017560Y+1491437D02*
X+1037880Y+1491437D01*
X+1124240Y+1491437D02*
X+1144560Y+1491437D01*
X+1169960Y+1491437D02*
X+1190280Y+1491437D01*
X+1286800Y+1491437D02*
X+1307120Y+1491437D01*
X+1342680Y+1491437D02*
X+1363000Y+1491437D01*
X+1378240Y+1491437D02*
X+1403640Y+1491437D01*
X+1449360Y+1491437D02*
X+1469680Y+1491437D01*
X+1510320Y+1491437D02*
X+1530640Y+1491437D01*
X+1662720Y+1491437D02*
X+1688120Y+1491437D01*
X+1738920Y+1491437D02*
X+1759240Y+1491437D01*
X+1789720Y+1491437D02*
X+1815120Y+1491437D01*
X+1921800Y+1491437D02*
X+1947200Y+1491437D01*
X+2053880Y+1491437D02*
X+2074200Y+1491437D01*
X+2368840Y+1491437D02*
X+2389160Y+1491437D01*
X+2490760Y+1491437D02*
X+2511080Y+1491437D01*
X+2643160Y+1491437D02*
X+2663480Y+1491437D01*
X+2836200Y+1491437D02*
X+2856520Y+1491437D01*
X+2953040Y+1491437D02*
X+2973360Y+1491437D01*
X+3039400Y+1491437D02*
X+3064800Y+1491437D01*
X+3115600Y+1491437D02*
X+3135920Y+1491437D01*
X+3186720Y+1491437D02*
X+3283240Y+1491437D01*
X+3318800Y+1491437D02*
X+3344200Y+1491437D01*
X+3450880Y+1491437D02*
X+3476280Y+1491437D01*
X+3496600Y+1491437D02*
X+3516920Y+1491437D01*
X+3598200Y+1491437D02*
X+3618520Y+1491437D01*
X+3781080Y+1491437D02*
X+3801400Y+1491437D01*
X+3831880Y+1491437D02*
X+3857280Y+1491437D01*
X+3963960Y+1491437D02*
X+3989360Y+1491437D01*
X+4045240Y+1491437D02*
X+4070640Y+1491437D01*
X+4121440Y+1491437D02*
X+4141760Y+1491437D01*
X+4223040Y+1491437D02*
X+4243360Y+1491437D01*
X+4319560Y+1491437D02*
X+4339880Y+1491437D01*
X+4355120Y+1491437D02*
X+4380520Y+1491437D01*
X+4426240Y+1491437D02*
X+4446560Y+1491437D01*
X+4477040Y+1491437D02*
X+4502440Y+1491437D01*
X+4609120Y+1491437D02*
X+4634520Y+1491437D01*
X+4771680Y+1491437D02*
X+4792000Y+1491437D01*
X-2005040Y+1496517D02*
X-1984720Y+1496517D01*
X-1939000Y+1496517D02*
X-1913600Y+1496517D01*
X-1872960Y+1496517D02*
X-1852640Y+1496517D01*
X-1817080Y+1496517D02*
X-1796760Y+1496517D01*
X-1679920Y+1496517D02*
X-1659600Y+1496517D01*
X-1598640Y+1496517D02*
X-1578320Y+1496517D01*
X-1552920Y+1496517D02*
X-1532600Y+1496517D01*
X-1466560Y+1496517D02*
X-1446240Y+1496517D01*
X-1390360Y+1496517D02*
X-1359880Y+1496517D01*
X-1298920Y+1496517D02*
X-1273520Y+1496517D01*
X-1166840Y+1496517D02*
X-1146520Y+1496517D01*
X-1121120Y+1496517D02*
X-1014440Y+1496517D01*
X-989040Y+1496517D02*
X-968720Y+1496517D01*
X-917920Y+1496517D02*
X-897600Y+1496517D01*
X-846800Y+1496517D02*
X-826480Y+1496517D01*
X-750280Y+1496517D02*
X-729960Y+1496517D01*
X-653760Y+1496517D02*
X-557240Y+1496517D01*
X-460720Y+1496517D02*
X-440400Y+1496517D01*
X-354040Y+1496517D02*
X-333720Y+1496517D01*
X-252440Y+1496517D02*
X-232120Y+1496517D01*
X-150840Y+1496517D02*
X-130520Y+1496517D01*
X-84800Y+1496517D02*
X-64480Y+1496517D01*
X-44160Y+1496517D02*
X-23840Y+1496517D01*
X+21880Y+1496517D02*
X+42200Y+1496517D01*
X+62520Y+1496517D02*
X+82840Y+1496517D01*
X+194600Y+1496517D02*
X+220000Y+1496517D01*
X+443520Y+1496517D02*
X+463840Y+1496517D01*
X+504480Y+1496517D02*
X+524800Y+1496517D01*
X+595920Y+1496517D02*
X+621320Y+1496517D01*
X+667040Y+1496517D02*
X+687360Y+1496517D01*
X+768640Y+1496517D02*
X+788960Y+1496517D01*
X+865160Y+1496517D02*
X+890560Y+1496517D01*
X+1017560Y+1496517D02*
X+1037880Y+1496517D01*
X+1124240Y+1496517D02*
X+1144560Y+1496517D01*
X+1169960Y+1496517D02*
X+1190280Y+1496517D01*
X+1286800Y+1496517D02*
X+1307120Y+1496517D01*
X+1342680Y+1496517D02*
X+1363000Y+1496517D01*
X+1383320Y+1496517D02*
X+1403640Y+1496517D01*
X+1449360Y+1496517D02*
X+1469680Y+1496517D01*
X+1510320Y+1496517D02*
X+1530640Y+1496517D01*
X+1667800Y+1496517D02*
X+1693200Y+1496517D01*
X+1738920Y+1496517D02*
X+1759240Y+1496517D01*
X+1789720Y+1496517D02*
X+1810040Y+1496517D01*
X+1926880Y+1496517D02*
X+1947200Y+1496517D01*
X+2053880Y+1496517D02*
X+2074200Y+1496517D01*
X+2373920Y+1496517D02*
X+2394240Y+1496517D01*
X+2490760Y+1496517D02*
X+2511080Y+1496517D01*
X+2643160Y+1496517D02*
X+2663480Y+1496517D01*
X+2836200Y+1496517D02*
X+2856520Y+1496517D01*
X+2953040Y+1496517D02*
X+2973360Y+1496517D01*
X+3044480Y+1496517D02*
X+3069880Y+1496517D01*
X+3115600Y+1496517D02*
X+3135920Y+1496517D01*
X+3186720Y+1496517D02*
X+3283240Y+1496517D01*
X+3318800Y+1496517D02*
X+3339120Y+1496517D01*
X+3455960Y+1496517D02*
X+3476280Y+1496517D01*
X+3501680Y+1496517D02*
X+3522000Y+1496517D01*
X+3598200Y+1496517D02*
X+3618520Y+1496517D01*
X+3781080Y+1496517D02*
X+3801400Y+1496517D01*
X+3831880Y+1496517D02*
X+3852200Y+1496517D01*
X+3969040Y+1496517D02*
X+3989360Y+1496517D01*
X+4050320Y+1496517D02*
X+4075720Y+1496517D01*
X+4121440Y+1496517D02*
X+4141760Y+1496517D01*
X+4223040Y+1496517D02*
X+4243360Y+1496517D01*
X+4319560Y+1496517D02*
X+4339880Y+1496517D01*
X+4360200Y+1496517D02*
X+4380520Y+1496517D01*
X+4426240Y+1496517D02*
X+4446560Y+1496517D01*
X+4477040Y+1496517D02*
X+4497360Y+1496517D01*
X+4614200Y+1496517D02*
X+4634520Y+1496517D01*
X+4776760Y+1496517D02*
X+4797080Y+1496517D01*
X-2005040Y+1501597D02*
X-1984720Y+1501597D01*
X-1944080Y+1501597D02*
X-1918680Y+1501597D01*
X-1872960Y+1501597D02*
X-1852640Y+1501597D01*
X-1817080Y+1501597D02*
X-1796760Y+1501597D01*
X-1679920Y+1501597D02*
X-1659600Y+1501597D01*
X-1598640Y+1501597D02*
X-1578320Y+1501597D01*
X-1547840Y+1501597D02*
X-1527520Y+1501597D01*
X-1471640Y+1501597D02*
X-1451320Y+1501597D01*
X-1395440Y+1501597D02*
X-1364960Y+1501597D01*
X-1293840Y+1501597D02*
X-1273520Y+1501597D01*
X-1166840Y+1501597D02*
X-1146520Y+1501597D01*
X-1121120Y+1501597D02*
X-1014440Y+1501597D01*
X-989040Y+1501597D02*
X-968720Y+1501597D01*
X-917920Y+1501597D02*
X-897600Y+1501597D01*
X-846800Y+1501597D02*
X-826480Y+1501597D01*
X-750280Y+1501597D02*
X-729960Y+1501597D01*
X-653760Y+1501597D02*
X-557240Y+1501597D01*
X-460720Y+1501597D02*
X-440400Y+1501597D01*
X-354040Y+1501597D02*
X-333720Y+1501597D01*
X-252440Y+1501597D02*
X-232120Y+1501597D01*
X-150840Y+1501597D02*
X-130520Y+1501597D01*
X-84800Y+1501597D02*
X-69560Y+1501597D01*
X-44160Y+1501597D02*
X-23840Y+1501597D01*
X+21880Y+1501597D02*
X+42200Y+1501597D01*
X+67600Y+1501597D02*
X+82840Y+1501597D01*
X+194600Y+1501597D02*
X+230160Y+1501597D01*
X+443520Y+1501597D02*
X+463840Y+1501597D01*
X+504480Y+1501597D02*
X+524800Y+1501597D01*
X+601000Y+1501597D02*
X+626400Y+1501597D01*
X+667040Y+1501597D02*
X+687360Y+1501597D01*
X+768640Y+1501597D02*
X+788960Y+1501597D01*
X+865160Y+1501597D02*
X+900720Y+1501597D01*
X+1017560Y+1501597D02*
X+1037880Y+1501597D01*
X+1124240Y+1501597D02*
X+1144560Y+1501597D01*
X+1169960Y+1501597D02*
X+1190280Y+1501597D01*
X+1286800Y+1501597D02*
X+1307120Y+1501597D01*
X+1342680Y+1501597D02*
X+1363000Y+1501597D01*
X+1388400Y+1501597D02*
X+1408720Y+1501597D01*
X+1449360Y+1501597D02*
X+1469680Y+1501597D01*
X+1510320Y+1501597D02*
X+1530640Y+1501597D01*
X+1672880Y+1501597D02*
X+1698280Y+1501597D01*
X+1738920Y+1501597D02*
X+1759240Y+1501597D01*
X+1789720Y+1501597D02*
X+1810040Y+1501597D01*
X+1926880Y+1501597D02*
X+1947200Y+1501597D01*
X+2053880Y+1501597D02*
X+2074200Y+1501597D01*
X+2373920Y+1501597D02*
X+2394240Y+1501597D01*
X+2490760Y+1501597D02*
X+2511080Y+1501597D01*
X+2577120Y+1501597D02*
X+2663480Y+1501597D01*
X+2836200Y+1501597D02*
X+2856520Y+1501597D01*
X+2953040Y+1501597D02*
X+2973360Y+1501597D01*
X+3049560Y+1501597D02*
X+3074960Y+1501597D01*
X+3115600Y+1501597D02*
X+3135920Y+1501597D01*
X+3186720Y+1501597D02*
X+3283240Y+1501597D01*
X+3318800Y+1501597D02*
X+3339120Y+1501597D01*
X+3455960Y+1501597D02*
X+3476280Y+1501597D01*
X+3501680Y+1501597D02*
X+3522000Y+1501597D01*
X+3598200Y+1501597D02*
X+3618520Y+1501597D01*
X+3781080Y+1501597D02*
X+3801400Y+1501597D01*
X+3831880Y+1501597D02*
X+3852200Y+1501597D01*
X+3969040Y+1501597D02*
X+3989360Y+1501597D01*
X+4055400Y+1501597D02*
X+4080800Y+1501597D01*
X+4121440Y+1501597D02*
X+4141760Y+1501597D01*
X+4223040Y+1501597D02*
X+4243360Y+1501597D01*
X+4319560Y+1501597D02*
X+4339880Y+1501597D01*
X+4365280Y+1501597D02*
X+4385600Y+1501597D01*
X+4426240Y+1501597D02*
X+4446560Y+1501597D01*
X+4477040Y+1501597D02*
X+4497360Y+1501597D01*
X+4614200Y+1501597D02*
X+4634520Y+1501597D01*
X+4776760Y+1501597D02*
X+4797080Y+1501597D01*
X-2005040Y+1506677D02*
X-1984720Y+1506677D01*
X-1949160Y+1506677D02*
X-1923760Y+1506677D01*
X-1878040Y+1506677D02*
X-1852640Y+1506677D01*
X-1817080Y+1506677D02*
X-1791680Y+1506677D01*
X-1679920Y+1506677D02*
X-1659600Y+1506677D01*
X-1598640Y+1506677D02*
X-1578320Y+1506677D01*
X-1547840Y+1506677D02*
X-1522440Y+1506677D01*
X-1476720Y+1506677D02*
X-1451320Y+1506677D01*
X-1400520Y+1506677D02*
X-1375120Y+1506677D01*
X-1293840Y+1506677D02*
X-1263360Y+1506677D01*
X-1166840Y+1506677D02*
X-1146520Y+1506677D01*
X-1121120Y+1506677D02*
X-1014440Y+1506677D01*
X-989040Y+1506677D02*
X-968720Y+1506677D01*
X-917920Y+1506677D02*
X-897600Y+1506677D01*
X-846800Y+1506677D02*
X-826480Y+1506677D01*
X-750280Y+1506677D02*
X-729960Y+1506677D01*
X-648680Y+1506677D02*
X-633440Y+1506677D01*
X-577560Y+1506677D02*
X-562320Y+1506677D01*
X-460720Y+1506677D02*
X-440400Y+1506677D01*
X-354040Y+1506677D02*
X-333720Y+1506677D01*
X-252440Y+1506677D02*
X-232120Y+1506677D01*
X-150840Y+1506677D02*
X-130520Y+1506677D01*
X-84800Y+1506677D02*
X-69560Y+1506677D01*
X-44160Y+1506677D02*
X-18760Y+1506677D01*
X+16800Y+1506677D02*
X+42200Y+1506677D01*
X+67600Y+1506677D02*
X+82840Y+1506677D01*
X+199680Y+1506677D02*
X+255560Y+1506677D01*
X+443520Y+1506677D02*
X+463840Y+1506677D01*
X+504480Y+1506677D02*
X+524800Y+1506677D01*
X+595920Y+1506677D02*
X+687360Y+1506677D01*
X+768640Y+1506677D02*
X+788960Y+1506677D01*
X+870240Y+1506677D02*
X+926120Y+1506677D01*
X+1017560Y+1506677D02*
X+1037880Y+1506677D01*
X+1124240Y+1506677D02*
X+1144560Y+1506677D01*
X+1169960Y+1506677D02*
X+1190280Y+1506677D01*
X+1286800Y+1506677D02*
X+1307120Y+1506677D01*
X+1342680Y+1506677D02*
X+1363000Y+1506677D01*
X+1388400Y+1506677D02*
X+1413800Y+1506677D01*
X+1449360Y+1506677D02*
X+1469680Y+1506677D01*
X+1510320Y+1506677D02*
X+1530640Y+1506677D01*
X+1667800Y+1506677D02*
X+1759240Y+1506677D01*
X+1789720Y+1506677D02*
X+1810040Y+1506677D01*
X+1926880Y+1506677D02*
X+1947200Y+1506677D01*
X+2053880Y+1506677D02*
X+2074200Y+1506677D01*
X+2373920Y+1506677D02*
X+2394240Y+1506677D01*
X+2490760Y+1506677D02*
X+2511080Y+1506677D01*
X+2561880Y+1506677D02*
X+2663480Y+1506677D01*
X+2836200Y+1506677D02*
X+2856520Y+1506677D01*
X+2953040Y+1506677D02*
X+2973360Y+1506677D01*
X+3044480Y+1506677D02*
X+3135920Y+1506677D01*
X+3191800Y+1506677D02*
X+3207040Y+1506677D01*
X+3262920Y+1506677D02*
X+3278160Y+1506677D01*
X+3318800Y+1506677D02*
X+3339120Y+1506677D01*
X+3455960Y+1506677D02*
X+3476280Y+1506677D01*
X+3506760Y+1506677D02*
X+3532160Y+1506677D01*
X+3598200Y+1506677D02*
X+3618520Y+1506677D01*
X+3781080Y+1506677D02*
X+3801400Y+1506677D01*
X+3831880Y+1506677D02*
X+3852200Y+1506677D01*
X+3969040Y+1506677D02*
X+3989360Y+1506677D01*
X+4050320Y+1506677D02*
X+4141760Y+1506677D01*
X+4223040Y+1506677D02*
X+4243360Y+1506677D01*
X+4319560Y+1506677D02*
X+4339880Y+1506677D01*
X+4365280Y+1506677D02*
X+4390680Y+1506677D01*
X+4426240Y+1506677D02*
X+4446560Y+1506677D01*
X+4477040Y+1506677D02*
X+4497360Y+1506677D01*
X+4614200Y+1506677D02*
X+4634520Y+1506677D01*
X+4776760Y+1506677D02*
X+4797080Y+1506677D01*
X-2005040Y+1511757D02*
X-1984720Y+1511757D01*
X-1949160Y+1511757D02*
X-1928840Y+1511757D01*
X-1878040Y+1511757D02*
X-1857720Y+1511757D01*
X-1812000Y+1511757D02*
X-1791680Y+1511757D01*
X-1679920Y+1511757D02*
X-1659600Y+1511757D01*
X-1603720Y+1511757D02*
X-1578320Y+1511757D01*
X-1542760Y+1511757D02*
X-1517360Y+1511757D01*
X-1481800Y+1511757D02*
X-1456400Y+1511757D01*
X-1405600Y+1511757D02*
X-1380200Y+1511757D01*
X-1288760Y+1511757D02*
X-1232880Y+1511757D01*
X-1166840Y+1511757D02*
X-1146520Y+1511757D01*
X-1121120Y+1511757D02*
X-1100800Y+1511757D01*
X-1034760Y+1511757D02*
X-1014440Y+1511757D01*
X-989040Y+1511757D02*
X-968720Y+1511757D01*
X-917920Y+1511757D02*
X-897600Y+1511757D01*
X-846800Y+1511757D02*
X-826480Y+1511757D01*
X-750280Y+1511757D02*
X-729960Y+1511757D01*
X-648680Y+1511757D02*
X-628360Y+1511757D01*
X-582640Y+1511757D02*
X-562320Y+1511757D01*
X-460720Y+1511757D02*
X-333720Y+1511757D01*
X-252440Y+1511757D02*
X-232120Y+1511757D01*
X-150840Y+1511757D02*
X-130520Y+1511757D01*
X-89880Y+1511757D02*
X-69560Y+1511757D01*
X-39080Y+1511757D02*
X-18760Y+1511757D01*
X+16800Y+1511757D02*
X+37120Y+1511757D01*
X+67600Y+1511757D02*
X+87920Y+1511757D01*
X+204760Y+1511757D02*
X+275880Y+1511757D01*
X+352080Y+1511757D02*
X+463840Y+1511757D01*
X+504480Y+1511757D02*
X+524800Y+1511757D01*
X+580680Y+1511757D02*
X+687360Y+1511757D01*
X+768640Y+1511757D02*
X+788960Y+1511757D01*
X+875320Y+1511757D02*
X+946440Y+1511757D01*
X+1017560Y+1511757D02*
X+1037880Y+1511757D01*
X+1124240Y+1511757D02*
X+1144560Y+1511757D01*
X+1169960Y+1511757D02*
X+1190280Y+1511757D01*
X+1286800Y+1511757D02*
X+1307120Y+1511757D01*
X+1342680Y+1511757D02*
X+1363000Y+1511757D01*
X+1393480Y+1511757D02*
X+1413800Y+1511757D01*
X+1449360Y+1511757D02*
X+1469680Y+1511757D01*
X+1510320Y+1511757D02*
X+1530640Y+1511757D01*
X+1652560Y+1511757D02*
X+1759240Y+1511757D01*
X+1789720Y+1511757D02*
X+1810040Y+1511757D01*
X+1926880Y+1511757D02*
X+1947200Y+1511757D01*
X+1982760Y+1511757D02*
X+2074200Y+1511757D01*
X+2373920Y+1511757D02*
X+2394240Y+1511757D01*
X+2490760Y+1511757D02*
X+2511080Y+1511757D01*
X+2556800Y+1511757D02*
X+2663480Y+1511757D01*
X+2836200Y+1511757D02*
X+2856520Y+1511757D01*
X+2953040Y+1511757D02*
X+2973360Y+1511757D01*
X+3029240Y+1511757D02*
X+3135920Y+1511757D01*
X+3191800Y+1511757D02*
X+3212120Y+1511757D01*
X+3257840Y+1511757D02*
X+3278160Y+1511757D01*
X+3318800Y+1511757D02*
X+3339120Y+1511757D01*
X+3455960Y+1511757D02*
X+3476280Y+1511757D01*
X+3511840Y+1511757D02*
X+3618520Y+1511757D01*
X+3781080Y+1511757D02*
X+3801400Y+1511757D01*
X+3831880Y+1511757D02*
X+3852200Y+1511757D01*
X+3969040Y+1511757D02*
X+3989360Y+1511757D01*
X+4035080Y+1511757D02*
X+4141760Y+1511757D01*
X+4223040Y+1511757D02*
X+4243360Y+1511757D01*
X+4319560Y+1511757D02*
X+4339880Y+1511757D01*
X+4370360Y+1511757D02*
X+4390680Y+1511757D01*
X+4426240Y+1511757D02*
X+4446560Y+1511757D01*
X+4477040Y+1511757D02*
X+4497360Y+1511757D01*
X+4614200Y+1511757D02*
X+4634520Y+1511757D01*
X+4776760Y+1511757D02*
X+4797080Y+1511757D01*
X-2005040Y+1516837D02*
X-1984720Y+1516837D01*
X-1954240Y+1516837D02*
X-1928840Y+1516837D01*
X-1878040Y+1516837D02*
X-1857720Y+1516837D01*
X-1812000Y+1516837D02*
X-1791680Y+1516837D01*
X-1674840Y+1516837D02*
X-1654520Y+1516837D01*
X-1603720Y+1516837D02*
X-1578320Y+1516837D01*
X-1537680Y+1516837D02*
X-1461480Y+1516837D01*
X-1410680Y+1516837D02*
X-1385280Y+1516837D01*
X-1278600Y+1516837D02*
X-1232880Y+1516837D01*
X-1166840Y+1516837D02*
X-1146520Y+1516837D01*
X-1116040Y+1516837D02*
X-1100800Y+1516837D01*
X-1034760Y+1516837D02*
X-1019520Y+1516837D01*
X-989040Y+1516837D02*
X-968720Y+1516837D01*
X-917920Y+1516837D02*
X-897600Y+1516837D01*
X-851880Y+1516837D02*
X-826480Y+1516837D01*
X-750280Y+1516837D02*
X-729960Y+1516837D01*
X-643600Y+1516837D02*
X-628360Y+1516837D01*
X-582640Y+1516837D02*
X-567400Y+1516837D01*
X-460720Y+1516837D02*
X-333720Y+1516837D01*
X-252440Y+1516837D02*
X-232120Y+1516837D01*
X-150840Y+1516837D02*
X-130520Y+1516837D01*
X-89880Y+1516837D02*
X-69560Y+1516837D01*
X-39080Y+1516837D02*
X-18760Y+1516837D01*
X+16800Y+1516837D02*
X+37120Y+1516837D01*
X+67600Y+1516837D02*
X+87920Y+1516837D01*
X+214920Y+1516837D02*
X+291120Y+1516837D01*
X+352080Y+1516837D02*
X+463840Y+1516837D01*
X+504480Y+1516837D02*
X+524800Y+1516837D01*
X+575600Y+1516837D02*
X+687360Y+1516837D01*
X+768640Y+1516837D02*
X+788960Y+1516837D01*
X+885480Y+1516837D02*
X+961680Y+1516837D01*
X+1017560Y+1516837D02*
X+1037880Y+1516837D01*
X+1124240Y+1516837D02*
X+1144560Y+1516837D01*
X+1169960Y+1516837D02*
X+1190280Y+1516837D01*
X+1286800Y+1516837D02*
X+1307120Y+1516837D01*
X+1342680Y+1516837D02*
X+1363000Y+1516837D01*
X+1398560Y+1516837D02*
X+1418880Y+1516837D01*
X+1449360Y+1516837D02*
X+1469680Y+1516837D01*
X+1510320Y+1516837D02*
X+1530640Y+1516837D01*
X+1647480Y+1516837D02*
X+1759240Y+1516837D01*
X+1789720Y+1516837D02*
X+1810040Y+1516837D01*
X+1926880Y+1516837D02*
X+1947200Y+1516837D01*
X+1982760Y+1516837D02*
X+2074200Y+1516837D01*
X+2373920Y+1516837D02*
X+2394240Y+1516837D01*
X+2490760Y+1516837D02*
X+2511080Y+1516837D01*
X+2551720Y+1516837D02*
X+2663480Y+1516837D01*
X+2836200Y+1516837D02*
X+2856520Y+1516837D01*
X+2953040Y+1516837D02*
X+2973360Y+1516837D01*
X+3024160Y+1516837D02*
X+3135920Y+1516837D01*
X+3196880Y+1516837D02*
X+3212120Y+1516837D01*
X+3257840Y+1516837D02*
X+3273080Y+1516837D01*
X+3318800Y+1516837D02*
X+3339120Y+1516837D01*
X+3455960Y+1516837D02*
X+3476280Y+1516837D01*
X+3516920Y+1516837D02*
X+3618520Y+1516837D01*
X+3781080Y+1516837D02*
X+3801400Y+1516837D01*
X+3831880Y+1516837D02*
X+3852200Y+1516837D01*
X+3969040Y+1516837D02*
X+3989360Y+1516837D01*
X+4030000Y+1516837D02*
X+4141760Y+1516837D01*
X+4223040Y+1516837D02*
X+4243360Y+1516837D01*
X+4319560Y+1516837D02*
X+4339880Y+1516837D01*
X+4375440Y+1516837D02*
X+4395760Y+1516837D01*
X+4426240Y+1516837D02*
X+4446560Y+1516837D01*
X+4477040Y+1516837D02*
X+4497360Y+1516837D01*
X+4614200Y+1516837D02*
X+4634520Y+1516837D01*
X+4776760Y+1516837D02*
X+4797080Y+1516837D01*
X-2005040Y+1521917D02*
X-1984720Y+1521917D01*
X-1959320Y+1521917D02*
X-1933920Y+1521917D01*
X-1883120Y+1521917D02*
X-1862800Y+1521917D01*
X-1806920Y+1521917D02*
X-1786600Y+1521917D01*
X-1674840Y+1521917D02*
X-1654520Y+1521917D01*
X-1608800Y+1521917D02*
X-1578320Y+1521917D01*
X-1532600Y+1521917D02*
X-1466560Y+1521917D01*
X-1410680Y+1521917D02*
X-1390360Y+1521917D01*
X-1268440Y+1521917D02*
X-1232880Y+1521917D01*
X-1166840Y+1521917D02*
X-1146520Y+1521917D01*
X-1116040Y+1521917D02*
X-1095720Y+1521917D01*
X-1039840Y+1521917D02*
X-1019520Y+1521917D01*
X-989040Y+1521917D02*
X-968720Y+1521917D01*
X-923000Y+1521917D02*
X-897600Y+1521917D01*
X-851880Y+1521917D02*
X-826480Y+1521917D01*
X-750280Y+1521917D02*
X-729960Y+1521917D01*
X-643600Y+1521917D02*
X-623280Y+1521917D01*
X-587720Y+1521917D02*
X-567400Y+1521917D01*
X-460720Y+1521917D02*
X-333720Y+1521917D01*
X-252440Y+1521917D02*
X-232120Y+1521917D01*
X-150840Y+1521917D02*
X-130520Y+1521917D01*
X-89880Y+1521917D02*
X-74640Y+1521917D01*
X-39080Y+1521917D02*
X-18760Y+1521917D01*
X+16800Y+1521917D02*
X+37120Y+1521917D01*
X+72680Y+1521917D02*
X+87920Y+1521917D01*
X+230160Y+1521917D02*
X+301280Y+1521917D01*
X+352080Y+1521917D02*
X+463840Y+1521917D01*
X+504480Y+1521917D02*
X+524800Y+1521917D01*
X+570520Y+1521917D02*
X+687360Y+1521917D01*
X+768640Y+1521917D02*
X+788960Y+1521917D01*
X+900720Y+1521917D02*
X+971840Y+1521917D01*
X+1017560Y+1521917D02*
X+1037880Y+1521917D01*
X+1124240Y+1521917D02*
X+1144560Y+1521917D01*
X+1169960Y+1521917D02*
X+1190280Y+1521917D01*
X+1286800Y+1521917D02*
X+1307120Y+1521917D01*
X+1342680Y+1521917D02*
X+1363000Y+1521917D01*
X+1398560Y+1521917D02*
X+1423960Y+1521917D01*
X+1449360Y+1521917D02*
X+1469680Y+1521917D01*
X+1510320Y+1521917D02*
X+1530640Y+1521917D01*
X+1642400Y+1521917D02*
X+1759240Y+1521917D01*
X+1789720Y+1521917D02*
X+1810040Y+1521917D01*
X+1926880Y+1521917D02*
X+1947200Y+1521917D01*
X+1982760Y+1521917D02*
X+2074200Y+1521917D01*
X+2373920Y+1521917D02*
X+2394240Y+1521917D01*
X+2490760Y+1521917D02*
X+2511080Y+1521917D01*
X+2546640Y+1521917D02*
X+2582200Y+1521917D01*
X+2643160Y+1521917D02*
X+2663480Y+1521917D01*
X+2836200Y+1521917D02*
X+2856520Y+1521917D01*
X+2953040Y+1521917D02*
X+2973360Y+1521917D01*
X+3019080Y+1521917D02*
X+3135920Y+1521917D01*
X+3196880Y+1521917D02*
X+3217200Y+1521917D01*
X+3252760Y+1521917D02*
X+3273080Y+1521917D01*
X+3318800Y+1521917D02*
X+3339120Y+1521917D01*
X+3455960Y+1521917D02*
X+3476280Y+1521917D01*
X+3516920Y+1521917D02*
X+3618520Y+1521917D01*
X+3781080Y+1521917D02*
X+3801400Y+1521917D01*
X+3831880Y+1521917D02*
X+3852200Y+1521917D01*
X+3969040Y+1521917D02*
X+3989360Y+1521917D01*
X+4024920Y+1521917D02*
X+4141760Y+1521917D01*
X+4223040Y+1521917D02*
X+4243360Y+1521917D01*
X+4319560Y+1521917D02*
X+4339880Y+1521917D01*
X+4375440Y+1521917D02*
X+4400840Y+1521917D01*
X+4426240Y+1521917D02*
X+4446560Y+1521917D01*
X+4477040Y+1521917D02*
X+4497360Y+1521917D01*
X+4614200Y+1521917D02*
X+4634520Y+1521917D01*
X+4776760Y+1521917D02*
X+4797080Y+1521917D01*
X-2005040Y+1526997D02*
X-1984720Y+1526997D01*
X-1964400Y+1526997D02*
X-1939000Y+1526997D01*
X-1883120Y+1526997D02*
X-1862800Y+1526997D01*
X-1806920Y+1526997D02*
X-1786600Y+1526997D01*
X-1674840Y+1526997D02*
X-1649440Y+1526997D01*
X-1608800Y+1526997D02*
X-1578320Y+1526997D01*
X-1527520Y+1526997D02*
X-1471640Y+1526997D01*
X-1415760Y+1526997D02*
X-1390360Y+1526997D01*
X-1273520Y+1526997D02*
X-1232880Y+1526997D01*
X-1166840Y+1526997D02*
X-1146520Y+1526997D01*
X-1116040Y+1526997D02*
X-1090640Y+1526997D01*
X-1044920Y+1526997D02*
X-1019520Y+1526997D01*
X-989040Y+1526997D02*
X-963640Y+1526997D01*
X-928080Y+1526997D02*
X-892520Y+1526997D01*
X-856960Y+1526997D02*
X-826480Y+1526997D01*
X-750280Y+1526997D02*
X-729960Y+1526997D01*
X-643600Y+1526997D02*
X-623280Y+1526997D01*
X-587720Y+1526997D02*
X-567400Y+1526997D01*
X-460720Y+1526997D02*
X-333720Y+1526997D01*
X-252440Y+1526997D02*
X-232120Y+1526997D01*
X-150840Y+1526997D02*
X-130520Y+1526997D01*
X-89880Y+1526997D02*
X-74640Y+1526997D01*
X-34000Y+1526997D02*
X-13680Y+1526997D01*
X+11720Y+1526997D02*
X+32040Y+1526997D01*
X+72680Y+1526997D02*
X+87920Y+1526997D01*
X+250480Y+1526997D02*
X+306360Y+1526997D01*
X+352080Y+1526997D02*
X+463840Y+1526997D01*
X+504480Y+1526997D02*
X+524800Y+1526997D01*
X+565440Y+1526997D02*
X+601000Y+1526997D01*
X+667040Y+1526997D02*
X+687360Y+1526997D01*
X+768640Y+1526997D02*
X+788960Y+1526997D01*
X+921040Y+1526997D02*
X+976920Y+1526997D01*
X+1017560Y+1526997D02*
X+1037880Y+1526997D01*
X+1124240Y+1526997D02*
X+1144560Y+1526997D01*
X+1169960Y+1526997D02*
X+1190280Y+1526997D01*
X+1286800Y+1526997D02*
X+1307120Y+1526997D01*
X+1342680Y+1526997D02*
X+1363000Y+1526997D01*
X+1403640Y+1526997D02*
X+1423960Y+1526997D01*
X+1449360Y+1526997D02*
X+1469680Y+1526997D01*
X+1510320Y+1526997D02*
X+1530640Y+1526997D01*
X+1637320Y+1526997D02*
X+1672880Y+1526997D01*
X+1738920Y+1526997D02*
X+1759240Y+1526997D01*
X+1789720Y+1526997D02*
X+1810040Y+1526997D01*
X+1926880Y+1526997D02*
X+1947200Y+1526997D01*
X+1982760Y+1526997D02*
X+2074200Y+1526997D01*
X+2373920Y+1526997D02*
X+2394240Y+1526997D01*
X+2490760Y+1526997D02*
X+2511080Y+1526997D01*
X+2546640Y+1526997D02*
X+2572040Y+1526997D01*
X+2643160Y+1526997D02*
X+2663480Y+1526997D01*
X+2836200Y+1526997D02*
X+2856520Y+1526997D01*
X+2953040Y+1526997D02*
X+2973360Y+1526997D01*
X+3014000Y+1526997D02*
X+3049560Y+1526997D01*
X+3115600Y+1526997D02*
X+3135920Y+1526997D01*
X+3196880Y+1526997D02*
X+3217200Y+1526997D01*
X+3252760Y+1526997D02*
X+3273080Y+1526997D01*
X+3318800Y+1526997D02*
X+3339120Y+1526997D01*
X+3455960Y+1526997D02*
X+3476280Y+1526997D01*
X+3511840Y+1526997D02*
X+3618520Y+1526997D01*
X+3781080Y+1526997D02*
X+3801400Y+1526997D01*
X+3831880Y+1526997D02*
X+3852200Y+1526997D01*
X+3969040Y+1526997D02*
X+3989360Y+1526997D01*
X+4019840Y+1526997D02*
X+4055400Y+1526997D01*
X+4121440Y+1526997D02*
X+4141760Y+1526997D01*
X+4223040Y+1526997D02*
X+4243360Y+1526997D01*
X+4319560Y+1526997D02*
X+4339880Y+1526997D01*
X+4380520Y+1526997D02*
X+4400840Y+1526997D01*
X+4426240Y+1526997D02*
X+4446560Y+1526997D01*
X+4477040Y+1526997D02*
X+4497360Y+1526997D01*
X+4614200Y+1526997D02*
X+4634520Y+1526997D01*
X+4776760Y+1526997D02*
X+4797080Y+1526997D01*
X-2005040Y+1532077D02*
X-1984720Y+1532077D01*
X-1964400Y+1532077D02*
X-1944080Y+1532077D01*
X-1888200Y+1532077D02*
X-1862800Y+1532077D01*
X-1806920Y+1532077D02*
X-1781520Y+1532077D01*
X-1669760Y+1532077D02*
X-1639280Y+1532077D01*
X-1618960Y+1532077D02*
X-1578320Y+1532077D01*
X-1537680Y+1532077D02*
X-1461480Y+1532077D01*
X-1415760Y+1532077D02*
X-1395440Y+1532077D01*
X-1278600Y+1532077D02*
X-1253200Y+1532077D01*
X-1166840Y+1532077D02*
X-1146520Y+1532077D01*
X-1110960Y+1532077D02*
X-1085560Y+1532077D01*
X-1055080Y+1532077D02*
X-1024600Y+1532077D01*
X-989040Y+1532077D02*
X-958560Y+1532077D01*
X-933160Y+1532077D02*
X-887440Y+1532077D01*
X-862040Y+1532077D02*
X-826480Y+1532077D01*
X-750280Y+1532077D02*
X-729960Y+1532077D01*
X-638520Y+1532077D02*
X-623280Y+1532077D01*
X-587720Y+1532077D02*
X-572480Y+1532077D01*
X-460720Y+1532077D02*
X-440400Y+1532077D01*
X-354040Y+1532077D02*
X-333720Y+1532077D01*
X-252440Y+1532077D02*
X-232120Y+1532077D01*
X-150840Y+1532077D02*
X-130520Y+1532077D01*
X-94960Y+1532077D02*
X-74640Y+1532077D01*
X-34000Y+1532077D02*
X-13680Y+1532077D01*
X+11720Y+1532077D02*
X+32040Y+1532077D01*
X+72680Y+1532077D02*
X+93000Y+1532077D01*
X+270800Y+1532077D02*
X+311440Y+1532077D01*
X+443520Y+1532077D02*
X+463840Y+1532077D01*
X+504480Y+1532077D02*
X+524800Y+1532077D01*
X+565440Y+1532077D02*
X+590840Y+1532077D01*
X+667040Y+1532077D02*
X+687360Y+1532077D01*
X+768640Y+1532077D02*
X+788960Y+1532077D01*
X+941360Y+1532077D02*
X+982000Y+1532077D01*
X+1017560Y+1532077D02*
X+1037880Y+1532077D01*
X+1124240Y+1532077D02*
X+1144560Y+1532077D01*
X+1169960Y+1532077D02*
X+1190280Y+1532077D01*
X+1286800Y+1532077D02*
X+1307120Y+1532077D01*
X+1342680Y+1532077D02*
X+1363000Y+1532077D01*
X+1408720Y+1532077D02*
X+1429040Y+1532077D01*
X+1449360Y+1532077D02*
X+1469680Y+1532077D01*
X+1510320Y+1532077D02*
X+1530640Y+1532077D01*
X+1637320Y+1532077D02*
X+1662720Y+1532077D01*
X+1738920Y+1532077D02*
X+1759240Y+1532077D01*
X+1789720Y+1532077D02*
X+1810040Y+1532077D01*
X+1926880Y+1532077D02*
X+1947200Y+1532077D01*
X+2053880Y+1532077D02*
X+2074200Y+1532077D01*
X+2373920Y+1532077D02*
X+2394240Y+1532077D01*
X+2490760Y+1532077D02*
X+2511080Y+1532077D01*
X+2541560Y+1532077D02*
X+2566960Y+1532077D01*
X+2643160Y+1532077D02*
X+2663480Y+1532077D01*
X+2836200Y+1532077D02*
X+2856520Y+1532077D01*
X+2953040Y+1532077D02*
X+2973360Y+1532077D01*
X+3014000Y+1532077D02*
X+3039400Y+1532077D01*
X+3115600Y+1532077D02*
X+3135920Y+1532077D01*
X+3201960Y+1532077D02*
X+3217200Y+1532077D01*
X+3252760Y+1532077D02*
X+3268000Y+1532077D01*
X+3318800Y+1532077D02*
X+3339120Y+1532077D01*
X+3455960Y+1532077D02*
X+3476280Y+1532077D01*
X+3506760Y+1532077D02*
X+3537240Y+1532077D01*
X+3598200Y+1532077D02*
X+3618520Y+1532077D01*
X+3781080Y+1532077D02*
X+3801400Y+1532077D01*
X+3831880Y+1532077D02*
X+3852200Y+1532077D01*
X+3969040Y+1532077D02*
X+3989360Y+1532077D01*
X+4019840Y+1532077D02*
X+4045240Y+1532077D01*
X+4121440Y+1532077D02*
X+4141760Y+1532077D01*
X+4223040Y+1532077D02*
X+4243360Y+1532077D01*
X+4319560Y+1532077D02*
X+4339880Y+1532077D01*
X+4385600Y+1532077D02*
X+4405920Y+1532077D01*
X+4426240Y+1532077D02*
X+4446560Y+1532077D01*
X+4477040Y+1532077D02*
X+4497360Y+1532077D01*
X+4614200Y+1532077D02*
X+4634520Y+1532077D01*
X+4776760Y+1532077D02*
X+4797080Y+1532077D01*
X-2005040Y+1537157D02*
X-1984720Y+1537157D01*
X-1969480Y+1537157D02*
X-1944080Y+1537157D01*
X-1888200Y+1537157D02*
X-1867880Y+1537157D01*
X-1801840Y+1537157D02*
X-1781520Y+1537157D01*
X-1669760Y+1537157D02*
X-1603720Y+1537157D01*
X-1598640Y+1537157D02*
X-1578320Y+1537157D01*
X-1542760Y+1537157D02*
X-1517360Y+1537157D01*
X-1481800Y+1537157D02*
X-1456400Y+1537157D01*
X-1420840Y+1537157D02*
X-1400520Y+1537157D01*
X-1283680Y+1537157D02*
X-1263360Y+1537157D01*
X-1166840Y+1537157D02*
X-1146520Y+1537157D01*
X-1105880Y+1537157D02*
X-1029680Y+1537157D01*
X-983960Y+1537157D02*
X-917920Y+1537157D01*
X-912840Y+1537157D02*
X-851880Y+1537157D01*
X-846800Y+1537157D02*
X-826480Y+1537157D01*
X-750280Y+1537157D02*
X-729960Y+1537157D01*
X-638520Y+1537157D02*
X-618200Y+1537157D01*
X-592800Y+1537157D02*
X-572480Y+1537157D01*
X-460720Y+1537157D02*
X-440400Y+1537157D01*
X-354040Y+1537157D02*
X-333720Y+1537157D01*
X-252440Y+1537157D02*
X-232120Y+1537157D01*
X-150840Y+1537157D02*
X-130520Y+1537157D01*
X-94960Y+1537157D02*
X-74640Y+1537157D01*
X-34000Y+1537157D02*
X-13680Y+1537157D01*
X+11720Y+1537157D02*
X+32040Y+1537157D01*
X+72680Y+1537157D02*
X+93000Y+1537157D01*
X+286040Y+1537157D02*
X+311440Y+1537157D01*
X+443520Y+1537157D02*
X+463840Y+1537157D01*
X+504480Y+1537157D02*
X+524800Y+1537157D01*
X+560360Y+1537157D02*
X+585760Y+1537157D01*
X+667040Y+1537157D02*
X+687360Y+1537157D01*
X+768640Y+1537157D02*
X+788960Y+1537157D01*
X+956600Y+1537157D02*
X+982000Y+1537157D01*
X+1017560Y+1537157D02*
X+1037880Y+1537157D01*
X+1124240Y+1537157D02*
X+1144560Y+1537157D01*
X+1169960Y+1537157D02*
X+1190280Y+1537157D01*
X+1286800Y+1537157D02*
X+1307120Y+1537157D01*
X+1342680Y+1537157D02*
X+1363000Y+1537157D01*
X+1408720Y+1537157D02*
X+1434120Y+1537157D01*
X+1449360Y+1537157D02*
X+1469680Y+1537157D01*
X+1510320Y+1537157D02*
X+1530640Y+1537157D01*
X+1632240Y+1537157D02*
X+1657640Y+1537157D01*
X+1738920Y+1537157D02*
X+1759240Y+1537157D01*
X+1794800Y+1537157D02*
X+1815120Y+1537157D01*
X+1921800Y+1537157D02*
X+1942120Y+1537157D01*
X+2053880Y+1537157D02*
X+2074200Y+1537157D01*
X+2175800Y+1537157D02*
X+2185960Y+1537157D01*
X+2216440Y+1537157D02*
X+2226600Y+1537157D01*
X+2368840Y+1537157D02*
X+2394240Y+1537157D01*
X+2490760Y+1537157D02*
X+2511080Y+1537157D01*
X+2541560Y+1537157D02*
X+2561880Y+1537157D01*
X+2643160Y+1537157D02*
X+2663480Y+1537157D01*
X+2699040Y+1537157D02*
X+2709200Y+1537157D01*
X+2739680Y+1537157D02*
X+2749840Y+1537157D01*
X+2836200Y+1537157D02*
X+2856520Y+1537157D01*
X+2953040Y+1537157D02*
X+2973360Y+1537157D01*
X+3008920Y+1537157D02*
X+3034320Y+1537157D01*
X+3115600Y+1537157D02*
X+3135920Y+1537157D01*
X+3201960Y+1537157D02*
X+3222280Y+1537157D01*
X+3247680Y+1537157D02*
X+3268000Y+1537157D01*
X+3323880Y+1537157D02*
X+3344200Y+1537157D01*
X+3450880Y+1537157D02*
X+3471200Y+1537157D01*
X+3506760Y+1537157D02*
X+3527080Y+1537157D01*
X+3598200Y+1537157D02*
X+3618520Y+1537157D01*
X+3781080Y+1537157D02*
X+3801400Y+1537157D01*
X+3836960Y+1537157D02*
X+3857280Y+1537157D01*
X+3963960Y+1537157D02*
X+3984280Y+1537157D01*
X+4014760Y+1537157D02*
X+4040160Y+1537157D01*
X+4121440Y+1537157D02*
X+4141760Y+1537157D01*
X+4223040Y+1537157D02*
X+4243360Y+1537157D01*
X+4319560Y+1537157D02*
X+4339880Y+1537157D01*
X+4385600Y+1537157D02*
X+4411000Y+1537157D01*
X+4426240Y+1537157D02*
X+4446560Y+1537157D01*
X+4482120Y+1537157D02*
X+4502440Y+1537157D01*
X+4609120Y+1537157D02*
X+4629440Y+1537157D01*
X+4771680Y+1537157D02*
X+4797080Y+1537157D01*
X-2005040Y+1542237D02*
X-1984720Y+1542237D01*
X-1974560Y+1542237D02*
X-1949160Y+1542237D01*
X-1888200Y+1542237D02*
X-1867880Y+1542237D01*
X-1801840Y+1542237D02*
X-1781520Y+1542237D01*
X-1664680Y+1542237D02*
X-1603720Y+1542237D01*
X-1598640Y+1542237D02*
X-1578320Y+1542237D01*
X-1542760Y+1542237D02*
X-1522440Y+1542237D01*
X-1476720Y+1542237D02*
X-1456400Y+1542237D01*
X-1420840Y+1542237D02*
X-1400520Y+1542237D01*
X-1288760Y+1542237D02*
X-1263360Y+1542237D01*
X-1166840Y+1542237D02*
X-1146520Y+1542237D01*
X-1100800Y+1542237D02*
X-1034760Y+1542237D01*
X-983960Y+1542237D02*
X-923000Y+1542237D01*
X-907760Y+1542237D02*
X-851880Y+1542237D01*
X-846800Y+1542237D02*
X-826480Y+1542237D01*
X-750280Y+1542237D02*
X-729960Y+1542237D01*
X-633440Y+1542237D02*
X-618200Y+1542237D01*
X-592800Y+1542237D02*
X-577560Y+1542237D01*
X-460720Y+1542237D02*
X-440400Y+1542237D01*
X-354040Y+1542237D02*
X-333720Y+1542237D01*
X-252440Y+1542237D02*
X-232120Y+1542237D01*
X-150840Y+1542237D02*
X-130520Y+1542237D01*
X-94960Y+1542237D02*
X-74640Y+1542237D01*
X-34000Y+1542237D02*
X-8600Y+1542237D01*
X+6640Y+1542237D02*
X+32040Y+1542237D01*
X+72680Y+1542237D02*
X+93000Y+1542237D01*
X+291120Y+1542237D02*
X+316520Y+1542237D01*
X+443520Y+1542237D02*
X+463840Y+1542237D01*
X+504480Y+1542237D02*
X+524800Y+1542237D01*
X+560360Y+1542237D02*
X+580680Y+1542237D01*
X+667040Y+1542237D02*
X+687360Y+1542237D01*
X+768640Y+1542237D02*
X+788960Y+1542237D01*
X+961680Y+1542237D02*
X+987080Y+1542237D01*
X+1017560Y+1542237D02*
X+1037880Y+1542237D01*
X+1124240Y+1542237D02*
X+1144560Y+1542237D01*
X+1175040Y+1542237D02*
X+1195360Y+1542237D01*
X+1286800Y+1542237D02*
X+1307120Y+1542237D01*
X+1342680Y+1542237D02*
X+1363000Y+1542237D01*
X+1413800Y+1542237D02*
X+1434120Y+1542237D01*
X+1449360Y+1542237D02*
X+1469680Y+1542237D01*
X+1510320Y+1542237D02*
X+1530640Y+1542237D01*
X+1632240Y+1542237D02*
X+1652560Y+1542237D01*
X+1738920Y+1542237D02*
X+1759240Y+1542237D01*
X+1794800Y+1542237D02*
X+1815120Y+1542237D01*
X+1921800Y+1542237D02*
X+1942120Y+1542237D01*
X+2053880Y+1542237D02*
X+2074200Y+1542237D01*
X+2175800Y+1542237D02*
X+2185960Y+1542237D01*
X+2216440Y+1542237D02*
X+2226600Y+1542237D01*
X+2368840Y+1542237D02*
X+2389160Y+1542237D01*
X+2490760Y+1542237D02*
X+2511080Y+1542237D01*
X+2541560Y+1542237D02*
X+2561880Y+1542237D01*
X+2643160Y+1542237D02*
X+2663480Y+1542237D01*
X+2699040Y+1542237D02*
X+2709200Y+1542237D01*
X+2739680Y+1542237D02*
X+2749840Y+1542237D01*
X+2841280Y+1542237D02*
X+2861600Y+1542237D01*
X+2953040Y+1542237D02*
X+2973360Y+1542237D01*
X+3008920Y+1542237D02*
X+3029240Y+1542237D01*
X+3115600Y+1542237D02*
X+3135920Y+1542237D01*
X+3207040Y+1542237D02*
X+3222280Y+1542237D01*
X+3247680Y+1542237D02*
X+3262920Y+1542237D01*
X+3323880Y+1542237D02*
X+3344200Y+1542237D01*
X+3450880Y+1542237D02*
X+3471200Y+1542237D01*
X+3501680Y+1542237D02*
X+3522000Y+1542237D01*
X+3598200Y+1542237D02*
X+3618520Y+1542237D01*
X+3781080Y+1542237D02*
X+3801400Y+1542237D01*
X+3836960Y+1542237D02*
X+3857280Y+1542237D01*
X+3963960Y+1542237D02*
X+3984280Y+1542237D01*
X+4014760Y+1542237D02*
X+4035080Y+1542237D01*
X+4121440Y+1542237D02*
X+4141760Y+1542237D01*
X+4223040Y+1542237D02*
X+4243360Y+1542237D01*
X+4319560Y+1542237D02*
X+4339880Y+1542237D01*
X+4390680Y+1542237D02*
X+4411000Y+1542237D01*
X+4426240Y+1542237D02*
X+4446560Y+1542237D01*
X+4482120Y+1542237D02*
X+4502440Y+1542237D01*
X+4609120Y+1542237D02*
X+4629440Y+1542237D01*
X+4771680Y+1542237D02*
X+4792000Y+1542237D01*
X-2005040Y+1547317D02*
X-1984720Y+1547317D01*
X-1979640Y+1547317D02*
X-1954240Y+1547317D01*
X-1893280Y+1547317D02*
X-1867880Y+1547317D01*
X-1801840Y+1547317D02*
X-1776440Y+1547317D01*
X-1659600Y+1547317D02*
X-1608800Y+1547317D01*
X-1598640Y+1547317D02*
X-1578320Y+1547317D01*
X-1547840Y+1547317D02*
X-1527520Y+1547317D01*
X-1471640Y+1547317D02*
X-1451320Y+1547317D01*
X-1420840Y+1547317D02*
X-1400520Y+1547317D01*
X-1339560Y+1547317D02*
X-1329400Y+1547317D01*
X-1288760Y+1547317D02*
X-1268440Y+1547317D01*
X-1166840Y+1547317D02*
X-1146520Y+1547317D01*
X-1095720Y+1547317D02*
X-1039840Y+1547317D01*
X-978880Y+1547317D02*
X-928080Y+1547317D01*
X-902680Y+1547317D02*
X-856960Y+1547317D01*
X-846800Y+1547317D02*
X-826480Y+1547317D01*
X-750280Y+1547317D02*
X-729960Y+1547317D01*
X-633440Y+1547317D02*
X-618200Y+1547317D01*
X-592800Y+1547317D02*
X-577560Y+1547317D01*
X-460720Y+1547317D02*
X-440400Y+1547317D01*
X-354040Y+1547317D02*
X-333720Y+1547317D01*
X-252440Y+1547317D02*
X-232120Y+1547317D01*
X-150840Y+1547317D02*
X-130520Y+1547317D01*
X-94960Y+1547317D02*
X-79720Y+1547317D01*
X-28920Y+1547317D02*
X-8600Y+1547317D01*
X+6640Y+1547317D02*
X+26960Y+1547317D01*
X+77760Y+1547317D02*
X+93000Y+1547317D01*
X+194600Y+1547317D02*
X+214920Y+1547317D01*
X+296200Y+1547317D02*
X+316520Y+1547317D01*
X+443520Y+1547317D02*
X+463840Y+1547317D01*
X+504480Y+1547317D02*
X+524800Y+1547317D01*
X+560360Y+1547317D02*
X+580680Y+1547317D01*
X+667040Y+1547317D02*
X+687360Y+1547317D01*
X+768640Y+1547317D02*
X+788960Y+1547317D01*
X+865160Y+1547317D02*
X+885480Y+1547317D01*
X+966760Y+1547317D02*
X+987080Y+1547317D01*
X+1017560Y+1547317D02*
X+1037880Y+1547317D01*
X+1124240Y+1547317D02*
X+1144560Y+1547317D01*
X+1175040Y+1547317D02*
X+1195360Y+1547317D01*
X+1286800Y+1547317D02*
X+1307120Y+1547317D01*
X+1342680Y+1547317D02*
X+1363000Y+1547317D01*
X+1413800Y+1547317D02*
X+1439200Y+1547317D01*
X+1449360Y+1547317D02*
X+1469680Y+1547317D01*
X+1510320Y+1547317D02*
X+1530640Y+1547317D01*
X+1632240Y+1547317D02*
X+1652560Y+1547317D01*
X+1738920Y+1547317D02*
X+1759240Y+1547317D01*
X+1794800Y+1547317D02*
X+1815120Y+1547317D01*
X+1921800Y+1547317D02*
X+1942120Y+1547317D01*
X+2053880Y+1547317D02*
X+2074200Y+1547317D01*
X+2175800Y+1547317D02*
X+2185960Y+1547317D01*
X+2216440Y+1547317D02*
X+2226600Y+1547317D01*
X+2257080Y+1547317D02*
X+2272320Y+1547317D01*
X+2368840Y+1547317D02*
X+2389160Y+1547317D01*
X+2490760Y+1547317D02*
X+2511080Y+1547317D01*
X+2541560Y+1547317D02*
X+2561880Y+1547317D01*
X+2643160Y+1547317D02*
X+2663480Y+1547317D01*
X+2699040Y+1547317D02*
X+2709200Y+1547317D01*
X+2739680Y+1547317D02*
X+2749840Y+1547317D01*
X+2841280Y+1547317D02*
X+2861600Y+1547317D01*
X+2953040Y+1547317D02*
X+2973360Y+1547317D01*
X+3008920Y+1547317D02*
X+3029240Y+1547317D01*
X+3115600Y+1547317D02*
X+3135920Y+1547317D01*
X+3207040Y+1547317D02*
X+3222280Y+1547317D01*
X+3247680Y+1547317D02*
X+3262920Y+1547317D01*
X+3323880Y+1547317D02*
X+3344200Y+1547317D01*
X+3450880Y+1547317D02*
X+3471200Y+1547317D01*
X+3501680Y+1547317D02*
X+3522000Y+1547317D01*
X+3598200Y+1547317D02*
X+3618520Y+1547317D01*
X+3781080Y+1547317D02*
X+3801400Y+1547317D01*
X+3836960Y+1547317D02*
X+3857280Y+1547317D01*
X+3963960Y+1547317D02*
X+3984280Y+1547317D01*
X+4014760Y+1547317D02*
X+4035080Y+1547317D01*
X+4121440Y+1547317D02*
X+4141760Y+1547317D01*
X+4223040Y+1547317D02*
X+4243360Y+1547317D01*
X+4319560Y+1547317D02*
X+4339880Y+1547317D01*
X+4390680Y+1547317D02*
X+4416080Y+1547317D01*
X+4426240Y+1547317D02*
X+4446560Y+1547317D01*
X+4482120Y+1547317D02*
X+4502440Y+1547317D01*
X+4609120Y+1547317D02*
X+4629440Y+1547317D01*
X+4659920Y+1547317D02*
X+4675160Y+1547317D01*
X+4771680Y+1547317D02*
X+4792000Y+1547317D01*
X-2005040Y+1552397D02*
X-1984720Y+1552397D01*
X-1979640Y+1552397D02*
X-1959320Y+1552397D01*
X-1893280Y+1552397D02*
X-1872960Y+1552397D01*
X-1796760Y+1552397D02*
X-1776440Y+1552397D01*
X-1649440Y+1552397D02*
X-1618960Y+1552397D01*
X-1547840Y+1552397D02*
X-1527520Y+1552397D01*
X-1471640Y+1552397D02*
X-1451320Y+1552397D01*
X-1420840Y+1552397D02*
X-1400520Y+1552397D01*
X-1339560Y+1552397D02*
X-1319240Y+1552397D01*
X-1288760Y+1552397D02*
X-1268440Y+1552397D01*
X-1212560Y+1552397D02*
X-1202400Y+1552397D01*
X-1166840Y+1552397D02*
X-1146520Y+1552397D01*
X-1085560Y+1552397D02*
X-1050000Y+1552397D01*
X-968720Y+1552397D02*
X-938240Y+1552397D01*
X-897600Y+1552397D02*
X-867120Y+1552397D01*
X-750280Y+1552397D02*
X-729960Y+1552397D01*
X-633440Y+1552397D02*
X-613120Y+1552397D01*
X-597880Y+1552397D02*
X-577560Y+1552397D01*
X-460720Y+1552397D02*
X-440400Y+1552397D01*
X-354040Y+1552397D02*
X-333720Y+1552397D01*
X-252440Y+1552397D02*
X-232120Y+1552397D01*
X-150840Y+1552397D02*
X-130520Y+1552397D01*
X-100040Y+1552397D02*
X-79720Y+1552397D01*
X-28920Y+1552397D02*
X-8600Y+1552397D01*
X+6640Y+1552397D02*
X+26960Y+1552397D01*
X+77760Y+1552397D02*
X+98080Y+1552397D01*
X+194600Y+1552397D02*
X+214920Y+1552397D01*
X+296200Y+1552397D02*
X+316520Y+1552397D01*
X+443520Y+1552397D02*
X+463840Y+1552397D01*
X+504480Y+1552397D02*
X+524800Y+1552397D01*
X+560360Y+1552397D02*
X+580680Y+1552397D01*
X+667040Y+1552397D02*
X+687360Y+1552397D01*
X+768640Y+1552397D02*
X+788960Y+1552397D01*
X+865160Y+1552397D02*
X+885480Y+1552397D01*
X+966760Y+1552397D02*
X+987080Y+1552397D01*
X+1017560Y+1552397D02*
X+1037880Y+1552397D01*
X+1124240Y+1552397D02*
X+1144560Y+1552397D01*
X+1175040Y+1552397D02*
X+1200440Y+1552397D01*
X+1286800Y+1552397D02*
X+1307120Y+1552397D01*
X+1342680Y+1552397D02*
X+1363000Y+1552397D01*
X+1418880Y+1552397D02*
X+1444280Y+1552397D01*
X+1449360Y+1552397D02*
X+1469680Y+1552397D01*
X+1510320Y+1552397D02*
X+1530640Y+1552397D01*
X+1632240Y+1552397D02*
X+1652560Y+1552397D01*
X+1738920Y+1552397D02*
X+1759240Y+1552397D01*
X+1799880Y+1552397D02*
X+1820200Y+1552397D01*
X+1916720Y+1552397D02*
X+1937040Y+1552397D01*
X+2053880Y+1552397D02*
X+2074200Y+1552397D01*
X+2170720Y+1552397D02*
X+2191040Y+1552397D01*
X+2211360Y+1552397D02*
X+2231680Y+1552397D01*
X+2252000Y+1552397D02*
X+2277400Y+1552397D01*
X+2363760Y+1552397D02*
X+2389160Y+1552397D01*
X+2490760Y+1552397D02*
X+2511080Y+1552397D01*
X+2541560Y+1552397D02*
X+2561880Y+1552397D01*
X+2643160Y+1552397D02*
X+2663480Y+1552397D01*
X+2693960Y+1552397D02*
X+2714280Y+1552397D01*
X+2734600Y+1552397D02*
X+2754920Y+1552397D01*
X+2841280Y+1552397D02*
X+2866680Y+1552397D01*
X+2953040Y+1552397D02*
X+2973360Y+1552397D01*
X+3008920Y+1552397D02*
X+3029240Y+1552397D01*
X+3115600Y+1552397D02*
X+3135920Y+1552397D01*
X+3207040Y+1552397D02*
X+3227360Y+1552397D01*
X+3242600Y+1552397D02*
X+3262920Y+1552397D01*
X+3328960Y+1552397D02*
X+3349280Y+1552397D01*
X+3445800Y+1552397D02*
X+3466120Y+1552397D01*
X+3501680Y+1552397D02*
X+3522000Y+1552397D01*
X+3598200Y+1552397D02*
X+3618520Y+1552397D01*
X+3781080Y+1552397D02*
X+3801400Y+1552397D01*
X+3842040Y+1552397D02*
X+3862360Y+1552397D01*
X+3958880Y+1552397D02*
X+3979200Y+1552397D01*
X+4014760Y+1552397D02*
X+4035080Y+1552397D01*
X+4121440Y+1552397D02*
X+4141760Y+1552397D01*
X+4223040Y+1552397D02*
X+4243360Y+1552397D01*
X+4319560Y+1552397D02*
X+4339880Y+1552397D01*
X+4395760Y+1552397D02*
X+4421160Y+1552397D01*
X+4426240Y+1552397D02*
X+4446560Y+1552397D01*
X+4487200Y+1552397D02*
X+4507520Y+1552397D01*
X+4604040Y+1552397D02*
X+4624360Y+1552397D01*
X+4654840Y+1552397D02*
X+4680240Y+1552397D01*
X+4766600Y+1552397D02*
X+4792000Y+1552397D01*
X-2005040Y+1557477D02*
X-1959320Y+1557477D01*
X-1893280Y+1557477D02*
X-1872960Y+1557477D01*
X-1796760Y+1557477D02*
X-1776440Y+1557477D01*
X-1547840Y+1557477D02*
X-1527520Y+1557477D01*
X-1471640Y+1557477D02*
X-1451320Y+1557477D01*
X-1420840Y+1557477D02*
X-1400520Y+1557477D01*
X-1339560Y+1557477D02*
X-1319240Y+1557477D01*
X-1288760Y+1557477D02*
X-1268440Y+1557477D01*
X-1212560Y+1557477D02*
X-1192240Y+1557477D01*
X-1166840Y+1557477D02*
X-1146520Y+1557477D01*
X-750280Y+1557477D02*
X-729960Y+1557477D01*
X-628360Y+1557477D02*
X-613120Y+1557477D01*
X-597880Y+1557477D02*
X-582640Y+1557477D01*
X-460720Y+1557477D02*
X-440400Y+1557477D01*
X-354040Y+1557477D02*
X-333720Y+1557477D01*
X-252440Y+1557477D02*
X-232120Y+1557477D01*
X-150840Y+1557477D02*
X-130520Y+1557477D01*
X-100040Y+1557477D02*
X-79720Y+1557477D01*
X-28920Y+1557477D02*
X-8600Y+1557477D01*
X+6640Y+1557477D02*
X+26960Y+1557477D01*
X+77760Y+1557477D02*
X+98080Y+1557477D01*
X+194600Y+1557477D02*
X+220000Y+1557477D01*
X+296200Y+1557477D02*
X+316520Y+1557477D01*
X+443520Y+1557477D02*
X+463840Y+1557477D01*
X+504480Y+1557477D02*
X+524800Y+1557477D01*
X+560360Y+1557477D02*
X+580680Y+1557477D01*
X+667040Y+1557477D02*
X+687360Y+1557477D01*
X+768640Y+1557477D02*
X+788960Y+1557477D01*
X+865160Y+1557477D02*
X+890560Y+1557477D01*
X+966760Y+1557477D02*
X+987080Y+1557477D01*
X+1017560Y+1557477D02*
X+1037880Y+1557477D01*
X+1124240Y+1557477D02*
X+1144560Y+1557477D01*
X+1180120Y+1557477D02*
X+1200440Y+1557477D01*
X+1286800Y+1557477D02*
X+1307120Y+1557477D01*
X+1342680Y+1557477D02*
X+1363000Y+1557477D01*
X+1423960Y+1557477D02*
X+1444280Y+1557477D01*
X+1449360Y+1557477D02*
X+1469680Y+1557477D01*
X+1510320Y+1557477D02*
X+1530640Y+1557477D01*
X+1632240Y+1557477D02*
X+1652560Y+1557477D01*
X+1738920Y+1557477D02*
X+1759240Y+1557477D01*
X+1799880Y+1557477D02*
X+1825280Y+1557477D01*
X+1911640Y+1557477D02*
X+1937040Y+1557477D01*
X+2053880Y+1557477D02*
X+2074200Y+1557477D01*
X+2170720Y+1557477D02*
X+2191040Y+1557477D01*
X+2211360Y+1557477D02*
X+2231680Y+1557477D01*
X+2257080Y+1557477D02*
X+2277400Y+1557477D01*
X+2358680Y+1557477D02*
X+2384080Y+1557477D01*
X+2490760Y+1557477D02*
X+2511080Y+1557477D01*
X+2541560Y+1557477D02*
X+2561880Y+1557477D01*
X+2643160Y+1557477D02*
X+2663480Y+1557477D01*
X+2693960Y+1557477D02*
X+2714280Y+1557477D01*
X+2734600Y+1557477D02*
X+2754920Y+1557477D01*
X+2846360Y+1557477D02*
X+2866680Y+1557477D01*
X+2953040Y+1557477D02*
X+2973360Y+1557477D01*
X+3008920Y+1557477D02*
X+3029240Y+1557477D01*
X+3115600Y+1557477D02*
X+3135920Y+1557477D01*
X+3212120Y+1557477D02*
X+3227360Y+1557477D01*
X+3242600Y+1557477D02*
X+3257840Y+1557477D01*
X+3328960Y+1557477D02*
X+3354360Y+1557477D01*
X+3440720Y+1557477D02*
X+3466120Y+1557477D01*
X+3501680Y+1557477D02*
X+3522000Y+1557477D01*
X+3598200Y+1557477D02*
X+3618520Y+1557477D01*
X+3781080Y+1557477D02*
X+3801400Y+1557477D01*
X+3842040Y+1557477D02*
X+3867440Y+1557477D01*
X+3953800Y+1557477D02*
X+3979200Y+1557477D01*
X+4014760Y+1557477D02*
X+4035080Y+1557477D01*
X+4121440Y+1557477D02*
X+4141760Y+1557477D01*
X+4223040Y+1557477D02*
X+4243360Y+1557477D01*
X+4319560Y+1557477D02*
X+4339880Y+1557477D01*
X+4400840Y+1557477D02*
X+4421160Y+1557477D01*
X+4426240Y+1557477D02*
X+4446560Y+1557477D01*
X+4487200Y+1557477D02*
X+4512600Y+1557477D01*
X+4598960Y+1557477D02*
X+4624360Y+1557477D01*
X+4659920Y+1557477D02*
X+4680240Y+1557477D01*
X+4761520Y+1557477D02*
X+4786920Y+1557477D01*
X-2005040Y+1562557D02*
X-1964400Y+1562557D01*
X-1898360Y+1562557D02*
X-1878040Y+1562557D01*
X-1791680Y+1562557D02*
X-1771360Y+1562557D01*
X-1547840Y+1562557D02*
X-1527520Y+1562557D01*
X-1471640Y+1562557D02*
X-1451320Y+1562557D01*
X-1420840Y+1562557D02*
X-1395440Y+1562557D01*
X-1344640Y+1562557D02*
X-1319240Y+1562557D01*
X-1288760Y+1562557D02*
X-1268440Y+1562557D01*
X-1217640Y+1562557D02*
X-1192240Y+1562557D01*
X-1166840Y+1562557D02*
X-1146520Y+1562557D01*
X-750280Y+1562557D02*
X-729960Y+1562557D01*
X-628360Y+1562557D02*
X-608040Y+1562557D01*
X-602960Y+1562557D02*
X-582640Y+1562557D01*
X-460720Y+1562557D02*
X-440400Y+1562557D01*
X-354040Y+1562557D02*
X-333720Y+1562557D01*
X-252440Y+1562557D02*
X-232120Y+1562557D01*
X-150840Y+1562557D02*
X-130520Y+1562557D01*
X-100040Y+1562557D02*
X-79720Y+1562557D01*
X-23840Y+1562557D02*
X-3520Y+1562557D01*
X+1560Y+1562557D02*
X+21880Y+1562557D01*
X+77760Y+1562557D02*
X+98080Y+1562557D01*
X+199680Y+1562557D02*
X+220000Y+1562557D01*
X+291120Y+1562557D02*
X+316520Y+1562557D01*
X+443520Y+1562557D02*
X+463840Y+1562557D01*
X+504480Y+1562557D02*
X+524800Y+1562557D01*
X+560360Y+1562557D02*
X+585760Y+1562557D01*
X+667040Y+1562557D02*
X+687360Y+1562557D01*
X+768640Y+1562557D02*
X+788960Y+1562557D01*
X+870240Y+1562557D02*
X+890560Y+1562557D01*
X+961680Y+1562557D02*
X+987080Y+1562557D01*
X+1017560Y+1562557D02*
X+1037880Y+1562557D01*
X+1124240Y+1562557D02*
X+1144560Y+1562557D01*
X+1180120Y+1562557D02*
X+1205520Y+1562557D01*
X+1286800Y+1562557D02*
X+1307120Y+1562557D01*
X+1342680Y+1562557D02*
X+1363000Y+1562557D01*
X+1423960Y+1562557D02*
X+1469680Y+1562557D01*
X+1510320Y+1562557D02*
X+1530640Y+1562557D01*
X+1632240Y+1562557D02*
X+1657640Y+1562557D01*
X+1738920Y+1562557D02*
X+1759240Y+1562557D01*
X+1804960Y+1562557D02*
X+1830360Y+1562557D01*
X+1906560Y+1562557D02*
X+1931960Y+1562557D01*
X+2053880Y+1562557D02*
X+2074200Y+1562557D01*
X+2170720Y+1562557D02*
X+2191040Y+1562557D01*
X+2211360Y+1562557D02*
X+2231680Y+1562557D01*
X+2257080Y+1562557D02*
X+2282480Y+1562557D01*
X+2353600Y+1562557D02*
X+2384080Y+1562557D01*
X+2490760Y+1562557D02*
X+2511080Y+1562557D01*
X+2541560Y+1562557D02*
X+2566960Y+1562557D01*
X+2643160Y+1562557D02*
X+2663480Y+1562557D01*
X+2693960Y+1562557D02*
X+2714280Y+1562557D01*
X+2734600Y+1562557D02*
X+2754920Y+1562557D01*
X+2846360Y+1562557D02*
X+2871760Y+1562557D01*
X+2953040Y+1562557D02*
X+2973360Y+1562557D01*
X+3008920Y+1562557D02*
X+3034320Y+1562557D01*
X+3115600Y+1562557D02*
X+3135920Y+1562557D01*
X+3212120Y+1562557D02*
X+3232440Y+1562557D01*
X+3237520Y+1562557D02*
X+3257840Y+1562557D01*
X+3334040Y+1562557D02*
X+3359440Y+1562557D01*
X+3435640Y+1562557D02*
X+3461040Y+1562557D01*
X+3501680Y+1562557D02*
X+3522000Y+1562557D01*
X+3598200Y+1562557D02*
X+3618520Y+1562557D01*
X+3781080Y+1562557D02*
X+3801400Y+1562557D01*
X+3847120Y+1562557D02*
X+3872520Y+1562557D01*
X+3948720Y+1562557D02*
X+3974120Y+1562557D01*
X+4014760Y+1562557D02*
X+4040160Y+1562557D01*
X+4121440Y+1562557D02*
X+4141760Y+1562557D01*
X+4223040Y+1562557D02*
X+4243360Y+1562557D01*
X+4319560Y+1562557D02*
X+4339880Y+1562557D01*
X+4400840Y+1562557D02*
X+4446560Y+1562557D01*
X+4492280Y+1562557D02*
X+4517680Y+1562557D01*
X+4593880Y+1562557D02*
X+4619280Y+1562557D01*
X+4659920Y+1562557D02*
X+4685320Y+1562557D01*
X+4756440Y+1562557D02*
X+4786920Y+1562557D01*
X-2005040Y+1567637D02*
X-1969480Y+1567637D01*
X-1898360Y+1567637D02*
X-1878040Y+1567637D01*
X-1791680Y+1567637D02*
X-1771360Y+1567637D01*
X-1547840Y+1567637D02*
X-1522440Y+1567637D01*
X-1476720Y+1567637D02*
X-1451320Y+1567637D01*
X-1415760Y+1567637D02*
X-1390360Y+1567637D01*
X-1349720Y+1567637D02*
X-1324320Y+1567637D01*
X-1288760Y+1567637D02*
X-1263360Y+1567637D01*
X-1222720Y+1567637D02*
X-1197320Y+1567637D01*
X-1166840Y+1567637D02*
X-1146520Y+1567637D01*
X-750280Y+1567637D02*
X-729960Y+1567637D01*
X-623280Y+1567637D02*
X-608040Y+1567637D01*
X-602960Y+1567637D02*
X-587720Y+1567637D01*
X-460720Y+1567637D02*
X-440400Y+1567637D01*
X-354040Y+1567637D02*
X-333720Y+1567637D01*
X-252440Y+1567637D02*
X-232120Y+1567637D01*
X-150840Y+1567637D02*
X-130520Y+1567637D01*
X-105120Y+1567637D02*
X-84800Y+1567637D01*
X-23840Y+1567637D02*
X-3520Y+1567637D01*
X+1560Y+1567637D02*
X+21880Y+1567637D01*
X+82840Y+1567637D02*
X+103160Y+1567637D01*
X+199680Y+1567637D02*
X+225080Y+1567637D01*
X+286040Y+1567637D02*
X+311440Y+1567637D01*
X+443520Y+1567637D02*
X+463840Y+1567637D01*
X+504480Y+1567637D02*
X+524800Y+1567637D01*
X+565440Y+1567637D02*
X+590840Y+1567637D01*
X+667040Y+1567637D02*
X+687360Y+1567637D01*
X+768640Y+1567637D02*
X+788960Y+1567637D01*
X+870240Y+1567637D02*
X+895640Y+1567637D01*
X+956600Y+1567637D02*
X+982000Y+1567637D01*
X+1017560Y+1567637D02*
X+1037880Y+1567637D01*
X+1124240Y+1567637D02*
X+1144560Y+1567637D01*
X+1185200Y+1567637D02*
X+1210600Y+1567637D01*
X+1286800Y+1567637D02*
X+1307120Y+1567637D01*
X+1342680Y+1567637D02*
X+1363000Y+1567637D01*
X+1429040Y+1567637D02*
X+1469680Y+1567637D01*
X+1510320Y+1567637D02*
X+1530640Y+1567637D01*
X+1637320Y+1567637D02*
X+1662720Y+1567637D01*
X+1738920Y+1567637D02*
X+1759240Y+1567637D01*
X+1804960Y+1567637D02*
X+1835440Y+1567637D01*
X+1901480Y+1567637D02*
X+1931960Y+1567637D01*
X+2053880Y+1567637D02*
X+2074200Y+1567637D01*
X+2170720Y+1567637D02*
X+2191040Y+1567637D01*
X+2211360Y+1567637D02*
X+2231680Y+1567637D01*
X+2262160Y+1567637D02*
X+2287560Y+1567637D01*
X+2348520Y+1567637D02*
X+2379000Y+1567637D01*
X+2490760Y+1567637D02*
X+2511080Y+1567637D01*
X+2546640Y+1567637D02*
X+2572040Y+1567637D01*
X+2643160Y+1567637D02*
X+2663480Y+1567637D01*
X+2693960Y+1567637D02*
X+2714280Y+1567637D01*
X+2734600Y+1567637D02*
X+2754920Y+1567637D01*
X+2851440Y+1567637D02*
X+2876840Y+1567637D01*
X+2953040Y+1567637D02*
X+2973360Y+1567637D01*
X+3014000Y+1567637D02*
X+3039400Y+1567637D01*
X+3115600Y+1567637D02*
X+3135920Y+1567637D01*
X+3217200Y+1567637D02*
X+3232440Y+1567637D01*
X+3237520Y+1567637D02*
X+3252760Y+1567637D01*
X+3334040Y+1567637D02*
X+3364520Y+1567637D01*
X+3430560Y+1567637D02*
X+3461040Y+1567637D01*
X+3506760Y+1567637D02*
X+3527080Y+1567637D01*
X+3598200Y+1567637D02*
X+3618520Y+1567637D01*
X+3781080Y+1567637D02*
X+3801400Y+1567637D01*
X+3847120Y+1567637D02*
X+3877600Y+1567637D01*
X+3943640Y+1567637D02*
X+3974120Y+1567637D01*
X+4019840Y+1567637D02*
X+4045240Y+1567637D01*
X+4121440Y+1567637D02*
X+4141760Y+1567637D01*
X+4223040Y+1567637D02*
X+4243360Y+1567637D01*
X+4319560Y+1567637D02*
X+4339880Y+1567637D01*
X+4405920Y+1567637D02*
X+4446560Y+1567637D01*
X+4492280Y+1567637D02*
X+4522760Y+1567637D01*
X+4588800Y+1567637D02*
X+4619280Y+1567637D01*
X+4665000Y+1567637D02*
X+4690400Y+1567637D01*
X+4751360Y+1567637D02*
X+4781840Y+1567637D01*
X-2005040Y+1572717D02*
X-1974560Y+1572717D01*
X-1898360Y+1572717D02*
X-1878040Y+1572717D01*
X-1791680Y+1572717D02*
X-1771360Y+1572717D01*
X-1542760Y+1572717D02*
X-1517360Y+1572717D01*
X-1481800Y+1572717D02*
X-1456400Y+1572717D01*
X-1415760Y+1572717D02*
X-1385280Y+1572717D01*
X-1354800Y+1572717D02*
X-1324320Y+1572717D01*
X-1283680Y+1572717D02*
X-1253200Y+1572717D01*
X-1227800Y+1572717D02*
X-1197320Y+1572717D01*
X-1166840Y+1572717D02*
X-1146520Y+1572717D01*
X-750280Y+1572717D02*
X-729960Y+1572717D01*
X-623280Y+1572717D02*
X-608040Y+1572717D01*
X-602960Y+1572717D02*
X-587720Y+1572717D01*
X-460720Y+1572717D02*
X-440400Y+1572717D01*
X-354040Y+1572717D02*
X-333720Y+1572717D01*
X-252440Y+1572717D02*
X-232120Y+1572717D01*
X-150840Y+1572717D02*
X-130520Y+1572717D01*
X-105120Y+1572717D02*
X-84800Y+1572717D01*
X-23840Y+1572717D02*
X-3520Y+1572717D01*
X+1560Y+1572717D02*
X+21880Y+1572717D01*
X+82840Y+1572717D02*
X+103160Y+1572717D01*
X+204760Y+1572717D02*
X+235240Y+1572717D01*
X+275880Y+1572717D02*
X+311440Y+1572717D01*
X+443520Y+1572717D02*
X+463840Y+1572717D01*
X+504480Y+1572717D02*
X+524800Y+1572717D01*
X+565440Y+1572717D02*
X+595920Y+1572717D01*
X+667040Y+1572717D02*
X+687360Y+1572717D01*
X+768640Y+1572717D02*
X+788960Y+1572717D01*
X+875320Y+1572717D02*
X+905800Y+1572717D01*
X+946440Y+1572717D02*
X+982000Y+1572717D01*
X+1017560Y+1572717D02*
X+1037880Y+1572717D01*
X+1124240Y+1572717D02*
X+1144560Y+1572717D01*
X+1185200Y+1572717D02*
X+1220760Y+1572717D01*
X+1286800Y+1572717D02*
X+1307120Y+1572717D01*
X+1342680Y+1572717D02*
X+1363000Y+1572717D01*
X+1434120Y+1572717D02*
X+1469680Y+1572717D01*
X+1510320Y+1572717D02*
X+1530640Y+1572717D01*
X+1637320Y+1572717D02*
X+1667800Y+1572717D01*
X+1738920Y+1572717D02*
X+1759240Y+1572717D01*
X+1810040Y+1572717D02*
X+1850680Y+1572717D01*
X+1886240Y+1572717D02*
X+1926880Y+1572717D01*
X+2053880Y+1572717D02*
X+2074200Y+1572717D01*
X+2170720Y+1572717D02*
X+2191040Y+1572717D01*
X+2211360Y+1572717D02*
X+2231680Y+1572717D01*
X+2262160Y+1572717D02*
X+2297720Y+1572717D01*
X+2338360Y+1572717D02*
X+2373920Y+1572717D01*
X+2490760Y+1572717D02*
X+2511080Y+1572717D01*
X+2546640Y+1572717D02*
X+2577120Y+1572717D01*
X+2643160Y+1572717D02*
X+2663480Y+1572717D01*
X+2693960Y+1572717D02*
X+2714280Y+1572717D01*
X+2734600Y+1572717D02*
X+2754920Y+1572717D01*
X+2851440Y+1572717D02*
X+2887000Y+1572717D01*
X+2953040Y+1572717D02*
X+2973360Y+1572717D01*
X+3014000Y+1572717D02*
X+3044480Y+1572717D01*
X+3115600Y+1572717D02*
X+3135920Y+1572717D01*
X+3217200Y+1572717D02*
X+3232440Y+1572717D01*
X+3237520Y+1572717D02*
X+3252760Y+1572717D01*
X+3339120Y+1572717D02*
X+3379760Y+1572717D01*
X+3415320Y+1572717D02*
X+3455960Y+1572717D01*
X+3506760Y+1572717D02*
X+3537240Y+1572717D01*
X+3598200Y+1572717D02*
X+3618520Y+1572717D01*
X+3781080Y+1572717D02*
X+3801400Y+1572717D01*
X+3852200Y+1572717D02*
X+3892840Y+1572717D01*
X+3928400Y+1572717D02*
X+3969040Y+1572717D01*
X+4019840Y+1572717D02*
X+4050320Y+1572717D01*
X+4121440Y+1572717D02*
X+4141760Y+1572717D01*
X+4223040Y+1572717D02*
X+4243360Y+1572717D01*
X+4319560Y+1572717D02*
X+4339880Y+1572717D01*
X+4411000Y+1572717D02*
X+4446560Y+1572717D01*
X+4497360Y+1572717D02*
X+4538000Y+1572717D01*
X+4573560Y+1572717D02*
X+4614200Y+1572717D01*
X+4665000Y+1572717D02*
X+4700560Y+1572717D01*
X+4741200Y+1572717D02*
X+4776760Y+1572717D01*
X-2005040Y+1577797D02*
X-1974560Y+1577797D01*
X-1903440Y+1577797D02*
X-1883120Y+1577797D01*
X-1786600Y+1577797D02*
X-1766280Y+1577797D01*
X-1542760Y+1577797D02*
X-1456400Y+1577797D01*
X-1410680Y+1577797D02*
X-1329400Y+1577797D01*
X-1278600Y+1577797D02*
X-1202400Y+1577797D01*
X-1166840Y+1577797D02*
X-1146520Y+1577797D01*
X-806160Y+1577797D02*
X-674080Y+1577797D01*
X-623280Y+1577797D02*
X-587720Y+1577797D01*
X-460720Y+1577797D02*
X-440400Y+1577797D01*
X-354040Y+1577797D02*
X-333720Y+1577797D01*
X-308320Y+1577797D02*
X-176240Y+1577797D01*
X-150840Y+1577797D02*
X-130520Y+1577797D01*
X-105120Y+1577797D02*
X-84800Y+1577797D01*
X-18760Y+1577797D02*
X+16800Y+1577797D01*
X+82840Y+1577797D02*
X+103160Y+1577797D01*
X+209840Y+1577797D02*
X+306360Y+1577797D01*
X+347000Y+1577797D02*
X+463840Y+1577797D01*
X+504480Y+1577797D02*
X+524800Y+1577797D01*
X+570520Y+1577797D02*
X+687360Y+1577797D01*
X+712760Y+1577797D02*
X+844840Y+1577797D01*
X+880400Y+1577797D02*
X+976920Y+1577797D01*
X+1017560Y+1577797D02*
X+1037880Y+1577797D01*
X+1124240Y+1577797D02*
X+1144560Y+1577797D01*
X+1190280Y+1577797D02*
X+1307120Y+1577797D01*
X+1342680Y+1577797D02*
X+1363000Y+1577797D01*
X+1434120Y+1577797D02*
X+1469680Y+1577797D01*
X+1510320Y+1577797D02*
X+1530640Y+1577797D01*
X+1642400Y+1577797D02*
X+1759240Y+1577797D01*
X+1815120Y+1577797D02*
X+1921800Y+1577797D01*
X+1967520Y+1577797D02*
X+2074200Y+1577797D01*
X+2170720Y+1577797D02*
X+2191040Y+1577797D01*
X+2211360Y+1577797D02*
X+2231680Y+1577797D01*
X+2267240Y+1577797D02*
X+2368840Y+1577797D01*
X+2490760Y+1577797D02*
X+2511080Y+1577797D01*
X+2551720Y+1577797D02*
X+2663480Y+1577797D01*
X+2693960Y+1577797D02*
X+2714280Y+1577797D01*
X+2734600Y+1577797D02*
X+2754920Y+1577797D01*
X+2856520Y+1577797D02*
X+2973360Y+1577797D01*
X+3019080Y+1577797D02*
X+3135920Y+1577797D01*
X+3217200Y+1577797D02*
X+3252760Y+1577797D01*
X+3344200Y+1577797D02*
X+3450880Y+1577797D01*
X+3511840Y+1577797D02*
X+3618520Y+1577797D01*
X+3781080Y+1577797D02*
X+3801400Y+1577797D01*
X+3857280Y+1577797D02*
X+3963960Y+1577797D01*
X+4024920Y+1577797D02*
X+4141760Y+1577797D01*
X+4167160Y+1577797D02*
X+4299240Y+1577797D01*
X+4319560Y+1577797D02*
X+4339880Y+1577797D01*
X+4411000Y+1577797D02*
X+4446560Y+1577797D01*
X+4502440Y+1577797D02*
X+4609120Y+1577797D01*
X+4670080Y+1577797D02*
X+4771680Y+1577797D01*
X-2005040Y+1582877D02*
X-1979640Y+1582877D01*
X-1903440Y+1582877D02*
X-1883120Y+1582877D01*
X-1786600Y+1582877D02*
X-1766280Y+1582877D01*
X-1537680Y+1582877D02*
X-1461480Y+1582877D01*
X-1405600Y+1582877D02*
X-1334480Y+1582877D01*
X-1278600Y+1582877D02*
X-1207480Y+1582877D01*
X-1166840Y+1582877D02*
X-1146520Y+1582877D01*
X-806160Y+1582877D02*
X-674080Y+1582877D01*
X-618200Y+1582877D02*
X-592800Y+1582877D01*
X-460720Y+1582877D02*
X-440400Y+1582877D01*
X-354040Y+1582877D02*
X-333720Y+1582877D01*
X-308320Y+1582877D02*
X-176240Y+1582877D01*
X-150840Y+1582877D02*
X-130520Y+1582877D01*
X-105120Y+1582877D02*
X-84800Y+1582877D01*
X-18760Y+1582877D02*
X+16800Y+1582877D01*
X+82840Y+1582877D02*
X+103160Y+1582877D01*
X+214920Y+1582877D02*
X+301280Y+1582877D01*
X+347000Y+1582877D02*
X+463840Y+1582877D01*
X+504480Y+1582877D02*
X+524800Y+1582877D01*
X+570520Y+1582877D02*
X+687360Y+1582877D01*
X+712760Y+1582877D02*
X+844840Y+1582877D01*
X+885480Y+1582877D02*
X+971840Y+1582877D01*
X+1017560Y+1582877D02*
X+1037880Y+1582877D01*
X+1124240Y+1582877D02*
X+1144560Y+1582877D01*
X+1195360Y+1582877D02*
X+1307120Y+1582877D01*
X+1342680Y+1582877D02*
X+1363000Y+1582877D01*
X+1439200Y+1582877D02*
X+1469680Y+1582877D01*
X+1510320Y+1582877D02*
X+1530640Y+1582877D01*
X+1642400Y+1582877D02*
X+1759240Y+1582877D01*
X+1825280Y+1582877D02*
X+1911640Y+1582877D01*
X+1967520Y+1582877D02*
X+2074200Y+1582877D01*
X+2170720Y+1582877D02*
X+2191040Y+1582877D01*
X+2211360Y+1582877D02*
X+2231680Y+1582877D01*
X+2277400Y+1582877D02*
X+2363760Y+1582877D01*
X+2490760Y+1582877D02*
X+2511080Y+1582877D01*
X+2556800Y+1582877D02*
X+2663480Y+1582877D01*
X+2693960Y+1582877D02*
X+2714280Y+1582877D01*
X+2734600Y+1582877D02*
X+2754920Y+1582877D01*
X+2861600Y+1582877D02*
X+2973360Y+1582877D01*
X+3019080Y+1582877D02*
X+3135920Y+1582877D01*
X+3222280Y+1582877D02*
X+3247680Y+1582877D01*
X+3354360Y+1582877D02*
X+3440720Y+1582877D01*
X+3511840Y+1582877D02*
X+3618520Y+1582877D01*
X+3781080Y+1582877D02*
X+3801400Y+1582877D01*
X+3867440Y+1582877D02*
X+3953800Y+1582877D01*
X+4024920Y+1582877D02*
X+4141760Y+1582877D01*
X+4167160Y+1582877D02*
X+4299240Y+1582877D01*
X+4319560Y+1582877D02*
X+4339880Y+1582877D01*
X+4416080Y+1582877D02*
X+4446560Y+1582877D01*
X+4512600Y+1582877D02*
X+4598960Y+1582877D01*
X+4680240Y+1582877D02*
X+4766600Y+1582877D01*
X-2005040Y+1587957D02*
X-1984720Y+1587957D01*
X-1908520Y+1587957D02*
X-1883120Y+1587957D01*
X-1786600Y+1587957D02*
X-1761200Y+1587957D01*
X-1527520Y+1587957D02*
X-1471640Y+1587957D01*
X-1400520Y+1587957D02*
X-1339560Y+1587957D01*
X-1268440Y+1587957D02*
X-1212560Y+1587957D01*
X-1166840Y+1587957D02*
X-1146520Y+1587957D01*
X-806160Y+1587957D02*
X-674080Y+1587957D01*
X-618200Y+1587957D02*
X-592800Y+1587957D01*
X-460720Y+1587957D02*
X-440400Y+1587957D01*
X-354040Y+1587957D02*
X-333720Y+1587957D01*
X-308320Y+1587957D02*
X-176240Y+1587957D01*
X-150840Y+1587957D02*
X-130520Y+1587957D01*
X-110200Y+1587957D02*
X-89880Y+1587957D01*
X-18760Y+1587957D02*
X+16800Y+1587957D01*
X+87920Y+1587957D02*
X+108240Y+1587957D01*
X+220000Y+1587957D02*
X+291120Y+1587957D01*
X+347000Y+1587957D02*
X+463840Y+1587957D01*
X+504480Y+1587957D02*
X+524800Y+1587957D01*
X+580680Y+1587957D02*
X+687360Y+1587957D01*
X+712760Y+1587957D02*
X+844840Y+1587957D01*
X+890560Y+1587957D02*
X+961680Y+1587957D01*
X+1017560Y+1587957D02*
X+1037880Y+1587957D01*
X+1124240Y+1587957D02*
X+1144560Y+1587957D01*
X+1205520Y+1587957D02*
X+1307120Y+1587957D01*
X+1342680Y+1587957D02*
X+1363000Y+1587957D01*
X+1444280Y+1587957D02*
X+1469680Y+1587957D01*
X+1510320Y+1587957D02*
X+1530640Y+1587957D01*
X+1652560Y+1587957D02*
X+1759240Y+1587957D01*
X+1830360Y+1587957D02*
X+1906560Y+1587957D01*
X+1967520Y+1587957D02*
X+2074200Y+1587957D01*
X+2170720Y+1587957D02*
X+2191040Y+1587957D01*
X+2211360Y+1587957D02*
X+2231680Y+1587957D01*
X+2282480Y+1587957D02*
X+2353600Y+1587957D01*
X+2490760Y+1587957D02*
X+2511080Y+1587957D01*
X+2561880Y+1587957D02*
X+2663480Y+1587957D01*
X+2693960Y+1587957D02*
X+2714280Y+1587957D01*
X+2734600Y+1587957D02*
X+2754920Y+1587957D01*
X+2871760Y+1587957D02*
X+2973360Y+1587957D01*
X+3029240Y+1587957D02*
X+3135920Y+1587957D01*
X+3222280Y+1587957D02*
X+3247680Y+1587957D01*
X+3359440Y+1587957D02*
X+3435640Y+1587957D01*
X+3522000Y+1587957D02*
X+3618520Y+1587957D01*
X+3781080Y+1587957D02*
X+3801400Y+1587957D01*
X+3872520Y+1587957D02*
X+3948720Y+1587957D01*
X+4035080Y+1587957D02*
X+4141760Y+1587957D01*
X+4167160Y+1587957D02*
X+4299240Y+1587957D01*
X+4319560Y+1587957D02*
X+4339880Y+1587957D01*
X+4421160Y+1587957D02*
X+4446560Y+1587957D01*
X+4517680Y+1587957D02*
X+4593880Y+1587957D01*
X+4685320Y+1587957D02*
X+4756440Y+1587957D01*
X-2005040Y+1593037D02*
X-1989800Y+1593037D01*
X-1908520Y+1593037D02*
X-1888200Y+1593037D01*
X-1781520Y+1593037D02*
X-1761200Y+1593037D01*
X-1517360Y+1593037D02*
X-1481800Y+1593037D01*
X-1390360Y+1593037D02*
X-1349720Y+1593037D01*
X-1258280Y+1593037D02*
X-1222720Y+1593037D01*
X-1166840Y+1593037D02*
X-1146520Y+1593037D01*
X-806160Y+1593037D02*
X-674080Y+1593037D01*
X-613120Y+1593037D02*
X-597880Y+1593037D01*
X-460720Y+1593037D02*
X-440400Y+1593037D01*
X-354040Y+1593037D02*
X-333720Y+1593037D01*
X-308320Y+1593037D02*
X-176240Y+1593037D01*
X-150840Y+1593037D02*
X-130520Y+1593037D01*
X-110200Y+1593037D02*
X-89880Y+1593037D01*
X-18760Y+1593037D02*
X+16800Y+1593037D01*
X+87920Y+1593037D02*
X+108240Y+1593037D01*
X+235240Y+1593037D02*
X+280960Y+1593037D01*
X+347000Y+1593037D02*
X+463840Y+1593037D01*
X+504480Y+1593037D02*
X+524800Y+1593037D01*
X+590840Y+1593037D02*
X+687360Y+1593037D01*
X+712760Y+1593037D02*
X+844840Y+1593037D01*
X+905800Y+1593037D02*
X+951520Y+1593037D01*
X+1017560Y+1593037D02*
X+1037880Y+1593037D01*
X+1124240Y+1593037D02*
X+1144560Y+1593037D01*
X+1220760Y+1593037D02*
X+1307120Y+1593037D01*
X+1342680Y+1593037D02*
X+1363000Y+1593037D01*
X+1444280Y+1593037D02*
X+1469680Y+1593037D01*
X+1510320Y+1593037D02*
X+1530640Y+1593037D01*
X+1662720Y+1593037D02*
X+1759240Y+1593037D01*
X+1845600Y+1593037D02*
X+1891320Y+1593037D01*
X+1967520Y+1593037D02*
X+2074200Y+1593037D01*
X+2170720Y+1593037D02*
X+2191040Y+1593037D01*
X+2211360Y+1593037D02*
X+2231680Y+1593037D01*
X+2297720Y+1593037D02*
X+2338360Y+1593037D01*
X+2490760Y+1593037D02*
X+2511080Y+1593037D01*
X+2572040Y+1593037D02*
X+2663480Y+1593037D01*
X+2693960Y+1593037D02*
X+2714280Y+1593037D01*
X+2734600Y+1593037D02*
X+2754920Y+1593037D01*
X+2887000Y+1593037D02*
X+2973360Y+1593037D01*
X+3039400Y+1593037D02*
X+3135920Y+1593037D01*
X+3227360Y+1593037D02*
X+3242600Y+1593037D01*
X+3374680Y+1593037D02*
X+3420400Y+1593037D01*
X+3532160Y+1593037D02*
X+3618520Y+1593037D01*
X+3781080Y+1593037D02*
X+3801400Y+1593037D01*
X+3887760Y+1593037D02*
X+3933480Y+1593037D01*
X+4045240Y+1593037D02*
X+4141760Y+1593037D01*
X+4167160Y+1593037D02*
X+4299240Y+1593037D01*
X+4319560Y+1593037D02*
X+4339880Y+1593037D01*
X+4421160Y+1593037D02*
X+4446560Y+1593037D01*
X+4532920Y+1593037D02*
X+4578640Y+1593037D01*
X+4700560Y+1593037D02*
X+4741200Y+1593037D01*
X+1903074Y+1696545D02*
X+1928474Y+1696545D01*
X+1897994Y+1701625D02*
X+1928474Y+1701625D01*
X+1892914Y+1706705D02*
X+1933554Y+1706705D01*
X+1887834Y+1711785D02*
X+1933554Y+1711785D01*
X+1887834Y+1716865D02*
X+1913234Y+1716865D01*
X+1882754Y+1721945D02*
X+1908154Y+1721945D01*
X+1882754Y+1727025D02*
X+1903074Y+1727025D01*
X+1877674Y+1732105D02*
X+1903074Y+1732105D01*
X+1877674Y+1737185D02*
X+1897994Y+1737185D01*
X+292714Y+1742265D02*
X+394314Y+1742265D01*
X+419714Y+1742265D02*
X+521314Y+1742265D01*
X+546714Y+1742265D02*
X+567034Y+1742265D01*
X+673714Y+1742265D02*
X+694034Y+1742265D01*
X+760074Y+1742265D02*
X+805794Y+1742265D01*
X+876914Y+1742265D02*
X+902314Y+1742265D01*
X+993754Y+1742265D02*
X+1014074Y+1742265D01*
X+1095354Y+1742265D02*
X+1115674Y+1742265D01*
X+1227434Y+1742265D02*
X+1273154Y+1742265D01*
X+1349354Y+1742265D02*
X+1471274Y+1742265D01*
X+1496674Y+1742265D02*
X+1598274Y+1742265D01*
X+1628754Y+1742265D02*
X+1750674Y+1742265D01*
X+1877674Y+1742265D02*
X+1897994Y+1742265D01*
X+1989434Y+1742265D02*
X+2014834Y+1742265D01*
X+2035154Y+1742265D02*
X+2055474Y+1742265D01*
X+2151994Y+1742265D02*
X+2172314Y+1742265D01*
X+2192634Y+1742265D02*
X+2218034Y+1742265D01*
X+2304394Y+1742265D02*
X+2345034Y+1742265D01*
X+2395834Y+1742265D02*
X+2426314Y+1742265D01*
X+2466954Y+1742265D02*
X+2487274Y+1742265D01*
X+2512674Y+1742265D02*
X+2553314Y+1742265D01*
X+2624434Y+1742265D02*
X+2665074Y+1742265D01*
X+2751434Y+1742265D02*
X+2771754Y+1742265D01*
X+2837794Y+1742265D02*
X+2883514Y+1742265D01*
X+292714Y+1747345D02*
X+394314Y+1747345D01*
X+419714Y+1747345D02*
X+521314Y+1747345D01*
X+546714Y+1747345D02*
X+572114Y+1747345D01*
X+668634Y+1747345D02*
X+694034Y+1747345D01*
X+744834Y+1747345D02*
X+821034Y+1747345D01*
X+881994Y+1747345D02*
X+907394Y+1747345D01*
X+993754Y+1747345D02*
X+1014074Y+1747345D01*
X+1095354Y+1747345D02*
X+1115674Y+1747345D01*
X+1217274Y+1747345D02*
X+1288394Y+1747345D01*
X+1349354Y+1747345D02*
X+1471274Y+1747345D01*
X+1496674Y+1747345D02*
X+1598274Y+1747345D01*
X+1628754Y+1747345D02*
X+1750674Y+1747345D01*
X+1872594Y+1747345D02*
X+1897994Y+1747345D01*
X+1979274Y+1747345D02*
X+2024994Y+1747345D01*
X+2035154Y+1747345D02*
X+2055474Y+1747345D01*
X+2151994Y+1747345D02*
X+2172314Y+1747345D01*
X+2182474Y+1747345D02*
X+2228194Y+1747345D01*
X+2294234Y+1747345D02*
X+2355194Y+1747345D01*
X+2395834Y+1747345D02*
X+2431394Y+1747345D01*
X+2466954Y+1747345D02*
X+2492354Y+1747345D01*
X+2502514Y+1747345D02*
X+2563474Y+1747345D01*
X+2614274Y+1747345D02*
X+2675234Y+1747345D01*
X+2751434Y+1747345D02*
X+2771754Y+1747345D01*
X+2827634Y+1747345D02*
X+2898754Y+1747345D01*
X+292714Y+1752425D02*
X+394314Y+1752425D01*
X+419714Y+1752425D02*
X+521314Y+1752425D01*
X+551794Y+1752425D02*
X+572114Y+1752425D01*
X+668634Y+1752425D02*
X+688954Y+1752425D01*
X+739754Y+1752425D02*
X+826114Y+1752425D01*
X+887074Y+1752425D02*
X+907394Y+1752425D01*
X+993754Y+1752425D02*
X+1014074Y+1752425D01*
X+1095354Y+1752425D02*
X+1115674Y+1752425D01*
X+1207114Y+1752425D02*
X+1298554Y+1752425D01*
X+1349354Y+1752425D02*
X+1471274Y+1752425D01*
X+1496674Y+1752425D02*
X+1598274Y+1752425D01*
X+1628754Y+1752425D02*
X+1750674Y+1752425D01*
X+1872594Y+1752425D02*
X+1903074Y+1752425D01*
X+1974194Y+1752425D02*
X+2030074Y+1752425D01*
X+2035154Y+1752425D02*
X+2055474Y+1752425D01*
X+2151994Y+1752425D02*
X+2172314Y+1752425D01*
X+2177394Y+1752425D02*
X+2233274Y+1752425D01*
X+2289154Y+1752425D02*
X+2360274Y+1752425D01*
X+2400914Y+1752425D02*
X+2436474Y+1752425D01*
X+2472034Y+1752425D02*
X+2492354Y+1752425D01*
X+2497434Y+1752425D02*
X+2568554Y+1752425D01*
X+2609194Y+1752425D02*
X+2680314Y+1752425D01*
X+2751434Y+1752425D02*
X+2771754Y+1752425D01*
X+2817474Y+1752425D02*
X+2908914Y+1752425D01*
X+292714Y+1757505D02*
X+394314Y+1757505D01*
X+419714Y+1757505D02*
X+521314Y+1757505D01*
X+551794Y+1757505D02*
X+572114Y+1757505D01*
X+668634Y+1757505D02*
X+688954Y+1757505D01*
X+729594Y+1757505D02*
X+836274Y+1757505D01*
X+887074Y+1757505D02*
X+912474Y+1757505D01*
X+993754Y+1757505D02*
X+1014074Y+1757505D01*
X+1095354Y+1757505D02*
X+1115674Y+1757505D01*
X+1202034Y+1757505D02*
X+1303634Y+1757505D01*
X+1349354Y+1757505D02*
X+1471274Y+1757505D01*
X+1496674Y+1757505D02*
X+1598274Y+1757505D01*
X+1628754Y+1757505D02*
X+1750674Y+1757505D01*
X+1872594Y+1757505D02*
X+1903074Y+1757505D01*
X+1969114Y+1757505D02*
X+2055474Y+1757505D01*
X+2151994Y+1757505D02*
X+2238354Y+1757505D01*
X+2284074Y+1757505D02*
X+2365354Y+1757505D01*
X+2400914Y+1757505D02*
X+2436474Y+1757505D01*
X+2472034Y+1757505D02*
X+2568554Y+1757505D01*
X+2604114Y+1757505D02*
X+2685394Y+1757505D01*
X+2751434Y+1757505D02*
X+2771754Y+1757505D01*
X+2812394Y+1757505D02*
X+2913994Y+1757505D01*
X+373994Y+1762585D02*
X+394314Y+1762585D01*
X+500994Y+1762585D02*
X+521314Y+1762585D01*
X+556874Y+1762585D02*
X+577194Y+1762585D01*
X+663554Y+1762585D02*
X+683874Y+1762585D01*
X+724514Y+1762585D02*
X+765154Y+1762585D01*
X+800714Y+1762585D02*
X+841354Y+1762585D01*
X+892154Y+1762585D02*
X+917554Y+1762585D01*
X+993754Y+1762585D02*
X+1014074Y+1762585D01*
X+1095354Y+1762585D02*
X+1115674Y+1762585D01*
X+1196954Y+1762585D02*
X+1232514Y+1762585D01*
X+1273154Y+1762585D02*
X+1308714Y+1762585D01*
X+1450954Y+1762585D02*
X+1471274Y+1762585D01*
X+1577954Y+1762585D02*
X+1598274Y+1762585D01*
X+1730354Y+1762585D02*
X+1750674Y+1762585D01*
X+1867514Y+1762585D02*
X+1908154Y+1762585D01*
X+1964034Y+1762585D02*
X+1994514Y+1762585D01*
X+2014834Y+1762585D02*
X+2055474Y+1762585D01*
X+2151994Y+1762585D02*
X+2192634Y+1762585D01*
X+2212954Y+1762585D02*
X+2243434Y+1762585D01*
X+2278994Y+1762585D02*
X+2309474Y+1762585D01*
X+2339954Y+1762585D02*
X+2370434Y+1762585D01*
X+2416154Y+1762585D02*
X+2436474Y+1762585D01*
X+2472034Y+1762585D02*
X+2512674Y+1762585D01*
X+2543154Y+1762585D02*
X+2573634Y+1762585D01*
X+2599034Y+1762585D02*
X+2629514Y+1762585D01*
X+2659994Y+1762585D02*
X+2690474Y+1762585D01*
X+2751434Y+1762585D02*
X+2771754Y+1762585D01*
X+2807314Y+1762585D02*
X+2842874Y+1762585D01*
X+2883514Y+1762585D02*
X+2919074Y+1762585D01*
X+373994Y+1767665D02*
X+394314Y+1767665D01*
X+500994Y+1767665D02*
X+521314Y+1767665D01*
X+556874Y+1767665D02*
X+577194Y+1767665D01*
X+663554Y+1767665D02*
X+683874Y+1767665D01*
X+719434Y+1767665D02*
X+749914Y+1767665D01*
X+815954Y+1767665D02*
X+846434Y+1767665D01*
X+897234Y+1767665D02*
X+917554Y+1767665D01*
X+993754Y+1767665D02*
X+1014074Y+1767665D01*
X+1095354Y+1767665D02*
X+1115674Y+1767665D01*
X+1191874Y+1767665D02*
X+1222354Y+1767665D01*
X+1283314Y+1767665D02*
X+1313794Y+1767665D01*
X+1450954Y+1767665D02*
X+1471274Y+1767665D01*
X+1577954Y+1767665D02*
X+1598274Y+1767665D01*
X+1730354Y+1767665D02*
X+1750674Y+1767665D01*
X+1867514Y+1767665D02*
X+1908154Y+1767665D01*
X+1958954Y+1767665D02*
X+1984354Y+1767665D01*
X+2024994Y+1767665D02*
X+2055474Y+1767665D01*
X+2151994Y+1767665D02*
X+2182474Y+1767665D01*
X+2223114Y+1767665D02*
X+2248514Y+1767665D01*
X+2278994Y+1767665D02*
X+2304394Y+1767665D01*
X+2350114Y+1767665D02*
X+2375514Y+1767665D01*
X+2416154Y+1767665D02*
X+2436474Y+1767665D01*
X+2472034Y+1767665D02*
X+2502514Y+1767665D01*
X+2553314Y+1767665D02*
X+2573634Y+1767665D01*
X+2599034Y+1767665D02*
X+2624434Y+1767665D01*
X+2670154Y+1767665D02*
X+2695554Y+1767665D01*
X+2751434Y+1767665D02*
X+2771754Y+1767665D01*
X+2802234Y+1767665D02*
X+2832714Y+1767665D01*
X+2893674Y+1767665D02*
X+2924154Y+1767665D01*
X+373994Y+1772745D02*
X+394314Y+1772745D01*
X+500994Y+1772745D02*
X+521314Y+1772745D01*
X+556874Y+1772745D02*
X+577194Y+1772745D01*
X+663554Y+1772745D02*
X+683874Y+1772745D01*
X+719434Y+1772745D02*
X+744834Y+1772745D01*
X+821034Y+1772745D02*
X+846434Y+1772745D01*
X+897234Y+1772745D02*
X+922634Y+1772745D01*
X+993754Y+1772745D02*
X+1014074Y+1772745D01*
X+1095354Y+1772745D02*
X+1115674Y+1772745D01*
X+1191874Y+1772745D02*
X+1217274Y+1772745D01*
X+1288394Y+1772745D02*
X+1318874Y+1772745D01*
X+1450954Y+1772745D02*
X+1471274Y+1772745D01*
X+1577954Y+1772745D02*
X+1598274Y+1772745D01*
X+1730354Y+1772745D02*
X+1750674Y+1772745D01*
X+1867514Y+1772745D02*
X+1882754Y+1772745D01*
X+1887834Y+1772745D02*
X+1908154Y+1772745D01*
X+1958954Y+1772745D02*
X+1979274Y+1772745D01*
X+2030074Y+1772745D02*
X+2055474Y+1772745D01*
X+2151994Y+1772745D02*
X+2177394Y+1772745D01*
X+2228194Y+1772745D02*
X+2248514Y+1772745D01*
X+2273914Y+1772745D02*
X+2299314Y+1772745D01*
X+2355194Y+1772745D02*
X+2375514Y+1772745D01*
X+2416154Y+1772745D02*
X+2436474Y+1772745D01*
X+2472034Y+1772745D02*
X+2497434Y+1772745D01*
X+2553314Y+1772745D02*
X+2573634Y+1772745D01*
X+2593954Y+1772745D02*
X+2619354Y+1772745D01*
X+2675234Y+1772745D02*
X+2695554Y+1772745D01*
X+2751434Y+1772745D02*
X+2771754Y+1772745D01*
X+2802234Y+1772745D02*
X+2827634Y+1772745D01*
X+2898754Y+1772745D02*
X+2929234Y+1772745D01*
X+373994Y+1777825D02*
X+394314Y+1777825D01*
X+500994Y+1777825D02*
X+521314Y+1777825D01*
X+561954Y+1777825D02*
X+582274Y+1777825D01*
X+658474Y+1777825D02*
X+678794Y+1777825D01*
X+714354Y+1777825D02*
X+739754Y+1777825D01*
X+826114Y+1777825D02*
X+851514Y+1777825D01*
X+902314Y+1777825D02*
X+927714Y+1777825D01*
X+993754Y+1777825D02*
X+1014074Y+1777825D01*
X+1095354Y+1777825D02*
X+1115674Y+1777825D01*
X+1186794Y+1777825D02*
X+1212194Y+1777825D01*
X+1293474Y+1777825D02*
X+1318874Y+1777825D01*
X+1450954Y+1777825D02*
X+1471274Y+1777825D01*
X+1577954Y+1777825D02*
X+1598274Y+1777825D01*
X+1730354Y+1777825D02*
X+1750674Y+1777825D01*
X+1862434Y+1777825D02*
X+1882754Y+1777825D01*
X+1887834Y+1777825D02*
X+1913234Y+1777825D01*
X+1958954Y+1777825D02*
X+1979274Y+1777825D01*
X+2030074Y+1777825D02*
X+2055474Y+1777825D01*
X+2151994Y+1777825D02*
X+2177394Y+1777825D01*
X+2228194Y+1777825D02*
X+2248514Y+1777825D01*
X+2284074Y+1777825D02*
X+2294234Y+1777825D01*
X+2355194Y+1777825D02*
X+2375514Y+1777825D01*
X+2416154Y+1777825D02*
X+2436474Y+1777825D01*
X+2472034Y+1777825D02*
X+2492354Y+1777825D01*
X+2553314Y+1777825D02*
X+2573634Y+1777825D01*
X+2604114Y+1777825D02*
X+2614274Y+1777825D01*
X+2675234Y+1777825D02*
X+2695554Y+1777825D01*
X+2751434Y+1777825D02*
X+2771754Y+1777825D01*
X+2797154Y+1777825D02*
X+2822554Y+1777825D01*
X+2903834Y+1777825D02*
X+2929234Y+1777825D01*
X+373994Y+1782905D02*
X+394314Y+1782905D01*
X+500994Y+1782905D02*
X+521314Y+1782905D01*
X+561954Y+1782905D02*
X+582274Y+1782905D01*
X+658474Y+1782905D02*
X+678794Y+1782905D01*
X+714354Y+1782905D02*
X+734674Y+1782905D01*
X+831194Y+1782905D02*
X+851514Y+1782905D01*
X+902314Y+1782905D02*
X+927714Y+1782905D01*
X+993754Y+1782905D02*
X+1014074Y+1782905D01*
X+1095354Y+1782905D02*
X+1115674Y+1782905D01*
X+1186794Y+1782905D02*
X+1207114Y+1782905D01*
X+1298554Y+1782905D02*
X+1323954Y+1782905D01*
X+1450954Y+1782905D02*
X+1471274Y+1782905D01*
X+1577954Y+1782905D02*
X+1598274Y+1782905D01*
X+1730354Y+1782905D02*
X+1750674Y+1782905D01*
X+1862434Y+1782905D02*
X+1882754Y+1782905D01*
X+1892914Y+1782905D02*
X+1913234Y+1782905D01*
X+1953874Y+1782905D02*
X+1974194Y+1782905D01*
X+2035154Y+1782905D02*
X+2055474Y+1782905D01*
X+2151994Y+1782905D02*
X+2172314Y+1782905D01*
X+2233274Y+1782905D02*
X+2253594Y+1782905D01*
X+2360274Y+1782905D02*
X+2380594Y+1782905D01*
X+2416154Y+1782905D02*
X+2436474Y+1782905D01*
X+2472034Y+1782905D02*
X+2492354Y+1782905D01*
X+2548234Y+1782905D02*
X+2573634Y+1782905D01*
X+2680314Y+1782905D02*
X+2700634Y+1782905D01*
X+2751434Y+1782905D02*
X+2771754Y+1782905D01*
X+2797154Y+1782905D02*
X+2817474Y+1782905D01*
X+2908914Y+1782905D02*
X+2934314Y+1782905D01*
X+373994Y+1787985D02*
X+394314Y+1787985D01*
X+500994Y+1787985D02*
X+521314Y+1787985D01*
X+567034Y+1787985D02*
X+587354Y+1787985D01*
X+653394Y+1787985D02*
X+673714Y+1787985D01*
X+709274Y+1787985D02*
X+729594Y+1787985D01*
X+836274Y+1787985D02*
X+856594Y+1787985D01*
X+907394Y+1787985D02*
X+932794Y+1787985D01*
X+993754Y+1787985D02*
X+1014074Y+1787985D01*
X+1095354Y+1787985D02*
X+1115674Y+1787985D01*
X+1181714Y+1787985D02*
X+1207114Y+1787985D01*
X+1303634Y+1787985D02*
X+1323954Y+1787985D01*
X+1450954Y+1787985D02*
X+1471274Y+1787985D01*
X+1577954Y+1787985D02*
X+1598274Y+1787985D01*
X+1730354Y+1787985D02*
X+1750674Y+1787985D01*
X+1862434Y+1787985D02*
X+1882754Y+1787985D01*
X+1892914Y+1787985D02*
X+1918314Y+1787985D01*
X+1953874Y+1787985D02*
X+1974194Y+1787985D01*
X+2035154Y+1787985D02*
X+2055474Y+1787985D01*
X+2151994Y+1787985D02*
X+2172314Y+1787985D01*
X+2233274Y+1787985D02*
X+2253594Y+1787985D01*
X+2360274Y+1787985D02*
X+2380594Y+1787985D01*
X+2416154Y+1787985D02*
X+2436474Y+1787985D01*
X+2472034Y+1787985D02*
X+2492354Y+1787985D01*
X+2538074Y+1787985D02*
X+2568554Y+1787985D01*
X+2680314Y+1787985D02*
X+2700634Y+1787985D01*
X+2751434Y+1787985D02*
X+2771754Y+1787985D01*
X+2792074Y+1787985D02*
X+2817474Y+1787985D01*
X+2913994Y+1787985D02*
X+2934314Y+1787985D01*
X+373994Y+1793065D02*
X+394314Y+1793065D01*
X+500994Y+1793065D02*
X+521314Y+1793065D01*
X+567034Y+1793065D02*
X+673714Y+1793065D01*
X+709274Y+1793065D02*
X+729594Y+1793065D01*
X+836274Y+1793065D02*
X+856594Y+1793065D01*
X+912474Y+1793065D02*
X+937874Y+1793065D01*
X+993754Y+1793065D02*
X+1014074Y+1793065D01*
X+1095354Y+1793065D02*
X+1115674Y+1793065D01*
X+1181714Y+1793065D02*
X+1202034Y+1793065D01*
X+1303634Y+1793065D02*
X+1323954Y+1793065D01*
X+1450954Y+1793065D02*
X+1471274Y+1793065D01*
X+1577954Y+1793065D02*
X+1598274Y+1793065D01*
X+1730354Y+1793065D02*
X+1750674Y+1793065D01*
X+1857354Y+1793065D02*
X+1877674Y+1793065D01*
X+1897994Y+1793065D02*
X+1918314Y+1793065D01*
X+1953874Y+1793065D02*
X+1974194Y+1793065D01*
X+2035154Y+1793065D02*
X+2055474Y+1793065D01*
X+2151994Y+1793065D02*
X+2172314Y+1793065D01*
X+2233274Y+1793065D02*
X+2253594Y+1793065D01*
X+2360274Y+1793065D02*
X+2380594Y+1793065D01*
X+2416154Y+1793065D02*
X+2436474Y+1793065D01*
X+2472034Y+1793065D02*
X+2492354Y+1793065D01*
X+2502514Y+1793065D02*
X+2568554Y+1793065D01*
X+2680314Y+1793065D02*
X+2700634Y+1793065D01*
X+2751434Y+1793065D02*
X+2771754Y+1793065D01*
X+2792074Y+1793065D02*
X+2812394Y+1793065D01*
X+2913994Y+1793065D02*
X+2934314Y+1793065D01*
X+373994Y+1798145D02*
X+394314Y+1798145D01*
X+500994Y+1798145D02*
X+521314Y+1798145D01*
X+572114Y+1798145D02*
X+668634Y+1798145D01*
X+704194Y+1798145D02*
X+729594Y+1798145D01*
X+836274Y+1798145D02*
X+861674Y+1798145D01*
X+917554Y+1798145D02*
X+942954Y+1798145D01*
X+993754Y+1798145D02*
X+1014074Y+1798145D01*
X+1095354Y+1798145D02*
X+1115674Y+1798145D01*
X+1303634Y+1798145D02*
X+1323954Y+1798145D01*
X+1450954Y+1798145D02*
X+1471274Y+1798145D01*
X+1577954Y+1798145D02*
X+1598274Y+1798145D01*
X+1730354Y+1798145D02*
X+1750674Y+1798145D01*
X+1857354Y+1798145D02*
X+1877674Y+1798145D01*
X+1897994Y+1798145D02*
X+1918314Y+1798145D01*
X+1953874Y+1798145D02*
X+1974194Y+1798145D01*
X+2035154Y+1798145D02*
X+2055474Y+1798145D01*
X+2151994Y+1798145D02*
X+2172314Y+1798145D01*
X+2233274Y+1798145D02*
X+2253594Y+1798145D01*
X+2273914Y+1798145D02*
X+2380594Y+1798145D01*
X+2416154Y+1798145D02*
X+2436474Y+1798145D01*
X+2472034Y+1798145D02*
X+2563474Y+1798145D01*
X+2593954Y+1798145D02*
X+2700634Y+1798145D01*
X+2751434Y+1798145D02*
X+2771754Y+1798145D01*
X+2913994Y+1798145D02*
X+2934314Y+1798145D01*
X+373994Y+1803225D02*
X+394314Y+1803225D01*
X+500994Y+1803225D02*
X+521314Y+1803225D01*
X+572114Y+1803225D02*
X+668634Y+1803225D01*
X+704194Y+1803225D02*
X+724514Y+1803225D01*
X+841354Y+1803225D02*
X+861674Y+1803225D01*
X+922634Y+1803225D02*
X+948034Y+1803225D01*
X+993754Y+1803225D02*
X+1014074Y+1803225D01*
X+1095354Y+1803225D02*
X+1115674Y+1803225D01*
X+1308714Y+1803225D02*
X+1329034Y+1803225D01*
X+1450954Y+1803225D02*
X+1471274Y+1803225D01*
X+1577954Y+1803225D02*
X+1598274Y+1803225D01*
X+1730354Y+1803225D02*
X+1750674Y+1803225D01*
X+1852274Y+1803225D02*
X+1877674Y+1803225D01*
X+1903074Y+1803225D02*
X+1923394Y+1803225D01*
X+1953874Y+1803225D02*
X+1974194Y+1803225D01*
X+2035154Y+1803225D02*
X+2055474Y+1803225D01*
X+2151994Y+1803225D02*
X+2172314Y+1803225D01*
X+2233274Y+1803225D02*
X+2253594Y+1803225D01*
X+2273914Y+1803225D02*
X+2380594Y+1803225D01*
X+2416154Y+1803225D02*
X+2436474Y+1803225D01*
X+2472034Y+1803225D02*
X+2553314Y+1803225D01*
X+2593954Y+1803225D02*
X+2700634Y+1803225D01*
X+2751434Y+1803225D02*
X+2771754Y+1803225D01*
X+2919074Y+1803225D02*
X+2939394Y+1803225D01*
X+373994Y+1808305D02*
X+394314Y+1808305D01*
X+500994Y+1808305D02*
X+521314Y+1808305D01*
X+572114Y+1808305D02*
X+668634Y+1808305D01*
X+704194Y+1808305D02*
X+724514Y+1808305D01*
X+841354Y+1808305D02*
X+861674Y+1808305D01*
X+927714Y+1808305D02*
X+953114Y+1808305D01*
X+993754Y+1808305D02*
X+1014074Y+1808305D01*
X+1095354Y+1808305D02*
X+1115674Y+1808305D01*
X+1308714Y+1808305D02*
X+1329034Y+1808305D01*
X+1450954Y+1808305D02*
X+1471274Y+1808305D01*
X+1577954Y+1808305D02*
X+1598274Y+1808305D01*
X+1730354Y+1808305D02*
X+1750674Y+1808305D01*
X+1852274Y+1808305D02*
X+1872594Y+1808305D01*
X+1903074Y+1808305D02*
X+1923394Y+1808305D01*
X+1953874Y+1808305D02*
X+1974194Y+1808305D01*
X+2035154Y+1808305D02*
X+2055474Y+1808305D01*
X+2151994Y+1808305D02*
X+2172314Y+1808305D01*
X+2233274Y+1808305D02*
X+2253594Y+1808305D01*
X+2273914Y+1808305D02*
X+2380594Y+1808305D01*
X+2416154Y+1808305D02*
X+2436474Y+1808305D01*
X+2472034Y+1808305D02*
X+2532994Y+1808305D01*
X+2593954Y+1808305D02*
X+2700634Y+1808305D01*
X+2751434Y+1808305D02*
X+2771754Y+1808305D01*
X+2919074Y+1808305D02*
X+2939394Y+1808305D01*
X+373994Y+1813385D02*
X+394314Y+1813385D01*
X+500994Y+1813385D02*
X+521314Y+1813385D01*
X+577194Y+1813385D02*
X+592434Y+1813385D01*
X+648314Y+1813385D02*
X+663554Y+1813385D01*
X+704194Y+1813385D02*
X+724514Y+1813385D01*
X+841354Y+1813385D02*
X+861674Y+1813385D01*
X+922634Y+1813385D02*
X+1014074Y+1813385D01*
X+1095354Y+1813385D02*
X+1115674Y+1813385D01*
X+1308714Y+1813385D02*
X+1329034Y+1813385D01*
X+1450954Y+1813385D02*
X+1471274Y+1813385D01*
X+1577954Y+1813385D02*
X+1598274Y+1813385D01*
X+1730354Y+1813385D02*
X+1750674Y+1813385D01*
X+1852274Y+1813385D02*
X+1872594Y+1813385D01*
X+1903074Y+1813385D02*
X+1928474Y+1813385D01*
X+1953874Y+1813385D02*
X+1974194Y+1813385D01*
X+2035154Y+1813385D02*
X+2055474Y+1813385D01*
X+2151994Y+1813385D02*
X+2172314Y+1813385D01*
X+2233274Y+1813385D02*
X+2253594Y+1813385D01*
X+2273914Y+1813385D02*
X+2380594Y+1813385D01*
X+2416154Y+1813385D02*
X+2436474Y+1813385D01*
X+2472034Y+1813385D02*
X+2502514Y+1813385D01*
X+2593954Y+1813385D02*
X+2700634Y+1813385D01*
X+2751434Y+1813385D02*
X+2771754Y+1813385D01*
X+2919074Y+1813385D02*
X+2939394Y+1813385D01*
X+373994Y+1818465D02*
X+394314Y+1818465D01*
X+500994Y+1818465D02*
X+521314Y+1818465D01*
X+577194Y+1818465D02*
X+597514Y+1818465D01*
X+643234Y+1818465D02*
X+663554Y+1818465D01*
X+704194Y+1818465D02*
X+724514Y+1818465D01*
X+841354Y+1818465D02*
X+861674Y+1818465D01*
X+907394Y+1818465D02*
X+1014074Y+1818465D01*
X+1095354Y+1818465D02*
X+1115674Y+1818465D01*
X+1308714Y+1818465D02*
X+1329034Y+1818465D01*
X+1359514Y+1818465D02*
X+1471274Y+1818465D01*
X+1577954Y+1818465D02*
X+1598274Y+1818465D01*
X+1638914Y+1818465D02*
X+1750674Y+1818465D01*
X+1847194Y+1818465D02*
X+1872594Y+1818465D01*
X+1908154Y+1818465D02*
X+1928474Y+1818465D01*
X+1953874Y+1818465D02*
X+1974194Y+1818465D01*
X+2035154Y+1818465D02*
X+2055474Y+1818465D01*
X+2151994Y+1818465D02*
X+2172314Y+1818465D01*
X+2233274Y+1818465D02*
X+2253594Y+1818465D01*
X+2273914Y+1818465D02*
X+2294234Y+1818465D01*
X+2360274Y+1818465D02*
X+2380594Y+1818465D01*
X+2416154Y+1818465D02*
X+2436474Y+1818465D01*
X+2472034Y+1818465D02*
X+2492354Y+1818465D01*
X+2593954Y+1818465D02*
X+2614274Y+1818465D01*
X+2680314Y+1818465D02*
X+2700634Y+1818465D01*
X+2751434Y+1818465D02*
X+2771754Y+1818465D01*
X+2919074Y+1818465D02*
X+2939394Y+1818465D01*
X+373994Y+1823545D02*
X+394314Y+1823545D01*
X+500994Y+1823545D02*
X+521314Y+1823545D01*
X+582274Y+1823545D02*
X+597514Y+1823545D01*
X+643234Y+1823545D02*
X+658474Y+1823545D01*
X+704194Y+1823545D02*
X+724514Y+1823545D01*
X+841354Y+1823545D02*
X+861674Y+1823545D01*
X+902314Y+1823545D02*
X+1014074Y+1823545D01*
X+1095354Y+1823545D02*
X+1115674Y+1823545D01*
X+1308714Y+1823545D02*
X+1329034Y+1823545D01*
X+1359514Y+1823545D02*
X+1471274Y+1823545D01*
X+1577954Y+1823545D02*
X+1598274Y+1823545D01*
X+1638914Y+1823545D02*
X+1750674Y+1823545D01*
X+1847194Y+1823545D02*
X+1867514Y+1823545D01*
X+1908154Y+1823545D02*
X+1928474Y+1823545D01*
X+1958954Y+1823545D02*
X+1979274Y+1823545D01*
X+2030074Y+1823545D02*
X+2055474Y+1823545D01*
X+2151994Y+1823545D02*
X+2177394Y+1823545D01*
X+2228194Y+1823545D02*
X+2248514Y+1823545D01*
X+2278994Y+1823545D02*
X+2294234Y+1823545D01*
X+2360274Y+1823545D02*
X+2375514Y+1823545D01*
X+2416154Y+1823545D02*
X+2436474Y+1823545D01*
X+2472034Y+1823545D02*
X+2492354Y+1823545D01*
X+2548234Y+1823545D02*
X+2558394Y+1823545D01*
X+2599034Y+1823545D02*
X+2614274Y+1823545D01*
X+2680314Y+1823545D02*
X+2695554Y+1823545D01*
X+2751434Y+1823545D02*
X+2771754Y+1823545D01*
X+2919074Y+1823545D02*
X+2939394Y+1823545D01*
X+373994Y+1828625D02*
X+394314Y+1828625D01*
X+500994Y+1828625D02*
X+521314Y+1828625D01*
X+582274Y+1828625D02*
X+602594Y+1828625D01*
X+638154Y+1828625D02*
X+658474Y+1828625D01*
X+704194Y+1828625D02*
X+724514Y+1828625D01*
X+841354Y+1828625D02*
X+861674Y+1828625D01*
X+897234Y+1828625D02*
X+1014074Y+1828625D01*
X+1095354Y+1828625D02*
X+1115674Y+1828625D01*
X+1308714Y+1828625D02*
X+1329034Y+1828625D01*
X+1359514Y+1828625D02*
X+1471274Y+1828625D01*
X+1577954Y+1828625D02*
X+1598274Y+1828625D01*
X+1638914Y+1828625D02*
X+1750674Y+1828625D01*
X+1847194Y+1828625D02*
X+1867514Y+1828625D01*
X+1913234Y+1828625D02*
X+1933554Y+1828625D01*
X+1958954Y+1828625D02*
X+1979274Y+1828625D01*
X+2030074Y+1828625D02*
X+2055474Y+1828625D01*
X+2151994Y+1828625D02*
X+2177394Y+1828625D01*
X+2228194Y+1828625D02*
X+2248514Y+1828625D01*
X+2278994Y+1828625D02*
X+2299314Y+1828625D01*
X+2355194Y+1828625D02*
X+2375514Y+1828625D01*
X+2416154Y+1828625D02*
X+2436474Y+1828625D01*
X+2472034Y+1828625D02*
X+2492354Y+1828625D01*
X+2543154Y+1828625D02*
X+2568554Y+1828625D01*
X+2599034Y+1828625D02*
X+2619354Y+1828625D01*
X+2675234Y+1828625D02*
X+2695554Y+1828625D01*
X+2746354Y+1828625D02*
X+2771754Y+1828625D01*
X+2919074Y+1828625D02*
X+2939394Y+1828625D01*
X+373994Y+1833705D02*
X+394314Y+1833705D01*
X+500994Y+1833705D02*
X+521314Y+1833705D01*
X+582274Y+1833705D02*
X+602594Y+1833705D01*
X+638154Y+1833705D02*
X+658474Y+1833705D01*
X+704194Y+1833705D02*
X+724514Y+1833705D01*
X+841354Y+1833705D02*
X+861674Y+1833705D01*
X+892154Y+1833705D02*
X+927714Y+1833705D01*
X+993754Y+1833705D02*
X+1014074Y+1833705D01*
X+1095354Y+1833705D02*
X+1115674Y+1833705D01*
X+1308714Y+1833705D02*
X+1329034Y+1833705D01*
X+1359514Y+1833705D02*
X+1471274Y+1833705D01*
X+1577954Y+1833705D02*
X+1598274Y+1833705D01*
X+1638914Y+1833705D02*
X+1750674Y+1833705D01*
X+1842114Y+1833705D02*
X+1867514Y+1833705D01*
X+1913234Y+1833705D02*
X+1933554Y+1833705D01*
X+1958954Y+1833705D02*
X+1984354Y+1833705D01*
X+2024994Y+1833705D02*
X+2055474Y+1833705D01*
X+2151994Y+1833705D02*
X+2182474Y+1833705D01*
X+2223114Y+1833705D02*
X+2248514Y+1833705D01*
X+2278994Y+1833705D02*
X+2304394Y+1833705D01*
X+2350114Y+1833705D02*
X+2375514Y+1833705D01*
X+2416154Y+1833705D02*
X+2436474Y+1833705D01*
X+2472034Y+1833705D02*
X+2497434Y+1833705D01*
X+2543154Y+1833705D02*
X+2568554Y+1833705D01*
X+2599034Y+1833705D02*
X+2624434Y+1833705D01*
X+2670154Y+1833705D02*
X+2695554Y+1833705D01*
X+2746354Y+1833705D02*
X+2771754Y+1833705D01*
X+2919074Y+1833705D02*
X+2939394Y+1833705D01*
X+373994Y+1838785D02*
X+394314Y+1838785D01*
X+500994Y+1838785D02*
X+521314Y+1838785D01*
X+587354Y+1838785D02*
X+602594Y+1838785D01*
X+638154Y+1838785D02*
X+653394Y+1838785D01*
X+704194Y+1838785D02*
X+724514Y+1838785D01*
X+841354Y+1838785D02*
X+861674Y+1838785D01*
X+892154Y+1838785D02*
X+917554Y+1838785D01*
X+993754Y+1838785D02*
X+1014074Y+1838785D01*
X+1095354Y+1838785D02*
X+1115674Y+1838785D01*
X+1308714Y+1838785D02*
X+1329034Y+1838785D01*
X+1450954Y+1838785D02*
X+1471274Y+1838785D01*
X+1577954Y+1838785D02*
X+1598274Y+1838785D01*
X+1730354Y+1838785D02*
X+1750674Y+1838785D01*
X+1842114Y+1838785D02*
X+1862434Y+1838785D01*
X+1913234Y+1838785D02*
X+1938634Y+1838785D01*
X+1964034Y+1838785D02*
X+1994514Y+1838785D01*
X+2014834Y+1838785D02*
X+2055474Y+1838785D01*
X+2151994Y+1838785D02*
X+2192634Y+1838785D01*
X+2212954Y+1838785D02*
X+2243434Y+1838785D01*
X+2284074Y+1838785D02*
X+2309474Y+1838785D01*
X+2339954Y+1838785D02*
X+2370434Y+1838785D01*
X+2400914Y+1838785D02*
X+2451714Y+1838785D01*
X+2472034Y+1838785D02*
X+2502514Y+1838785D01*
X+2532994Y+1838785D02*
X+2563474Y+1838785D01*
X+2604114Y+1838785D02*
X+2629514Y+1838785D01*
X+2659994Y+1838785D02*
X+2690474Y+1838785D01*
X+2710794Y+1838785D02*
X+2720954Y+1838785D01*
X+2736194Y+1838785D02*
X+2771754Y+1838785D01*
X+2919074Y+1838785D02*
X+2939394Y+1838785D01*
X+373994Y+1843865D02*
X+394314Y+1843865D01*
X+500994Y+1843865D02*
X+521314Y+1843865D01*
X+587354Y+1843865D02*
X+607674Y+1843865D01*
X+633074Y+1843865D02*
X+653394Y+1843865D01*
X+709274Y+1843865D02*
X+729594Y+1843865D01*
X+836274Y+1843865D02*
X+856594Y+1843865D01*
X+887074Y+1843865D02*
X+912474Y+1843865D01*
X+993754Y+1843865D02*
X+1014074Y+1843865D01*
X+1095354Y+1843865D02*
X+1115674Y+1843865D01*
X+1303634Y+1843865D02*
X+1329034Y+1843865D01*
X+1450954Y+1843865D02*
X+1471274Y+1843865D01*
X+1577954Y+1843865D02*
X+1598274Y+1843865D01*
X+1730354Y+1843865D02*
X+1750674Y+1843865D01*
X+1842114Y+1843865D02*
X+1862434Y+1843865D01*
X+1918314Y+1843865D02*
X+1938634Y+1843865D01*
X+1964034Y+1843865D02*
X+2055474Y+1843865D01*
X+2151994Y+1843865D02*
X+2243434Y+1843865D01*
X+2289154Y+1843865D02*
X+2365354Y+1843865D01*
X+2400914Y+1843865D02*
X+2451714Y+1843865D01*
X+2477114Y+1843865D02*
X+2563474Y+1843865D01*
X+2609194Y+1843865D02*
X+2685394Y+1843865D01*
X+2710794Y+1843865D02*
X+2771754Y+1843865D01*
X+2913994Y+1843865D02*
X+2939394Y+1843865D01*
X+373994Y+1848945D02*
X+394314Y+1848945D01*
X+500994Y+1848945D02*
X+521314Y+1848945D01*
X+592434Y+1848945D02*
X+607674Y+1848945D01*
X+633074Y+1848945D02*
X+648314Y+1848945D01*
X+709274Y+1848945D02*
X+729594Y+1848945D01*
X+836274Y+1848945D02*
X+856594Y+1848945D01*
X+887074Y+1848945D02*
X+907394Y+1848945D01*
X+993754Y+1848945D02*
X+1014074Y+1848945D01*
X+1095354Y+1848945D02*
X+1115674Y+1848945D01*
X+1303634Y+1848945D02*
X+1323954Y+1848945D01*
X+1450954Y+1848945D02*
X+1471274Y+1848945D01*
X+1577954Y+1848945D02*
X+1598274Y+1848945D01*
X+1730354Y+1848945D02*
X+1750674Y+1848945D01*
X+1837034Y+1848945D02*
X+1862434Y+1848945D01*
X+1918314Y+1848945D02*
X+1938634Y+1848945D01*
X+1969114Y+1848945D02*
X+2030074Y+1848945D01*
X+2035154Y+1848945D02*
X+2055474Y+1848945D01*
X+2151994Y+1848945D02*
X+2172314Y+1848945D01*
X+2177394Y+1848945D02*
X+2238354Y+1848945D01*
X+2294234Y+1848945D02*
X+2360274Y+1848945D01*
X+2400914Y+1848945D02*
X+2451714Y+1848945D01*
X+2477114Y+1848945D02*
X+2558394Y+1848945D01*
X+2614274Y+1848945D02*
X+2680314Y+1848945D01*
X+2705714Y+1848945D02*
X+2751434Y+1848945D01*
X+2756514Y+1848945D02*
X+2771754Y+1848945D01*
X+2913994Y+1848945D02*
X+2934314Y+1848945D01*
X+373994Y+1854025D02*
X+394314Y+1854025D01*
X+500994Y+1854025D02*
X+521314Y+1854025D01*
X+592434Y+1854025D02*
X+607674Y+1854025D01*
X+633074Y+1854025D02*
X+648314Y+1854025D01*
X+709274Y+1854025D02*
X+729594Y+1854025D01*
X+836274Y+1854025D02*
X+856594Y+1854025D01*
X+887074Y+1854025D02*
X+907394Y+1854025D01*
X+993754Y+1854025D02*
X+1014074Y+1854025D01*
X+1095354Y+1854025D02*
X+1115674Y+1854025D01*
X+1191874Y+1854025D02*
X+1207114Y+1854025D01*
X+1303634Y+1854025D02*
X+1323954Y+1854025D01*
X+1450954Y+1854025D02*
X+1471274Y+1854025D01*
X+1577954Y+1854025D02*
X+1598274Y+1854025D01*
X+1730354Y+1854025D02*
X+1750674Y+1854025D01*
X+1837034Y+1854025D02*
X+1857354Y+1854025D01*
X+1923394Y+1854025D02*
X+1943714Y+1854025D01*
X+1979274Y+1854025D02*
X+2024994Y+1854025D01*
X+2035154Y+1854025D02*
X+2055474Y+1854025D01*
X+2151994Y+1854025D02*
X+2172314Y+1854025D01*
X+2182474Y+1854025D02*
X+2228194Y+1854025D01*
X+2299314Y+1854025D02*
X+2355194Y+1854025D01*
X+2400914Y+1854025D02*
X+2451714Y+1854025D01*
X+2487274Y+1854025D02*
X+2548234Y+1854025D01*
X+2619354Y+1854025D02*
X+2675234Y+1854025D01*
X+2705714Y+1854025D02*
X+2746354Y+1854025D01*
X+2756514Y+1854025D02*
X+2771754Y+1854025D01*
X+2802234Y+1854025D02*
X+2817474Y+1854025D01*
X+2913994Y+1854025D02*
X+2934314Y+1854025D01*
X+373994Y+1859105D02*
X+394314Y+1859105D01*
X+500994Y+1859105D02*
X+521314Y+1859105D01*
X+592434Y+1859105D02*
X+612754Y+1859105D01*
X+627994Y+1859105D02*
X+648314Y+1859105D01*
X+714354Y+1859105D02*
X+734674Y+1859105D01*
X+831194Y+1859105D02*
X+851514Y+1859105D01*
X+887074Y+1859105D02*
X+907394Y+1859105D01*
X+993754Y+1859105D02*
X+1014074Y+1859105D01*
X+1095354Y+1859105D02*
X+1115674Y+1859105D01*
X+1186794Y+1859105D02*
X+1212194Y+1859105D01*
X+1298554Y+1859105D02*
X+1323954Y+1859105D01*
X+1450954Y+1859105D02*
X+1471274Y+1859105D01*
X+1577954Y+1859105D02*
X+1598274Y+1859105D01*
X+1730354Y+1859105D02*
X+1750674Y+1859105D01*
X+1989434Y+1859105D02*
X+2014834Y+1859105D01*
X+2035154Y+1859105D02*
X+2055474Y+1859105D01*
X+2151994Y+1859105D02*
X+2172314Y+1859105D01*
X+2192634Y+1859105D02*
X+2218034Y+1859105D01*
X+2309474Y+1859105D02*
X+2345034Y+1859105D01*
X+2416154Y+1859105D02*
X+2436474Y+1859105D01*
X+2497434Y+1859105D02*
X+2538074Y+1859105D01*
X+2629514Y+1859105D02*
X+2665074Y+1859105D01*
X+2715874Y+1859105D02*
X+2741274Y+1859105D01*
X+2797154Y+1859105D02*
X+2822554Y+1859105D01*
X+2908914Y+1859105D02*
X+2934314Y+1859105D01*
X+373994Y+1864185D02*
X+394314Y+1864185D01*
X+500994Y+1864185D02*
X+521314Y+1864185D01*
X+597514Y+1864185D02*
X+612754Y+1864185D01*
X+627994Y+1864185D02*
X+643234Y+1864185D01*
X+714354Y+1864185D02*
X+739754Y+1864185D01*
X+826114Y+1864185D02*
X+851514Y+1864185D01*
X+887074Y+1864185D02*
X+907394Y+1864185D01*
X+993754Y+1864185D02*
X+1014074Y+1864185D01*
X+1095354Y+1864185D02*
X+1115674Y+1864185D01*
X+1191874Y+1864185D02*
X+1212194Y+1864185D01*
X+1293474Y+1864185D02*
X+1318874Y+1864185D01*
X+1450954Y+1864185D02*
X+1471274Y+1864185D01*
X+1577954Y+1864185D02*
X+1598274Y+1864185D01*
X+1730354Y+1864185D02*
X+1750674Y+1864185D01*
X+2035154Y+1864185D02*
X+2055474Y+1864185D01*
X+2151994Y+1864185D02*
X+2172314Y+1864185D01*
X+2416154Y+1864185D02*
X+2436474Y+1864185D01*
X+2802234Y+1864185D02*
X+2822554Y+1864185D01*
X+2903834Y+1864185D02*
X+2929234Y+1864185D01*
X+373994Y+1869265D02*
X+394314Y+1869265D01*
X+500994Y+1869265D02*
X+521314Y+1869265D01*
X+597514Y+1869265D02*
X+617834Y+1869265D01*
X+622914Y+1869265D02*
X+643234Y+1869265D01*
X+719434Y+1869265D02*
X+744834Y+1869265D01*
X+821034Y+1869265D02*
X+846434Y+1869265D01*
X+887074Y+1869265D02*
X+912474Y+1869265D01*
X+993754Y+1869265D02*
X+1014074Y+1869265D01*
X+1095354Y+1869265D02*
X+1115674Y+1869265D01*
X+1191874Y+1869265D02*
X+1217274Y+1869265D01*
X+1288394Y+1869265D02*
X+1318874Y+1869265D01*
X+1450954Y+1869265D02*
X+1471274Y+1869265D01*
X+1577954Y+1869265D02*
X+1598274Y+1869265D01*
X+1730354Y+1869265D02*
X+1750674Y+1869265D01*
X+2035154Y+1869265D02*
X+2055474Y+1869265D01*
X+2151994Y+1869265D02*
X+2172314Y+1869265D01*
X+2416154Y+1869265D02*
X+2436474Y+1869265D01*
X+2802234Y+1869265D02*
X+2827634Y+1869265D01*
X+2898754Y+1869265D02*
X+2929234Y+1869265D01*
X+373994Y+1874345D02*
X+394314Y+1874345D01*
X+500994Y+1874345D02*
X+521314Y+1874345D01*
X+602594Y+1874345D02*
X+617834Y+1874345D01*
X+622914Y+1874345D02*
X+638154Y+1874345D01*
X+719434Y+1874345D02*
X+749914Y+1874345D01*
X+815954Y+1874345D02*
X+846434Y+1874345D01*
X+892154Y+1874345D02*
X+917554Y+1874345D01*
X+993754Y+1874345D02*
X+1014074Y+1874345D01*
X+1095354Y+1874345D02*
X+1115674Y+1874345D01*
X+1196954Y+1874345D02*
X+1222354Y+1874345D01*
X+1283314Y+1874345D02*
X+1313794Y+1874345D01*
X+1450954Y+1874345D02*
X+1471274Y+1874345D01*
X+1577954Y+1874345D02*
X+1598274Y+1874345D01*
X+1730354Y+1874345D02*
X+1750674Y+1874345D01*
X+2035154Y+1874345D02*
X+2055474Y+1874345D01*
X+2151994Y+1874345D02*
X+2172314Y+1874345D01*
X+2416154Y+1874345D02*
X+2436474Y+1874345D01*
X+2807314Y+1874345D02*
X+2832714Y+1874345D01*
X+2893674Y+1874345D02*
X+2924154Y+1874345D01*
X+373994Y+1879425D02*
X+394314Y+1879425D01*
X+500994Y+1879425D02*
X+521314Y+1879425D01*
X+602594Y+1879425D02*
X+617834Y+1879425D01*
X+622914Y+1879425D02*
X+638154Y+1879425D01*
X+724514Y+1879425D02*
X+765154Y+1879425D01*
X+800714Y+1879425D02*
X+841354Y+1879425D01*
X+892154Y+1879425D02*
X+922634Y+1879425D01*
X+993754Y+1879425D02*
X+1014074Y+1879425D01*
X+1095354Y+1879425D02*
X+1115674Y+1879425D01*
X+1196954Y+1879425D02*
X+1232514Y+1879425D01*
X+1273154Y+1879425D02*
X+1308714Y+1879425D01*
X+1450954Y+1879425D02*
X+1471274Y+1879425D01*
X+1577954Y+1879425D02*
X+1598274Y+1879425D01*
X+1730354Y+1879425D02*
X+1750674Y+1879425D01*
X+2035154Y+1879425D02*
X+2055474Y+1879425D01*
X+2151994Y+1879425D02*
X+2172314Y+1879425D01*
X+2416154Y+1879425D02*
X+2436474Y+1879425D01*
X+2807314Y+1879425D02*
X+2842874Y+1879425D01*
X+2883514Y+1879425D02*
X+2919074Y+1879425D01*
X+373994Y+1884505D02*
X+394314Y+1884505D01*
X+500994Y+1884505D02*
X+521314Y+1884505D01*
X+602594Y+1884505D02*
X+638154Y+1884505D01*
X+729594Y+1884505D02*
X+836274Y+1884505D01*
X+897234Y+1884505D02*
X+1014074Y+1884505D01*
X+1039474Y+1884505D02*
X+1171554Y+1884505D01*
X+1202034Y+1884505D02*
X+1303634Y+1884505D01*
X+1354434Y+1884505D02*
X+1471274Y+1884505D01*
X+1577954Y+1884505D02*
X+1598274Y+1884505D01*
X+1633834Y+1884505D02*
X+1750674Y+1884505D01*
X+2035154Y+1884505D02*
X+2055474Y+1884505D01*
X+2151994Y+1884505D02*
X+2172314Y+1884505D01*
X+2416154Y+1884505D02*
X+2436474Y+1884505D01*
X+2812394Y+1884505D02*
X+2913994Y+1884505D01*
X+373994Y+1889585D02*
X+394314Y+1889585D01*
X+500994Y+1889585D02*
X+521314Y+1889585D01*
X+607674Y+1889585D02*
X+633074Y+1889585D01*
X+739754Y+1889585D02*
X+826114Y+1889585D01*
X+897234Y+1889585D02*
X+1014074Y+1889585D01*
X+1039474Y+1889585D02*
X+1171554Y+1889585D01*
X+1212194Y+1889585D02*
X+1298554Y+1889585D01*
X+1354434Y+1889585D02*
X+1471274Y+1889585D01*
X+1577954Y+1889585D02*
X+1598274Y+1889585D01*
X+1633834Y+1889585D02*
X+1750674Y+1889585D01*
X+2035154Y+1889585D02*
X+2055474Y+1889585D01*
X+2151994Y+1889585D02*
X+2172314Y+1889585D01*
X+2416154Y+1889585D02*
X+2431394Y+1889585D01*
X+2822554Y+1889585D02*
X+2908914Y+1889585D01*
X+373994Y+1894665D02*
X+394314Y+1894665D01*
X+500994Y+1894665D02*
X+521314Y+1894665D01*
X+607674Y+1894665D02*
X+633074Y+1894665D01*
X+744834Y+1894665D02*
X+821034Y+1894665D01*
X+907394Y+1894665D02*
X+1014074Y+1894665D01*
X+1039474Y+1894665D02*
X+1171554Y+1894665D01*
X+1217274Y+1894665D02*
X+1288394Y+1894665D01*
X+1354434Y+1894665D02*
X+1471274Y+1894665D01*
X+1577954Y+1894665D02*
X+1598274Y+1894665D01*
X+1633834Y+1894665D02*
X+1750674Y+1894665D01*
X+2035154Y+1894665D02*
X+2055474Y+1894665D01*
X+2151994Y+1894665D02*
X+2172314Y+1894665D01*
X+2416154Y+1894665D02*
X+2421234Y+1894665D01*
X+2827634Y+1894665D02*
X+2898754Y+1894665D01*
X+373994Y+1899745D02*
X+394314Y+1899745D01*
X+500994Y+1899745D02*
X+521314Y+1899745D01*
X+612754Y+1899745D02*
X+627994Y+1899745D01*
X+760074Y+1899745D02*
X+805794Y+1899745D01*
X+917554Y+1899745D02*
X+1014074Y+1899745D01*
X+1039474Y+1899745D02*
X+1171554Y+1899745D01*
X+1232514Y+1899745D02*
X+1273154Y+1899745D01*
X+1354434Y+1899745D02*
X+1471274Y+1899745D01*
X+1577954Y+1899745D02*
X+1598274Y+1899745D01*
X+1633834Y+1899745D02*
X+1750674Y+1899745D01*
X+2035154Y+1899745D02*
X+2055474Y+1899745D01*
X+2151994Y+1899745D02*
X+2172314Y+1899745D01*
X+2842874Y+1899745D02*
X+2883514Y+1899745D01*
X+3701349Y-4708455D02*
X+3721669Y-4708455D01*
X+3929949Y-4708455D02*
X+3950269Y-4708455D01*
X+3701349Y-4703375D02*
X+3721669Y-4703375D01*
X+3929949Y-4703375D02*
X+3950269Y-4703375D01*
X+3701349Y-4698295D02*
X+3721669Y-4698295D01*
X+3929949Y-4698295D02*
X+3950269Y-4698295D01*
X+3701349Y-4693215D02*
X+3721669Y-4693215D01*
X+3929949Y-4693215D02*
X+3950269Y-4693215D01*
X+3701349Y-4688135D02*
X+3721669Y-4688135D01*
X+3929949Y-4688135D02*
X+3950269Y-4688135D01*
X+3701349Y-4683055D02*
X+3721669Y-4683055D01*
X+3929949Y-4683055D02*
X+3950269Y-4683055D01*
X+3701349Y-4677975D02*
X+3721669Y-4677975D01*
X+3929949Y-4677975D02*
X+3950269Y-4677975D01*
X+3701349Y-4672895D02*
X+3721669Y-4672895D01*
X+3929949Y-4672895D02*
X+3950269Y-4672895D01*
X+3701349Y-4667815D02*
X+3721669Y-4667815D01*
X+3929949Y-4667815D02*
X+3950269Y-4667815D01*
X+2807269Y-4662735D02*
X+2827589Y-4662735D01*
X+2847909Y-4662735D02*
X+2878389Y-4662735D01*
X+2959669Y-4662735D02*
X+2979989Y-4662735D01*
X+3035869Y-4662735D02*
X+3076509Y-4662735D01*
X+3233989Y-4662735D02*
X+3254309Y-4662735D01*
X+3493069Y-4662735D02*
X+3513389Y-4662735D01*
X+3538789Y-4662735D02*
X+3579429Y-4662735D01*
X+3655629Y-4662735D02*
X+3681029Y-4662735D01*
X+3701349Y-4662735D02*
X+3721669Y-4662735D01*
X+3752149Y-4662735D02*
X+3772469Y-4662735D01*
X+3802949Y-4662735D02*
X+3823269Y-4662735D01*
X+3843589Y-4662735D02*
X+3874069Y-4662735D01*
X+3929949Y-4662735D02*
X+3950269Y-4662735D01*
X+3970589Y-4662735D02*
X+3995989Y-4662735D01*
X+4082349Y-4662735D02*
X+4122989Y-4662735D01*
X+4209349Y-4662735D02*
X+4229669Y-4662735D01*
X+4249989Y-4662735D02*
X+4270309Y-4662735D01*
X+4376989Y-4662735D02*
X+4397309Y-4662735D01*
X+2807269Y-4657655D02*
X+2827589Y-4657655D01*
X+2842829Y-4657655D02*
X+2888549Y-4657655D01*
X+2959669Y-4657655D02*
X+2979989Y-4657655D01*
X+3025709Y-4657655D02*
X+3086669Y-4657655D01*
X+3233989Y-4657655D02*
X+3254309Y-4657655D01*
X+3493069Y-4657655D02*
X+3518469Y-4657655D01*
X+3528629Y-4657655D02*
X+3589589Y-4657655D01*
X+3645469Y-4657655D02*
X+3691189Y-4657655D01*
X+3701349Y-4657655D02*
X+3721669Y-4657655D01*
X+3752149Y-4657655D02*
X+3772469Y-4657655D01*
X+3802949Y-4657655D02*
X+3823269Y-4657655D01*
X+3838509Y-4657655D02*
X+3884229Y-4657655D01*
X+3929949Y-4657655D02*
X+3950269Y-4657655D01*
X+3960429Y-4657655D02*
X+4006149Y-4657655D01*
X+4072189Y-4657655D02*
X+4133149Y-4657655D01*
X+4209349Y-4657655D02*
X+4229669Y-4657655D01*
X+4249989Y-4657655D02*
X+4275389Y-4657655D01*
X+4371909Y-4657655D02*
X+4397309Y-4657655D01*
X+2807269Y-4652575D02*
X+2827589Y-4652575D01*
X+2832669Y-4652575D02*
X+2893629Y-4652575D01*
X+2959669Y-4652575D02*
X+2979989Y-4652575D01*
X+3020629Y-4652575D02*
X+3091749Y-4652575D01*
X+3233989Y-4652575D02*
X+3254309Y-4652575D01*
X+3498149Y-4652575D02*
X+3518469Y-4652575D01*
X+3523549Y-4652575D02*
X+3594669Y-4652575D01*
X+3640389Y-4652575D02*
X+3696269Y-4652575D01*
X+3701349Y-4652575D02*
X+3721669Y-4652575D01*
X+3752149Y-4652575D02*
X+3772469Y-4652575D01*
X+3802949Y-4652575D02*
X+3823269Y-4652575D01*
X+3828349Y-4652575D02*
X+3889309Y-4652575D01*
X+3929949Y-4652575D02*
X+3950269Y-4652575D01*
X+3955349Y-4652575D02*
X+4011229Y-4652575D01*
X+4067109Y-4652575D02*
X+4138229Y-4652575D01*
X+4209349Y-4652575D02*
X+4229669Y-4652575D01*
X+4255069Y-4652575D02*
X+4275389Y-4652575D01*
X+4371909Y-4652575D02*
X+4392229Y-4652575D01*
X+2807269Y-4647495D02*
X+2827589Y-4647495D01*
X+2832669Y-4647495D02*
X+2898709Y-4647495D01*
X+2959669Y-4647495D02*
X+2979989Y-4647495D01*
X+3015549Y-4647495D02*
X+3096829Y-4647495D01*
X+3233989Y-4647495D02*
X+3254309Y-4647495D01*
X+3498149Y-4647495D02*
X+3594669Y-4647495D01*
X+3635309Y-4647495D02*
X+3721669Y-4647495D01*
X+3752149Y-4647495D02*
X+3772469Y-4647495D01*
X+3802949Y-4647495D02*
X+3823269Y-4647495D01*
X+3828349Y-4647495D02*
X+3894389Y-4647495D01*
X+3929949Y-4647495D02*
X+4016309Y-4647495D01*
X+4062029Y-4647495D02*
X+4143309Y-4647495D01*
X+4209349Y-4647495D02*
X+4229669Y-4647495D01*
X+4255069Y-4647495D02*
X+4275389Y-4647495D01*
X+4371909Y-4647495D02*
X+4392229Y-4647495D01*
X+2807269Y-4642415D02*
X+2847909Y-4642415D01*
X+2873309Y-4642415D02*
X+2903789Y-4642415D01*
X+2959669Y-4642415D02*
X+2979989Y-4642415D01*
X+3010469Y-4642415D02*
X+3040949Y-4642415D01*
X+3071429Y-4642415D02*
X+3101909Y-4642415D01*
X+3233989Y-4642415D02*
X+3254309Y-4642415D01*
X+3498149Y-4642415D02*
X+3538789Y-4642415D01*
X+3569269Y-4642415D02*
X+3599749Y-4642415D01*
X+3630229Y-4642415D02*
X+3660709Y-4642415D01*
X+3681029Y-4642415D02*
X+3721669Y-4642415D01*
X+3752149Y-4642415D02*
X+3772469Y-4642415D01*
X+3802949Y-4642415D02*
X+3843589Y-4642415D01*
X+3868989Y-4642415D02*
X+3899469Y-4642415D01*
X+3929949Y-4642415D02*
X+3970589Y-4642415D01*
X+3990909Y-4642415D02*
X+4021389Y-4642415D01*
X+4056949Y-4642415D02*
X+4087429Y-4642415D01*
X+4117909Y-4642415D02*
X+4148389Y-4642415D01*
X+4209349Y-4642415D02*
X+4229669Y-4642415D01*
X+4260149Y-4642415D02*
X+4280469Y-4642415D01*
X+4366829Y-4642415D02*
X+4387149Y-4642415D01*
X+2807269Y-4637335D02*
X+2837749Y-4637335D01*
X+2878389Y-4637335D02*
X+2903789Y-4637335D01*
X+2959669Y-4637335D02*
X+2979989Y-4637335D01*
X+3010469Y-4637335D02*
X+3035869Y-4637335D01*
X+3081589Y-4637335D02*
X+3106989Y-4637335D01*
X+3233989Y-4637335D02*
X+3254309Y-4637335D01*
X+3498149Y-4637335D02*
X+3528629Y-4637335D01*
X+3579429Y-4637335D02*
X+3599749Y-4637335D01*
X+3625149Y-4637335D02*
X+3650549Y-4637335D01*
X+3691189Y-4637335D02*
X+3721669Y-4637335D01*
X+3752149Y-4637335D02*
X+3772469Y-4637335D01*
X+3802949Y-4637335D02*
X+3833429Y-4637335D01*
X+3874069Y-4637335D02*
X+3899469Y-4637335D01*
X+3929949Y-4637335D02*
X+3960429Y-4637335D01*
X+4001069Y-4637335D02*
X+4026469Y-4637335D01*
X+4056949Y-4637335D02*
X+4082349Y-4637335D01*
X+4128069Y-4637335D02*
X+4153469Y-4637335D01*
X+4209349Y-4637335D02*
X+4229669Y-4637335D01*
X+4260149Y-4637335D02*
X+4280469Y-4637335D01*
X+4366829Y-4637335D02*
X+4387149Y-4637335D01*
X+2807269Y-4632255D02*
X+2832669Y-4632255D01*
X+2883469Y-4632255D02*
X+2903789Y-4632255D01*
X+2959669Y-4632255D02*
X+2979989Y-4632255D01*
X+3005389Y-4632255D02*
X+3030789Y-4632255D01*
X+3086669Y-4632255D02*
X+3106989Y-4632255D01*
X+3233989Y-4632255D02*
X+3254309Y-4632255D01*
X+3498149Y-4632255D02*
X+3523549Y-4632255D01*
X+3579429Y-4632255D02*
X+3599749Y-4632255D01*
X+3625149Y-4632255D02*
X+3645469Y-4632255D01*
X+3696269Y-4632255D02*
X+3721669Y-4632255D01*
X+3752149Y-4632255D02*
X+3772469Y-4632255D01*
X+3802949Y-4632255D02*
X+3828349Y-4632255D01*
X+3879149Y-4632255D02*
X+3899469Y-4632255D01*
X+3929949Y-4632255D02*
X+3955349Y-4632255D01*
X+4006149Y-4632255D02*
X+4026469Y-4632255D01*
X+4051869Y-4632255D02*
X+4077269Y-4632255D01*
X+4133149Y-4632255D02*
X+4153469Y-4632255D01*
X+4209349Y-4632255D02*
X+4229669Y-4632255D01*
X+4260149Y-4632255D02*
X+4280469Y-4632255D01*
X+4366829Y-4632255D02*
X+4387149Y-4632255D01*
X+2807269Y-4627175D02*
X+2832669Y-4627175D01*
X+2883469Y-4627175D02*
X+2903789Y-4627175D01*
X+2959669Y-4627175D02*
X+2979989Y-4627175D01*
X+3015549Y-4627175D02*
X+3025709Y-4627175D01*
X+3086669Y-4627175D02*
X+3106989Y-4627175D01*
X+3233989Y-4627175D02*
X+3254309Y-4627175D01*
X+3498149Y-4627175D02*
X+3518469Y-4627175D01*
X+3579429Y-4627175D02*
X+3599749Y-4627175D01*
X+3625149Y-4627175D02*
X+3645469Y-4627175D01*
X+3696269Y-4627175D02*
X+3721669Y-4627175D01*
X+3752149Y-4627175D02*
X+3772469Y-4627175D01*
X+3802949Y-4627175D02*
X+3828349Y-4627175D01*
X+3879149Y-4627175D02*
X+3899469Y-4627175D01*
X+3929949Y-4627175D02*
X+3955349Y-4627175D01*
X+4006149Y-4627175D02*
X+4026469Y-4627175D01*
X+4062029Y-4627175D02*
X+4072189Y-4627175D01*
X+4133149Y-4627175D02*
X+4153469Y-4627175D01*
X+4209349Y-4627175D02*
X+4229669Y-4627175D01*
X+4265229Y-4627175D02*
X+4285549Y-4627175D01*
X+4361749Y-4627175D02*
X+4382069Y-4627175D01*
X+2807269Y-4622095D02*
X+2827589Y-4622095D01*
X+2883469Y-4622095D02*
X+2903789Y-4622095D01*
X+2959669Y-4622095D02*
X+2979989Y-4622095D01*
X+3091749Y-4622095D02*
X+3112069Y-4622095D01*
X+3233989Y-4622095D02*
X+3254309Y-4622095D01*
X+3498149Y-4622095D02*
X+3518469Y-4622095D01*
X+3574349Y-4622095D02*
X+3599749Y-4622095D01*
X+3620069Y-4622095D02*
X+3640389Y-4622095D01*
X+3701349Y-4622095D02*
X+3721669Y-4622095D01*
X+3752149Y-4622095D02*
X+3772469Y-4622095D01*
X+3802949Y-4622095D02*
X+3823269Y-4622095D01*
X+3879149Y-4622095D02*
X+3899469Y-4622095D01*
X+3929949Y-4622095D02*
X+3950269Y-4622095D01*
X+4011229Y-4622095D02*
X+4031549Y-4622095D01*
X+4138229Y-4622095D02*
X+4158549Y-4622095D01*
X+4209349Y-4622095D02*
X+4229669Y-4622095D01*
X+4265229Y-4622095D02*
X+4285549Y-4622095D01*
X+4361749Y-4622095D02*
X+4382069Y-4622095D01*
X+2807269Y-4617015D02*
X+2827589Y-4617015D01*
X+2883469Y-4617015D02*
X+2903789Y-4617015D01*
X+2959669Y-4617015D02*
X+2979989Y-4617015D01*
X+3091749Y-4617015D02*
X+3112069Y-4617015D01*
X+3233989Y-4617015D02*
X+3254309Y-4617015D01*
X+3498149Y-4617015D02*
X+3518469Y-4617015D01*
X+3564189Y-4617015D02*
X+3594669Y-4617015D01*
X+3620069Y-4617015D02*
X+3640389Y-4617015D01*
X+3701349Y-4617015D02*
X+3721669Y-4617015D01*
X+3752149Y-4617015D02*
X+3772469Y-4617015D01*
X+3802949Y-4617015D02*
X+3823269Y-4617015D01*
X+3879149Y-4617015D02*
X+3899469Y-4617015D01*
X+3929949Y-4617015D02*
X+3950269Y-4617015D01*
X+4011229Y-4617015D02*
X+4031549Y-4617015D01*
X+4138229Y-4617015D02*
X+4158549Y-4617015D01*
X+4209349Y-4617015D02*
X+4229669Y-4617015D01*
X+4270309Y-4617015D02*
X+4290629Y-4617015D01*
X+4356669Y-4617015D02*
X+4376989Y-4617015D01*
X+2807269Y-4611935D02*
X+2827589Y-4611935D01*
X+2883469Y-4611935D02*
X+2903789Y-4611935D01*
X+2959669Y-4611935D02*
X+2979989Y-4611935D01*
X+3091749Y-4611935D02*
X+3112069Y-4611935D01*
X+3233989Y-4611935D02*
X+3254309Y-4611935D01*
X+3350829Y-4611935D02*
X+3411789Y-4611935D01*
X+3498149Y-4611935D02*
X+3518469Y-4611935D01*
X+3528629Y-4611935D02*
X+3594669Y-4611935D01*
X+3620069Y-4611935D02*
X+3640389Y-4611935D01*
X+3701349Y-4611935D02*
X+3721669Y-4611935D01*
X+3752149Y-4611935D02*
X+3772469Y-4611935D01*
X+3802949Y-4611935D02*
X+3823269Y-4611935D01*
X+3879149Y-4611935D02*
X+3899469Y-4611935D01*
X+3929949Y-4611935D02*
X+3950269Y-4611935D01*
X+4011229Y-4611935D02*
X+4031549Y-4611935D01*
X+4138229Y-4611935D02*
X+4158549Y-4611935D01*
X+4209349Y-4611935D02*
X+4229669Y-4611935D01*
X+4270309Y-4611935D02*
X+4376989Y-4611935D01*
X+2807269Y-4606855D02*
X+2827589Y-4606855D01*
X+2883469Y-4606855D02*
X+2903789Y-4606855D01*
X+2959669Y-4606855D02*
X+2979989Y-4606855D01*
X+3005389Y-4606855D02*
X+3112069Y-4606855D01*
X+3233989Y-4606855D02*
X+3254309Y-4606855D01*
X+3350829Y-4606855D02*
X+3411789Y-4606855D01*
X+3498149Y-4606855D02*
X+3589589Y-4606855D01*
X+3620069Y-4606855D02*
X+3640389Y-4606855D01*
X+3701349Y-4606855D02*
X+3721669Y-4606855D01*
X+3752149Y-4606855D02*
X+3772469Y-4606855D01*
X+3802949Y-4606855D02*
X+3823269Y-4606855D01*
X+3879149Y-4606855D02*
X+3899469Y-4606855D01*
X+3929949Y-4606855D02*
X+3950269Y-4606855D01*
X+4011229Y-4606855D02*
X+4031549Y-4606855D01*
X+4051869Y-4606855D02*
X+4158549Y-4606855D01*
X+4209349Y-4606855D02*
X+4229669Y-4606855D01*
X+4275389Y-4606855D02*
X+4371909Y-4606855D01*
X+2807269Y-4601775D02*
X+2827589Y-4601775D01*
X+2883469Y-4601775D02*
X+2903789Y-4601775D01*
X+2959669Y-4601775D02*
X+2979989Y-4601775D01*
X+3005389Y-4601775D02*
X+3112069Y-4601775D01*
X+3233989Y-4601775D02*
X+3254309Y-4601775D01*
X+3350829Y-4601775D02*
X+3411789Y-4601775D01*
X+3498149Y-4601775D02*
X+3579429Y-4601775D01*
X+3620069Y-4601775D02*
X+3640389Y-4601775D01*
X+3701349Y-4601775D02*
X+3721669Y-4601775D01*
X+3752149Y-4601775D02*
X+3772469Y-4601775D01*
X+3802949Y-4601775D02*
X+3823269Y-4601775D01*
X+3879149Y-4601775D02*
X+3899469Y-4601775D01*
X+3929949Y-4601775D02*
X+3950269Y-4601775D01*
X+4011229Y-4601775D02*
X+4031549Y-4601775D01*
X+4051869Y-4601775D02*
X+4158549Y-4601775D01*
X+4209349Y-4601775D02*
X+4229669Y-4601775D01*
X+4275389Y-4601775D02*
X+4371909Y-4601775D01*
X+2807269Y-4596695D02*
X+2827589Y-4596695D01*
X+2883469Y-4596695D02*
X+2903789Y-4596695D01*
X+2959669Y-4596695D02*
X+2979989Y-4596695D01*
X+3005389Y-4596695D02*
X+3112069Y-4596695D01*
X+3167949Y-4596695D02*
X+3254309Y-4596695D01*
X+3350829Y-4596695D02*
X+3411789Y-4596695D01*
X+3498149Y-4596695D02*
X+3559109Y-4596695D01*
X+3620069Y-4596695D02*
X+3640389Y-4596695D01*
X+3701349Y-4596695D02*
X+3721669Y-4596695D01*
X+3752149Y-4596695D02*
X+3772469Y-4596695D01*
X+3802949Y-4596695D02*
X+3823269Y-4596695D01*
X+3879149Y-4596695D02*
X+3899469Y-4596695D01*
X+3929949Y-4596695D02*
X+3950269Y-4596695D01*
X+4011229Y-4596695D02*
X+4031549Y-4596695D01*
X+4051869Y-4596695D02*
X+4158549Y-4596695D01*
X+4209349Y-4596695D02*
X+4229669Y-4596695D01*
X+4275389Y-4596695D02*
X+4371909Y-4596695D01*
X+2807269Y-4591615D02*
X+2827589Y-4591615D01*
X+2883469Y-4591615D02*
X+2903789Y-4591615D01*
X+2959669Y-4591615D02*
X+2979989Y-4591615D01*
X+3005389Y-4591615D02*
X+3112069Y-4591615D01*
X+3152709Y-4591615D02*
X+3254309Y-4591615D01*
X+3498149Y-4591615D02*
X+3528629Y-4591615D01*
X+3620069Y-4591615D02*
X+3640389Y-4591615D01*
X+3701349Y-4591615D02*
X+3721669Y-4591615D01*
X+3752149Y-4591615D02*
X+3772469Y-4591615D01*
X+3802949Y-4591615D02*
X+3823269Y-4591615D01*
X+3879149Y-4591615D02*
X+3899469Y-4591615D01*
X+3929949Y-4591615D02*
X+3950269Y-4591615D01*
X+4011229Y-4591615D02*
X+4031549Y-4591615D01*
X+4051869Y-4591615D02*
X+4158549Y-4591615D01*
X+4209349Y-4591615D02*
X+4229669Y-4591615D01*
X+4280469Y-4591615D02*
X+4295709Y-4591615D01*
X+4351589Y-4591615D02*
X+4366829Y-4591615D01*
X+2807269Y-4586535D02*
X+2827589Y-4586535D01*
X+2883469Y-4586535D02*
X+2903789Y-4586535D01*
X+2959669Y-4586535D02*
X+2979989Y-4586535D01*
X+3005389Y-4586535D02*
X+3025709Y-4586535D01*
X+3091749Y-4586535D02*
X+3112069Y-4586535D01*
X+3147629Y-4586535D02*
X+3254309Y-4586535D01*
X+3498149Y-4586535D02*
X+3518469Y-4586535D01*
X+3620069Y-4586535D02*
X+3640389Y-4586535D01*
X+3696269Y-4586535D02*
X+3721669Y-4586535D01*
X+3752149Y-4586535D02*
X+3772469Y-4586535D01*
X+3802949Y-4586535D02*
X+3823269Y-4586535D01*
X+3879149Y-4586535D02*
X+3899469Y-4586535D01*
X+3929949Y-4586535D02*
X+3955349Y-4586535D01*
X+4011229Y-4586535D02*
X+4031549Y-4586535D01*
X+4051869Y-4586535D02*
X+4072189Y-4586535D01*
X+4138229Y-4586535D02*
X+4158549Y-4586535D01*
X+4209349Y-4586535D02*
X+4229669Y-4586535D01*
X+4280469Y-4586535D02*
X+4300789Y-4586535D01*
X+4346509Y-4586535D02*
X+4366829Y-4586535D01*
X+2807269Y-4581455D02*
X+2827589Y-4581455D01*
X+2883469Y-4581455D02*
X+2903789Y-4581455D01*
X+2959669Y-4581455D02*
X+2979989Y-4581455D01*
X+3010469Y-4581455D02*
X+3025709Y-4581455D01*
X+3091749Y-4581455D02*
X+3106989Y-4581455D01*
X+3142549Y-4581455D02*
X+3254309Y-4581455D01*
X+3498149Y-4581455D02*
X+3518469Y-4581455D01*
X+3574349Y-4581455D02*
X+3584509Y-4581455D01*
X+3625149Y-4581455D02*
X+3645469Y-4581455D01*
X+3696269Y-4581455D02*
X+3721669Y-4581455D01*
X+3752149Y-4581455D02*
X+3772469Y-4581455D01*
X+3802949Y-4581455D02*
X+3823269Y-4581455D01*
X+3879149Y-4581455D02*
X+3899469Y-4581455D01*
X+3929949Y-4581455D02*
X+3955349Y-4581455D01*
X+4006149Y-4581455D02*
X+4026469Y-4581455D01*
X+4056949Y-4581455D02*
X+4072189Y-4581455D01*
X+4138229Y-4581455D02*
X+4153469Y-4581455D01*
X+4209349Y-4581455D02*
X+4229669Y-4581455D01*
X+4285549Y-4581455D02*
X+4300789Y-4581455D01*
X+4346509Y-4581455D02*
X+4361749Y-4581455D01*
X+2807269Y-4576375D02*
X+2827589Y-4576375D01*
X+2883469Y-4576375D02*
X+2903789Y-4576375D01*
X+2954589Y-4576375D02*
X+2979989Y-4576375D01*
X+3010469Y-4576375D02*
X+3030789Y-4576375D01*
X+3086669Y-4576375D02*
X+3106989Y-4576375D01*
X+3137469Y-4576375D02*
X+3173029Y-4576375D01*
X+3233989Y-4576375D02*
X+3254309Y-4576375D01*
X+3498149Y-4576375D02*
X+3518469Y-4576375D01*
X+3569269Y-4576375D02*
X+3594669Y-4576375D01*
X+3625149Y-4576375D02*
X+3645469Y-4576375D01*
X+3691189Y-4576375D02*
X+3721669Y-4576375D01*
X+3752149Y-4576375D02*
X+3772469Y-4576375D01*
X+3802949Y-4576375D02*
X+3823269Y-4576375D01*
X+3879149Y-4576375D02*
X+3899469Y-4576375D01*
X+3929949Y-4576375D02*
X+3960429Y-4576375D01*
X+4006149Y-4576375D02*
X+4026469Y-4576375D01*
X+4056949Y-4576375D02*
X+4077269Y-4576375D01*
X+4133149Y-4576375D02*
X+4153469Y-4576375D01*
X+4204269Y-4576375D02*
X+4229669Y-4576375D01*
X+4285549Y-4576375D02*
X+4305869Y-4576375D01*
X+4341429Y-4576375D02*
X+4361749Y-4576375D01*
X+2807269Y-4571295D02*
X+2827589Y-4571295D01*
X+2883469Y-4571295D02*
X+2903789Y-4571295D01*
X+2954589Y-4571295D02*
X+2979989Y-4571295D01*
X+3010469Y-4571295D02*
X+3035869Y-4571295D01*
X+3081589Y-4571295D02*
X+3106989Y-4571295D01*
X+3137469Y-4571295D02*
X+3162869Y-4571295D01*
X+3233989Y-4571295D02*
X+3254309Y-4571295D01*
X+3498149Y-4571295D02*
X+3523549Y-4571295D01*
X+3569269Y-4571295D02*
X+3594669Y-4571295D01*
X+3625149Y-4571295D02*
X+3650549Y-4571295D01*
X+3691189Y-4571295D02*
X+3721669Y-4571295D01*
X+3752149Y-4571295D02*
X+3772469Y-4571295D01*
X+3802949Y-4571295D02*
X+3823269Y-4571295D01*
X+3879149Y-4571295D02*
X+3899469Y-4571295D01*
X+3929949Y-4571295D02*
X+3960429Y-4571295D01*
X+4001069Y-4571295D02*
X+4026469Y-4571295D01*
X+4056949Y-4571295D02*
X+4082349Y-4571295D01*
X+4128069Y-4571295D02*
X+4153469Y-4571295D01*
X+4204269Y-4571295D02*
X+4229669Y-4571295D01*
X+4285549Y-4571295D02*
X+4305869Y-4571295D01*
X+4341429Y-4571295D02*
X+4361749Y-4571295D01*
X+2807269Y-4566215D02*
X+2827589Y-4566215D01*
X+2883469Y-4566215D02*
X+2903789Y-4566215D01*
X+2919029Y-4566215D02*
X+2929189Y-4566215D01*
X+2944429Y-4566215D02*
X+2979989Y-4566215D01*
X+3015549Y-4566215D02*
X+3040949Y-4566215D01*
X+3071429Y-4566215D02*
X+3101909Y-4566215D01*
X+3132389Y-4566215D02*
X+3157789Y-4566215D01*
X+3233989Y-4566215D02*
X+3254309Y-4566215D01*
X+3498149Y-4566215D02*
X+3528629Y-4566215D01*
X+3559109Y-4566215D02*
X+3589589Y-4566215D01*
X+3630229Y-4566215D02*
X+3660709Y-4566215D01*
X+3681029Y-4566215D02*
X+3721669Y-4566215D01*
X+3752149Y-4566215D02*
X+3772469Y-4566215D01*
X+3802949Y-4566215D02*
X+3823269Y-4566215D01*
X+3879149Y-4566215D02*
X+3899469Y-4566215D01*
X+3929949Y-4566215D02*
X+3970589Y-4566215D01*
X+3990909Y-4566215D02*
X+4021389Y-4566215D01*
X+4062029Y-4566215D02*
X+4087429Y-4566215D01*
X+4117909Y-4566215D02*
X+4148389Y-4566215D01*
X+4168709Y-4566215D02*
X+4178869Y-4566215D01*
X+4194109Y-4566215D02*
X+4229669Y-4566215D01*
X+4290629Y-4566215D02*
X+4305869Y-4566215D01*
X+4341429Y-4566215D02*
X+4356669Y-4566215D01*
X+2807269Y-4561135D02*
X+2827589Y-4561135D01*
X+2883469Y-4561135D02*
X+2903789Y-4561135D01*
X+2919029Y-4561135D02*
X+2979989Y-4561135D01*
X+3020629Y-4561135D02*
X+3096829Y-4561135D01*
X+3132389Y-4561135D02*
X+3152709Y-4561135D01*
X+3233989Y-4561135D02*
X+3254309Y-4561135D01*
X+3503229Y-4561135D02*
X+3589589Y-4561135D01*
X+3630229Y-4561135D02*
X+3696269Y-4561135D01*
X+3701349Y-4561135D02*
X+3721669Y-4561135D01*
X+3752149Y-4561135D02*
X+3772469Y-4561135D01*
X+3802949Y-4561135D02*
X+3823269Y-4561135D01*
X+3879149Y-4561135D02*
X+3899469Y-4561135D01*
X+3929949Y-4561135D02*
X+3950269Y-4561135D01*
X+3955349Y-4561135D02*
X+4021389Y-4561135D01*
X+4067109Y-4561135D02*
X+4143309Y-4561135D01*
X+4168709Y-4561135D02*
X+4229669Y-4561135D01*
X+4290629Y-4561135D02*
X+4310949Y-4561135D01*
X+4336349Y-4561135D02*
X+4356669Y-4561135D01*
X+2807269Y-4556055D02*
X+2827589Y-4556055D01*
X+2883469Y-4556055D02*
X+2903789Y-4556055D01*
X+2913949Y-4556055D02*
X+2959669Y-4556055D01*
X+2964749Y-4556055D02*
X+2979989Y-4556055D01*
X+3025709Y-4556055D02*
X+3091749Y-4556055D01*
X+3132389Y-4556055D02*
X+3152709Y-4556055D01*
X+3233989Y-4556055D02*
X+3254309Y-4556055D01*
X+3503229Y-4556055D02*
X+3584509Y-4556055D01*
X+3635309Y-4556055D02*
X+3696269Y-4556055D01*
X+3701349Y-4556055D02*
X+3721669Y-4556055D01*
X+3752149Y-4556055D02*
X+3772469Y-4556055D01*
X+3802949Y-4556055D02*
X+3823269Y-4556055D01*
X+3879149Y-4556055D02*
X+3899469Y-4556055D01*
X+3929949Y-4556055D02*
X+3950269Y-4556055D01*
X+3955349Y-4556055D02*
X+4016309Y-4556055D01*
X+4072189Y-4556055D02*
X+4138229Y-4556055D01*
X+4163629Y-4556055D02*
X+4209349Y-4556055D01*
X+4214429Y-4556055D02*
X+4229669Y-4556055D01*
X+4295709Y-4556055D02*
X+4310949Y-4556055D01*
X+4336349Y-4556055D02*
X+4351589Y-4556055D01*
X+2807269Y-4550975D02*
X+2827589Y-4550975D01*
X+2883469Y-4550975D02*
X+2903789Y-4550975D01*
X+2913949Y-4550975D02*
X+2954589Y-4550975D01*
X+2964749Y-4550975D02*
X+2979989Y-4550975D01*
X+3030789Y-4550975D02*
X+3086669Y-4550975D01*
X+3132389Y-4550975D02*
X+3152709Y-4550975D01*
X+3233989Y-4550975D02*
X+3254309Y-4550975D01*
X+3513389Y-4550975D02*
X+3574349Y-4550975D01*
X+3640389Y-4550975D02*
X+3691189Y-4550975D01*
X+3701349Y-4550975D02*
X+3721669Y-4550975D01*
X+3752149Y-4550975D02*
X+3772469Y-4550975D01*
X+3802949Y-4550975D02*
X+3823269Y-4550975D01*
X+3879149Y-4550975D02*
X+3899469Y-4550975D01*
X+3929949Y-4550975D02*
X+3950269Y-4550975D01*
X+3960429Y-4550975D02*
X+4011229Y-4550975D01*
X+4077269Y-4550975D02*
X+4133149Y-4550975D01*
X+4163629Y-4550975D02*
X+4204269Y-4550975D01*
X+4214429Y-4550975D02*
X+4229669Y-4550975D01*
X+4295709Y-4550975D02*
X+4310949Y-4550975D01*
X+4336349Y-4550975D02*
X+4351589Y-4550975D01*
X+2924109Y-4545895D02*
X+2949509Y-4545895D01*
X+3040949Y-4545895D02*
X+3076509Y-4545895D01*
X+3132389Y-4545895D02*
X+3152709Y-4545895D01*
X+3233989Y-4545895D02*
X+3254309Y-4545895D01*
X+3523549Y-4545895D02*
X+3564189Y-4545895D01*
X+3650549Y-4545895D02*
X+3681029Y-4545895D01*
X+3970589Y-4545895D02*
X+4001069Y-4545895D01*
X+4087429Y-4545895D02*
X+4122989Y-4545895D01*
X+4173789Y-4545895D02*
X+4199189Y-4545895D01*
X+4295709Y-4545895D02*
X+4316029Y-4545895D01*
X+4331269Y-4545895D02*
X+4351589Y-4545895D01*
X+3132389Y-4540815D02*
X+3152709Y-4540815D01*
X+3233989Y-4540815D02*
X+3254309Y-4540815D01*
X+4300789Y-4540815D02*
X+4316029Y-4540815D01*
X+4331269Y-4540815D02*
X+4346509Y-4540815D01*
X+3132389Y-4535735D02*
X+3157789Y-4535735D01*
X+3233989Y-4535735D02*
X+3254309Y-4535735D01*
X+4300789Y-4535735D02*
X+4321109Y-4535735D01*
X+4326189Y-4535735D02*
X+4346509Y-4535735D01*
X+3137469Y-4530655D02*
X+3162869Y-4530655D01*
X+3233989Y-4530655D02*
X+3254309Y-4530655D01*
X+4305869Y-4530655D02*
X+4321109Y-4530655D01*
X+4326189Y-4530655D02*
X+4341429Y-4530655D01*
X+2852989Y-4525575D02*
X+2868229Y-4525575D01*
X+3137469Y-4525575D02*
X+3167949Y-4525575D01*
X+3233989Y-4525575D02*
X+3254309Y-4525575D01*
X+4305869Y-4525575D02*
X+4321109Y-4525575D01*
X+4326189Y-4525575D02*
X+4341429Y-4525575D01*
X+2847909Y-4520495D02*
X+2863149Y-4520495D01*
X+3142549Y-4520495D02*
X+3254309Y-4520495D01*
X+3752149Y-4520495D02*
X+3772469Y-4520495D01*
X+4305869Y-4520495D02*
X+4341429Y-4520495D01*
X+2842829Y-4515415D02*
X+2863149Y-4515415D01*
X+3147629Y-4515415D02*
X+3254309Y-4515415D01*
X+3752149Y-4515415D02*
X+3772469Y-4515415D01*
X+4310949Y-4515415D02*
X+4336349Y-4515415D01*
X+2837749Y-4510335D02*
X+2858069Y-4510335D01*
X+3152709Y-4510335D02*
X+3254309Y-4510335D01*
X+3752149Y-4510335D02*
X+3772469Y-4510335D01*
X+4310949Y-4510335D02*
X+4336349Y-4510335D01*
X+2832669Y-4505255D02*
X+2858069Y-4505255D01*
X+3162869Y-4505255D02*
X+3254309Y-4505255D01*
X+3752149Y-4505255D02*
X+3772469Y-4505255D01*
X+4316029Y-4505255D02*
X+4331269Y-4505255D01*
X+2827589Y-4500175D02*
X+2852989Y-4500175D01*
M02*
