G04 PROTEUS RS274X GERBER FILE*
%FSLAX45Y45*%
%MOMM*%
G01*
%ADD10C,0.254000*%
%ADD14C,1.016000*%
%ADD11C,0.762000*%
%ADD12C,1.270000*%
%ADD16C,2.032000*%
%ADD13C,0.508000*%
%ADD15C,0.381000*%
%ADD19C,0.762000*%
%ADD70C,1.524000*%
%ADD71C,4.000000*%
%ADD23C,3.048000*%
%ADD24C,1.016000*%
%ADD25C,1.651000*%
%ADD31C,2.032000*%
%ADD32R,1.280000X1.280000*%
%ADD33C,0.254000*%
%ADD34C,1.280000*%
%ADD35R,1.120000X1.120000*%
%ADD36C,1.120000*%
%ADD38C,1.397000*%
%ADD39R,2.032000X2.032000*%
%ADD42C,1.778000*%
%ADD43C,0.203200*%
D10*
X-571500Y+1841500D02*
X-696000Y+1966000D01*
X-696000Y+2170000D01*
D14*
X-3492500Y-1714500D02*
X-3492500Y-2047260D01*
X-4154000Y-2708760D01*
D11*
X-3492500Y-254000D02*
X-3746500Y+0D01*
X-3746500Y+254000D01*
X-3492500Y-254000D02*
X-3492500Y-1206500D01*
D10*
X-3746500Y+825500D02*
X-3746500Y+254000D01*
D11*
X-3746500Y+1333500D02*
X-3746500Y+825500D01*
X-3492500Y-1714500D02*
X-3492500Y-1206500D01*
X-3746500Y+1333500D02*
X-3746500Y+1714500D01*
D12*
X+1713000Y+131000D02*
X+1713000Y+773000D01*
X+1713000Y-451000D02*
X+1713000Y+131000D01*
X+1637000Y-1939000D02*
X+1637000Y-1333500D01*
X+1700000Y-1270500D01*
X+1700000Y-1060000D01*
X+1617000Y-3853000D02*
X+1617000Y-3492500D01*
X+1637000Y-3472500D01*
X+1637000Y-3185000D01*
X+1700000Y-1060000D02*
X+1700000Y-762000D01*
X+1713000Y-749000D01*
X+1713000Y-451000D01*
X+1637000Y-3185000D02*
X+1637000Y-2857500D01*
X+1627000Y-2847500D01*
X+1627000Y-2567000D01*
D10*
X-698500Y-825500D02*
X-1270000Y-825500D01*
X-1460500Y-635000D01*
X-952500Y-1714500D02*
X-381000Y-1714500D01*
X-571500Y-1587500D02*
X-381000Y-1587500D01*
X-317500Y-1524000D01*
X-317500Y-190500D01*
X-190500Y-63500D01*
X-2222500Y+889000D02*
X-2222500Y-2476500D01*
X-825500Y+127000D02*
X-1397000Y+127000D01*
X-1460500Y+190500D01*
X-1460500Y+1397000D01*
X-1651000Y+1968500D02*
X-1651000Y+698500D01*
X-1524000Y+571500D01*
X-1524000Y-63500D01*
X-1460500Y-127000D01*
X-825500Y-127000D01*
X-698500Y+254000D02*
X-1270000Y+254000D01*
X-1333500Y+317500D01*
X-1333500Y+1841500D01*
X-698500Y+0D02*
X-571500Y+127000D01*
X-571500Y+381000D01*
X-1016000Y+825500D01*
X-1016000Y+1587500D01*
X-889000Y+1714500D01*
X-317500Y+762000D02*
X-317500Y+444500D01*
X-889000Y+1524000D02*
X-762000Y+1397000D01*
X-762000Y+825500D01*
X-444500Y+508000D01*
X-444500Y-1016000D01*
X-698500Y-1270000D01*
X-698500Y-1143000D02*
X-508000Y-952500D01*
X-508000Y+444500D01*
X-889000Y+825500D01*
X-889000Y+1333500D01*
X-1587500Y-2095500D02*
X-1587500Y-1587500D01*
X-1270000Y-1270000D01*
D16*
X+3427000Y-2577000D02*
X+3427000Y-2286000D01*
X+3437000Y-2276000D01*
X+3437000Y-1949000D01*
X+3500000Y-1070000D02*
X+3500000Y-635000D01*
X+3513000Y-622000D01*
X+3513000Y-461000D01*
X+3513000Y+121000D02*
X+3513000Y+763000D01*
X+3513000Y-461000D02*
X+3513000Y+121000D01*
D10*
X+1651000Y+4191000D02*
X+952500Y+4889500D01*
X+365420Y+4889500D01*
X+301920Y+4826000D01*
X+301920Y+4479780D01*
D13*
X-1270000Y-1460500D02*
X-1270000Y-2667000D01*
D10*
X-1016000Y+2921000D02*
X-1206500Y+2921000D01*
X-1270000Y+2857500D01*
X-1270000Y+2667000D01*
X+2095500Y+3746500D02*
X+1841500Y+4000500D01*
X+1016000Y+4000500D01*
X-2413000Y+1333500D02*
X-2413000Y+1524000D01*
X-2032000Y+1905000D01*
D12*
X-1715000Y-2930000D02*
X-1860000Y-3075000D01*
X-1860000Y-3880000D01*
D10*
X-427000Y+4649780D02*
X-810220Y+4649780D01*
X-1030000Y+4430000D01*
X+773000Y+4649780D02*
X+773000Y+4381500D01*
X+889000Y+4265500D01*
X+889000Y+4127500D01*
X-1968500Y+2286000D02*
X-1968500Y+2095500D01*
X-2032000Y+2032000D01*
X-2032000Y+1905000D01*
X+1016000Y+4127500D02*
X+889000Y+4127500D01*
X-2413000Y+762000D02*
X-2413000Y-190500D01*
X-825500Y-381000D02*
X-1651000Y-381000D01*
D13*
X-1715000Y-2930000D02*
X-1452000Y-2667000D01*
X-1270000Y-2667000D01*
D10*
X-2413000Y-825500D02*
X-2413000Y-190500D01*
X-2413000Y-1270000D02*
X-2413000Y-1905000D01*
D12*
X-3170000Y-2665000D02*
X-2538000Y-2665000D01*
X-2413000Y-2540000D01*
X-2413000Y-1905000D01*
D10*
X-2413000Y+762000D02*
X-2413000Y+1333500D01*
X-1968500Y+2286000D02*
X-2095500Y+2413000D01*
X-2095500Y+2794000D01*
X-1968500Y+2921000D01*
X-2413000Y-825500D02*
X-2413000Y-1270000D01*
X-3370000Y+2970000D02*
X-3370000Y+3210000D01*
X+1016000Y+4127500D02*
X+1016000Y+4000500D01*
X-2354000Y+3660000D02*
X-2499500Y+3660000D01*
X-2603500Y+3556000D01*
X-2603500Y+3459500D01*
X-2354000Y+3210000D01*
X-2159000Y+3365500D02*
X-2213500Y+3420000D01*
X-2360000Y+3420000D01*
X-2354000Y+2970000D02*
X-2222500Y+3101500D01*
X-2222500Y+3302000D01*
X-2159000Y+3365500D01*
X-1935000Y+3589500D01*
X-1935000Y+4478500D01*
X-1841500Y+4572000D01*
X-1493500Y+4572000D01*
X-1430000Y+4508500D01*
X-1430000Y+3652500D01*
X-1333500Y+3556000D01*
X-444500Y+3556000D01*
X-381000Y+3492500D01*
X-381000Y+2984500D01*
X-317500Y+2921000D01*
X-190500Y+2921000D01*
X-127000Y+2984500D01*
X-950000Y+3250000D02*
X-635000Y+2935000D01*
X-635000Y+2667000D01*
X-950000Y+2742000D02*
X-1152000Y+2540000D01*
X-1333500Y+2540000D01*
X-1397000Y+2603500D01*
X-1397000Y+2921000D01*
X-1333500Y+2984500D01*
X-950000Y+2742000D02*
X-748000Y+2540000D01*
X-635000Y+2540000D01*
X+1079500Y+3175000D02*
X+698500Y+3175000D01*
X+635000Y+3238500D01*
X+635000Y+3937000D01*
X+571500Y+4000500D01*
X-1236500Y+4000500D01*
X-1300000Y+4064000D01*
X-1300000Y+4430000D01*
X+381000Y+3238500D02*
X+381000Y+2794000D01*
X+444500Y+2730500D01*
X+952500Y+2730500D01*
X+190500Y+3048000D02*
X+317500Y+3048000D01*
X+317500Y+2667000D01*
X+381000Y+2603500D01*
X+952500Y+2603500D01*
X+508000Y+3365500D02*
X+508000Y+3111500D01*
X+571500Y+3048000D01*
X+952500Y+3048000D01*
X+952500Y+2095500D02*
X+1028700Y+2171700D01*
X+1028700Y+2336800D01*
X+952500Y+2413000D01*
X+330200Y+2413000D01*
X+266700Y+2476500D01*
X+266700Y+2794000D01*
X+63500Y+2997200D01*
X+63500Y+3302000D01*
X+254000Y+3492500D01*
X-762000Y+3683000D02*
X-508000Y+3683000D01*
X-571500Y+4191000D02*
X-190500Y+4191000D01*
X-127000Y+4254500D01*
X-127000Y+4889500D01*
X-571500Y+4191000D02*
X-1079500Y+4191000D01*
X-1143000Y+4254500D01*
X-1143000Y+4635500D01*
X-1206500Y+4699000D01*
X-1996500Y+4699000D01*
X-2060000Y+4635500D01*
X-2060000Y+4420000D01*
X-254000Y+3746500D02*
X-254000Y+3048000D01*
X-254000Y+3746500D02*
X-317500Y+3810000D01*
X-508000Y+3810000D01*
X+1778000Y+3302000D02*
X+1905000Y+3302000D01*
X-1587500Y+3175000D02*
X-1524000Y+3238500D01*
X-1206500Y+3238500D01*
X-1016000Y+3048000D01*
X-952500Y+3048000D01*
X-762000Y+2857500D01*
X-1651000Y+2286000D02*
X-1778000Y+2159000D01*
X-1778000Y+825500D01*
D13*
X-2330000Y+4420000D02*
X-2610000Y+4420000D01*
X-3370000Y+3660000D01*
D10*
X-1587500Y-698500D02*
X-1778000Y-508000D01*
X-1778000Y+825500D01*
D12*
X-1965000Y-2930000D02*
X-2114000Y-3079000D01*
X-2114000Y-3880000D01*
D15*
X-1460500Y-1143000D02*
X-1270000Y-1143000D01*
X-1016000Y-1397000D01*
D13*
X+53000Y+4268000D02*
X+193500Y+4127500D01*
X+444500Y+4127500D01*
X+508000Y+4191000D01*
D10*
X-1460500Y-1143000D02*
X-1460500Y-1016000D01*
X-1587500Y-889000D01*
D11*
X-3370000Y+3660000D02*
X-3370000Y+3426000D01*
X-3376000Y+3420000D01*
D10*
X-1587500Y-698500D02*
X-1587500Y-571500D01*
X-1524000Y-508000D01*
X-889000Y-508000D01*
X-698500Y-698500D01*
D15*
X-1079500Y-1778000D02*
X-1079500Y-2222500D01*
D13*
X+508000Y+4191000D02*
X+508000Y+4381500D01*
D10*
X-1587500Y-698500D02*
X-1587500Y-889000D01*
D12*
X-1606000Y-3880000D02*
X+1590000Y-3880000D01*
X+1617000Y-3853000D01*
D15*
X-1016000Y-1397000D02*
X-457200Y-1397000D01*
X-380000Y-1319800D01*
X-380000Y+191500D01*
X-317500Y+254000D01*
D14*
X-4150000Y+4360000D02*
X-4445000Y+4065000D01*
X-4445000Y+2730500D01*
X-4314500Y+2600000D01*
X-2480000Y+2600000D01*
X-1905000Y+3175000D01*
X-1587500Y+3175000D01*
D16*
X+3417000Y-3863000D02*
X+3417000Y-3215000D01*
X+3437000Y-3195000D01*
X+3427000Y-2577000D02*
X+3427000Y-3185000D01*
X+3437000Y-3195000D01*
D10*
X+370000Y+560000D02*
X+370000Y-180000D01*
X+640576Y-174514D01*
X+649541Y-174514D01*
X+655517Y-168538D01*
X+544842Y-723168D02*
X+883810Y-723168D01*
X+474168Y+596987D02*
X+474168Y+491729D01*
X+428774Y+446335D01*
X+428774Y-68786D01*
X+457948Y-97960D01*
X+449931Y-97960D01*
X+565210Y+663508D02*
X+565210Y+502724D01*
X+479609Y+417123D01*
X+479609Y+6104D01*
X+517649Y-31936D01*
X+527073Y-31936D01*
X+638407Y+753547D02*
X+641355Y+750599D01*
X+641355Y+473007D01*
X+530377Y+362029D01*
X+530377Y+106683D01*
X+586306Y+50754D01*
X+618446Y-469414D02*
X+848132Y-469414D01*
X+954152Y-575434D01*
X+960580Y-581862D01*
X+960580Y-757486D01*
X+894034Y-824032D01*
X+820866Y-824032D01*
X+597178Y-824032D01*
X+515648Y-905562D01*
X+515648Y-2083577D01*
X+564776Y-2132705D01*
X+666388Y-2450000D02*
X+666388Y-2651002D01*
X+537680Y-2779710D01*
X+537680Y-2820882D01*
X+572518Y-2855720D01*
X+638888Y+878033D02*
X+720897Y+796024D01*
X+720897Y+651040D01*
X+720897Y+453292D01*
X+597759Y+330154D01*
X+597759Y+179450D01*
X+648340Y+128869D01*
X+651220Y+128869D01*
X+732224Y+47865D01*
X+732224Y-229597D01*
X+726637Y-235184D01*
X+726637Y-412222D01*
X+727584Y-413169D01*
X+864504Y-413169D01*
X+1011374Y-560039D01*
X+1011374Y-778526D01*
X+915112Y-874788D01*
X+623014Y-874788D01*
X+566457Y-931345D01*
X+566457Y-952580D01*
X+566457Y-2014819D01*
X+666388Y-2114750D01*
X+666388Y-2152519D01*
X+666388Y-2450000D01*
X+736506Y+906357D02*
X+771744Y+871119D01*
X+771744Y+418642D01*
X+648522Y+295420D01*
X+648522Y+207896D01*
X+782990Y+73428D01*
X+782990Y-346884D01*
X+777466Y-352408D01*
X+787390Y-362332D01*
X+885555Y-362332D01*
X+1064508Y-541285D01*
X+1064508Y-797197D01*
X+936107Y-925598D01*
X+644134Y-925598D01*
X+617273Y-952459D01*
X+617273Y-1993933D01*
X+717057Y-2093717D01*
X+717057Y-2111664D01*
X+717175Y-2111782D01*
X+717175Y-3052958D01*
X+651331Y-3118802D01*
X+570085Y-3200048D01*
X+570085Y-3515409D01*
X+841984Y+916463D02*
X+822567Y+897046D01*
X+822567Y+397586D01*
X+728498Y+303517D01*
X+702951Y+277970D01*
X+702916Y+277970D01*
X+702916Y+225308D01*
X+833759Y+94465D01*
X+833759Y-283037D01*
X+834294Y-283572D01*
X+855844Y-305122D01*
X+900185Y-305122D01*
X+1115295Y-520232D01*
X+1115295Y-818122D01*
X+957007Y-976410D01*
X+673464Y-976410D01*
X+673464Y-1978232D01*
X+767975Y-2072743D01*
X+767975Y-2119346D01*
X+767975Y-3073995D01*
X+651835Y-3190135D01*
X+646291Y-3195679D01*
X+646291Y-3679004D01*
X+646499Y-3679212D01*
X+536063Y-3679212D01*
X+534981Y-3678130D01*
X+1007245Y+1025752D02*
X+919960Y+938467D01*
X+919960Y+886762D01*
X+873346Y+840148D01*
X+873346Y+376549D01*
X+765744Y+268947D01*
X+765744Y+234354D01*
X+967215Y+32883D01*
X+996335Y+32883D01*
X+1086093Y+958544D02*
X+924152Y+796603D01*
X+924152Y+348711D01*
X+900809Y+325368D01*
X+835157Y+259716D01*
X+835157Y+246586D01*
X+971228Y+110515D01*
X+1026399Y+110515D01*
X+1089977Y+46937D01*
X+1089977Y+17333D01*
X+1014069Y-58575D01*
X+884570Y-58575D01*
X+884570Y-253278D01*
X+884552Y-253296D01*
X+930906Y-253296D01*
X+1086094Y-408484D01*
X+1098652Y-395926D01*
X+1188967Y+910209D02*
X+975635Y+696877D01*
X+975635Y+303543D01*
X+958968Y+286876D01*
X+914511Y+242419D01*
X+914511Y+239086D01*
X+990054Y+163543D01*
X+1045634Y+163543D01*
X+1142301Y+66876D01*
X+1142301Y-2249D01*
X+1033997Y-110553D01*
X+935360Y-110553D01*
X+935360Y-185964D01*
X+991837Y-242441D01*
X+1068283Y-318887D01*
X+1171642Y-318887D01*
X+1204513Y-351758D01*
X+1204513Y-353807D01*
X+1217233Y-366527D01*
X+1217233Y-474607D01*
X+1199904Y-491936D01*
X+1208461Y-500493D01*
X+1208461Y-871540D01*
X+1131938Y-948063D01*
X+1134885Y-951010D01*
X+1274328Y+840704D02*
X+1222124Y+840704D01*
X+1026423Y+645003D01*
X+1026423Y+282443D01*
X+1002525Y+258545D01*
X+1002525Y+223134D01*
X+1011365Y+214294D01*
X+1069905Y+214294D01*
X+1193137Y+91062D01*
X+1193137Y-24535D01*
X+1056337Y-161335D01*
X+1005331Y-161335D01*
X+1005331Y-184102D01*
X+1080537Y-259308D01*
X+1089321Y-268092D01*
X+1192659Y-268092D01*
X+1270977Y-346410D01*
X+1270977Y-922610D01*
X+1161080Y-1032507D01*
X+724246Y-1032507D01*
X+724246Y-1855697D01*
X+724288Y-1855739D01*
X+903392Y-1855739D01*
X+904105Y-1855026D01*
X+2095500Y+3746500D02*
X+2105500Y+3746500D01*
X+2105500Y+2052000D01*
X+1359671Y+778112D02*
X+1174272Y+592713D01*
X+1077267Y+592713D01*
X+1077267Y+278706D01*
X+1243933Y+112040D01*
X+1243933Y-45632D01*
X+1106660Y-182905D01*
X+1106660Y-213589D01*
X+1110327Y-217256D01*
X+1213585Y-217256D01*
X+1321812Y-325483D01*
X+1321812Y-947437D01*
X+1185987Y-1083262D01*
X+780841Y-1083262D01*
X+780841Y-1798219D01*
X+783588Y-1800966D01*
X+844286Y-1800966D01*
X+867631Y-1777621D01*
X+940004Y-1777621D01*
X+984360Y-1821977D01*
X+984360Y-1917695D01*
X+975022Y-1927033D01*
X+930664Y-1927033D01*
X+818754Y-2038943D01*
X+818754Y-2521715D01*
X+827309Y-2530270D01*
X+869417Y-2530270D01*
X+1445885Y+720081D02*
X+1253975Y+528171D01*
X+1128052Y+528171D01*
X+1128052Y+299810D01*
X+1296710Y+131152D01*
X+1296710Y-64684D01*
X+1238653Y-122741D01*
X+1238653Y-162065D01*
X+1372573Y-295985D01*
X+1372573Y-968547D01*
X+1205520Y-1135600D01*
X+831624Y-1135600D01*
X+831624Y-1712742D01*
X+842199Y-1723317D01*
X+962114Y-1723317D01*
X+1038423Y-1799626D01*
X+1038423Y-1941342D01*
X+976296Y-2003469D01*
X+926128Y-2003469D01*
X+926128Y-2477937D01*
X+989757Y-2541566D01*
X+989757Y-2548029D01*
X+818812Y-2718974D01*
X+818812Y-3102354D01*
X+709135Y-3212031D01*
X+697286Y-3223880D01*
X+697286Y-3545884D01*
X+811026Y-3659624D01*
X+1441050Y+601049D02*
X+1290267Y+450266D01*
X+1178844Y+450266D01*
X+1178844Y+320895D01*
X+1199672Y+300067D01*
X+1347477Y+152262D01*
X+1347477Y-85765D01*
X+1292346Y-140896D01*
X+1423397Y-271947D01*
X+1423397Y-989499D01*
X+1233248Y-1179648D01*
X+1230729Y-1179648D01*
X+1212980Y-1197397D01*
X+882467Y-1197397D01*
X+882467Y-1666615D01*
X+882408Y-1666674D01*
X+979383Y-1666674D01*
X+1089266Y-1776557D01*
X+1089266Y-1920181D01*
X+1089266Y-1962202D01*
X+996725Y-2054743D01*
X+976935Y-2054743D01*
X+976935Y-2451623D01*
X+976886Y-2451672D01*
X+976886Y-2456915D01*
X+1040498Y-2520527D01*
X+1040498Y-2570638D01*
X+1008508Y-2602628D01*
X+869564Y-2741572D01*
X+869564Y-3115955D01*
X+867808Y-3117711D01*
X+878884Y-3128787D01*
X+926878Y-3128787D01*
X+930569Y-3128787D01*
X+1627000Y-2567000D02*
X+1750870Y-2567000D01*
X+1627000Y-2567000D02*
X+1627000Y-2496841D01*
D12*
X+1627000Y-2222500D01*
X+1637000Y-2212500D01*
X+1637000Y-1939000D01*
D13*
X+1963000Y+773000D02*
X+1963000Y+1764618D01*
X+2342624Y+2144242D01*
X+2342624Y+2955366D01*
X+2517258Y+3130000D01*
X+2643309Y+3130000D01*
X+2821226Y+3307917D01*
X+1963000Y+131000D02*
X+1963000Y+493661D01*
X+2080000Y+610661D01*
X+2080000Y+873454D01*
X+2062658Y+890796D01*
X+2062658Y+1726021D01*
X+2423063Y+2086426D01*
X+2423063Y+2915930D01*
X+2557133Y+3050000D01*
X+2703329Y+3050000D01*
X+2819699Y+3166370D01*
X+1963000Y-451000D02*
X+1963000Y-128902D01*
X+2070000Y-21902D01*
X+2070000Y+470080D01*
X+2180000Y+580080D01*
X+2180000Y+928068D01*
X+2167118Y+940950D01*
X+2167118Y+1688458D01*
X+2504413Y+2025753D01*
X+2504413Y+2879034D01*
X+2598152Y+2972773D01*
X+2747115Y+2972773D01*
X+2842404Y+3044065D01*
X+2874954Y+2893344D02*
X+2640906Y+2893344D01*
X+2583353Y+2835791D01*
X+2583353Y+1941803D01*
X+2257221Y+1615671D01*
X+2257221Y+971079D01*
X+2271501Y+956799D01*
X+2271501Y+547958D01*
X+2165136Y+441593D01*
X+2165136Y-91731D01*
X+2141258Y-115609D01*
X+2132336Y-115609D01*
X+2132336Y-877664D01*
X+1950000Y-1060000D01*
X+2803946Y+2795842D02*
X+2678355Y+2795842D01*
X+2668103Y+2785590D01*
X+2668103Y+1884276D01*
X+2350000Y+1566173D01*
X+2350000Y+483964D01*
X+2258461Y+392425D01*
X+2258461Y-192840D01*
X+2220628Y-230673D01*
X+2220628Y-1605372D01*
X+1887000Y-1939000D01*
X+1627000Y-2496841D02*
X+2343750Y-1780091D01*
X+2343750Y+341147D01*
X+2430000Y+427397D01*
X+2430000Y+1505454D01*
X+2820000Y+1860000D01*
X+2902313Y+2075638D01*
D10*
X+456766Y+1979175D02*
X+500667Y+1935274D01*
X+1988774Y+1935274D01*
X+2105500Y+2052000D01*
X-1270000Y+3720000D02*
X-1050000Y+3940000D01*
X+444500Y+3940000D01*
X+444500Y+3873500D01*
X+0Y+3429000D01*
X+0Y+2921000D01*
X+190500Y+2730500D01*
X-4180620Y-3192000D02*
X-4199407Y-3173213D01*
X-4199407Y-3170823D01*
X-4130000Y-3219380D02*
X-4150850Y-3219380D01*
X-4199407Y-3170823D01*
X-4180620Y-3192000D01*
D12*
X-4152000Y-3219380D02*
X-4150850Y-3219380D01*
X-4130000Y-3219380D02*
X-3724380Y-3219380D01*
X-3170000Y-2665000D01*
D10*
X-4172250Y+3897370D02*
X-4140190Y+3865310D01*
X-4140190Y+3849810D01*
D14*
X-2354000Y+2970000D02*
X-2530000Y+2794000D01*
X-3746500Y+2794000D01*
X-3810000Y+2857500D01*
X-3810000Y+3519620D01*
X-4140190Y+3849810D01*
X-4150000Y+3859620D01*
D10*
X-4172250Y+4397750D02*
X-4125000Y+4350500D01*
X-4125000Y+4335000D01*
D14*
X-4150000Y+4360000D02*
X-4125000Y+4335000D01*
X-3683000Y+3893000D01*
X-3683000Y+3727000D01*
X-3376000Y+3420000D01*
D10*
X+4024000Y-4029000D02*
X+4024000Y-4064000D01*
D16*
X+3417000Y-3863000D02*
X+3618000Y-4064000D01*
X+4024000Y-4064000D01*
X+4061000Y-4064000D01*
D10*
X+4057000Y-1257000D02*
X+4027000Y-1287000D01*
X+4023200Y-1287000D01*
D16*
X+3500000Y-1070000D02*
X+3717000Y-1287000D01*
X+4023200Y-1287000D01*
X+4027000Y-1287000D02*
X+4073000Y-1287000D01*
D10*
X+276499Y+2000507D02*
X+276499Y+2034399D01*
X+67158Y+2243740D01*
X+952500Y+2222500D02*
X+210000Y+2222500D01*
X+200000Y+2232000D01*
X+200000Y+2594000D01*
X+0Y+2794000D01*
X-381000Y+2794000D01*
X-444500Y+2857500D01*
X-444500Y+3429000D01*
X-508000Y+3492500D01*
X-1496500Y+3492500D01*
X-1560000Y+3556000D01*
X-1560000Y+4420000D01*
X+67158Y+2243740D02*
X+67158Y+2502924D01*
X+124976Y+2560742D01*
X+123884Y+2560742D01*
X+57290Y+1374253D02*
X+57290Y+1808057D01*
X+48315Y+1817032D01*
X+48315Y+2188009D01*
X+3439Y+2232885D01*
X+3439Y+2579929D01*
X+114134Y+1248599D02*
X+45324Y+1248599D01*
X-44429Y+1338352D01*
X-44429Y+2211943D01*
X-83322Y+2250836D01*
X-83322Y+2681649D01*
X-48061Y+2681649D01*
X-33537Y+2696173D01*
X+117377Y+1123735D02*
X+98440Y+1123735D01*
X-95261Y+1317436D01*
X-95261Y+2190886D01*
X-161873Y+2257498D01*
X-161873Y+2414327D01*
X-161873Y+2704947D01*
X-151661Y+2715159D01*
X+113012Y+996294D02*
X-146096Y+1255402D01*
X-146096Y+2162026D01*
X-146096Y+2168535D01*
X-251355Y+2273794D01*
X-251355Y+2618957D01*
X-249339Y+2620973D01*
X-358424Y+1184536D02*
X-358424Y+2296656D01*
X-486353Y+2424585D01*
X-718301Y+2424585D01*
X-747954Y+2454238D01*
X-1187535Y+2257783D02*
X-1187535Y+2094177D01*
X-1073358Y+1980000D01*
X-928158Y+1980000D01*
X-776473Y+1828315D01*
X-1651000Y+63500D02*
X-1651000Y-190500D01*
X-1541500Y-300000D01*
X-589000Y-300000D01*
X-571500Y-317500D01*
X-571500Y-825500D01*
X-698500Y-952500D01*
X-712013Y-222567D02*
X-712013Y-101247D01*
X-778195Y-35065D01*
X-778195Y+66502D01*
X-717611Y+127086D01*
X-700984Y+127086D01*
X-622829Y+3126517D02*
X-577473Y+3081161D01*
X-498590Y+3081161D01*
X-498590Y+2837095D01*
X-381959Y+2720464D01*
X-381959Y+2444001D01*
X-316083Y+2378125D01*
X-316083Y+2329528D01*
X-303123Y+2316568D01*
X-303123Y+1244835D01*
X-232153Y+1173865D01*
X-232153Y+197847D01*
X-280000Y+150000D01*
X+90500Y-320000D02*
X-201934Y-320000D01*
X-238445Y-283489D01*
X-1965000Y-2370000D02*
X-1690579Y-2370000D01*
X-1477164Y-2156585D01*
X-1446296Y-2156585D01*
D13*
X-1965000Y-2930000D02*
X-1965000Y-2370000D01*
X-1965000Y-1647500D01*
X-1460500Y-1143000D01*
D10*
X-1524000Y+2413000D02*
X-1524000Y+3111500D01*
X-1587500Y+3175000D01*
X-1461945Y+2374407D02*
X-1500538Y+2413000D01*
X-1524000Y+2413000D01*
X-1553500Y+2383500D01*
X-1651000Y+2286000D02*
X-1553500Y+2383500D01*
X-1472987Y+1851654D02*
X-1472987Y+2363365D01*
X-1461945Y+2374407D01*
X-2095500Y-2540000D02*
X-2095500Y+1143000D01*
X-1841500Y+1397000D01*
X-1841500Y+3048000D01*
X-522521Y+2320214D02*
X-571831Y+2369524D01*
X-1342732Y+2369524D01*
X-1454531Y+2481323D01*
X-1454531Y+3024313D01*
X-1444142Y+3034702D01*
X-1441114Y+3034702D01*
X-1308462Y+3408462D02*
X-1310000Y+3410000D01*
X-1520000Y+3410000D01*
X-1810000Y+3700000D01*
X-1810000Y+4420000D01*
X+1224000Y+3256000D02*
X+859219Y+3256000D01*
X+845423Y+3269796D01*
X+1224000Y+3256000D02*
X+1206500Y+3238500D01*
X+1206500Y+3111500D01*
X+1079500Y+2984500D01*
X+1079500Y+1990000D01*
X+820000Y+1990000D01*
X+810000Y+2000000D01*
X+810000Y+2080000D01*
X+380000Y+2080000D01*
X+380000Y+1840000D01*
X+127000Y+1841500D01*
X+1336986Y+3434158D02*
X+1336986Y+3361353D01*
X+1277633Y+3302000D01*
X+1270000Y+3302000D01*
X+1778000Y+3302000D02*
X+1277633Y+3302000D01*
X+1270000Y+3302000D02*
X+1224000Y+3256000D01*
X+796000Y+3460000D02*
X+796000Y+3466916D01*
X+1037046Y+3707962D01*
X+1209379Y+3707962D01*
D19*
X-571500Y+1841500D03*
X-3746500Y+1714500D03*
X-3492500Y-1206500D03*
X-3746500Y+254000D03*
X-3746500Y+825500D03*
X-3746500Y+1333500D03*
X-3492500Y-254000D03*
X-3492500Y-1714500D03*
X-1460500Y-635000D03*
X-698500Y-825500D03*
X-381000Y-1714500D03*
X-952500Y-1714500D03*
X-190500Y-63500D03*
X-571500Y-1587500D03*
X-2222500Y-2476500D03*
X-2222500Y+889000D03*
X-1460500Y+1397000D03*
X-825500Y+127000D03*
X-825500Y-127000D03*
X-1651000Y+1968500D03*
X-1333500Y+1841500D03*
X-698500Y+254000D03*
X-889000Y+1714500D03*
X-698500Y+0D03*
X-317500Y+444500D03*
X-317500Y+762000D03*
X-698500Y-1270000D03*
X-889000Y+1524000D03*
X-889000Y+1333500D03*
X-698500Y-1143000D03*
X-1270000Y-1270000D03*
X-1587500Y-2095500D03*
X+1651000Y+4191000D03*
X-1270000Y+2667000D03*
X+1016000Y+4000500D03*
X-1651000Y-381000D03*
X-1270000Y-1460500D03*
X-1968500Y+2921000D03*
X-2413000Y-1905000D03*
X-2413000Y-190500D03*
X-2032000Y+1905000D03*
X-1016000Y+2921000D03*
X-1968500Y+2286000D03*
X-825500Y-381000D03*
X-2413000Y+1333500D03*
X-2413000Y-1270000D03*
X-2413000Y-825500D03*
X-2413000Y+762000D03*
X-127000Y+2984500D03*
X-635000Y+2667000D03*
X-1333500Y+2984500D03*
X-635000Y+2540000D03*
X+1079500Y+3175000D03*
X+952500Y+2730500D03*
X+381000Y+3238500D03*
X+952500Y+2603500D03*
X+190500Y+3048000D03*
X+952500Y+3048000D03*
X+508000Y+3365500D03*
X+254000Y+3492500D03*
X+952500Y+2095500D03*
X-508000Y+3683000D03*
X-762000Y+3683000D03*
X-127000Y+4889500D03*
X-571500Y+4191000D03*
X-254000Y+3048000D03*
X-508000Y+3810000D03*
X+1905000Y+3302000D03*
X-762000Y+2857500D03*
X-1778000Y+825500D03*
X-698500Y-698500D03*
X-1079500Y-2222500D03*
X+508000Y+4381500D03*
X-1587500Y-698500D03*
X-1460500Y-1143000D03*
X-317500Y+254000D03*
X+370000Y+560000D03*
X+655517Y-168538D03*
X+474168Y+596987D03*
X+449931Y-97960D03*
X+544842Y-723168D03*
X+883810Y-723168D03*
X+565210Y+663508D03*
X+527073Y-31936D03*
X+638407Y+753547D03*
X+586306Y+50754D03*
X+618446Y-469414D03*
X+564776Y-2132705D03*
X+638888Y+878033D03*
X+572518Y-2855720D03*
X+736506Y+906357D03*
X+570085Y-3515409D03*
X+841984Y+916463D03*
X+534981Y-3678130D03*
X+1007245Y+1025752D03*
X+996335Y+32883D03*
X+1086093Y+958544D03*
X+1098652Y-395926D03*
X+1188967Y+910209D03*
X+1134885Y-951010D03*
X+1274328Y+840704D03*
X+904105Y-1855026D03*
X+2095500Y+3746500D03*
X+2105500Y+2052000D03*
X+1359671Y+778112D03*
X+869417Y-2530270D03*
X+1445885Y+720081D03*
X+811026Y-3659624D03*
X+1441050Y+601049D03*
X+930569Y-3128787D03*
X+2821226Y+3307917D03*
X+2819699Y+3166370D03*
X+2842404Y+3044065D03*
X+2874954Y+2893344D03*
X+2803946Y+2795842D03*
X+2902313Y+2075638D03*
X+456766Y+1979175D03*
X-1270000Y+3720000D03*
X+190500Y+2730500D03*
X+4030000Y-2020240D03*
X+1778000Y+3302000D03*
X+127000Y+1841500D03*
X+276499Y+2000507D03*
X+952500Y+2222500D03*
X+123884Y+2560742D03*
X+57290Y+1374253D03*
X+3439Y+2579929D03*
X+114134Y+1248599D03*
X-33537Y+2696173D03*
X+117377Y+1123735D03*
X-151661Y+2715159D03*
X+113012Y+996294D03*
X-249339Y+2620973D03*
X-358424Y+1184536D03*
X-747954Y+2454238D03*
X-776473Y+1828315D03*
X-1187535Y+2257783D03*
X-1651000Y+63500D03*
X-698500Y-952500D03*
X-712013Y-222567D03*
X-700984Y+127086D03*
X-622829Y+3126517D03*
X-280000Y+150000D03*
X-238445Y-283489D03*
X-1079500Y-1778000D03*
X-1446296Y-2156585D03*
X-1461945Y+2374407D03*
X-1472987Y+1851654D03*
X+90500Y-320000D03*
X-2095500Y-2540000D03*
X-1841500Y+3048000D03*
X-522521Y+2320214D03*
X-1441114Y+3034702D03*
X-1308462Y+3408462D03*
X+845423Y+3269796D03*
X+1336986Y+3434158D03*
X+1209379Y+3707962D03*
D70*
X+53000Y+4268000D03*
X+301920Y+4268000D03*
X+301920Y+4479780D03*
X+53000Y+4479780D03*
D71*
X-427000Y+4649780D03*
X+773000Y+4649780D03*
D23*
X-4179620Y+2369000D03*
X-4179620Y+1868620D03*
X-4179620Y+1368240D03*
X-4176620Y+846000D03*
X-4176620Y+345620D03*
X-4176620Y-154760D03*
X-4179620Y-677000D03*
X-4179620Y-1177380D03*
X-4179620Y-1677760D03*
X+4029000Y-3022000D03*
X+4029000Y-2521620D03*
X+4029000Y-2021240D03*
X+4066000Y-255000D03*
X+4066000Y+245380D03*
X+4066000Y+745760D03*
D24*
X+1617000Y-3853000D03*
X+1867000Y-3853000D03*
D25*
X+2917000Y-3863000D03*
X+3417000Y-3863000D03*
D24*
X+1637000Y-3185000D03*
X+1887000Y-3185000D03*
D25*
X+2937000Y-3195000D03*
X+3437000Y-3195000D03*
D24*
X+1627000Y-2567000D03*
X+1877000Y-2567000D03*
D25*
X+2927000Y-2577000D03*
X+3427000Y-2577000D03*
D24*
X+1637000Y-1939000D03*
X+1887000Y-1939000D03*
D25*
X+2937000Y-1949000D03*
X+3437000Y-1949000D03*
D24*
X+1700000Y-1060000D03*
X+1950000Y-1060000D03*
D25*
X+3000000Y-1070000D03*
X+3500000Y-1070000D03*
D24*
X+1713000Y-451000D03*
X+1963000Y-451000D03*
D25*
X+3013000Y-461000D03*
X+3513000Y-461000D03*
D24*
X+1713000Y+131000D03*
X+1963000Y+131000D03*
D25*
X+3013000Y+121000D03*
X+3513000Y+121000D03*
D24*
X+1713000Y+773000D03*
X+1963000Y+773000D03*
D25*
X+3013000Y+763000D03*
X+3513000Y+763000D03*
D23*
X+4024000Y-4029000D03*
X+4024000Y-3528620D03*
X+4057000Y-1257000D03*
X+4057000Y-756620D03*
X-4181620Y-2194000D03*
X-4181620Y-2694380D03*
X-4180620Y-3192000D03*
X-4180620Y-3692380D03*
D31*
X-950000Y+3250000D03*
X-950000Y+2742000D03*
D32*
X-3170000Y-3015000D03*
D33*
X-3170000Y-3015000D03*
D34*
X-3170000Y-2665000D03*
D35*
X-1965000Y-2930000D03*
D33*
X-1965000Y-2930000D03*
D36*
X-1715000Y-2930000D03*
D38*
X-2330000Y+4420000D03*
X-2060000Y+4420000D03*
X-1810000Y+4420000D03*
X-1560000Y+4420000D03*
X-1300000Y+4430000D03*
X-1030000Y+4430000D03*
D39*
X-1606000Y-3880000D03*
X-1860000Y-3880000D03*
X-2114000Y-3880000D03*
X-950000Y+2170000D03*
X-696000Y+2170000D03*
X+796000Y+3460000D03*
X+1050000Y+3460000D03*
D23*
X-4172250Y+4397750D03*
X-4172250Y+3897370D03*
X-4172250Y+3396990D03*
X-4172250Y+2896610D03*
D42*
X-3370000Y+2970000D03*
X-2354000Y+2970000D03*
X-3370000Y+3210000D03*
X-2354000Y+3210000D03*
X-3370000Y+3660000D03*
X-2354000Y+3660000D03*
X-2360000Y+3420000D03*
X-3376000Y+3420000D03*
D43*
X-5000000Y-5000000D02*
X+5000000Y-5000000D01*
X+5000000Y+5000000D01*
X-5000000Y+5000000D01*
X-5000000Y-5000000D01*
X+2520000Y-4830000D02*
X+2760000Y-4830000D01*
X+2760000Y+1340000D01*
X+2520000Y+1340000D01*
X+2520000Y-4830000D01*
M02*
