G04 PROTEUS RS274X GERBER FILE*
%FSLAX45Y45*%
%MOMM*%
G01*
%ADD24C,1.016000*%
%ADD42C,1.778000*%
%ADD49C,4.254000*%
%AMPPAD044*
4,1,36,
-1.143000,-0.317500,
-1.143000,0.317500,
-1.140470,0.343470,
-1.133200,0.367480,
-1.121650,0.389080,
-1.106290,0.407790,
-1.087570,0.423150,
-1.065980,0.434700,
-1.041970,0.441970,
-1.016000,0.444500,
1.016000,0.444500,
1.041970,0.441970,
1.065980,0.434700,
1.087570,0.423150,
1.106290,0.407790,
1.121650,0.389080,
1.133200,0.367480,
1.140470,0.343470,
1.143000,0.317500,
1.143000,-0.317500,
1.140470,-0.343470,
1.133200,-0.367480,
1.121650,-0.389080,
1.106290,-0.407790,
1.087570,-0.423150,
1.065980,-0.434700,
1.041970,-0.441970,
1.016000,-0.444500,
-1.016000,-0.444500,
-1.041970,-0.441970,
-1.065980,-0.434700,
-1.087570,-0.423150,
-1.106290,-0.407790,
-1.121650,-0.389080,
-1.133200,-0.367480,
-1.140470,-0.343470,
-1.143000,-0.317500,
0*%
%ADD50PPAD044*%
%AMPPAD045*
4,1,4,
-0.749300,-0.279400,
-0.749300,0.279400,
0.749300,0.279400,
0.749300,-0.279400,
-0.749300,-0.279400,
0*%
%ADD51PPAD045*%
%AMPPAD046*
4,1,4,
-0.279400,0.749300,
0.279400,0.749300,
0.279400,-0.749300,
-0.279400,-0.749300,
-0.279400,0.749300,
0*%
%ADD52PPAD046*%
%ADD53C,3.302000*%
%ADD54C,1.270000*%
%ADD55C,1.905000*%
%AMPPAD050*
4,1,36,
0.317500,-1.143000,
-0.317500,-1.143000,
-0.343470,-1.140470,
-0.367480,-1.133200,
-0.389080,-1.121650,
-0.407790,-1.106290,
-0.423150,-1.087570,
-0.434700,-1.065980,
-0.441970,-1.041970,
-0.444500,-1.016000,
-0.444500,1.016000,
-0.441970,1.041970,
-0.434700,1.065980,
-0.423150,1.087570,
-0.407790,1.106290,
-0.389080,1.121650,
-0.367480,1.133200,
-0.343470,1.140470,
-0.317500,1.143000,
0.317500,1.143000,
0.343470,1.140470,
0.367480,1.133200,
0.389080,1.121650,
0.407790,1.106290,
0.423150,1.087570,
0.434700,1.065980,
0.441970,1.041970,
0.444500,1.016000,
0.444500,-1.016000,
0.441970,-1.041970,
0.434700,-1.065980,
0.423150,-1.087570,
0.407790,-1.106290,
0.389080,-1.121650,
0.367480,-1.133200,
0.343470,-1.140470,
0.317500,-1.143000,
0*%
%ADD56PPAD050*%
%AMPPAD051*
4,1,4,
-0.901700,-0.571500,
-0.901700,0.571500,
0.901700,0.571500,
0.901700,-0.571500,
-0.901700,-0.571500,
0*%
%ADD57PPAD051*%
%AMPPAD052*
4,1,36,
0.508000,-0.889000,
-0.508000,-0.889000,
-0.533970,-0.886470,
-0.557980,-0.879200,
-0.579580,-0.867650,
-0.598290,-0.852290,
-0.613650,-0.833570,
-0.625200,-0.811980,
-0.632470,-0.787970,
-0.635000,-0.762000,
-0.635000,0.762000,
-0.632470,0.787970,
-0.625200,0.811980,
-0.613650,0.833570,
-0.598290,0.852290,
-0.579580,0.867650,
-0.557980,0.879200,
-0.533970,0.886470,
-0.508000,0.889000,
0.508000,0.889000,
0.533970,0.886470,
0.557980,0.879200,
0.579580,0.867650,
0.598290,0.852290,
0.613650,0.833570,
0.625200,0.811980,
0.632470,0.787970,
0.635000,0.762000,
0.635000,-0.762000,
0.632470,-0.787970,
0.625200,-0.811980,
0.613650,-0.833570,
0.598290,-0.852290,
0.579580,-0.867650,
0.557980,-0.879200,
0.533970,-0.886470,
0.508000,-0.889000,
0*%
%ADD58PPAD052*%
%AMPPAD053*
4,1,36,
0.889000,0.508000,
0.889000,-0.508000,
0.886470,-0.533970,
0.879200,-0.557980,
0.867650,-0.579580,
0.852290,-0.598290,
0.833570,-0.613650,
0.811980,-0.625200,
0.787970,-0.632470,
0.762000,-0.635000,
-0.762000,-0.635000,
-0.787970,-0.632470,
-0.811980,-0.625200,
-0.833570,-0.613650,
-0.852290,-0.598290,
-0.867650,-0.579580,
-0.879200,-0.557980,
-0.886470,-0.533970,
-0.889000,-0.508000,
-0.889000,0.508000,
-0.886470,0.533970,
-0.879200,0.557980,
-0.867650,0.579580,
-0.852290,0.598290,
-0.833570,0.613650,
-0.811980,0.625200,
-0.787970,0.632470,
-0.762000,0.635000,
0.762000,0.635000,
0.787970,0.632470,
0.811980,0.625200,
0.833570,0.613650,
0.852290,0.598290,
0.867650,0.579580,
0.879200,0.557980,
0.886470,0.533970,
0.889000,0.508000,
0*%
%ADD59PPAD053*%
%AMPPAD022*
4,1,36,
-0.977900,-0.012700,
-0.977900,0.012700,
-0.969310,0.100990,
-0.944590,0.182630,
-0.905320,0.256060,
-0.853080,0.319680,
-0.789460,0.371920,
-0.716030,0.411190,
-0.634390,0.435910,
-0.546100,0.444500,
0.546100,0.444500,
0.634390,0.435910,
0.716030,0.411190,
0.789460,0.371920,
0.853080,0.319680,
0.905320,0.256060,
0.944590,0.182630,
0.969310,0.100990,
0.977900,0.012700,
0.977900,-0.012700,
0.969310,-0.100990,
0.944590,-0.182630,
0.905320,-0.256060,
0.853080,-0.319680,
0.789460,-0.371920,
0.716030,-0.411190,
0.634390,-0.435910,
0.546100,-0.444500,
-0.546100,-0.444500,
-0.634390,-0.435910,
-0.716030,-0.411190,
-0.789460,-0.371920,
-0.853080,-0.319680,
-0.905320,-0.256060,
-0.944590,-0.182630,
-0.969310,-0.100990,
-0.977900,-0.012700,
0*%
%ADD72PPAD022*%
%AMPPAD054*
4,1,4,
-0.546100,0.876300,
0.546100,0.876300,
0.546100,-0.876300,
-0.546100,-0.876300,
-0.546100,0.876300,
0*%
%ADD60PPAD054*%
%AMPPAD055*
4,1,4,
-0.571500,0.901700,
0.571500,0.901700,
0.571500,-0.901700,
-0.571500,-0.901700,
-0.571500,0.901700,
0*%
%ADD61PPAD055*%
%ADD62C,2.286000*%
%AMPPAD057*
4,1,4,
-0.640000,-0.640000,
-0.640000,0.640000,
0.640000,0.640000,
0.640000,-0.640000,
-0.640000,-0.640000,
0*%
%ADD63PPAD057*%
%ADD34C,1.280000*%
%AMPPAD058*
4,1,4,
-0.560000,0.560000,
0.560000,0.560000,
0.560000,-0.560000,
-0.560000,-0.560000,
-0.560000,0.560000,
0*%
%ADD64PPAD058*%
%ADD36C,1.120000*%
%AMPPAD059*
4,1,4,
1.054100,1.054100,
1.054100,-1.054100,
-1.054100,-1.054100,
-1.054100,1.054100,
1.054100,1.054100,
0*%
%ADD65PPAD059*%
%AMPPAD060*
4,1,36,
1.016000,-1.143000,
-1.016000,-1.143000,
-1.041970,-1.140470,
-1.065980,-1.133200,
-1.087580,-1.121650,
-1.106290,-1.106290,
-1.121650,-1.087570,
-1.133200,-1.065980,
-1.140470,-1.041970,
-1.143000,-1.016000,
-1.143000,1.016000,
-1.140470,1.041970,
-1.133200,1.065980,
-1.121650,1.087570,
-1.106290,1.106290,
-1.087580,1.121650,
-1.065980,1.133200,
-1.041970,1.140470,
-1.016000,1.143000,
1.016000,1.143000,
1.041970,1.140470,
1.065980,1.133200,
1.087580,1.121650,
1.106290,1.106290,
1.121650,1.087570,
1.133200,1.065980,
1.140470,1.041970,
1.143000,1.016000,
1.143000,-1.016000,
1.140470,-1.041970,
1.133200,-1.065980,
1.121650,-1.087570,
1.106290,-1.106290,
1.087580,-1.121650,
1.065980,-1.133200,
1.041970,-1.140470,
1.016000,-1.143000,
0*%
%ADD66PPAD060*%
%AMPPAD061*
4,1,48,
-0.327800,-0.100000,
-0.327800,0.100000,
-0.326900,0.118480,
-0.324260,0.136350,
-0.319960,0.153540,
-0.306710,0.185550,
-0.287780,0.213850,
-0.263850,0.237780,
-0.235550,0.256700,
-0.203550,0.269960,
-0.186350,0.274260,
-0.168480,0.276900,
-0.150000,0.277800,
0.150000,0.277800,
0.168480,0.276900,
0.186350,0.274260,
0.203550,0.269960,
0.235550,0.256700,
0.263850,0.237780,
0.287780,0.213850,
0.306710,0.185550,
0.319960,0.153540,
0.324260,0.136350,
0.326900,0.118480,
0.327800,0.100000,
0.327800,-0.100000,
0.326900,-0.118480,
0.324260,-0.136350,
0.319960,-0.153540,
0.306710,-0.185550,
0.287780,-0.213850,
0.263850,-0.237780,
0.235550,-0.256700,
0.203550,-0.269960,
0.186350,-0.274260,
0.168480,-0.276900,
0.150000,-0.277800,
-0.150000,-0.277800,
-0.168480,-0.276900,
-0.186350,-0.274260,
-0.203550,-0.269960,
-0.235550,-0.256700,
-0.263850,-0.237780,
-0.287780,-0.213850,
-0.306710,-0.185550,
-0.319960,-0.153540,
-0.324260,-0.136350,
-0.326900,-0.118480,
-0.327800,-0.100000,
0*%
%ADD67PPAD061*%
%AMPPAD062*
4,1,36,
-0.500000,1.127000,
0.500000,1.127000,
0.525970,1.124470,
0.549980,1.117200,
0.571580,1.105650,
0.590290,1.090290,
0.605650,1.071570,
0.617200,1.049980,
0.624470,1.025970,
0.627000,1.000000,
0.627000,-1.000000,
0.624470,-1.025970,
0.617200,-1.049980,
0.605650,-1.071570,
0.590290,-1.090290,
0.571580,-1.105650,
0.549980,-1.117200,
0.525970,-1.124470,
0.500000,-1.127000,
-0.500000,-1.127000,
-0.525970,-1.124470,
-0.549980,-1.117200,
-0.571580,-1.105650,
-0.590290,-1.090290,
-0.605650,-1.071570,
-0.617200,-1.049980,
-0.624470,-1.025970,
-0.627000,-1.000000,
-0.627000,1.000000,
-0.624470,1.025970,
-0.617200,1.049980,
-0.605650,1.071570,
-0.590290,1.090290,
-0.571580,1.105650,
-0.549980,1.117200,
-0.525970,1.124470,
-0.500000,1.127000,
0*%
%ADD68PPAD062*%
%ADD31C,2.032000*%
%ADD43C,0.203200*%
D24*
X-571500Y+1841500D03*
X-3746500Y+1714500D03*
X-3492500Y-1206500D03*
X-3746500Y+254000D03*
X-3746500Y+825500D03*
X-3746500Y+1333500D03*
X-3492500Y-254000D03*
X-3492500Y-1714500D03*
X-1460500Y-635000D03*
X-698500Y-825500D03*
X-381000Y-1714500D03*
X-952500Y-1714500D03*
X-190500Y-63500D03*
X-571500Y-1587500D03*
X-2222500Y-2476500D03*
X-2222500Y+889000D03*
X-1460500Y+1397000D03*
X-825500Y+127000D03*
X-825500Y-127000D03*
X-1651000Y+1968500D03*
X-1333500Y+1841500D03*
X-698500Y+254000D03*
X-889000Y+1714500D03*
X-698500Y+0D03*
X-317500Y+444500D03*
X-317500Y+762000D03*
X-698500Y-1270000D03*
X-889000Y+1524000D03*
X-889000Y+1333500D03*
X-698500Y-1143000D03*
X-1270000Y-1270000D03*
X-1587500Y-2095500D03*
X+1651000Y+4191000D03*
X-1270000Y+2667000D03*
X+1016000Y+4000500D03*
X-1651000Y-381000D03*
X-1270000Y-1460500D03*
X-1968500Y+2921000D03*
X-2413000Y-1905000D03*
X-2413000Y-190500D03*
X-2032000Y+1905000D03*
X-1016000Y+2921000D03*
X-1968500Y+2286000D03*
X-825500Y-381000D03*
X-2413000Y+1333500D03*
X-2413000Y-1270000D03*
X-2413000Y-825500D03*
X-2413000Y+762000D03*
X-127000Y+2984500D03*
X-635000Y+2667000D03*
X-1333500Y+2984500D03*
X-635000Y+2540000D03*
X+1079500Y+3175000D03*
X+952500Y+2730500D03*
X+381000Y+3238500D03*
X+952500Y+2603500D03*
X+190500Y+3048000D03*
X+952500Y+3048000D03*
X+508000Y+3365500D03*
X+254000Y+3492500D03*
X+952500Y+2095500D03*
X-508000Y+3683000D03*
X-762000Y+3683000D03*
X-127000Y+4889500D03*
X-571500Y+4191000D03*
X-254000Y+3048000D03*
X-508000Y+3810000D03*
X+1905000Y+3302000D03*
X-762000Y+2857500D03*
X-1778000Y+825500D03*
X-698500Y-698500D03*
X-1079500Y-2222500D03*
X+508000Y+4381500D03*
X-1587500Y-698500D03*
X-1460500Y-1143000D03*
X-317500Y+254000D03*
X+370000Y+560000D03*
X+655517Y-168538D03*
X+474168Y+596987D03*
X+449931Y-97960D03*
X+544842Y-723168D03*
X+883810Y-723168D03*
X+565210Y+663508D03*
X+527073Y-31936D03*
X+638407Y+753547D03*
X+586306Y+50754D03*
X+618446Y-469414D03*
X+564776Y-2132705D03*
X+638888Y+878033D03*
X+572518Y-2855720D03*
X+736506Y+906357D03*
X+570085Y-3515409D03*
X+841984Y+916463D03*
X+534981Y-3678130D03*
X+1007245Y+1025752D03*
X+996335Y+32883D03*
X+1086093Y+958544D03*
X+1098652Y-395926D03*
X+1188967Y+910209D03*
X+1134885Y-951010D03*
X+1274328Y+840704D03*
X+904105Y-1855026D03*
X+2095500Y+3746500D03*
X+2105500Y+2052000D03*
X+1359671Y+778112D03*
X+869417Y-2530270D03*
X+1445885Y+720081D03*
X+811026Y-3659624D03*
X+1441050Y+601049D03*
X+930569Y-3128787D03*
X+2821226Y+3307917D03*
X+2819699Y+3166370D03*
X+2842404Y+3044065D03*
X+2874954Y+2893344D03*
X+2803946Y+2795842D03*
X+2902313Y+2075638D03*
X+456766Y+1979175D03*
X-1270000Y+3720000D03*
X+190500Y+2730500D03*
X+4030000Y-2020240D03*
X+1778000Y+3302000D03*
X+127000Y+1841500D03*
X+276499Y+2000507D03*
X+952500Y+2222500D03*
X+123884Y+2560742D03*
X+57290Y+1374253D03*
X+3439Y+2579929D03*
X+114134Y+1248599D03*
X-33537Y+2696173D03*
X+117377Y+1123735D03*
X-151661Y+2715159D03*
X+113012Y+996294D03*
X-249339Y+2620973D03*
X-358424Y+1184536D03*
X-747954Y+2454238D03*
X-776473Y+1828315D03*
X-1187535Y+2257783D03*
X-1651000Y+63500D03*
X-698500Y-952500D03*
X-712013Y-222567D03*
X-700984Y+127086D03*
X-622829Y+3126517D03*
X-280000Y+150000D03*
X-238445Y-283489D03*
X-1079500Y-1778000D03*
X-1446296Y-2156585D03*
X-1461945Y+2374407D03*
X-1472987Y+1851654D03*
X+90500Y-320000D03*
X-2095500Y-2540000D03*
X-1841500Y+3048000D03*
X-522521Y+2320214D03*
X-1441114Y+3034702D03*
X-1308462Y+3408462D03*
X+845423Y+3269796D03*
X+1336986Y+3434158D03*
X+1209379Y+3707962D03*
D42*
X+53000Y+4268000D03*
X+301920Y+4268000D03*
X+301920Y+4479780D03*
X+53000Y+4479780D03*
D49*
X-427000Y+4649780D03*
X+773000Y+4649780D03*
D50*
X-1051350Y-680000D03*
X-1051350Y-807000D03*
X-1051350Y-934000D03*
X-1051350Y-1061000D03*
X-1051350Y-1188000D03*
X-1051350Y-1315000D03*
X-1051350Y-1442000D03*
X-530650Y-1442000D03*
X-530650Y-1315000D03*
X-530650Y-1188000D03*
X-530650Y-1061000D03*
X-530650Y-934000D03*
X-530650Y-807000D03*
X-530650Y-680000D03*
X-1041350Y+356000D03*
X-1041350Y+229000D03*
X-1041350Y+102000D03*
X-1041350Y-25000D03*
X-1041350Y-152000D03*
X-1041350Y-279000D03*
X-1041350Y-406000D03*
X-520650Y-406000D03*
X-520650Y-279000D03*
X-520650Y-152000D03*
X-520650Y-25000D03*
X-520650Y+102000D03*
X-520650Y+229000D03*
X-520650Y+356000D03*
D51*
X-463000Y+3087000D03*
X-463000Y+3007000D03*
X-463000Y+2927000D03*
X-463000Y+2847000D03*
X-463000Y+2767000D03*
X-463000Y+2687000D03*
X-463000Y+2607000D03*
X-463000Y+2527000D03*
D52*
X-323000Y+2387000D03*
X-243000Y+2387000D03*
X-163000Y+2387000D03*
X-83000Y+2387000D03*
X-3000Y+2387000D03*
X+77000Y+2387000D03*
X+157000Y+2387000D03*
X+237000Y+2387000D03*
D51*
X+377000Y+2527000D03*
X+377000Y+2607000D03*
X+377000Y+2687000D03*
X+377000Y+2767000D03*
X+377000Y+2847000D03*
X+377000Y+2927000D03*
X+377000Y+3007000D03*
X+377000Y+3087000D03*
D52*
X+237000Y+3227000D03*
X+157000Y+3227000D03*
X+77000Y+3227000D03*
X-3000Y+3227000D03*
X-83000Y+3227000D03*
X-163000Y+3227000D03*
X-243000Y+3227000D03*
X-323000Y+3227000D03*
D50*
X-1057200Y+1886500D03*
X-1057200Y+1759500D03*
X-1057200Y+1632500D03*
X-1057200Y+1505500D03*
X-1057200Y+1378500D03*
X-1057200Y+1251500D03*
X-1057200Y+1124500D03*
X-1057200Y+997500D03*
X-1057200Y+870500D03*
X-1057200Y+743500D03*
X-142800Y+743500D03*
X-142800Y+870500D03*
X-142800Y+997500D03*
X-142800Y+1124500D03*
X-142800Y+1251500D03*
X-142800Y+1378500D03*
X-142800Y+1505500D03*
X-142800Y+1632500D03*
X-142800Y+1759500D03*
X-142800Y+1886500D03*
X+731800Y+3210500D03*
X+731800Y+3083500D03*
X+731800Y+2956500D03*
X+731800Y+2829500D03*
X+731800Y+2702500D03*
X+731800Y+2575500D03*
X+731800Y+2448500D03*
X+731800Y+2321500D03*
X+731800Y+2194500D03*
X+731800Y+2067500D03*
X+1646200Y+2067500D03*
X+1646200Y+2194500D03*
X+1646200Y+2321500D03*
X+1646200Y+2448500D03*
X+1646200Y+2575500D03*
X+1646200Y+2702500D03*
X+1646200Y+2829500D03*
X+1646200Y+2956500D03*
X+1646200Y+3083500D03*
X+1646200Y+3210500D03*
X+2155800Y+3202000D03*
X+2155800Y+3075000D03*
X+2155800Y+2948000D03*
X+2155800Y+2821000D03*
X+2155800Y+2694000D03*
X+2155800Y+2567000D03*
X+2155800Y+2440000D03*
X+2155800Y+2313000D03*
X+2155800Y+2186000D03*
X+3070200Y+2186000D03*
X+3070200Y+2313000D03*
X+3070200Y+2440000D03*
X+3070200Y+2567000D03*
X+3070200Y+2694000D03*
X+3070200Y+2821000D03*
X+3070200Y+2948000D03*
X+3070200Y+3075000D03*
X+3070200Y+3202000D03*
D53*
X-4179620Y+2369000D03*
X-4179620Y+1868620D03*
X-4179620Y+1368240D03*
X-4176620Y+846000D03*
X-4176620Y+345620D03*
X-4176620Y-154760D03*
X-4179620Y-677000D03*
X-4179620Y-1177380D03*
X-4179620Y-1677760D03*
X+4029000Y-3022000D03*
X+4029000Y-2521620D03*
X+4029000Y-2021240D03*
X+4066000Y-255000D03*
X+4066000Y+245380D03*
X+4066000Y+745760D03*
D54*
X+1617000Y-3853000D03*
X+1867000Y-3853000D03*
D55*
X+2917000Y-3863000D03*
X+3417000Y-3863000D03*
D54*
X+1637000Y-3185000D03*
X+1887000Y-3185000D03*
D55*
X+2937000Y-3195000D03*
X+3437000Y-3195000D03*
D54*
X+1627000Y-2567000D03*
X+1877000Y-2567000D03*
D55*
X+2927000Y-2577000D03*
X+3427000Y-2577000D03*
D54*
X+1637000Y-1939000D03*
X+1887000Y-1939000D03*
D55*
X+2937000Y-1949000D03*
X+3437000Y-1949000D03*
D54*
X+1700000Y-1060000D03*
X+1950000Y-1060000D03*
D55*
X+3000000Y-1070000D03*
X+3500000Y-1070000D03*
D54*
X+1713000Y-451000D03*
X+1963000Y-451000D03*
D55*
X+3013000Y-461000D03*
X+3513000Y-461000D03*
D54*
X+1713000Y+131000D03*
X+1963000Y+131000D03*
D55*
X+3013000Y+121000D03*
X+3513000Y+121000D03*
D54*
X+1713000Y+773000D03*
X+1963000Y+773000D03*
D55*
X+3013000Y+763000D03*
X+3513000Y+763000D03*
D53*
X+4024000Y-4029000D03*
X+4024000Y-3528620D03*
X+4057000Y-1257000D03*
X+4057000Y-756620D03*
X-4181620Y-2194000D03*
X-4181620Y-2694380D03*
X-4180620Y-3192000D03*
X-4180620Y-3692380D03*
D56*
X+1163500Y+4029650D03*
X+1290500Y+4029650D03*
X+1417500Y+4029650D03*
X+1544500Y+4029650D03*
X+1671500Y+4029650D03*
X+1798500Y+4029650D03*
X+1925500Y+4029650D03*
X+2052500Y+4029650D03*
X+2052500Y+4550350D03*
X+1925500Y+4550350D03*
X+1798500Y+4550350D03*
X+1671500Y+4550350D03*
X+1544500Y+4550350D03*
X+1417500Y+4550350D03*
X+1290500Y+4550350D03*
X+1163500Y+4550350D03*
D57*
X-1820000Y-2240000D03*
X-1820000Y-1940000D03*
X-1820000Y-1760000D03*
X-1820000Y-1460000D03*
X-1820000Y-1280000D03*
X-1820000Y-980000D03*
X-1820000Y-798000D03*
X-1820000Y-498000D03*
X-1824000Y-314000D03*
X-1824000Y-14000D03*
X-1828000Y+164000D03*
X-1828000Y+464000D03*
X-1825000Y+686000D03*
X-1825000Y+986000D03*
X-1821000Y+1262000D03*
X-1821000Y+1562000D03*
X-1820000Y+1760000D03*
X-1820000Y+2060000D03*
X-1814000Y+2278000D03*
X-1814000Y+2578000D03*
D58*
X-72000Y+3815000D03*
X-386960Y+3815000D03*
X-75040Y+3620000D03*
X-390000Y+3620000D03*
X-434960Y+2110000D03*
X-120000Y+2110000D03*
X+1584960Y+3440000D03*
X+1270000Y+3440000D03*
D59*
X-1455000Y-1935000D03*
X-1455000Y-2249960D03*
X-1457000Y-1450000D03*
X-1457000Y-1764960D03*
X-1460000Y-975040D03*
X-1460000Y-1290000D03*
X-1466000Y-497000D03*
X-1466000Y-811960D03*
X-1466000Y-23000D03*
X-1466000Y-337960D03*
X-1479000Y+484000D03*
X-1479000Y+169040D03*
X-1481000Y+1013000D03*
X-1481000Y+698040D03*
X-1475000Y+1563000D03*
X-1475000Y+1248040D03*
X-1470000Y+2074960D03*
X-1470000Y+1760000D03*
X-1463000Y+2602000D03*
X-1463000Y+2287040D03*
D72*
X-2767000Y-1970000D03*
X-2767000Y-2220000D03*
X-2197000Y-2220000D03*
X-2197000Y-1970000D03*
D60*
X-3330000Y-2230000D03*
X-3630000Y-2230000D03*
D58*
X-3345040Y-1990000D03*
X-3660000Y-1990000D03*
D72*
X-2770000Y-1497000D03*
X-2770000Y-1747000D03*
X-2200000Y-1747000D03*
X-2200000Y-1497000D03*
D60*
X-3331000Y-1724000D03*
X-3631000Y-1724000D03*
D58*
X-3330000Y-1497000D03*
X-3644960Y-1497000D03*
D72*
X-2766000Y-1024000D03*
X-2766000Y-1274000D03*
X-2196000Y-1274000D03*
X-2196000Y-1024000D03*
D60*
X-3330000Y-1250000D03*
X-3630000Y-1250000D03*
D58*
X-3345000Y-1045000D03*
X-3659960Y-1045000D03*
D72*
X-2766000Y-546000D03*
X-2766000Y-796000D03*
X-2196000Y-796000D03*
X-2196000Y-546000D03*
D60*
X-3317000Y-738000D03*
X-3617000Y-738000D03*
D58*
X-3330000Y-530000D03*
X-3644960Y-530000D03*
D72*
X-2770000Y-61000D03*
X-2770000Y-311000D03*
X-2200000Y-311000D03*
X-2200000Y-61000D03*
D60*
X-3315000Y-235000D03*
X-3615000Y-235000D03*
D58*
X-3337000Y-25000D03*
X-3651960Y-25000D03*
D72*
X-2772000Y+500000D03*
X-2772000Y+250000D03*
X-2202000Y+250000D03*
X-2202000Y+500000D03*
D60*
X-3316000Y+302000D03*
X-3616000Y+302000D03*
D58*
X-3319000Y+515000D03*
X-3633960Y+515000D03*
D72*
X-2775000Y+1012000D03*
X-2775000Y+762000D03*
X-2205000Y+762000D03*
X-2205000Y+1012000D03*
D60*
X-3311000Y+802000D03*
X-3611000Y+802000D03*
D58*
X-3356000Y+1025000D03*
X-3670960Y+1025000D03*
D72*
X-2782000Y+1572000D03*
X-2782000Y+1322000D03*
X-2212000Y+1322000D03*
X-2212000Y+1572000D03*
D60*
X-3321000Y+1351000D03*
X-3621000Y+1351000D03*
D58*
X-3343000Y+1572000D03*
X-3657960Y+1572000D03*
D72*
X-2786000Y+2054000D03*
X-2786000Y+1804000D03*
X-2216000Y+1804000D03*
X-2216000Y+2054000D03*
D60*
X-3308000Y+1901000D03*
X-3608000Y+1901000D03*
D58*
X-3325000Y+2123000D03*
X-3639960Y+2123000D03*
D72*
X-2762000Y+2584000D03*
X-2762000Y+2334000D03*
X-2192000Y+2334000D03*
X-2192000Y+2584000D03*
D60*
X-3288000Y+2432000D03*
X-3588000Y+2432000D03*
D58*
X-3293000Y+2665000D03*
X-3607960Y+2665000D03*
D60*
X+683000Y-3881000D03*
X+983000Y-3881000D03*
D58*
X+678000Y-4132000D03*
X+992960Y-4132000D03*
D60*
X+693000Y-3274000D03*
X+993000Y-3274000D03*
D58*
X+686000Y-3495000D03*
X+1000960Y-3495000D03*
D60*
X+673000Y-2625000D03*
X+973000Y-2625000D03*
D58*
X+673000Y-2855000D03*
X+987960Y-2855000D03*
D60*
X+691000Y-1964000D03*
X+991000Y-1964000D03*
D58*
X+683000Y-2185000D03*
X+997960Y-2185000D03*
D60*
X+733000Y-1085000D03*
X+1033000Y-1085000D03*
D58*
X+723000Y-1325000D03*
X+1037960Y-1325000D03*
D60*
X+798000Y-521000D03*
X+1098000Y-521000D03*
D58*
X+773000Y-735000D03*
X+1087960Y-735000D03*
D60*
X+784000Y+47000D03*
X+1084000Y+47000D03*
D58*
X+778000Y-172000D03*
X+1092960Y-172000D03*
D60*
X+798000Y+710000D03*
X+1098000Y+710000D03*
D58*
X+778000Y+458000D03*
X+1092960Y+458000D03*
D61*
X-1650000Y+3190000D03*
X-1350000Y+3190000D03*
D62*
X-950000Y+3250000D03*
X-950000Y+2742000D03*
D61*
X-1650000Y+2820000D03*
X-1350000Y+2820000D03*
D63*
X-3170000Y-3015000D03*
D34*
X-3170000Y-2665000D03*
D57*
X-2450000Y-2990000D03*
X-2450000Y-2690000D03*
D64*
X-1965000Y-2930000D03*
D36*
X-1715000Y-2930000D03*
D61*
X-1840000Y-3420000D03*
X-2140000Y-3420000D03*
D65*
X-3580000Y-3520000D03*
X-3130000Y-3520000D03*
D55*
X-2330000Y+4420000D03*
X-2060000Y+4420000D03*
X-1810000Y+4420000D03*
X-1560000Y+4420000D03*
X-1300000Y+4430000D03*
X-1030000Y+4430000D03*
D60*
X-3230000Y-4310000D03*
X-3530000Y-4310000D03*
D58*
X-3220000Y-4050000D03*
X-3534960Y-4050000D03*
D66*
X-1606000Y-3880000D03*
X-1860000Y-3880000D03*
X-2114000Y-3880000D03*
D67*
X-2568700Y-4781720D03*
X-1178700Y-4781720D03*
D66*
X-950000Y+2170000D03*
X-696000Y+2170000D03*
X+796000Y+3460000D03*
X+1050000Y+3460000D03*
D58*
X+2960000Y+3670000D03*
X+2645040Y+3670000D03*
D68*
X+2690000Y+4510000D03*
X+2690000Y+3970000D03*
X+3090000Y+3970000D03*
X+3090000Y+4510000D03*
D57*
X+2270000Y+4460000D03*
X+2270000Y+4160000D03*
D61*
X+1320000Y+3700000D03*
X+1620000Y+3700000D03*
D53*
X-4172250Y+4397750D03*
X-4172250Y+3897370D03*
X-4172250Y+3396990D03*
X-4172250Y+2896610D03*
D31*
X-3370000Y+2970000D03*
X-2354000Y+2970000D03*
X-3370000Y+3210000D03*
X-2354000Y+3210000D03*
X-3370000Y+3660000D03*
X-2354000Y+3660000D03*
X-2360000Y+3420000D03*
X-3376000Y+3420000D03*
D43*
X-5000000Y-5000000D02*
X+5000000Y-5000000D01*
X+5000000Y+5000000D01*
X-5000000Y+5000000D01*
X-5000000Y-5000000D01*
X+2520000Y-4830000D02*
X+2760000Y-4830000D01*
X+2760000Y+1340000D01*
X+2520000Y+1340000D01*
X+2520000Y-4830000D01*
M02*
