M48
METRIC,TZ
T01C0.3810
T02C0.8890
T03C3.0000
T04C1.5240
T05C0.6350
T06C0.9140
T07C0.7620
T08C0.8500
T09C0.7500
T10C1.0160
T11C3.6000
%
T01
X-5715Y+18415
X-37465Y+17145
X-34925Y-12065
X-37465Y+2540
X-37465Y+8255
X-37465Y+13335
X-34925Y-2540
X-34925Y-17145
X-14605Y-6350
X-6985Y-8255
X-3810Y-17145
X-9525Y-17145
X-1905Y-635
X-5715Y-15875
X-22225Y-24765
X-22225Y+8890
X-14605Y+13970
X-8255Y+1270
X-8255Y-1270
X-16510Y+19685
X-13335Y+18415
X-6985Y+2540
X-8890Y+17145
X-6985Y+0
X-3175Y+4445
X-3175Y+7620
X-6985Y-12700
X-8890Y+15240
X-8890Y+13335
X-6985Y-11430
X-12700Y-12700
X-15875Y-20955
X+16510Y+41910
X-12700Y+26670
X+10160Y+40005
X-16510Y-3810
X-12700Y-14605
X-19685Y+29210
X-24130Y-19050
X-24130Y-1905
X-20320Y+19050
X-10160Y+29210
X-19685Y+22860
X-8255Y-3810
X-24130Y+13335
X-24130Y-12700
X-24130Y-8255
X-24130Y+7620
X-1270Y+29845
X-6350Y+26670
X-13335Y+29845
X-6350Y+25400
X+10795Y+31750
X+9525Y+27305
X+3810Y+32385
X+9525Y+26035
X+1905Y+30480
X+9525Y+30480
X+5080Y+33655
X+2540Y+34925
X+9525Y+20955
X-5080Y+36830
X-7620Y+36830
X-1270Y+48895
X-5715Y+41910
X-2540Y+30480
X-5080Y+38100
X+19050Y+33020
X-7620Y+28575
X-17780Y+8255
X-6985Y-6985
X-10795Y-22225
X+5080Y+43815
X-15875Y-6985
X-14605Y-11430
X-3175Y+2540
X+3700Y+5600
X+6555Y-1685
X+4742Y+5970
X+4499Y-980
X+5448Y-7232
X+8838Y-7232
X+5652Y+6635
X+5271Y-319
X+6384Y+7535
X+5863Y+508
X+6184Y-4694
X+5648Y-21327
X+6389Y+8780
X+5725Y-28557
X+7365Y+9064
X+5701Y-35154
X+8420Y+9165
X+5350Y-36781
X+10072Y+10258
X+9963Y+329
X+10861Y+9585
X+10987Y-3959
X+11890Y+9102
X+11349Y-9510
X+12743Y+8407
X+9041Y-18550
X+20955Y+37465
X+21055Y+20520
X+13597Y+7781
X+8694Y-25303
X+14459Y+7201
X+8110Y-36596
X+14410Y+6010
X+9306Y-31288
X+28212Y+33079
X+28197Y+31664
X+28424Y+30441
X+28750Y+28933
X+28039Y+27958
X+29023Y+20756
X+4568Y+19792
X-12700Y+37200
X+1905Y+27305
X+40300Y-20202
X+17780Y+33020
X+1270Y+18415
X+2765Y+20005
X+9525Y+22225
X+1239Y+25607
X+573Y+13743
X+34Y+25799
X+1141Y+12486
X-335Y+26962
X+1174Y+11237
X-1517Y+27152
X+1130Y+9963
X-2493Y+26210
X-3584Y+11845
X-7480Y+24542
X-7765Y+18283
X-11875Y+22578
X-16510Y+635
X-6985Y-9525
X-7120Y-2226
X-7010Y+1271
X-6228Y+31265
X-2800Y+1500
X-2384Y-2835
X-10795Y-17780
X-14463Y-21566
X-14619Y+23744
X-14730Y+18517
X+905Y-3200
X-20955Y-25400
X-18415Y+30480
X-5225Y+23202
X-14411Y+30347
X-13085Y+34085
X+8454Y+32698
X+13370Y+34342
X+12094Y+37080
T02
X+530Y+42680
X+3019Y+42680
X+3019Y+44798
X+530Y+44798
X-23300Y+44200
X-20600Y+44200
X-18100Y+44200
X-15600Y+44200
X-13000Y+44300
X-10300Y+44300
T03
X-4270Y+46498
X+7730Y+46498
T04
X-41796Y+23690
X-41796Y+18686
X-41796Y+13682
X-41766Y+8460
X-41766Y+3456
X-41766Y-1548
X-41796Y-6770
X-41796Y-11774
X-41796Y-16778
X+40290Y-30220
X+40290Y-25216
X+40290Y-20212
X+40660Y-2550
X+40660Y+2454
X+40660Y+7458
X+40240Y-40290
X+40240Y-35286
X+40570Y-12570
X+40570Y-7566
X-41816Y-21940
X-41816Y-26944
X-41806Y-31920
X-41806Y-36924
X-41722Y+43978
X-41722Y+38974
X-41722Y+33970
X-41722Y+28966
T05
X+16170Y-38530
X+18670Y-38530
X+16370Y-31850
X+18870Y-31850
X+16270Y-25670
X+18770Y-25670
X+16370Y-19390
X+18870Y-19390
X+17000Y-10600
X+19500Y-10600
X+17130Y-4510
X+19630Y-4510
X+17130Y+1310
X+19630Y+1310
X+17130Y+7730
X+19630Y+7730
T06
X+29170Y-38630
X+34170Y-38630
X+29370Y-31950
X+34370Y-31950
X+29270Y-25770
X+34270Y-25770
X+29370Y-19490
X+34370Y-19490
X+30000Y-10700
X+35000Y-10700
X+30130Y-4610
X+35130Y-4610
X+30130Y+1210
X+35130Y+1210
X+30130Y+7630
X+35130Y+7630
T07
X-9500Y+32500
X-9500Y+27420
X-33700Y+29700
X-23540Y+29700
X-33700Y+32100
X-23540Y+32100
X-33700Y+36600
X-23540Y+36600
X-23600Y+34200
X-33760Y+34200
T08
X-31700Y-30150
X-31700Y-26650
T09
X-19650Y-29300
X-17150Y-29300
T10
X-16060Y-38800
X-18600Y-38800
X-21140Y-38800
X-9500Y+21700
X-6960Y+21700
X+7960Y+34600
X+10500Y+34600
T11
X+45987Y+46041
X-46813Y-46859
X+46687Y-47059
M30
